<svg width="313" height="83" viewBox="0 0 313 83" fill="none" xmlns="http://www.w3.org/2000/svg">
<path d="M41.5885 81.8879H57.1563L35.5677 47.3462C43.2969 45.1847 53.0677 39.617 53.0677 25.5285C53.0677 2.34619 26.4792 2.34619 26.4792 2.34619H0V15.6431L12.6146 35.5285H0V81.8879H13.2969V48.7108H20.9115L41.5885 81.8879ZM28.1823 35.4139L15.7969 15.6431H26.4792C26.4792 15.6431 39.7708 15.6431 39.7708 25.5285C39.7708 33.367 31.7031 35.0702 28.1823 35.4139Z" fill="#1A4159"/>
<path d="M282.782 60.0938C299.308 60.0938 312.829 46.5729 312.829 30.0469C312.829 13.5208 299.308 0 282.782 0C266.256 0 252.741 13.5208 252.741 30.0469C252.741 46.5729 266.256 60.0938 282.782 60.0938ZM282.782 13.4063C292.027 13.4063 299.423 20.8021 299.423 30.0469C299.423 39.2917 292.027 46.6875 282.782 46.6875C273.538 46.6875 266.142 39.2917 266.142 30.0469C266.142 20.8021 273.538 13.4063 282.782 13.4063ZM309.131 82.0469V68.6406H255.741V82.0469H309.131Z" fill="#1A4159"/>
<path d="M144.911 16.9211L134.464 46.0773L118.943 2.69189C118.844 2.29606 118.448 2.09814 117.948 2.09814H104.417C103.62 2.09814 103.224 2.6919 103.521 3.29085L133.469 81.1971C133.87 81.895 135.063 81.895 135.359 81.1971L160.234 16.9211H144.911Z" fill="#FDFCF8"/>
<path d="M195.56 68.0669H187.601V2.09814H172.377V68.0669H164.216C163.622 68.0669 163.122 68.4627 163.122 68.9627V80.8013C163.122 81.1971 163.622 81.6971 164.216 81.6971H195.56C196.257 81.6971 196.653 81.1971 196.653 80.8013V68.9627C196.653 68.4627 196.257 68.0669 195.56 68.0669Z" fill="#1A4159"/>
<path d="M121.624 80.5044L91.3796 2.69189C91.0776 1.90023 89.6869 1.90023 89.3901 2.69189L59.239 80.5044C58.9421 81.0981 59.338 81.6971 60.2338 81.6971H73.864C74.2651 81.6971 74.7598 81.4992 74.8588 81.0981L90.3848 36.7231L106.104 81.0981C106.203 81.4992 106.703 81.6971 106.999 81.6971H120.729C121.427 81.6971 121.927 81.0981 121.624 80.5044Z" fill="#1A4159"/>
<path d="M214.857 30.3512V79.695C214.857 80.0856 215.253 80.5804 215.941 80.5804H228.644C229.337 80.5804 229.826 80.0856 229.826 79.695V30.3512H214.857ZM199.691 15.2835H244.894C245.587 15.2835 245.977 14.8929 245.977 14.3981V2.67936C245.977 2.28353 245.587 1.79395 244.894 1.79395H199.691C199.102 1.79395 198.607 2.28353 198.607 2.67936V14.3981C198.607 14.8929 199.102 15.2835 199.691 15.2835Z" fill="#1A4159"/>
</svg>
