<svg width="61" height="17" viewBox="0 0 61 17" fill="none" xmlns="http://www.w3.org/2000/svg">
<path d="M8.10954 16.4682H11.1452L6.93551 9.73276C8.44265 9.31129 10.3479 8.22562 10.3479 5.47843C10.3479 0.958008 5.16329 0.958008 5.16329 0.958008H0V3.55083L2.45977 7.42837H0V16.4682H2.59282V9.99885H4.07762L8.10954 16.4682ZM5.49539 7.40603L3.0803 3.55083H5.16329C5.16329 3.55083 7.7551 3.55083 7.7551 5.47843C7.7551 7.0069 6.18194 7.339 5.49539 7.40603Z" fill="#1A4159"/>
<path d="M55.1412 12.2184C58.3637 12.2184 61.0001 9.58195 61.0001 6.35946C61.0001 3.13698 58.3637 0.500488 55.1412 0.500488C51.9187 0.500488 49.2832 3.13698 49.2832 6.35946C49.2832 9.58195 51.9187 12.2184 55.1412 12.2184ZM55.1412 3.11463C56.9438 3.11463 58.386 4.55678 58.386 6.35946C58.386 8.16215 56.9438 9.6043 55.1412 9.6043C53.3385 9.6043 51.8963 8.16215 51.8963 6.35946C51.8963 4.55678 53.3385 3.11463 55.1412 3.11463ZM60.2791 16.4992V13.885H49.8682V16.4992H60.2791Z" fill="#1A4159"/>
<path d="M28.2567 3.80006L26.2194 9.48537L23.1929 1.02545C23.1736 0.948261 23.0964 0.909668 22.9989 0.909668H20.3604C20.205 0.909668 20.1278 1.02545 20.1857 1.14224L26.0254 16.3335C26.1036 16.4696 26.3362 16.4696 26.3941 16.3335L31.2445 3.80006H28.2567Z" fill="#5AC5F2"/>
<path d="M38.1332 13.7732H36.5814V0.909668H33.6128V13.7732H32.0214C31.9056 13.7732 31.8081 13.8504 31.8081 13.9479V16.2563C31.8081 16.3335 31.9056 16.431 32.0214 16.431H38.1332C38.2693 16.431 38.3465 16.3335 38.3465 16.2563V13.9479C38.3465 13.8504 38.2693 13.7732 38.1332 13.7732Z" fill="#1A4159"/>
<path d="M23.716 16.1985L17.8185 1.02545C17.7596 0.871075 17.4884 0.871075 17.4305 1.02545L11.5512 16.1985C11.4933 16.3142 11.5705 16.431 11.7452 16.431H14.403C14.4812 16.431 14.5777 16.3924 14.597 16.3142L17.6245 7.66135L20.6896 16.3142C20.7089 16.3924 20.8064 16.431 20.8642 16.431H23.5414C23.6774 16.431 23.7749 16.3142 23.716 16.1985Z" fill="#1A4159"/>
<path d="M41.8957 6.41861V16.0404C41.8957 16.1165 41.9729 16.213 42.107 16.213H44.584C44.7191 16.213 44.8145 16.1165 44.8145 16.0404V6.41861H41.8957ZM38.9383 3.48049H47.7527C47.8877 3.48049 47.9639 3.40432 47.9639 3.30784V1.02275C47.9639 0.945564 47.8877 0.850098 47.7527 0.850098H38.9383C38.8235 0.850098 38.7271 0.945564 38.7271 1.02275V3.30784C38.7271 3.40432 38.8235 3.48049 38.9383 3.48049Z" fill="#1A4159"/>
</svg>
