<svg width="207" height="137" viewBox="0 0 207 137" fill="none" xmlns="http://www.w3.org/2000/svg">
<g filter="url(#filter0_d_380_11992)">
<path d="M202.952 56.1409L115.39 1.30444C114.402 0.685686 113.145 0.695328 112.167 1.32915L7.9879 68.8179C6.13723 70.0168 6.16897 72.7356 8.04712 73.891L92.7663 126.007C95.0385 127.405 97.9076 127.39 100.165 125.968L202.958 61.2219C204.829 60.0434 204.826 57.3146 202.952 56.1409Z" fill="#1A4159"/>
<path d="M202.952 56.1409L115.39 1.30444C114.402 0.685686 113.145 0.695328 112.167 1.32915L7.9879 68.8179C6.13723 70.0168 6.16897 72.7356 8.04712 73.891L92.7663 126.007C95.0385 127.405 97.9076 127.39 100.165 125.968L202.958 61.2219C204.829 60.0434 204.826 57.3146 202.952 56.1409Z" stroke="#1A4159"/>
</g>
<g filter="url(#filter1_d_380_11992)">
<path d="M156 64.2902C156 70.6255 152.624 76.7983 146.355 81.9237C140.087 87.0491 131.248 90.8641 121.105 92.8219C110.963 94.7796 100.037 94.7796 89.8946 92.8219C79.752 90.8641 70.9131 87.0491 64.6446 81.9237L80.9868 74.8703C84.7479 77.9456 90.0512 80.2345 96.1368 81.4092C102.222 82.5838 108.778 82.5838 114.863 81.4092C120.949 80.2345 126.252 77.9456 130.013 74.8703C133.774 71.795 135.8 68.0914 135.8 64.2902H156Z" fill="#5AC5F2"/>
<path d="M83.653 91.3375C75.9841 89.1515 69.369 85.8501 64.4214 81.7397L80.8528 74.7599C83.8214 77.2261 87.7905 79.207 92.3918 80.5186L83.653 91.3375Z" fill="#A9D8E2"/>
<path d="M89.6982 35.7966C97.2933 34.3102 105.374 33.9165 113.275 34.6479C121.176 35.3793 128.672 37.2149 135.146 40.0036C141.62 42.7924 146.886 46.4546 150.511 50.6887C154.137 54.9229 156.018 59.608 156 64.3584L135.8 64.3311C135.811 61.4809 134.682 58.6698 132.507 56.1293C130.332 53.5888 127.172 51.3915 123.288 49.7183C119.403 48.045 114.906 46.9436 110.165 46.5048C105.424 46.0659 100.576 46.3022 96.0189 47.194L89.6982 35.7966Z" fill="#8BD1D5"/>
<path d="M64.7705 82.0262C60.059 78.2079 56.9356 73.7813 55.6556 69.1084C54.3756 64.4356 54.9755 59.6491 57.4061 55.1404C59.8367 50.6316 64.0291 46.5286 69.6405 43.1668C75.2518 39.805 82.1229 37.2799 89.6918 35.7979L96.0151 47.1948C91.4737 48.084 87.3511 49.5991 83.9843 51.6162C80.6175 53.6332 78.102 56.095 76.6437 58.8003C75.1853 61.5055 74.8254 64.3774 75.5934 67.1811C76.3613 69.9848 78.2354 72.6408 81.0623 74.9318L64.7705 82.0262Z" fill="#0D2535"/>
</g>
<defs>
<filter id="filter0_d_380_11992" x="0.119141" y="0.346985" width="206.74" height="136.198" filterUnits="userSpaceOnUse" color-interpolation-filters="sRGB">
<feFlood flood-opacity="0" result="BackgroundImageFix"/>
<feColorMatrix in="SourceAlpha" type="matrix" values="0 0 0 0 0 0 0 0 0 0 0 0 0 0 0 0 0 0 127 0" result="hardAlpha"/>
<feOffset dx="-2" dy="5"/>
<feGaussianBlur stdDeviation="2"/>
<feComposite in2="hardAlpha" operator="out"/>
<feColorMatrix type="matrix" values="0 0 0 0 0 0 0 0 0 0 0 0 0 0 0 0 0 0 0.25 0"/>
<feBlend mode="normal" in2="BackgroundImageFix" result="effect1_dropShadow_380_11992"/>
<feBlend mode="normal" in="SourceGraphic" in2="effect1_dropShadow_380_11992" result="shape"/>
</filter>
<filter id="filter1_d_380_11992" x="49" y="34.2902" width="111" height="75" filterUnits="userSpaceOnUse" color-interpolation-filters="sRGB">
<feFlood flood-opacity="0" result="BackgroundImageFix"/>
<feColorMatrix in="SourceAlpha" type="matrix" values="0 0 0 0 0 0 0 0 0 0 0 0 0 0 0 0 0 0 127 0" result="hardAlpha"/>
<feOffset dx="-1" dy="10"/>
<feGaussianBlur stdDeviation="2.5"/>
<feComposite in2="hardAlpha" operator="out"/>
<feColorMatrix type="matrix" values="0 0 0 0 0 0 0 0 0 0 0 0 0 0 0 0 0 0 0.25 0"/>
<feBlend mode="normal" in2="BackgroundImageFix" result="effect1_dropShadow_380_11992"/>
<feBlend mode="normal" in="SourceGraphic" in2="effect1_dropShadow_380_11992" result="shape"/>
</filter>
</defs>
</svg>
