<svg width="138" height="96" viewBox="0 0 138 96" fill="none" xmlns="http://www.w3.org/2000/svg">
<g filter="url(#filter0_bd_380_11975)">
<path d="M6.30079 31.7977L50.1077 3.28687C51.5452 2.3513 53.3974 2.3442 54.842 3.26872L131.331 52.2193C134.014 53.9367 134.013 57.8573 131.329 59.5738L89.6659 86.2169C87.1776 87.8081 83.995 87.8224 81.4925 86.2536L6.3633 39.1551C3.66173 37.4614 3.62839 33.537 6.30079 31.7977Z" fill="#D6D9E1" fill-opacity="0.8" shape-rendering="crispEdges"/>
</g>
<g filter="url(#filter1_d_380_11975)">
<path d="M58.3974 23.3499L63.1513 20.1514C63.2797 20.065 63.4478 20.066 63.5751 20.1538L93.4864 40.7877C93.7064 40.9394 93.7026 41.2658 93.479 41.4123L88.7938 44.4827C88.6662 44.5663 88.5009 44.5646 88.375 44.4785L58.3951 23.9729C58.1755 23.8227 58.1768 23.4984 58.3974 23.3499Z" fill="#5AC5F2"/>
<path d="M48.7518 28.2473L54.5447 25.039C54.6697 24.9697 54.8231 24.9773 54.9407 25.0584L74.2398 38.3714C74.4714 38.5312 74.4522 38.8793 74.2044 39.0127L68.4787 42.0941C68.3551 42.1606 68.2046 42.1528 68.0885 42.0738L48.7223 28.8876C48.4906 28.7298 48.5065 28.3831 48.7518 28.2473Z" fill="#BDE8FA"/>
<path d="M40.2938 34.1935L46.0895 30.9837C46.2149 30.9142 46.3688 30.922 46.4865 31.0037L83.1595 56.4648C83.3902 56.625 83.3705 56.9723 83.1232 57.1054L77.397 60.1871C77.2727 60.254 77.1213 60.2457 77.005 60.1656L40.2625 34.8326C40.0325 34.674 40.0494 34.3289 40.2938 34.1935Z" fill="#1A4159"/>
<path d="M32.209 39.3622L37.9925 36.1591C38.1147 36.0915 38.2644 36.097 38.3812 36.1736L56.4781 48.0383C56.7167 48.1947 56.7013 48.5493 56.4501 48.6845L50.7336 51.7609C50.6128 51.8259 50.4662 51.8201 50.351 51.7456L32.1871 40.0076C31.9482 39.8533 31.9602 39.5 32.209 39.3622Z" fill="#A9D8E2"/>
</g>
<defs>
<filter id="filter0_bd_380_11975" x="0.316406" y="-1.41977" width="137.027" height="96.8401" filterUnits="userSpaceOnUse" color-interpolation-filters="sRGB">
<feFlood flood-opacity="0" result="BackgroundImageFix"/>
<feGaussianBlur in="BackgroundImageFix" stdDeviation="2"/>
<feComposite in2="SourceAlpha" operator="in" result="effect1_backgroundBlur_380_11975"/>
<feColorMatrix in="SourceAlpha" type="matrix" values="0 0 0 0 0 0 0 0 0 0 0 0 0 0 0 0 0 0 127 0" result="hardAlpha"/>
<feOffset dy="4"/>
<feGaussianBlur stdDeviation="2"/>
<feComposite in2="hardAlpha" operator="out"/>
<feColorMatrix type="matrix" values="0 0 0 0 0 0 0 0 0 0 0 0 0 0 0 0 0 0 0.25 0"/>
<feBlend mode="normal" in2="effect1_backgroundBlur_380_11975" result="effect2_dropShadow_380_11975"/>
<feBlend mode="normal" in="SourceGraphic" in2="effect2_dropShadow_380_11975" result="shape"/>
</filter>
<filter id="filter1_d_380_11975" x="26.441" y="20.0873" width="68.0039" height="48.905" filterUnits="userSpaceOnUse" color-interpolation-filters="sRGB">
<feFlood flood-opacity="0" result="BackgroundImageFix"/>
<feColorMatrix in="SourceAlpha" type="matrix" values="0 0 0 0 0 0 0 0 0 0 0 0 0 0 0 0 0 0 127 0" result="hardAlpha"/>
<feOffset dx="-2.38914" dy="5.57466"/>
<feGaussianBlur stdDeviation="1.59276"/>
<feComposite in2="hardAlpha" operator="out"/>
<feColorMatrix type="matrix" values="0 0 0 0 0 0 0 0 0 0 0 0 0 0 0 0 0 0 0.25 0"/>
<feBlend mode="normal" in2="BackgroundImageFix" result="effect1_dropShadow_380_11975"/>
<feBlend mode="normal" in="SourceGraphic" in2="effect1_dropShadow_380_11975" result="shape"/>
</filter>
</defs>
</svg>
