<svg width="311" height="209" viewBox="0 0 311 209" fill="none" xmlns="http://www.w3.org/2000/svg">
<g filter="url(#filter0_d_380_11969)">
<path d="M9.79184 60.3819L103.362 1.78238C104.813 0.873647 106.662 0.897063 108.089 1.84227L304.693 132.015C307.352 133.776 307.287 137.702 304.57 139.373L213.59 195.341C211.075 196.888 207.892 196.847 205.417 195.235L9.72589 67.7392C7.05435 65.9986 7.08954 62.0743 9.79184 60.3819Z" fill="#D6D9E1"/>
</g>
<g filter="url(#filter1_d_380_11969)">
<g clip-path="url(#clip0_380_11969)">
<rect x="248.793" y="122.777" width="1.52343" height="1.99433" rx="0.761716" transform="rotate(35 248.793 122.777)" fill="#5AC5F2"/>
</g>
<path d="M252.57 126.639L253.796 125.753L253.994 125.892L252.517 126.914L252.376 126.815L252.57 126.639ZM253.009 125.202L252.593 126.655L252.496 126.899L252.355 126.8L252.811 125.064L253.009 125.202ZM254.533 126.451L253.196 127.389L253.009 127.258L254.501 126.247L254.621 126.331L254.533 126.451ZM254.035 127.977L254.458 126.399L254.541 126.274L254.661 126.359L254.223 128.108L254.035 127.977ZM254.369 127.449L254.264 127.599L253.489 127.056L253.594 126.907L254.369 127.449ZM255.348 128.675L255.244 128.823L254.554 128.34L254.659 128.192L255.348 128.675ZM255.557 126.986L254.59 128.366L254.408 128.237L255.374 126.858L255.557 126.986ZM257.158 128.107L257.34 128.235L256.686 129.168C256.614 129.272 256.53 129.342 256.436 129.378C256.342 129.415 256.244 129.424 256.143 129.405C256.044 129.386 255.949 129.345 255.86 129.283C255.767 129.217 255.694 129.141 255.642 129.054C255.591 128.967 255.568 128.873 255.572 128.773C255.576 128.674 255.615 128.572 255.688 128.469L256.341 127.535L256.522 127.662L255.869 128.595C255.818 128.667 255.79 128.736 255.784 128.801C255.777 128.867 255.79 128.927 255.822 128.983C255.854 129.04 255.901 129.09 255.964 129.134C256.028 129.179 256.092 129.206 256.155 129.217C256.219 129.228 256.281 129.219 256.34 129.191C256.399 129.163 256.454 129.113 256.504 129.041L257.158 128.107ZM257.642 130.28L257.538 130.429L256.807 129.918L256.911 129.769L257.642 130.28ZM257.81 128.564L256.844 129.943L256.661 129.815L257.627 128.436L257.81 128.564ZM257.992 129.575L257.887 129.724L257.254 129.28L257.358 129.131L257.992 129.575ZM258.494 129.043L258.389 129.192L257.668 128.688L257.773 128.538L258.494 129.043ZM258.513 130.427L258.518 130.419C258.599 130.304 258.684 130.21 258.775 130.135C258.866 130.06 258.956 130.002 259.045 129.96C259.134 129.918 259.217 129.889 259.293 129.874C259.37 129.859 259.434 129.854 259.486 129.86L259.449 129.978C259.401 129.98 259.347 129.99 259.286 130.009C259.225 130.029 259.16 130.059 259.091 130.101C259.022 130.143 258.952 130.198 258.879 130.267C258.807 130.336 258.736 130.42 258.666 130.52L258.658 130.531C258.588 130.631 258.533 130.727 258.493 130.819C258.453 130.91 258.425 130.996 258.409 131.075C258.393 131.155 258.386 131.228 258.387 131.292C258.389 131.358 258.397 131.414 258.41 131.461L258.317 131.528C258.294 131.482 258.277 131.42 258.265 131.342C258.253 131.266 258.251 131.178 258.261 131.08C258.269 130.983 258.293 130.878 258.333 130.767C258.372 130.656 258.432 130.542 258.513 130.427ZM259.924 131.107L259.801 131.282C259.735 131.376 259.671 131.45 259.609 131.503C259.546 131.556 259.486 131.591 259.427 131.608C259.367 131.626 259.309 131.628 259.252 131.614C259.195 131.601 259.139 131.574 259.083 131.535C259.039 131.504 259.002 131.47 258.973 131.433C258.943 131.396 258.922 131.354 258.909 131.309C258.896 131.264 258.894 131.214 258.9 131.16C258.907 131.105 258.924 131.046 258.953 130.982C258.981 130.918 259.022 130.849 259.074 130.773L259.197 130.598C259.263 130.504 259.327 130.431 259.388 130.379C259.45 130.327 259.511 130.293 259.569 130.277C259.628 130.26 259.685 130.259 259.741 130.273C259.798 130.287 259.854 130.314 259.909 130.353C259.954 130.384 259.991 130.418 260.021 130.455C260.051 130.493 260.073 130.533 260.086 130.578C260.099 130.621 260.102 130.67 260.096 130.723C260.09 130.776 260.073 130.835 260.045 130.898C260.017 130.962 259.976 131.031 259.924 131.107ZM259.637 131.203L259.794 130.979C259.83 130.928 259.859 130.88 259.88 130.837C259.901 130.793 259.916 130.754 259.924 130.718C259.932 130.682 259.933 130.649 259.928 130.619C259.922 130.589 259.911 130.562 259.893 130.538C259.877 130.514 259.854 130.492 259.826 130.472C259.791 130.448 259.755 130.433 259.719 130.427C259.684 130.421 259.647 130.425 259.609 130.44C259.571 130.456 259.532 130.483 259.491 130.521C259.45 130.56 259.407 130.612 259.361 130.676L259.205 130.9C259.169 130.951 259.14 130.999 259.118 131.042C259.096 131.086 259.082 131.127 259.073 131.164C259.066 131.201 259.064 131.235 259.068 131.266C259.073 131.296 259.083 131.324 259.1 131.349C259.117 131.373 259.14 131.396 259.168 131.415C259.203 131.44 259.239 131.455 259.276 131.46C259.312 131.465 259.35 131.46 259.388 131.443C259.427 131.427 259.467 131.399 259.508 131.359C259.549 131.319 259.592 131.267 259.637 131.203ZM260.935 131.085L260.125 132.241L259.979 132.139L260.661 131.165L260.291 131.066L260.383 130.934L260.912 131.069L260.935 131.085ZM261.234 132.321L261.229 132.329C261.148 132.444 261.062 132.539 260.971 132.614C260.88 132.689 260.79 132.748 260.701 132.789C260.612 132.831 260.53 132.86 260.453 132.875C260.377 132.89 260.313 132.895 260.261 132.889L260.292 132.779C260.34 132.777 260.394 132.766 260.456 132.745C260.517 132.725 260.582 132.694 260.653 132.65C260.723 132.608 260.794 132.552 260.867 132.483C260.94 132.413 261.011 132.328 261.081 132.228L261.089 132.217C261.159 132.117 261.214 132.021 261.253 131.928C261.292 131.835 261.32 131.747 261.335 131.666C261.351 131.586 261.357 131.513 261.355 131.449C261.354 131.384 261.348 131.331 261.336 131.288L261.429 131.22C261.452 131.267 261.47 131.329 261.481 131.406C261.494 131.483 261.495 131.571 261.486 131.669C261.477 131.767 261.453 131.871 261.413 131.983C261.374 132.093 261.315 132.206 261.234 132.321Z" fill="black" fill-opacity="0.38"/>
<rect x="62.0781" y="51.6872" width="209.147" height="0.249291" transform="rotate(35 62.0781 51.6872)" fill="#E3E3E3"/>
<rect x="68.3691" y="42.7021" width="209.147" height="0.249291" transform="rotate(35 68.3691 42.7021)" fill="#E3E3E3"/>
<rect x="74.8047" y="33.5127" width="209.147" height="0.249291" transform="rotate(35 74.8047 33.5127)" fill="#E3E3E3"/>
<rect x="81.2383" y="24.3234" width="209.147" height="0.249291" transform="rotate(35 81.2383 24.3234)" fill="#E3E3E3"/>
<rect x="87.5312" y="15.3382" width="209.147" height="0.249291" transform="rotate(35 87.5312 15.3382)" fill="#E3E3E3"/>
<path d="M120.664 94.6051L119.693 95.9924L119.518 95.8696L120.336 94.7012L119.892 94.5826L120.003 94.4243L120.637 94.5858L120.664 94.6051ZM121.466 96.5419L121.365 96.686L120.368 95.9879L120.441 95.8846L121.728 95.3611L121.871 95.4613L121.524 95.6305L120.668 95.9832L121.466 96.5419ZM121.915 95.4918L120.948 96.8716L120.773 96.7488L121.739 95.3691L121.915 95.4918ZM121.376 97.0328C121.397 97.0031 121.424 96.9846 121.456 96.9772C121.49 96.9696 121.524 96.9782 121.56 97.003C121.595 97.0278 121.615 97.057 121.618 97.0907C121.623 97.1242 121.615 97.1558 121.594 97.1854C121.574 97.2145 121.547 97.2325 121.514 97.2395C121.482 97.2468 121.448 97.2382 121.412 97.2134C121.377 97.1886 121.357 97.1595 121.352 97.126C121.348 97.0929 121.356 97.0619 121.376 97.0328ZM121.963 96.1967C121.984 96.1671 122.011 96.1485 122.043 96.1411C122.077 96.1335 122.111 96.1421 122.147 96.1669C122.182 96.1917 122.202 96.2209 122.205 96.2546C122.21 96.2881 122.202 96.3197 122.181 96.3494C122.161 96.3784 122.134 96.3964 122.101 96.4034C122.069 96.4108 122.035 96.4021 121.999 96.3773C121.964 96.3525 121.944 96.3234 121.939 96.2899C121.935 96.2569 121.943 96.2258 121.963 96.1967ZM123.196 97.2535L123.049 97.4639C122.97 97.577 122.893 97.6653 122.818 97.7289C122.744 97.7924 122.671 97.8346 122.6 97.8554C122.529 97.8763 122.459 97.8786 122.39 97.8625C122.322 97.8462 122.255 97.8146 122.188 97.7677C122.135 97.7306 122.091 97.6896 122.055 97.645C122.019 97.6003 121.994 97.5508 121.978 97.4965C121.964 97.4421 121.96 97.3823 121.968 97.3172C121.976 97.2522 121.997 97.1812 122.031 97.1043C122.065 97.0274 122.114 96.9438 122.177 96.8534L122.324 96.6431C122.404 96.53 122.48 96.4423 122.554 96.38C122.628 96.3182 122.7 96.2775 122.771 96.2579C122.841 96.2377 122.91 96.236 122.977 96.253C123.045 96.2704 123.112 96.3023 123.179 96.3487C123.232 96.3863 123.277 96.4275 123.313 96.4721C123.349 96.5166 123.375 96.5655 123.391 96.6187C123.407 96.6712 123.411 96.7295 123.403 96.7935C123.395 96.8573 123.375 96.9274 123.342 97.0036C123.308 97.0799 123.259 97.1632 123.196 97.2535ZM122.853 97.3689L123.041 97.1007C123.084 97.0388 123.118 96.9818 123.143 96.9298C123.17 96.8775 123.187 96.8298 123.197 96.7866C123.206 96.7434 123.208 96.7038 123.201 96.6679C123.195 96.6325 123.181 96.6003 123.16 96.5714C123.14 96.5422 123.113 96.5157 123.079 96.4918C123.037 96.4626 122.994 96.4447 122.951 96.4379C122.908 96.4305 122.864 96.4358 122.818 96.4538C122.774 96.4722 122.726 96.5046 122.677 96.551C122.628 96.5974 122.576 96.6594 122.521 96.7371L122.333 97.0053C122.29 97.0672 122.255 97.1243 122.229 97.1765C122.203 97.2292 122.186 97.278 122.176 97.3229C122.167 97.3672 122.165 97.4077 122.17 97.4444C122.175 97.4812 122.188 97.5144 122.208 97.5442C122.228 97.5737 122.255 97.6002 122.289 97.6237C122.332 97.6538 122.375 97.6719 122.419 97.678C122.463 97.6841 122.507 97.6773 122.553 97.6576C122.6 97.6377 122.648 97.6041 122.697 97.5566C122.747 97.5086 122.799 97.446 122.853 97.3689ZM124.288 98.0179L124.141 98.2283C124.061 98.3414 123.984 98.4297 123.91 98.4932C123.835 98.5568 123.762 98.599 123.691 98.6198C123.62 98.6407 123.55 98.643 123.482 98.6269C123.414 98.6106 123.347 98.579 123.28 98.5321C123.227 98.495 123.182 98.454 123.147 98.4094C123.111 98.3647 123.085 98.3152 123.07 98.2609C123.055 98.2065 123.052 98.1467 123.06 98.0816C123.068 98.0166 123.089 97.9456 123.123 97.8687C123.157 97.7918 123.206 97.7082 123.269 97.6178L123.416 97.4075C123.495 97.2944 123.572 97.2067 123.645 97.1444C123.72 97.0826 123.792 97.0419 123.862 97.0223C123.933 97.0021 124.002 97.0004 124.069 97.0174C124.137 97.0348 124.204 97.0667 124.27 97.1131C124.324 97.1507 124.369 97.1919 124.404 97.2365C124.441 97.281 124.467 97.3299 124.482 97.3831C124.498 97.4356 124.502 97.4939 124.494 97.5579C124.487 97.6217 124.467 97.6918 124.433 97.768C124.4 97.8443 124.351 97.9276 124.288 98.0179ZM123.944 98.1333L124.132 97.8651C124.176 97.8032 124.21 97.7462 124.235 97.6942C124.261 97.6419 124.279 97.5942 124.289 97.551C124.298 97.5078 124.299 97.4682 124.293 97.4323C124.286 97.3969 124.273 97.3647 124.251 97.3357C124.231 97.3066 124.204 97.2801 124.17 97.2562C124.128 97.227 124.086 97.209 124.043 97.2023C124 97.1949 123.956 97.2002 123.91 97.2182C123.865 97.2366 123.818 97.269 123.769 97.3154C123.719 97.3618 123.667 97.4238 123.613 97.5015L123.425 97.7697C123.382 97.8316 123.347 97.8887 123.321 97.9409C123.295 97.9936 123.277 98.0424 123.268 98.0873C123.258 98.1316 123.256 98.1721 123.262 98.2088C123.267 98.2455 123.28 98.2788 123.299 98.3085C123.32 98.3381 123.347 98.3646 123.38 98.3881C123.423 98.4182 123.467 98.4363 123.511 98.4424C123.554 98.4485 123.599 98.4417 123.645 98.422C123.692 98.4021 123.74 98.3685 123.789 98.321C123.839 98.273 123.89 98.2104 123.944 98.1333Z" fill="#181819" fill-opacity="0.42"/>
<path d="M146.688 112.827L145.716 114.214L145.541 114.092L146.359 112.923L145.915 112.805L146.026 112.646L146.66 112.808L146.688 112.827ZM146.913 114.074L146.798 113.94L147.349 113.301L148.056 113.797L147.943 113.959L147.384 113.567L147.079 113.913C147.115 113.917 147.156 113.925 147.204 113.94C147.252 113.954 147.301 113.98 147.352 114.015C147.415 114.06 147.465 114.111 147.5 114.168C147.535 114.225 147.557 114.286 147.564 114.351C147.571 114.417 147.565 114.485 147.544 114.555C147.523 114.625 147.488 114.695 147.439 114.765C147.393 114.832 147.341 114.886 147.283 114.929C147.227 114.972 147.166 115.002 147.101 115.019C147.036 115.034 146.968 115.034 146.897 115.019C146.827 115.003 146.755 114.97 146.681 114.918C146.625 114.879 146.578 114.835 146.539 114.785C146.5 114.734 146.473 114.68 146.456 114.621C146.44 114.561 146.436 114.5 146.445 114.435C146.454 114.37 146.478 114.303 146.517 114.234L146.684 114.351C146.655 114.408 146.64 114.462 146.638 114.514C146.636 114.565 146.647 114.613 146.671 114.657C146.695 114.7 146.733 114.74 146.782 114.774C146.824 114.803 146.866 114.822 146.908 114.83C146.95 114.838 146.992 114.836 147.033 114.824C147.074 114.813 147.114 114.792 147.152 114.761C147.191 114.731 147.228 114.692 147.261 114.644C147.292 114.6 147.314 114.556 147.328 114.51C147.342 114.464 147.347 114.419 147.343 114.375C147.339 114.33 147.325 114.289 147.302 114.25C147.278 114.21 147.245 114.175 147.201 114.144C147.142 114.103 147.092 114.079 147.05 114.074C147.01 114.069 146.964 114.069 146.913 114.074ZM147.4 115.255C147.421 115.225 147.447 115.207 147.48 115.199C147.513 115.192 147.548 115.2 147.583 115.225C147.619 115.25 147.638 115.279 147.642 115.313C147.647 115.346 147.639 115.378 147.618 115.407C147.597 115.437 147.571 115.455 147.538 115.462C147.505 115.469 147.471 115.46 147.436 115.435C147.4 115.411 147.38 115.382 147.376 115.348C147.371 115.315 147.38 115.284 147.4 115.255ZM147.987 114.419C148.008 114.389 148.034 114.371 148.067 114.363C148.1 114.356 148.135 114.364 148.17 114.389C148.205 114.414 148.225 114.443 148.229 114.477C148.233 114.51 148.225 114.542 148.205 114.571C148.184 114.6 148.158 114.618 148.124 114.625C148.092 114.633 148.058 114.624 148.023 114.599C147.987 114.575 147.967 114.545 147.962 114.512C147.958 114.479 147.966 114.448 147.987 114.419ZM149.22 115.476L149.072 115.686C148.993 115.799 148.916 115.887 148.842 115.951C148.767 116.014 148.694 116.057 148.623 116.077C148.552 116.098 148.482 116.101 148.413 116.085C148.346 116.068 148.278 116.037 148.211 115.99C148.158 115.953 148.114 115.912 148.078 115.867C148.043 115.822 148.017 115.773 148.002 115.719C147.987 115.664 147.984 115.604 147.992 115.539C147.999 115.474 148.02 115.403 148.055 115.326C148.089 115.249 148.137 115.166 148.201 115.075L148.348 114.865C148.427 114.752 148.503 114.664 148.577 114.602C148.652 114.54 148.724 114.5 148.794 114.48C148.865 114.46 148.934 114.458 149.001 114.475C149.069 114.492 149.136 114.524 149.202 114.571C149.256 114.608 149.3 114.65 149.336 114.694C149.373 114.739 149.399 114.788 149.414 114.841C149.43 114.893 149.434 114.952 149.426 115.016C149.419 115.079 149.399 115.149 149.365 115.226C149.331 115.302 149.283 115.385 149.22 115.476ZM148.876 115.591L149.064 115.323C149.107 115.261 149.142 115.204 149.167 115.152C149.193 115.1 149.211 115.052 149.22 115.009C149.23 114.965 149.231 114.926 149.224 114.89C149.218 114.855 149.204 114.822 149.183 114.793C149.163 114.764 149.136 114.738 149.102 114.714C149.06 114.685 149.018 114.667 148.974 114.66C148.932 114.653 148.887 114.658 148.842 114.676C148.797 114.694 148.75 114.727 148.7 114.773C148.651 114.819 148.599 114.881 148.545 114.959L148.357 115.227C148.314 115.289 148.279 115.346 148.253 115.399C148.227 115.451 148.209 115.5 148.199 115.545C148.19 115.589 148.188 115.63 148.193 115.666C148.199 115.703 148.211 115.736 148.231 115.766C148.252 115.796 148.279 115.822 148.312 115.846C148.355 115.876 148.399 115.894 148.442 115.9C148.486 115.906 148.531 115.899 148.577 115.88C148.623 115.86 148.672 115.826 148.721 115.779C148.77 115.731 148.822 115.668 148.876 115.591ZM150.311 116.24L150.164 116.45C150.085 116.563 150.008 116.652 149.933 116.715C149.859 116.779 149.786 116.821 149.715 116.842C149.644 116.863 149.574 116.865 149.505 116.849C149.437 116.833 149.37 116.801 149.303 116.754C149.25 116.717 149.206 116.676 149.17 116.631C149.135 116.587 149.109 116.537 149.093 116.483C149.079 116.429 149.075 116.369 149.083 116.304C149.091 116.239 149.112 116.168 149.146 116.091C149.18 116.014 149.229 115.93 149.292 115.84L149.44 115.63C149.519 115.516 149.595 115.429 149.669 115.366C149.743 115.305 149.816 115.264 149.886 115.244C149.956 115.224 150.025 115.222 150.093 115.239C150.16 115.257 150.227 115.289 150.294 115.335C150.348 115.373 150.392 115.414 150.428 115.459C150.464 115.503 150.49 115.552 150.506 115.605C150.522 115.658 150.526 115.716 150.518 115.78C150.511 115.844 150.49 115.914 150.457 115.99C150.423 116.066 150.375 116.15 150.311 116.24ZM149.968 116.355L150.156 116.087C150.199 116.025 150.233 115.968 150.258 115.916C150.285 115.864 150.303 115.816 150.312 115.773C150.322 115.73 150.323 115.69 150.316 115.654C150.31 115.619 150.296 115.587 150.275 115.558C150.255 115.529 150.228 115.502 150.194 115.478C150.152 115.449 150.109 115.431 150.066 115.424C150.023 115.417 149.979 115.422 149.934 115.44C149.889 115.459 149.841 115.491 149.792 115.537C149.743 115.584 149.691 115.646 149.636 115.724L149.449 115.992C149.405 116.054 149.37 116.111 149.344 116.163C149.319 116.216 149.301 116.264 149.291 116.309C149.282 116.354 149.28 116.394 149.285 116.431C149.29 116.468 149.303 116.501 149.323 116.531C149.343 116.56 149.37 116.587 149.404 116.61C149.447 116.64 149.49 116.658 149.534 116.664C149.578 116.671 149.622 116.664 149.668 116.644C149.715 116.624 149.763 116.591 149.812 116.543C149.862 116.495 149.914 116.432 149.968 116.355Z" fill="#181819" fill-opacity="0.42"/>
<path d="M172.953 131.218L171.982 132.605L171.807 132.482L172.625 131.314L172.181 131.195L172.292 131.037L172.926 131.199L172.953 131.218ZM174.138 132.056L174.153 132.066L174.049 132.215L174.034 132.204C173.941 132.139 173.852 132.1 173.769 132.087C173.685 132.072 173.608 132.078 173.535 132.103C173.464 132.127 173.398 132.165 173.338 132.216C173.278 132.267 173.226 132.325 173.181 132.39L173.039 132.592C172.996 132.654 172.965 132.713 172.946 132.771C172.928 132.828 172.92 132.881 172.923 132.931C172.926 132.981 172.937 133.025 172.957 133.064C172.978 133.103 173.006 133.134 173.041 133.159C173.081 133.187 173.122 133.204 173.164 133.211C173.207 133.218 173.249 133.215 173.29 133.202C173.332 133.189 173.372 133.167 173.41 133.137C173.449 133.106 173.484 133.068 173.516 133.021C173.545 132.98 173.568 132.937 173.584 132.892C173.601 132.847 173.609 132.802 173.609 132.758C173.61 132.713 173.6 132.671 173.581 132.631C173.562 132.592 173.531 132.557 173.488 132.527C173.44 132.493 173.386 132.473 173.327 132.468C173.269 132.462 173.212 132.469 173.158 132.488C173.105 132.508 173.061 132.538 173.026 132.581L172.934 132.515C172.992 132.45 173.051 132.401 173.11 132.368C173.17 132.335 173.229 132.315 173.287 132.309C173.346 132.302 173.403 132.307 173.458 132.324C173.514 132.341 173.568 132.367 173.618 132.402C173.687 132.45 173.737 132.505 173.769 132.566C173.801 132.627 173.818 132.69 173.819 132.756C173.821 132.822 173.811 132.887 173.788 132.952C173.766 133.017 173.736 133.078 173.696 133.134C173.65 133.199 173.598 133.254 173.54 133.298C173.482 133.342 173.42 133.373 173.353 133.39C173.287 133.408 173.219 133.41 173.149 133.397C173.079 133.384 173.009 133.353 172.939 133.304C172.864 133.251 172.81 133.191 172.776 133.121C172.742 133.051 172.724 132.978 172.724 132.901C172.723 132.824 172.735 132.748 172.761 132.673C172.786 132.598 172.821 132.528 172.866 132.463L172.924 132.381C172.992 132.284 173.069 132.195 173.154 132.115C173.239 132.035 173.332 131.974 173.433 131.932C173.535 131.89 173.644 131.877 173.762 131.893C173.879 131.908 174.004 131.962 174.138 132.056ZM173.665 133.646C173.686 133.616 173.713 133.597 173.745 133.59C173.779 133.582 173.813 133.591 173.849 133.616C173.884 133.641 173.904 133.67 173.907 133.703C173.912 133.737 173.904 133.768 173.883 133.798C173.863 133.827 173.836 133.845 173.803 133.852C173.771 133.86 173.737 133.851 173.701 133.826C173.666 133.801 173.646 133.772 173.641 133.739C173.637 133.706 173.645 133.675 173.665 133.646ZM174.252 132.809C174.273 132.78 174.3 132.761 174.332 132.754C174.366 132.746 174.4 132.755 174.436 132.78C174.471 132.804 174.491 132.834 174.494 132.867C174.499 132.901 174.491 132.932 174.47 132.962C174.45 132.991 174.423 133.009 174.39 133.016C174.358 133.023 174.324 133.015 174.288 132.99C174.253 132.965 174.233 132.936 174.228 132.903C174.224 132.87 174.232 132.839 174.252 132.809ZM175.485 133.866L175.338 134.077C175.259 134.19 175.182 134.278 175.107 134.342C175.033 134.405 174.96 134.447 174.889 134.468C174.818 134.489 174.748 134.491 174.679 134.475C174.611 134.459 174.544 134.427 174.477 134.38C174.424 134.343 174.38 134.302 174.344 134.258C174.309 134.213 174.283 134.164 174.267 134.109C174.253 134.055 174.249 133.995 174.257 133.93C174.265 133.865 174.286 133.794 174.32 133.717C174.354 133.64 174.403 133.557 174.466 133.466L174.613 133.256C174.693 133.143 174.769 133.055 174.843 132.993C174.917 132.931 174.99 132.89 175.06 132.871C175.13 132.85 175.199 132.849 175.266 132.866C175.334 132.883 175.401 132.915 175.468 132.961C175.521 132.999 175.566 133.04 175.602 133.085C175.638 133.129 175.664 133.178 175.68 133.231C175.696 133.284 175.7 133.342 175.692 133.406C175.685 133.47 175.664 133.54 175.631 133.616C175.597 133.693 175.549 133.776 175.485 133.866ZM175.142 133.982L175.33 133.713C175.373 133.652 175.407 133.595 175.432 133.543C175.459 133.49 175.476 133.443 175.486 133.399C175.496 133.356 175.497 133.317 175.49 133.281C175.484 133.245 175.47 133.213 175.449 133.184C175.429 133.155 175.402 133.128 175.368 133.105C175.326 133.075 175.283 133.057 175.24 133.051C175.197 133.043 175.153 133.049 175.108 133.067C175.063 133.085 175.015 133.117 174.966 133.164C174.917 133.21 174.865 133.272 174.81 133.35L174.623 133.618C174.579 133.68 174.544 133.737 174.518 133.789C174.493 133.842 174.475 133.891 174.465 133.936C174.456 133.98 174.454 134.02 174.459 134.057C174.464 134.094 174.477 134.127 174.497 134.157C174.517 134.186 174.544 134.213 174.578 134.236C174.621 134.266 174.664 134.285 174.708 134.291C174.752 134.297 174.796 134.29 174.842 134.27C174.889 134.25 174.937 134.217 174.986 134.169C175.036 134.121 175.088 134.059 175.142 133.982ZM176.577 134.631L176.43 134.841C176.35 134.954 176.274 135.042 176.199 135.106C176.124 135.17 176.051 135.212 175.98 135.233C175.909 135.253 175.839 135.256 175.771 135.24C175.703 135.223 175.636 135.192 175.569 135.145C175.516 135.108 175.471 135.067 175.436 135.022C175.4 134.977 175.375 134.928 175.359 134.874C175.344 134.819 175.341 134.759 175.349 134.694C175.357 134.629 175.378 134.558 175.412 134.481C175.446 134.405 175.495 134.321 175.558 134.231L175.705 134.02C175.784 133.907 175.861 133.819 175.935 133.757C176.009 133.695 176.081 133.655 176.151 133.635C176.222 133.615 176.291 133.613 176.358 133.63C176.426 133.648 176.493 133.679 176.559 133.726C176.613 133.763 176.658 133.805 176.693 133.849C176.73 133.894 176.756 133.943 176.772 133.996C176.787 134.048 176.791 134.107 176.783 134.171C176.776 134.234 176.756 134.305 176.722 134.381C176.689 134.457 176.64 134.54 176.577 134.631ZM176.233 134.746L176.421 134.478C176.465 134.416 176.499 134.359 176.524 134.307C176.55 134.255 176.568 134.207 176.578 134.164C176.587 134.121 176.589 134.081 176.582 134.045C176.575 134.01 176.562 133.977 176.541 133.948C176.52 133.919 176.493 133.893 176.459 133.869C176.418 133.84 176.375 133.822 176.332 133.815C176.289 133.808 176.245 133.813 176.199 133.831C176.154 133.849 176.107 133.882 176.058 133.928C176.008 133.975 175.956 134.037 175.902 134.114L175.714 134.382C175.671 134.444 175.636 134.501 175.61 134.554C175.584 134.606 175.567 134.655 175.557 134.7C175.547 134.744 175.545 134.785 175.551 134.822C175.556 134.858 175.569 134.892 175.588 134.921C175.609 134.951 175.636 134.977 175.67 135.001C175.713 135.031 175.756 135.049 175.8 135.055C175.843 135.061 175.888 135.054 175.934 135.035C175.981 135.015 176.029 134.981 176.078 134.934C176.128 134.886 176.18 134.823 176.233 134.746Z" fill="#181819" fill-opacity="0.42"/>
<path d="M199.217 149.609L198.246 150.996L198.07 150.873L198.888 149.705L198.445 149.586L198.556 149.428L199.19 149.589L199.217 149.609ZM200.619 150.602L200.55 150.7L199.081 151.581L198.897 151.452L200.332 150.616L199.586 150.093L199.686 149.949L200.619 150.602ZM199.929 152.036C199.95 152.007 199.977 151.988 200.009 151.981C200.043 151.973 200.077 151.982 200.112 152.007C200.148 152.031 200.167 152.061 200.171 152.094C200.176 152.128 200.168 152.159 200.147 152.189C200.127 152.218 200.1 152.236 200.067 152.243C200.034 152.25 200.001 152.242 199.965 152.217C199.93 152.192 199.91 152.163 199.905 152.13C199.901 152.097 199.909 152.065 199.929 152.036ZM200.516 151.2C200.537 151.171 200.563 151.152 200.596 151.145C200.629 151.137 200.664 151.146 200.699 151.17C200.735 151.195 200.754 151.224 200.758 151.258C200.763 151.292 200.755 151.323 200.734 151.353C200.714 151.382 200.687 151.4 200.654 151.407C200.621 151.414 200.587 151.406 200.552 151.381C200.517 151.356 200.497 151.327 200.492 151.293C200.488 151.26 200.496 151.229 200.516 151.2ZM201.749 152.257L201.602 152.467C201.522 152.581 201.446 152.669 201.371 152.732C201.296 152.796 201.223 152.838 201.152 152.859C201.081 152.88 201.011 152.882 200.943 152.866C200.875 152.85 200.808 152.818 200.741 152.771C200.688 152.734 200.643 152.693 200.608 152.649C200.572 152.604 200.547 152.554 200.531 152.5C200.516 152.446 200.513 152.386 200.521 152.321C200.529 152.256 200.55 152.185 200.584 152.108C200.618 152.031 200.667 151.947 200.73 151.857L200.877 151.647C200.956 151.534 201.033 151.446 201.107 151.384C201.181 151.322 201.253 151.281 201.323 151.261C201.394 151.241 201.463 151.24 201.53 151.257C201.598 151.274 201.665 151.306 201.731 151.352C201.785 151.39 201.83 151.431 201.865 151.476C201.902 151.52 201.928 151.569 201.944 151.622C201.959 151.675 201.963 151.733 201.955 151.797C201.948 151.861 201.928 151.931 201.894 152.007C201.861 152.083 201.812 152.167 201.749 152.257ZM201.405 152.372L201.593 152.104C201.637 152.042 201.671 151.985 201.696 151.933C201.722 151.881 201.74 151.833 201.75 151.79C201.759 151.747 201.761 151.707 201.754 151.672C201.747 151.636 201.734 151.604 201.713 151.575C201.692 151.546 201.665 151.519 201.631 151.495C201.59 151.466 201.547 151.448 201.504 151.441C201.461 151.434 201.417 151.439 201.371 151.457C201.326 151.476 201.279 151.508 201.23 151.555C201.18 151.601 201.128 151.663 201.074 151.741L200.886 152.009C200.843 152.071 200.808 152.128 200.782 152.18C200.756 152.233 200.739 152.282 200.729 152.327C200.719 152.371 200.717 152.411 200.723 152.448C200.728 152.485 200.741 152.518 200.76 152.548C200.781 152.577 200.808 152.604 200.842 152.627C200.885 152.657 200.928 152.675 200.972 152.682C201.015 152.688 201.06 152.681 201.106 152.661C201.153 152.641 201.201 152.608 201.25 152.56C201.3 152.512 201.352 152.45 201.405 152.372ZM202.841 153.021L202.693 153.232C202.614 153.345 202.537 153.433 202.463 153.497C202.388 153.56 202.315 153.603 202.244 153.623C202.173 153.644 202.103 153.647 202.034 153.63C201.967 153.614 201.899 153.583 201.832 153.536C201.779 153.499 201.735 153.458 201.699 153.413C201.664 153.368 201.638 153.319 201.623 153.265C201.608 153.21 201.605 153.15 201.613 153.085C201.62 153.02 201.641 152.949 201.676 152.872C201.71 152.795 201.758 152.712 201.821 152.621L201.969 152.411C202.048 152.298 202.124 152.21 202.198 152.148C202.273 152.086 202.345 152.045 202.415 152.026C202.486 152.006 202.555 152.004 202.622 152.021C202.69 152.038 202.757 152.07 202.823 152.117C202.877 152.154 202.921 152.195 202.957 152.24C202.994 152.285 203.02 152.333 203.035 152.387C203.051 152.439 203.055 152.497 203.047 152.562C203.04 152.625 203.02 152.695 202.986 152.772C202.952 152.848 202.904 152.931 202.841 153.021ZM202.497 153.137L202.685 152.869C202.728 152.807 202.763 152.75 202.788 152.698C202.814 152.645 202.832 152.598 202.841 152.555C202.851 152.511 202.852 152.472 202.845 152.436C202.839 152.4 202.825 152.368 202.804 152.339C202.784 152.31 202.757 152.284 202.723 152.26C202.681 152.231 202.639 152.213 202.595 152.206C202.553 152.198 202.508 152.204 202.463 152.222C202.418 152.24 202.371 152.273 202.321 152.319C202.272 152.365 202.22 152.427 202.166 152.505L201.978 152.773C201.934 152.835 201.9 152.892 201.873 152.945C201.848 152.997 201.83 153.046 201.82 153.091C201.811 153.135 201.809 153.176 201.814 153.212C201.82 153.249 201.832 153.282 201.852 153.312C201.873 153.342 201.9 153.368 201.933 153.392C201.976 153.422 202.02 153.44 202.063 153.446C202.107 153.452 202.152 153.445 202.198 153.426C202.244 153.406 202.292 153.372 202.342 153.325C202.391 153.277 202.443 153.214 202.497 153.137Z" fill="#181819" fill-opacity="0.42"/>
<path d="M225.483 167.999L224.511 169.387L224.336 169.264L225.154 168.095L224.71 167.977L224.821 167.819L225.455 167.98L225.483 167.999ZM226.158 169.983C226.099 170.067 226.03 170.125 225.949 170.156C225.87 170.188 225.787 170.195 225.699 170.179C225.612 170.163 225.527 170.126 225.445 170.068C225.362 170.011 225.298 169.943 225.253 169.866C225.208 169.79 225.186 169.709 225.188 169.624C225.191 169.538 225.222 169.453 225.281 169.369C225.319 169.314 225.365 169.271 225.417 169.24C225.471 169.209 225.529 169.19 225.592 169.183C225.655 169.176 225.719 169.182 225.785 169.201C225.852 169.22 225.918 169.252 225.982 169.297C226.067 169.356 226.131 169.425 226.174 169.505C226.218 169.583 226.239 169.664 226.237 169.748C226.236 169.832 226.209 169.91 226.158 169.983ZM225.984 169.856C226.02 169.805 226.041 169.752 226.046 169.697C226.052 169.642 226.043 169.59 226.018 169.54C225.994 169.49 225.956 169.446 225.903 169.41C225.85 169.372 225.795 169.35 225.741 169.345C225.687 169.34 225.635 169.35 225.586 169.375C225.537 169.399 225.494 169.437 225.459 169.488C225.421 169.541 225.4 169.594 225.394 169.646C225.39 169.699 225.4 169.749 225.425 169.796C225.451 169.844 225.491 169.886 225.545 169.924C225.6 169.962 225.653 169.985 225.706 169.993C225.76 170 225.81 169.993 225.857 169.97C225.905 169.947 225.947 169.909 225.984 169.856ZM226.579 169.314C226.532 169.381 226.472 169.429 226.399 169.457C226.326 169.486 226.248 169.495 226.165 169.483C226.082 169.471 226.002 169.438 225.924 169.383C225.845 169.328 225.786 169.263 225.746 169.189C225.706 169.115 225.688 169.039 225.69 168.961C225.693 168.883 225.718 168.811 225.765 168.744C225.821 168.663 225.886 168.607 225.96 168.575C226.035 168.544 226.114 168.535 226.196 168.548C226.278 168.561 226.358 168.595 226.436 168.65C226.515 168.705 226.575 168.769 226.616 168.842C226.656 168.915 226.674 168.991 226.669 169.072C226.665 169.153 226.635 169.233 226.579 169.314ZM226.402 169.194C226.434 169.148 226.453 169.1 226.458 169.051C226.463 169.002 226.455 168.955 226.435 168.91C226.415 168.865 226.382 168.827 226.335 168.794C226.289 168.762 226.242 168.743 226.194 168.739C226.146 168.734 226.1 168.742 226.056 168.764C226.012 168.786 225.973 168.821 225.939 168.87C225.906 168.917 225.887 168.965 225.881 169.014C225.876 169.063 225.884 169.11 225.905 169.153C225.926 169.197 225.959 169.235 226.005 169.268C226.051 169.3 226.098 169.318 226.146 169.323C226.195 169.327 226.241 169.319 226.285 169.297C226.33 169.276 226.369 169.241 226.402 169.194ZM226.195 170.427C226.216 170.397 226.242 170.379 226.275 170.372C226.308 170.364 226.343 170.373 226.378 170.397C226.413 170.422 226.433 170.451 226.437 170.485C226.442 170.518 226.434 170.55 226.413 170.58C226.392 170.609 226.366 170.627 226.333 170.634C226.3 170.641 226.266 170.632 226.231 170.608C226.195 170.583 226.175 170.554 226.171 170.52C226.166 170.487 226.174 170.456 226.195 170.427ZM226.782 169.591C226.802 169.561 226.829 169.543 226.862 169.535C226.895 169.528 226.93 169.536 226.965 169.561C227 169.586 227.02 169.615 227.024 169.649C227.028 169.682 227.02 169.714 227 169.744C226.979 169.773 226.953 169.791 226.919 169.798C226.887 169.805 226.853 169.796 226.818 169.772C226.782 169.747 226.762 169.718 226.757 169.684C226.753 169.651 226.761 169.62 226.782 169.591ZM228.015 170.648L227.867 170.858C227.788 170.971 227.711 171.06 227.637 171.123C227.562 171.187 227.489 171.229 227.418 171.25C227.347 171.271 227.277 171.273 227.208 171.257C227.141 171.24 227.073 171.209 227.006 171.162C226.953 171.125 226.909 171.084 226.873 171.039C226.838 170.995 226.812 170.945 226.797 170.891C226.782 170.836 226.779 170.777 226.787 170.712C226.794 170.646 226.815 170.575 226.849 170.499C226.884 170.422 226.932 170.338 226.995 170.248L227.143 170.037C227.222 169.924 227.298 169.837 227.372 169.774C227.447 169.712 227.519 169.672 227.589 169.652C227.66 169.632 227.729 169.63 227.796 169.647C227.864 169.665 227.931 169.697 227.997 169.743C228.051 169.781 228.095 169.822 228.131 169.866C228.168 169.911 228.194 169.96 228.209 170.013C228.225 170.066 228.229 170.124 228.221 170.188C228.214 170.252 228.194 170.322 228.16 170.398C228.126 170.474 228.078 170.557 228.015 170.648ZM227.671 170.763L227.859 170.495C227.902 170.433 227.936 170.376 227.962 170.324C227.988 170.272 228.006 170.224 228.015 170.181C228.025 170.138 228.026 170.098 228.019 170.062C228.013 170.027 227.999 169.995 227.978 169.966C227.958 169.937 227.931 169.91 227.897 169.886C227.855 169.857 227.813 169.839 227.769 169.832C227.727 169.825 227.682 169.83 227.637 169.848C227.592 169.867 227.545 169.899 227.495 169.945C227.446 169.992 227.394 170.054 227.34 170.131L227.152 170.4C227.108 170.461 227.074 170.519 227.047 170.571C227.022 170.624 227.004 170.672 226.994 170.717C226.985 170.762 226.983 170.802 226.988 170.839C226.994 170.875 227.006 170.909 227.026 170.938C227.047 170.968 227.074 170.995 227.107 171.018C227.15 171.048 227.193 171.066 227.237 171.072C227.281 171.078 227.326 171.072 227.371 171.052C227.418 171.032 227.466 170.998 227.516 170.951C227.565 170.903 227.617 170.84 227.671 170.763ZM229.106 171.412L228.959 171.623C228.88 171.736 228.803 171.824 228.728 171.888C228.654 171.951 228.581 171.993 228.51 172.014C228.439 172.035 228.369 172.037 228.3 172.021C228.232 172.005 228.165 171.973 228.098 171.926C228.045 171.889 228.001 171.848 227.965 171.804C227.929 171.759 227.904 171.709 227.888 171.655C227.874 171.601 227.87 171.541 227.878 171.476C227.886 171.411 227.907 171.34 227.941 171.263C227.975 171.186 228.024 171.102 228.087 171.012L228.234 170.802C228.314 170.689 228.39 170.601 228.464 170.539C228.538 170.477 228.61 170.436 228.681 170.417C228.751 170.396 228.82 170.395 228.887 170.412C228.955 170.429 229.022 170.461 229.089 170.507C229.142 170.545 229.187 170.586 229.223 170.631C229.259 170.675 229.285 170.724 229.301 170.777C229.317 170.83 229.321 170.888 229.313 170.952C229.306 171.016 229.285 171.086 229.252 171.162C229.218 171.239 229.169 171.322 229.106 171.412ZM228.763 171.528L228.951 171.259C228.994 171.198 229.028 171.141 229.053 171.088C229.08 171.036 229.097 170.988 229.107 170.945C229.117 170.902 229.118 170.863 229.111 170.827C229.105 170.791 229.091 170.759 229.07 170.73C229.05 170.701 229.023 170.674 228.989 170.651C228.947 170.621 228.904 170.603 228.861 170.597C228.818 170.589 228.774 170.594 228.728 170.612C228.684 170.631 228.636 170.663 228.587 170.71C228.538 170.756 228.486 170.818 228.431 170.896L228.243 171.164C228.2 171.226 228.165 171.283 228.139 171.335C228.114 171.388 228.096 171.437 228.086 171.482C228.077 171.526 228.075 171.566 228.08 171.603C228.085 171.64 228.098 171.673 228.118 171.703C228.138 171.732 228.165 171.759 228.199 171.782C228.242 171.812 228.285 171.831 228.329 171.837C228.373 171.843 228.417 171.836 228.463 171.816C228.51 171.796 228.558 171.763 228.607 171.715C228.657 171.667 228.709 171.605 228.763 171.528Z" fill="#181819" fill-opacity="0.42"/>
<path d="M68.135 57.8235L67.1636 59.2109L66.9882 59.0881L67.8064 57.9197L67.3627 57.8011L67.4735 57.6428L68.1075 57.8043L68.135 57.8235ZM68.684 60.0608L68.5831 60.2048L67.68 59.5725L67.7683 59.4465L68.5726 59.2598C68.6716 59.2368 68.7512 59.2144 68.8116 59.1927C68.8731 59.1708 68.9218 59.147 68.9577 59.1213C68.9947 59.0954 69.0258 59.0644 69.051 59.0284C69.0828 58.9829 69.1021 58.9352 69.1088 58.8853C69.1166 58.8352 69.1102 58.7865 69.0897 58.7392C69.0692 58.6918 69.0333 58.6503 68.9821 58.6144C68.9209 58.5715 68.8613 58.5477 68.8034 58.5429C68.7466 58.538 68.6933 58.5496 68.6434 58.5778C68.5936 58.606 68.5494 58.6475 68.5109 58.7025L68.3356 58.5797C68.39 58.502 68.4568 58.4429 68.5361 58.4024C68.6153 58.3618 68.7017 58.346 68.7952 58.355C68.8891 58.3634 68.9851 58.4018 69.083 58.4704C69.1702 58.5314 69.2339 58.5991 69.2741 58.6734C69.3148 58.7471 69.3321 58.8232 69.326 58.9018C69.321 58.9802 69.2926 59.0564 69.2409 59.1303C69.2126 59.1707 69.1769 59.2069 69.1338 59.2389C69.0918 59.2707 69.0444 59.2987 68.9916 59.3229C68.9395 59.3476 68.8837 59.3688 68.8242 59.3865C68.7654 59.4046 68.7048 59.4206 68.6424 59.4343L67.9922 59.5764L68.684 60.0608ZM68.8471 60.2513C68.8679 60.2216 68.8946 60.2031 68.927 60.1957C68.9606 60.1881 68.9951 60.1967 69.0304 60.2215C69.0658 60.2463 69.0854 60.2755 69.0891 60.3092C69.0939 60.3426 69.0859 60.3742 69.0651 60.4039C69.0447 60.433 69.018 60.451 68.9849 60.4579C68.9524 60.4653 68.9185 60.4566 68.8831 60.4319C68.8477 60.4071 68.8277 60.378 68.8229 60.3445C68.8187 60.3114 68.8268 60.2804 68.8471 60.2513ZM69.434 59.4152C69.4548 59.3855 69.4814 59.367 69.5139 59.3596C69.5474 59.352 69.5819 59.3606 69.6173 59.3854C69.6527 59.4102 69.6722 59.4394 69.6759 59.4731C69.6807 59.5066 69.6727 59.5381 69.6519 59.5678C69.6316 59.5969 69.6049 59.6149 69.5718 59.6218C69.5393 59.6292 69.5054 59.6205 69.47 59.5958C69.4346 59.571 69.4145 59.5419 69.4097 59.5084C69.4055 59.4753 69.4136 59.4443 69.434 59.4152ZM70.6669 60.472L70.5196 60.6824C70.4404 60.7955 70.3635 60.8838 70.2889 60.9473C70.2143 61.0109 70.1414 61.0531 70.0703 61.0739C69.9993 61.0948 69.9293 61.0971 69.8606 61.081C69.7929 61.0647 69.7256 61.0331 69.6587 60.9862C69.6056 60.949 69.5613 60.9081 69.5257 60.8634C69.4901 60.8188 69.4645 60.7693 69.4489 60.715C69.4343 60.6606 69.4309 60.6008 69.4389 60.5357C69.4468 60.4706 69.4677 60.3997 69.5018 60.3228C69.5359 60.2459 69.5845 60.1623 69.6478 60.0719L69.7951 59.8616C69.8743 59.7485 69.9507 59.6608 70.0245 59.5985C70.0989 59.5367 70.1711 59.4959 70.2413 59.4764C70.312 59.4562 70.3809 59.4545 70.4481 59.4715C70.516 59.4888 70.5831 59.5208 70.6494 59.5672C70.7031 59.6048 70.7477 59.646 70.7833 59.6906C70.82 59.7351 70.846 59.784 70.8615 59.8372C70.8774 59.8897 70.8813 59.948 70.8732 60.012C70.8662 60.0758 70.8459 60.1459 70.8122 60.2221C70.7786 60.2984 70.7302 60.3817 70.6669 60.472ZM70.3234 60.5874L70.5112 60.3192C70.5546 60.2573 70.5888 60.2003 70.614 60.1483C70.6402 60.096 70.6581 60.0483 70.6676 60.0051C70.6772 59.9618 70.6785 59.9223 70.6716 59.8864C70.6654 59.851 70.6517 59.8188 70.6305 59.7898C70.6104 59.7607 70.5833 59.7342 70.5492 59.7103C70.5075 59.6811 70.465 59.6631 70.4218 59.6564C70.3789 59.649 70.3347 59.6543 70.2892 59.6723C70.2442 59.6907 70.1971 59.7231 70.1477 59.7695C70.0983 59.8158 70.0463 59.8779 69.9919 59.9556L69.8041 60.2238C69.7608 60.2857 69.726 60.3428 69.6998 60.395C69.6742 60.4477 69.6565 60.4965 69.6467 60.5414C69.6373 60.5857 69.6353 60.6262 69.6407 60.6629C69.6461 60.6996 69.6586 60.7329 69.6782 60.7626C69.6989 60.7922 69.726 60.8187 69.7595 60.8422C69.8025 60.8722 69.8458 60.8903 69.8895 60.8965C69.9333 60.9026 69.978 60.8958 70.0238 60.8761C70.0707 60.8562 70.1188 60.8226 70.168 60.7751C70.2177 60.727 70.2695 60.6645 70.3234 60.5874ZM71.7586 61.2364L71.6113 61.4468C71.5321 61.5599 71.4552 61.6482 71.3806 61.7117C71.3059 61.7753 71.2331 61.8175 71.162 61.8383C71.0909 61.8591 71.021 61.8615 70.9523 61.8454C70.8846 61.8291 70.8173 61.7975 70.7503 61.7506C70.6973 61.7134 70.6529 61.6725 70.6174 61.6278C70.5818 61.5832 70.5562 61.5337 70.5405 61.4794C70.526 61.4249 70.5226 61.3652 70.5305 61.3001C70.5384 61.235 70.5594 61.164 70.5935 61.0872C70.6275 61.0103 70.6762 60.9267 70.7395 60.8363L70.8868 60.6259C70.966 60.5129 71.0424 60.4252 71.1162 60.3629C71.1905 60.301 71.2628 60.2603 71.333 60.2408C71.4036 60.2206 71.4726 60.2189 71.5398 60.2359C71.6077 60.2532 71.6748 60.2852 71.7411 60.3316C71.7948 60.3692 71.8394 60.4103 71.875 60.455C71.9116 60.4995 71.9377 60.5483 71.9531 60.6015C71.9691 60.6541 71.973 60.7124 71.9649 60.7764C71.9579 60.8402 71.9375 60.9102 71.9039 60.9865C71.8703 61.0628 71.8218 61.1461 71.7586 61.2364ZM71.4151 61.3518L71.6029 61.0836C71.6462 61.0217 71.6805 60.9647 71.7057 60.9126C71.7319 60.8604 71.7498 60.8127 71.7593 60.7695C71.7689 60.7262 71.7702 60.6867 71.7633 60.6508C71.7571 60.6154 71.7434 60.5832 71.7222 60.5542C71.7021 60.5251 71.675 60.4986 71.6409 60.4747C71.5992 60.4455 71.5567 60.4275 71.5134 60.4208C71.4706 60.4134 71.4264 60.4187 71.3808 60.4367C71.3359 60.4551 71.2887 60.4875 71.2393 60.5339C71.1899 60.5802 71.138 60.6423 71.0836 60.72L70.8958 60.9882C70.8525 61.0501 70.8177 61.1072 70.7914 61.1594C70.7659 61.2121 70.7482 61.2609 70.7384 61.3058C70.729 61.3501 70.727 61.3906 70.7324 61.4273C70.7377 61.464 70.7502 61.4973 70.7699 61.527C70.7906 61.5566 70.8177 61.5831 70.8512 61.6065C70.8941 61.6366 70.9375 61.6547 70.9812 61.6609C71.0249 61.667 71.0697 61.6602 71.1155 61.6405C71.1624 61.6206 71.2104 61.5869 71.2597 61.5395C71.3093 61.4914 71.3611 61.4289 71.4151 61.3518Z" fill="#181819" fill-opacity="0.42"/>
<path d="M76.1069 19.2773L75.1355 20.6646L74.9602 20.5418L75.7783 19.3734L75.3346 19.2548L75.4454 19.0965L76.0794 19.258L76.1069 19.2773ZM76.3326 20.5241L76.2175 20.3899L76.7678 19.7513L77.4756 20.247L77.3622 20.409L76.8031 20.0175L76.4986 20.3636C76.5341 20.3667 76.5755 20.3755 76.6229 20.3899C76.6709 20.4046 76.7201 20.4297 76.7707 20.4651C76.8345 20.5098 76.8839 20.5609 76.919 20.6184C76.9545 20.6753 76.9758 20.7363 76.9828 20.8015C76.9905 20.8671 76.984 20.935 76.9631 21.0052C76.9422 21.0753 76.9073 21.1454 76.8582 21.2155C76.8117 21.2819 76.7599 21.3364 76.7026 21.3792C76.646 21.4224 76.5851 21.4522 76.5199 21.4687C76.4551 21.4846 76.3873 21.4846 76.3164 21.4689C76.2461 21.4536 76.1741 21.4201 76.1001 21.3683C76.0446 21.3294 75.9971 21.2849 75.9578 21.2347C75.9196 21.1844 75.892 21.1298 75.8749 21.0708C75.8589 21.0116 75.8552 20.9497 75.8638 20.885C75.8734 20.8202 75.8976 20.7534 75.9364 20.6845L76.1032 20.8013C76.0745 20.8584 76.0591 20.9126 76.0571 20.9639C76.0551 21.0152 76.0659 21.0628 76.0898 21.1068C76.1146 21.1506 76.1517 21.1898 76.201 21.2243C76.2427 21.2535 76.2847 21.2721 76.3271 21.2801C76.3695 21.2881 76.4113 21.2863 76.4524 21.2746C76.4936 21.2629 76.5333 21.2418 76.5717 21.2112C76.6106 21.1811 76.6469 21.142 76.6806 21.094C76.7111 21.0504 76.7334 21.0058 76.7475 20.9601C76.7616 20.9144 76.7664 20.8693 76.7618 20.8247C76.7579 20.7805 76.7442 20.7389 76.7207 20.6999C76.6977 20.6602 76.664 20.6249 76.6198 20.5939C76.561 20.5528 76.511 20.5295 76.4696 20.524C76.4288 20.519 76.3832 20.5191 76.3326 20.5241ZM78.1688 21.5966L78.0215 21.807C77.9423 21.9201 77.8654 22.0084 77.7908 22.0719C77.7162 22.1355 77.6433 22.1777 77.5722 22.1985C77.5011 22.2194 77.4312 22.2217 77.3625 22.2056C77.2948 22.1893 77.2275 22.1577 77.1605 22.1108C77.1075 22.0736 77.0632 22.0327 77.0276 21.988C76.992 21.9434 76.9664 21.8939 76.9508 21.8396C76.9362 21.7852 76.9328 21.7254 76.9407 21.6603C76.9486 21.5952 76.9696 21.5243 77.0037 21.4474C77.0378 21.3705 77.0864 21.2869 77.1497 21.1965L77.297 20.9862C77.3762 20.8731 77.4526 20.7854 77.5264 20.7231C77.6007 20.6613 77.673 20.6205 77.7432 20.601C77.8139 20.5808 77.8828 20.5791 77.95 20.5961C78.0179 20.6135 78.085 20.6454 78.1513 20.6918C78.205 20.7294 78.2496 20.7706 78.2852 20.8152C78.3218 20.8597 78.3479 20.9086 78.3634 20.9618C78.3793 21.0143 78.3832 21.0726 78.3751 21.1366C78.3681 21.2004 78.3477 21.2705 78.3141 21.3467C78.2805 21.423 78.2321 21.5063 78.1688 21.5966ZM77.8253 21.712L78.0131 21.4438C78.0565 21.3819 78.0907 21.3249 78.1159 21.2729C78.1421 21.2206 78.16 21.1729 78.1695 21.1297C78.1791 21.0865 78.1804 21.0469 78.1735 21.011C78.1673 20.9756 78.1536 20.9434 78.1324 20.9144C78.1123 20.8853 78.0852 20.8588 78.0511 20.8349C78.0094 20.8057 77.9669 20.7877 77.9236 20.781C77.8808 20.7736 77.8366 20.7789 77.7911 20.7969C77.7461 20.8153 77.699 20.8477 77.6495 20.8941C77.6001 20.9405 77.5482 21.0025 77.4938 21.0802L77.306 21.3484C77.2627 21.4103 77.2279 21.4674 77.2017 21.5196C77.1761 21.5723 77.1584 21.6211 77.1486 21.666C77.1392 21.7103 77.1372 21.7508 77.1426 21.7875C77.1479 21.8242 77.1605 21.8575 77.1801 21.8872C77.2008 21.9168 77.2279 21.9433 77.2614 21.9668C77.3044 21.9968 77.3477 22.0149 77.3914 22.0211C77.4351 22.0272 77.4799 22.0204 77.5257 22.0007C77.5726 21.9808 77.6207 21.9472 77.6699 21.8997C77.7195 21.8516 77.7714 21.7891 77.8253 21.712Z" fill="#181819" fill-opacity="0.42"/>
<path d="M81.8552 11.765L81.7544 11.9091L80.8513 11.2767L80.9395 11.1507L81.7439 10.964C81.8428 10.941 81.9225 10.9186 81.9829 10.8969C82.0444 10.875 82.0931 10.8512 82.129 10.8255C82.1659 10.7996 82.197 10.7686 82.2222 10.7326C82.2541 10.6871 82.2734 10.6394 82.2801 10.5895C82.2878 10.5394 82.2815 10.4907 82.2609 10.4434C82.2404 10.3961 82.2046 10.3545 82.1534 10.3186C82.0921 10.2757 82.0325 10.2519 81.9747 10.2472C81.9179 10.2422 81.8645 10.2538 81.8147 10.282C81.7648 10.3102 81.7206 10.3518 81.6822 10.4067L81.5069 10.284C81.5613 10.2063 81.6281 10.1471 81.7073 10.1066C81.7866 10.066 81.8729 10.0502 81.9664 10.0592C82.0604 10.0676 82.1563 10.106 82.2542 10.1746C82.3414 10.2357 82.4051 10.3033 82.4454 10.3776C82.486 10.4513 82.5033 10.5274 82.4973 10.606C82.4923 10.6845 82.4639 10.7606 82.4121 10.8345C82.3838 10.875 82.3481 10.9112 82.305 10.9431C82.263 10.9749 82.2156 11.0029 82.1629 11.0272C82.1107 11.0519 82.0549 11.073 81.9955 11.0907C81.9367 11.1089 81.8761 11.1248 81.8137 11.1386L81.1634 11.2806L81.8552 11.765ZM83.3681 11.8471L83.2208 12.0575C83.1417 12.1706 83.0648 12.2589 82.9901 12.3224C82.9155 12.386 82.8426 12.4282 82.7716 12.449C82.7005 12.4699 82.6306 12.4722 82.5618 12.4561C82.4942 12.4398 82.4269 12.4082 82.3599 12.3613C82.3068 12.3241 82.2625 12.2832 82.2269 12.2385C82.1914 12.1939 82.1658 12.1444 82.1501 12.0901C82.1355 12.0357 82.1322 11.9759 82.1401 11.9108C82.148 11.8457 82.169 11.7748 82.203 11.6979C82.2371 11.621 82.2858 11.5374 82.349 11.447L82.4963 11.2367C82.5755 11.1236 82.652 11.0359 82.7257 10.9736C82.8001 10.9118 82.8724 10.871 82.9426 10.8515C83.0132 10.8313 83.0821 10.8296 83.1494 10.8466C83.2172 10.864 83.2843 10.8959 83.3506 10.9423C83.4043 10.9799 83.449 11.0211 83.4845 11.0657C83.5212 11.1102 83.5472 11.1591 83.5627 11.2123C83.5786 11.2648 83.5825 11.3231 83.5744 11.3871C83.5674 11.4509 83.5471 11.521 83.5135 11.5972C83.4798 11.6735 83.4314 11.7568 83.3681 11.8471ZM83.0247 11.9625L83.2125 11.6943C83.2558 11.6324 83.2901 11.5754 83.3152 11.5234C83.3414 11.4711 83.3593 11.4234 83.3689 11.3802C83.3784 11.337 83.3798 11.2974 83.3729 11.2615C83.3666 11.2261 83.3529 11.1939 83.3318 11.1649C83.3117 11.1358 83.2846 11.1093 83.2505 11.0854C83.2088 11.0562 83.1663 11.0382 83.123 11.0315C83.0802 11.0241 83.036 11.0294 82.9904 11.0474C82.9455 11.0658 82.8983 11.0982 82.8489 11.1446C82.7995 11.191 82.7476 11.253 82.6932 11.3307L82.5054 11.5989C82.462 11.6608 82.4272 11.7179 82.401 11.7701C82.3754 11.8228 82.3577 11.8716 82.3479 11.9165C82.3386 11.9608 82.3366 12.0013 82.3419 12.038C82.3473 12.0747 82.3598 12.108 82.3794 12.1377C82.4002 12.1673 82.4273 12.1938 82.4607 12.2173C82.5037 12.2473 82.547 12.2654 82.5908 12.2716C82.6345 12.2777 82.6793 12.2709 82.7251 12.2512C82.7719 12.2313 82.82 12.1977 82.8692 12.1502C82.9189 12.1021 82.9707 12.0396 83.0247 11.9625ZM84.4598 12.6115L84.3125 12.8219C84.2333 12.935 84.1564 13.0233 84.0818 13.0868C84.0072 13.1504 83.9343 13.1926 83.8632 13.2134C83.7922 13.2343 83.7222 13.2366 83.6535 13.2205C83.5858 13.2042 83.5185 13.1726 83.4516 13.1257C83.3985 13.0885 83.3542 13.0476 83.3186 13.0029C83.283 12.9583 83.2574 12.9088 83.2418 12.8545C83.2272 12.8001 83.2238 12.7403 83.2317 12.6752C83.2397 12.6101 83.2606 12.5392 83.2947 12.4623C83.3288 12.3854 83.3774 12.3018 83.4407 12.2114L83.588 12.001C83.6672 11.888 83.7436 11.8003 83.8174 11.738C83.8918 11.6762 83.964 11.6354 84.0342 11.6159C84.1049 11.5957 84.1738 11.594 84.241 11.611C84.3089 11.6283 84.376 11.6603 84.4423 11.7067C84.496 11.7443 84.5406 11.7854 84.5762 11.8301C84.6128 11.8746 84.6389 11.9235 84.6544 11.9767C84.6703 12.0292 84.6742 12.0875 84.6661 12.1515C84.6591 12.2153 84.6388 12.2854 84.6051 12.3616C84.5715 12.4379 84.5231 12.5212 84.4598 12.6115ZM84.1163 12.7269L84.3041 12.4587C84.3475 12.3968 84.3817 12.3398 84.4069 12.2878C84.4331 12.2355 84.451 12.1878 84.4605 12.1446C84.4701 12.1013 84.4714 12.0618 84.4645 12.0259C84.4583 11.9905 84.4446 11.9583 84.4234 11.9293C84.4033 11.9002 84.3762 11.8737 84.3421 11.8498C84.3004 11.8206 84.2579 11.8026 84.2147 11.7959C84.1718 11.7885 84.1276 11.7938 84.0821 11.8118C84.0371 11.8302 83.99 11.8626 83.9406 11.909C83.8911 11.9553 83.8392 12.0174 83.7848 12.0951L83.597 12.3633C83.5537 12.4252 83.5189 12.4823 83.4927 12.5345C83.4671 12.5872 83.4494 12.636 83.4396 12.6809C83.4302 12.7252 83.4282 12.7657 83.4336 12.8024C83.439 12.8391 83.4515 12.8724 83.4711 12.9021C83.4918 12.9317 83.5189 12.9582 83.5524 12.9817C83.5954 13.0117 83.6387 13.0298 83.6824 13.036C83.7262 13.0421 83.7709 13.0353 83.8167 13.0156C83.8636 12.9957 83.9117 12.9621 83.9609 12.9146C84.0106 12.8665 84.0624 12.804 84.1163 12.7269Z" fill="#181819" fill-opacity="0.42"/>
<path d="M69.6713 28.4666L68.6999 29.854L68.5246 29.7312L69.3427 28.5628L68.899 28.4442L69.0099 28.2859L69.6439 28.4474L69.6713 28.4666ZM70.6416 30.0216L70.4943 30.232C70.4151 30.3451 70.3382 30.4334 70.2636 30.4969C70.1889 30.5605 70.1161 30.6027 70.045 30.6235C69.9739 30.6444 69.904 30.6467 69.8353 30.6306C69.7676 30.6143 69.7003 30.5827 69.6333 30.5358C69.5803 30.4986 69.5359 30.4577 69.5004 30.413C69.4648 30.3684 69.4392 30.3189 69.4235 30.2646C69.409 30.2102 69.4056 30.1504 69.4135 30.0853C69.4214 30.0202 69.4424 29.9493 69.4765 29.8724C69.5105 29.7955 69.5592 29.7119 69.6225 29.6215L69.7698 29.4112C69.8489 29.2981 69.9254 29.2104 69.9992 29.1481C70.0735 29.0863 70.1458 29.0455 70.216 29.026C70.2866 29.0058 70.3556 29.0041 70.4228 29.0211C70.4907 29.0385 70.5577 29.0704 70.6241 29.1168C70.6778 29.1544 70.7224 29.1956 70.758 29.2402C70.7946 29.2847 70.8207 29.3336 70.8361 29.3868C70.8521 29.4393 70.856 29.4976 70.8479 29.5616C70.8409 29.6254 70.8205 29.6955 70.7869 29.7717C70.7533 29.848 70.7048 29.9313 70.6416 30.0216ZM70.2981 30.137L70.4859 29.8688C70.5292 29.8069 70.5635 29.7499 70.5887 29.6979C70.6149 29.6456 70.6328 29.5979 70.6423 29.5547C70.6519 29.5115 70.6532 29.4719 70.6463 29.436C70.6401 29.4006 70.6264 29.3684 70.6052 29.3394C70.5851 29.3103 70.558 29.2838 70.5239 29.2599C70.4822 29.2307 70.4397 29.2127 70.3964 29.206C70.3536 29.1986 70.3094 29.2039 70.2638 29.2219C70.2189 29.2403 70.1717 29.2727 70.1223 29.3191C70.0729 29.3655 70.021 29.4275 69.9666 29.5052L69.7788 29.7734C69.7355 29.8353 69.7007 29.8924 69.6744 29.9446C69.6489 29.9973 69.6312 30.0461 69.6214 30.091C69.612 30.1353 69.61 30.1758 69.6154 30.2125C69.6207 30.2492 69.6332 30.2825 69.6529 30.3122C69.6736 30.3418 69.7007 30.3683 69.7342 30.3918C69.7771 30.4218 69.8205 30.4399 69.8642 30.4461C69.9079 30.4522 69.9527 30.4454 69.9985 30.4257C70.0454 30.4058 70.0934 30.3722 70.1427 30.3247C70.1923 30.2766 70.2441 30.2141 70.2981 30.137ZM71.7333 30.786L71.5859 30.9964C71.5068 31.1095 71.4299 31.1978 71.3552 31.2613C71.2806 31.3249 71.2078 31.3671 71.1367 31.3879C71.0656 31.4088 70.9957 31.4111 70.9269 31.395C70.8593 31.3787 70.792 31.3471 70.725 31.3002C70.6719 31.263 70.6276 31.2221 70.592 31.1774C70.5565 31.1328 70.5309 31.0833 70.5152 31.029C70.5006 30.9746 70.4973 30.9148 70.5052 30.8497C70.5131 30.7846 70.5341 30.7137 70.5681 30.6368C70.6022 30.5599 70.6509 30.4763 70.7141 30.3859L70.8614 30.1755C70.9406 30.0625 71.0171 29.9748 71.0908 29.9125C71.1652 29.8506 71.2375 29.8099 71.3077 29.7904C71.3783 29.7702 71.4472 29.7685 71.5145 29.7855C71.5823 29.8028 71.6494 29.8348 71.7158 29.8812C71.7694 29.9188 71.8141 29.9599 71.8496 30.0046C71.8863 30.0491 71.9123 30.098 71.9278 30.1512C71.9437 30.2037 71.9476 30.262 71.9395 30.326C71.9325 30.3898 71.9122 30.4599 71.8786 30.5361C71.8449 30.6124 71.7965 30.6957 71.7333 30.786ZM71.3898 30.9014L71.5776 30.6332C71.6209 30.5713 71.6552 30.5143 71.6803 30.4623C71.7065 30.41 71.7244 30.3623 71.734 30.3191C71.7435 30.2758 71.7449 30.2363 71.738 30.2004C71.7317 30.165 71.718 30.1328 71.6969 30.1038C71.6768 30.0747 71.6497 30.0482 71.6156 30.0243C71.5739 29.9951 71.5314 29.9771 71.4881 29.9704C71.4453 29.963 71.4011 29.9683 71.3555 29.9863C71.3106 30.0047 71.2634 30.0371 71.214 30.0835C71.1646 30.1298 71.1127 30.1919 71.0583 30.2696L70.8705 30.5378C70.8271 30.5997 70.7923 30.6568 70.7661 30.709C70.7405 30.7617 70.7228 30.8105 70.713 30.8554C70.7037 30.8997 70.7017 30.9402 70.707 30.9769C70.7124 31.0136 70.7249 31.0469 70.7445 31.0766C70.7653 31.1062 70.7924 31.1327 70.8259 31.1562C70.8688 31.1862 70.9122 31.2043 70.9559 31.2105C70.9996 31.2166 71.0444 31.2098 71.0902 31.1901C71.1371 31.1702 71.1851 31.1366 71.2343 31.0891C71.284 31.041 71.3358 30.9785 71.3898 30.9014Z" fill="#181819" fill-opacity="0.42"/>
<path d="M64.2018 39.1152L64.0868 38.981L64.637 38.3424L65.3449 38.8381L65.2314 39.0001L64.6723 38.6087L64.3679 38.9547C64.4033 38.9579 64.4447 38.9666 64.4921 38.981C64.5401 38.9958 64.5894 39.0209 64.64 39.0563C64.7038 39.1009 64.7532 39.152 64.7883 39.2095C64.8238 39.2664 64.845 39.3274 64.8521 39.3926C64.8598 39.4583 64.8532 39.5262 64.8324 39.5963C64.8115 39.6664 64.7765 39.7366 64.7274 39.8067C64.681 39.873 64.6291 39.9276 64.5719 39.9703C64.5153 40.0135 64.4544 40.0434 64.3891 40.0599C64.3244 40.0757 64.2566 40.0758 64.1857 40.06C64.1154 40.0447 64.0433 40.0112 63.9694 39.9594C63.9138 39.9205 63.8664 39.876 63.8271 39.8259C63.7889 39.7756 63.7612 39.7209 63.7442 39.6619C63.7282 39.6027 63.7245 39.5408 63.733 39.4762C63.7426 39.4113 63.7668 39.3445 63.8057 39.2756L63.9724 39.3924C63.9437 39.4495 63.9284 39.5037 63.9264 39.555C63.9243 39.6063 63.9352 39.654 63.959 39.698C63.9839 39.7417 64.021 39.7809 64.0703 39.8154C64.112 39.8446 64.154 39.8632 64.1964 39.8712C64.2388 39.8793 64.2806 39.8774 64.3217 39.8658C64.3628 39.8541 64.4026 39.8329 64.4409 39.8024C64.4799 39.7722 64.5162 39.7332 64.5498 39.6852C64.5804 39.6416 64.6027 39.5969 64.6168 39.5512C64.6309 39.5056 64.6356 39.4604 64.6311 39.4158C64.6272 39.3717 64.6135 39.3301 64.59 39.291C64.5669 39.2513 64.5333 39.216 64.4891 39.185C64.4303 39.1439 64.3802 39.1206 64.3389 39.1152C64.2981 39.1102 64.2524 39.1102 64.2018 39.1152ZM66.0381 40.1877L65.8908 40.3981C65.8116 40.5112 65.7347 40.5995 65.6601 40.6631C65.5854 40.7266 65.5126 40.7688 65.4415 40.7897C65.3704 40.8105 65.3005 40.8129 65.2318 40.7967C65.1641 40.7804 65.0968 40.7488 65.0298 40.7019C64.9767 40.6648 64.9324 40.6239 64.8969 40.5792C64.8613 40.5345 64.8357 40.485 64.82 40.4308C64.8054 40.3763 64.8021 40.3165 64.81 40.2515C64.8179 40.1864 64.8389 40.1154 64.873 40.0385C64.907 39.9616 64.9557 39.878 65.0189 39.7877L65.1663 39.5773C65.2454 39.4642 65.3219 39.3765 65.3956 39.3142C65.47 39.2524 65.5423 39.2117 65.6125 39.1921C65.6831 39.1719 65.7521 39.1703 65.8193 39.1872C65.8871 39.2046 65.9542 39.2365 66.0206 39.283C66.0743 39.3206 66.1189 39.3617 66.1545 39.4064C66.1911 39.4509 66.2172 39.4997 66.2326 39.5529C66.2485 39.6055 66.2525 39.6638 66.2444 39.7278C66.2373 39.7916 66.217 39.8616 66.1834 39.9379C66.1498 40.0141 66.1013 40.0974 66.0381 40.1877ZM65.6946 40.3031L65.8824 40.035C65.9257 39.973 65.96 39.9161 65.9851 39.864C66.0114 39.8118 66.0293 39.764 66.0388 39.7208C66.0483 39.6776 66.0497 39.638 66.0428 39.6022C66.0365 39.5667 66.0228 39.5345 66.0017 39.5056C65.9816 39.4764 65.9545 39.4499 65.9204 39.426C65.8787 39.3969 65.8362 39.3789 65.7929 39.3721C65.7501 39.3647 65.7059 39.37 65.6603 39.388C65.6154 39.4065 65.5682 39.4389 65.5188 39.4852C65.4694 39.5316 65.4175 39.5936 65.3631 39.6713L65.1753 39.9395C65.1319 40.0014 65.0972 40.0585 65.0709 40.1108C65.0453 40.1634 65.0276 40.2122 65.0178 40.2572C65.0085 40.3015 65.0065 40.342 65.0119 40.3787C65.0172 40.4154 65.0297 40.4486 65.0494 40.4784C65.0701 40.5079 65.0972 40.5344 65.1307 40.5579C65.1736 40.588 65.217 40.6061 65.2607 40.6122C65.3044 40.6184 65.3492 40.6116 65.395 40.5919C65.4419 40.572 65.4899 40.5383 65.5391 40.4909C65.5888 40.4428 65.6406 40.3802 65.6946 40.3031Z" fill="#181819" fill-opacity="0.42"/>
<path d="M60.3409 49.5896L60.1936 49.8C60.1144 49.9131 60.0375 50.0014 59.9629 50.0649C59.8883 50.1285 59.8154 50.1707 59.7444 50.1915C59.6733 50.2124 59.6034 50.2147 59.5346 50.1986C59.467 50.1823 59.3996 50.1507 59.3327 50.1038C59.2796 50.0666 59.2353 50.0257 59.1997 49.9811C59.1642 49.9364 59.1385 49.8869 59.1229 49.8326C59.1083 49.7782 59.105 49.7184 59.1129 49.6533C59.1208 49.5882 59.1418 49.5173 59.1758 49.4404C59.2099 49.3635 59.2586 49.2799 59.3218 49.1895L59.4691 48.9792C59.5483 48.8661 59.6248 48.7784 59.6985 48.7161C59.7729 48.6543 59.8452 48.6135 59.9154 48.594C59.986 48.5738 60.0549 48.5721 60.1221 48.5891C60.19 48.6065 60.2571 48.6384 60.3234 48.6848C60.3771 48.7224 60.4218 48.7636 60.4573 48.8082C60.494 48.8527 60.52 48.9016 60.5355 48.9548C60.5514 49.0073 60.5553 49.0656 60.5472 49.1296C60.5402 49.1934 60.5199 49.2635 60.4863 49.3397C60.4526 49.416 60.4042 49.4993 60.3409 49.5896ZM59.9975 49.705L60.1852 49.4368C60.2286 49.3749 60.2628 49.3179 60.288 49.2659C60.3142 49.2136 60.3321 49.1659 60.3417 49.1227C60.3512 49.0795 60.3525 49.0399 60.3457 49.004C60.3394 48.9686 60.3257 48.9364 60.3045 48.9074C60.2845 48.8783 60.2574 48.8518 60.2232 48.8279C60.1815 48.7987 60.1391 48.7807 60.0958 48.774C60.0529 48.7666 60.0087 48.7719 59.9632 48.7899C59.9183 48.8083 59.8711 48.8407 59.8217 48.8871C59.7723 48.9335 59.7204 48.9955 59.6659 49.0732L59.4782 49.3414C59.4348 49.4033 59.4 49.4604 59.3738 49.5126C59.3482 49.5653 59.3305 49.6141 59.3207 49.659C59.3113 49.7033 59.3093 49.7438 59.3147 49.7805C59.3201 49.8172 59.3326 49.8505 59.3522 49.8802C59.3729 49.9098 59.4001 49.9363 59.4335 49.9598C59.4765 49.9898 59.5198 50.0079 59.5636 50.0141C59.6073 50.0202 59.652 50.0134 59.6978 49.9937C59.7447 49.9738 59.7928 49.9402 59.842 49.8927C59.8917 49.8446 59.9435 49.7821 59.9975 49.705Z" fill="#181819" fill-opacity="0.42"/>
<path d="M94.1584 76.0456L93.187 77.4329L93.0117 77.3102L93.8298 76.1417L93.3861 76.0231L93.4969 75.8649L94.1309 76.0263L94.1584 76.0456ZM94.5018 77.1969L94.6269 77.2845C94.6882 77.3274 94.7458 77.3527 94.7997 77.3604C94.8548 77.3678 94.9045 77.3607 94.9488 77.3391C94.9943 77.3172 95.0327 77.2838 95.0641 77.239C95.1012 77.1859 95.1236 77.1352 95.1311 77.0868C95.1386 77.0384 95.1311 76.9927 95.1086 76.9496C95.086 76.9065 95.0476 76.8659 94.9932 76.8279C94.944 76.7934 94.8935 76.7726 94.8419 76.7657C94.7914 76.7585 94.743 76.7651 94.6967 76.7855C94.6511 76.8062 94.6115 76.8406 94.5779 76.8886L94.4025 76.7659C94.4516 76.6958 94.514 76.6443 94.5896 76.6116C94.6653 76.5789 94.7469 76.5678 94.8346 76.5784C94.923 76.5894 95.0095 76.6245 95.0941 76.6838C95.1775 76.7422 95.2401 76.8082 95.2818 76.8816C95.324 76.9545 95.3421 77.0321 95.3362 77.1146C95.3307 77.1964 95.2978 77.2803 95.2377 77.3662C95.2134 77.4009 95.179 77.4325 95.1347 77.4608C95.0915 77.4889 95.0409 77.508 94.9829 77.5183C94.9255 77.5289 94.8623 77.5265 94.7931 77.511C94.7244 77.4949 94.6524 77.4605 94.5772 77.4079L94.4275 77.3031L94.5018 77.1969ZM94.4009 77.341L94.4746 77.2358L94.6243 77.3406C94.7121 77.4021 94.7775 77.4634 94.8204 77.5245C94.8633 77.5856 94.889 77.645 94.8975 77.7028C94.9067 77.761 94.9033 77.8156 94.8873 77.8665C94.8725 77.9173 94.8507 77.9633 94.8219 78.0043C94.7768 78.0688 94.7257 78.1182 94.6687 78.1526C94.6122 78.1875 94.552 78.2084 94.4878 78.2153C94.4243 78.2226 94.3599 78.2165 94.2944 78.197C94.2289 78.1776 94.1649 78.1459 94.1024 78.1021C94.0424 78.0601 93.9918 78.012 93.9507 77.9578C93.9102 77.904 93.881 77.8469 93.8631 77.7863C93.8457 77.7252 93.8422 77.6629 93.8527 77.5996C93.8635 77.5357 93.8904 77.4731 93.9333 77.4118L94.1086 77.5345C94.075 77.5826 94.056 77.6319 94.0517 77.6825C94.0479 77.7335 94.0586 77.7829 94.0836 77.8305C94.1097 77.878 94.1496 77.9205 94.2033 77.9581C94.257 77.9957 94.3095 78.0188 94.3609 78.0275C94.4133 78.036 94.4632 78.0285 94.5106 78.0052C94.5586 77.9824 94.6028 77.9422 94.643 77.8847C94.6833 77.8272 94.7042 77.7718 94.7059 77.7183C94.708 77.6642 94.6931 77.6128 94.6613 77.5642C94.6305 77.5154 94.5854 77.4701 94.526 77.4286L94.4009 77.341ZM94.8706 78.4734C94.8914 78.4437 94.918 78.4251 94.9505 78.4178C94.984 78.4102 95.0185 78.4188 95.0539 78.4435C95.0892 78.4683 95.1088 78.4975 95.1125 78.5312C95.1173 78.5647 95.1093 78.5963 95.0885 78.626C95.0682 78.655 95.0415 78.673 95.0083 78.68C94.9759 78.6874 94.9419 78.6787 94.9066 78.6539C94.8712 78.6291 94.8511 78.6 94.8463 78.5665C94.8421 78.5335 94.8502 78.5024 94.8706 78.4734ZM95.4574 77.6373C95.4782 77.6076 95.5048 77.589 95.5373 77.5817C95.5709 77.5741 95.6053 77.5827 95.6407 77.6075C95.6761 77.6322 95.6956 77.6614 95.6994 77.6951C95.7042 77.7286 95.6962 77.7602 95.6754 77.7899C95.655 77.819 95.6283 77.837 95.5952 77.8439C95.5627 77.8513 95.5288 77.8426 95.4934 77.8178C95.458 77.7931 95.4379 77.7639 95.4331 77.7304C95.429 77.6974 95.4371 77.6663 95.4574 77.6373ZM96.6904 78.6941L96.5431 78.9044C96.4639 79.0175 96.387 79.1058 96.3123 79.1694C96.2377 79.2329 96.1649 79.2751 96.0938 79.296C96.0227 79.3168 95.9528 79.3192 95.884 79.3031C95.8164 79.2867 95.7491 79.2551 95.6821 79.2083C95.629 79.1711 95.5847 79.1302 95.5492 79.0855C95.5136 79.0408 95.488 78.9914 95.4723 78.9371C95.4577 78.8826 95.4544 78.8228 95.4623 78.7578C95.4702 78.6927 95.4912 78.6217 95.5252 78.5448C95.5593 78.4679 95.608 78.3843 95.6712 78.294L95.8185 78.0836C95.8977 77.9705 95.9742 77.8828 96.0479 77.8206C96.1223 77.7587 96.1946 77.718 96.2648 77.6984C96.3354 77.6782 96.4043 77.6766 96.4716 77.6935C96.5394 77.7109 96.6065 77.7428 96.6729 77.7893C96.7266 77.8269 96.7712 77.868 96.8067 77.9127C96.8434 77.9572 96.8694 78.006 96.8849 78.0592C96.9008 78.1118 96.9047 78.1701 96.8966 78.2341C96.8896 78.2979 96.8693 78.3679 96.8357 78.4442C96.8021 78.5204 96.7536 78.6037 96.6904 78.6941ZM96.3469 78.8094L96.5347 78.5413C96.578 78.4794 96.6123 78.4224 96.6374 78.3703C96.6637 78.3181 96.6815 78.2703 96.6911 78.2271C96.7006 78.1839 96.702 78.1444 96.6951 78.1085C96.6888 78.073 96.6751 78.0408 96.654 78.0119C96.6339 77.9828 96.6068 77.9563 96.5727 77.9324C96.531 77.9032 96.4885 77.8852 96.4452 77.8784C96.4024 77.871 96.3582 77.8763 96.3126 77.8943C96.2677 77.9128 96.2205 77.9452 96.1711 77.9915C96.1217 78.0379 96.0698 78.0999 96.0154 78.1777L95.8276 78.4458C95.7842 78.5077 95.7494 78.5648 95.7232 78.6171C95.6976 78.6698 95.6799 78.7186 95.6701 78.7635C95.6608 78.8078 95.6588 78.8483 95.6641 78.885C95.6695 78.9217 95.682 78.9549 95.7017 78.9847C95.7224 79.0143 95.7495 79.0408 95.783 79.0642C95.8259 79.0943 95.8693 79.1124 95.913 79.1185C95.9567 79.1247 96.0015 79.1179 96.0473 79.0982C96.0942 79.0783 96.1422 79.0446 96.1914 78.9972C96.2411 78.9491 96.2929 78.8865 96.3469 78.8094ZM97.782 79.4585L97.6347 79.6688C97.5555 79.7819 97.4786 79.8702 97.404 79.9338C97.3294 79.9973 97.2565 80.0395 97.1854 80.0604C97.1144 80.0812 97.0445 80.0836 96.9757 80.0674C96.908 80.0511 96.8407 80.0195 96.7738 79.9726C96.7207 79.9355 96.6764 79.8946 96.6408 79.8499C96.6053 79.8052 96.5796 79.7557 96.564 79.7015C96.5494 79.647 96.5461 79.5872 96.554 79.5222C96.5619 79.4571 96.5829 79.3861 96.6169 79.3092C96.651 79.2323 96.6996 79.1487 96.7629 79.0584L96.9102 78.848C96.9894 78.7349 97.0658 78.6472 97.1396 78.585C97.214 78.5231 97.2862 78.4824 97.3564 78.4628C97.4271 78.4426 97.496 78.441 97.5632 78.4579C97.6311 78.4753 97.6982 78.5072 97.7645 78.5537C97.8182 78.5913 97.8629 78.6324 97.8984 78.6771C97.9351 78.7216 97.9611 78.7704 97.9766 78.8236C97.9925 78.8762 97.9964 78.9345 97.9883 78.9985C97.9813 79.0623 97.961 79.1323 97.9273 79.2086C97.8937 79.2848 97.8453 79.3681 97.782 79.4585ZM97.4386 79.5738L97.6263 79.3057C97.6697 79.2438 97.7039 79.1868 97.7291 79.1347C97.7553 79.0825 97.7732 79.0347 97.7828 78.9915C97.7923 78.9483 97.7936 78.9088 97.7867 78.8729C97.7805 78.8374 97.7668 78.8052 97.7456 78.7763C97.7255 78.7472 97.6984 78.7206 97.6643 78.6968C97.6226 78.6676 97.5801 78.6496 97.5369 78.6428C97.494 78.6354 97.4498 78.6407 97.4043 78.6587C97.3594 78.6772 97.3122 78.7096 97.2628 78.7559C97.2134 78.8023 97.1614 78.8643 97.107 78.942L96.9193 79.2102C96.8759 79.2721 96.8411 79.3292 96.8149 79.3815C96.7893 79.4342 96.7716 79.483 96.7618 79.5279C96.7524 79.5722 96.7504 79.6127 96.7558 79.6494C96.7612 79.6861 96.7737 79.7193 96.7933 79.7491C96.814 79.7787 96.8411 79.8052 96.8746 79.8286C96.9176 79.8587 96.9609 79.8768 97.0046 79.8829C97.0484 79.8891 97.0931 79.8823 97.1389 79.8626C97.1858 79.8427 97.2339 79.809 97.2831 79.7616C97.3328 79.7135 97.3846 79.6509 97.4386 79.5738Z" fill="#181819" fill-opacity="0.42"/>
<path d="M163.01 90.6054C158.273 87.2888 141.093 80.0478 134.712 75.5799C128.331 71.1119 113.056 73.9509 104.577 68.014C96.0982 62.0771 91.7477 44.6633 86.0661 40.685C80.3844 36.7067 72.0092 37.5055 72.0092 37.5055L62.079 51.6871L233.402 171.649L248.028 150.761C243.292 147.444 241.991 142.056 237.37 138.821C232.749 135.585 209.66 139.512 203.542 135.228C197.423 130.943 196.993 115.081 187.965 112.868C178.937 110.655 167.746 93.9219 163.01 90.6054Z" fill="url(#paint0_linear_380_11969)"/>
<path d="M248.025 150.766C243.288 147.449 241.991 142.056 237.37 138.821C232.749 135.585 209.643 139.536 203.525 135.252C197.406 130.968 197.484 115.377 188.816 113.48C180.148 111.582 167.743 93.9266 163.007 90.6101C158.27 87.2935 141.085 80.0583 134.704 75.5904C128.323 71.1224 113.037 73.9777 104.558 68.0409C96.0794 62.104 91.7411 44.6728 86.0594 40.6945C80.3778 36.7161 71.9969 37.523 71.9969 37.523" stroke="#5AC5F2" stroke-width="0.394868"/>
</g>
<defs>
<filter id="filter0_d_380_11969" x="0.104793" y="1.11674" width="307.635" height="207.361" filterUnits="userSpaceOnUse" color-interpolation-filters="sRGB">
<feFlood flood-opacity="0" result="BackgroundImageFix"/>
<feColorMatrix in="SourceAlpha" type="matrix" values="0 0 0 0 0 0 0 0 0 0 0 0 0 0 0 0 0 0 127 0" result="hardAlpha"/>
<feOffset dx="-3.27401" dy="7.63935"/>
<feGaussianBlur stdDeviation="2.18267"/>
<feComposite in2="hardAlpha" operator="out"/>
<feColorMatrix type="matrix" values="0 0 0 0 0 0 0 0 0 0 0 0 0 0 0 0 0 0 0.25 0"/>
<feBlend mode="normal" in2="BackgroundImageFix" result="effect1_dropShadow_380_11969"/>
<feBlend mode="normal" in="SourceGraphic" in2="effect1_dropShadow_380_11969" result="shape"/>
</filter>
<filter id="filter1_d_380_11969" x="47.998" y="6.29016" width="217" height="178.035" filterUnits="userSpaceOnUse" color-interpolation-filters="sRGB">
<feFlood flood-opacity="0" result="BackgroundImageFix"/>
<feColorMatrix in="SourceAlpha" type="matrix" values="0 0 0 0 0 0 0 0 0 0 0 0 0 0 0 0 0 0 127 0" result="hardAlpha"/>
<feOffset dx="-1" dy="5"/>
<feGaussianBlur stdDeviation="2"/>
<feComposite in2="hardAlpha" operator="out"/>
<feColorMatrix type="matrix" values="0 0 0 0 0 0 0 0 0 0 0 0 0 0 0 0 0 0 0.4 0"/>
<feBlend mode="normal" in2="BackgroundImageFix" result="effect1_dropShadow_380_11969"/>
<feBlend mode="normal" in="SourceGraphic" in2="effect1_dropShadow_380_11969" result="shape"/>
</filter>
<linearGradient id="paint0_linear_380_11969" x1="164.866" y1="87.2104" x2="147.741" y2="111.668" gradientUnits="userSpaceOnUse">
<stop stop-color="#5AC5F2" stop-opacity="0.6"/>
<stop offset="1" stop-color="white" stop-opacity="0"/>
</linearGradient>
<clipPath id="clip0_380_11969">
<rect width="3.04687" height="3.98866" fill="white" transform="translate(248.74 121.523) rotate(35)"/>
</clipPath>
</defs>
</svg>
