<svg width="254" height="167" viewBox="0 0 254 167" fill="none" xmlns="http://www.w3.org/2000/svg">
<g filter="url(#filter0_d_380_11931)">
<path d="M9.43951 101.083L95.0955 154.726C96.3998 155.543 98.057 155.539 99.3575 154.716L248.083 60.6072C250.583 59.0252 250.56 55.3703 248.04 53.8201L164.705 2.55565C162.448 1.1671 159.6 1.17229 157.348 2.56909L9.45432 94.2938C6.93848 95.8541 6.9305 99.5119 9.43951 101.083Z" fill="#1A4159"/>
<path d="M9.43951 101.083L95.0955 154.726C96.3998 155.543 98.057 155.539 99.3575 154.716L248.083 60.6072C250.583 59.0252 250.56 55.3703 248.04 53.8201L164.705 2.55565C162.448 1.1671 159.6 1.17229 157.348 2.56909L9.45432 94.2938C6.93848 95.8541 6.9305 99.5119 9.43951 101.083Z" stroke="#1A4159"/>
</g>
<path d="M97 117.29V85.7902H131V47.2902L175.5 70.7902L190.5 47.2902H215.5" stroke="#5AC5F2"/>
<path d="M45.5 90.2902L106.5 128.79L230 51.2902" stroke="#4BC7B0"/>
<defs>
<filter id="filter0_d_380_11931" x="0.0625" y="1.01785" width="251.381" height="165.818" filterUnits="userSpaceOnUse" color-interpolation-filters="sRGB">
<feFlood flood-opacity="0" result="BackgroundImageFix"/>
<feColorMatrix in="SourceAlpha" type="matrix" values="0 0 0 0 0 0 0 0 0 0 0 0 0 0 0 0 0 0 127 0" result="hardAlpha"/>
<feOffset dx="-3" dy="7"/>
<feGaussianBlur stdDeviation="2"/>
<feComposite in2="hardAlpha" operator="out"/>
<feColorMatrix type="matrix" values="0 0 0 0 0 0 0 0 0 0 0 0 0 0 0 0 0 0 0.25 0"/>
<feBlend mode="normal" in2="BackgroundImageFix" result="effect1_dropShadow_380_11931"/>
<feBlend mode="normal" in="SourceGraphic" in2="effect1_dropShadow_380_11931" result="shape"/>
</filter>
</defs>
</svg>
