<svg width="305" height="208" viewBox="0 0 305 208" fill="none" xmlns="http://www.w3.org/2000/svg">
<g filter="url(#filter0_d_380_11966)">
<path d="M299.563 75.9819L194.661 10.2601C193.357 9.44276 191.699 9.44662 190.398 10.27L9.41472 124.836C6.91535 126.419 6.93851 130.072 9.45773 131.623L111.883 194.656C114.14 196.045 116.989 196.04 119.242 194.642L299.548 82.7705C302.063 81.2101 302.071 77.5533 299.563 75.9819Z" fill="#1A4159"/>
<path d="M299.563 75.9819L194.661 10.2601C193.357 9.44276 191.699 9.44662 190.398 10.27L9.41472 124.836C6.91535 126.419 6.93851 130.072 9.45773 131.623L111.883 194.656C114.14 196.045 116.989 196.04 119.242 194.642L299.548 82.7705C302.063 81.2101 302.071 77.5533 299.563 75.9819Z" stroke="#1A4159"/>
</g>
<g filter="url(#filter1_d_380_11966)">
<path d="M170.361 117.872C170.361 127.048 164.99 135.369 156.281 141.4C147.571 147.432 135.533 151.167 122.229 151.167C108.926 151.167 96.8871 147.432 88.1778 141.4C79.468 135.369 74.0977 127.048 74.0977 117.872C74.0977 108.696 79.468 100.376 88.1778 94.3437C96.8871 88.3122 108.926 84.5776 122.229 84.5776C135.533 84.5776 147.571 88.3122 156.281 94.3437C164.99 100.376 170.361 108.696 170.361 117.872Z" stroke="#5AC5F2" stroke-opacity="0.6" stroke-width="0.25"/>
<path d="M164.328 117.872C164.328 125.894 159.633 133.171 152.014 138.447C144.397 143.722 133.866 146.989 122.228 146.989C110.591 146.989 100.06 143.722 92.4423 138.447C84.8241 133.171 80.1289 125.894 80.1289 117.872C80.1289 109.85 84.8241 102.574 92.4423 97.2976C100.06 92.0221 110.591 88.7551 122.228 88.7551C133.866 88.7551 144.397 92.0221 152.014 97.2976C159.633 102.574 164.328 109.85 164.328 117.872Z" stroke="#5AC5F2" stroke-opacity="0.6" stroke-width="0.25"/>
<path d="M158.297 117.872C158.297 124.741 154.277 130.973 147.75 135.493C141.224 140.012 132.202 142.812 122.229 142.812C112.257 142.812 103.235 140.012 96.7088 135.493C90.1822 130.973 86.1621 124.741 86.1621 117.872C86.1621 111.003 90.1822 104.771 96.7088 100.252C103.235 95.7319 112.257 92.9325 122.229 92.9325C132.202 92.9325 141.224 95.7319 147.75 100.252C154.277 104.771 158.297 111.003 158.297 117.872Z" stroke="#5AC5F2" stroke-opacity="0.6" stroke-width="0.25"/>
<path d="M152.264 117.872C152.264 123.587 148.919 128.775 143.484 132.539C138.05 136.302 130.535 138.634 122.229 138.634C113.922 138.634 106.408 136.302 100.973 132.539C95.5383 128.775 92.1934 123.587 92.1934 117.872C92.1934 112.157 95.5383 106.969 100.973 103.205C106.408 99.4418 113.922 97.1099 122.229 97.1099C130.535 97.1099 138.05 99.4418 143.484 103.205C148.919 106.969 152.264 112.157 152.264 117.872Z" stroke="#5AC5F2" stroke-opacity="0.6" stroke-width="0.25"/>
<path d="M146.233 117.872C146.233 122.434 143.563 126.577 139.22 129.585C134.877 132.593 128.87 134.457 122.23 134.457C115.589 134.457 109.583 132.593 105.24 129.585C100.896 126.577 98.2266 122.434 98.2266 117.872C98.2266 113.31 100.896 109.167 105.24 106.159C109.583 103.152 115.589 101.287 122.23 101.287C128.87 101.287 134.877 103.152 139.22 106.159C143.563 109.167 146.233 113.31 146.233 117.872Z" stroke="#5AC5F2" stroke-opacity="0.6" stroke-width="0.25"/>
<path d="M140.2 117.872C140.2 121.28 138.206 124.379 134.954 126.631C131.702 128.883 127.204 130.279 122.229 130.279C117.254 130.279 112.756 128.883 109.504 126.631C106.252 124.379 104.258 121.28 104.258 117.872C104.258 114.464 106.252 111.365 109.504 109.113C112.756 106.861 117.254 105.465 122.229 105.465C127.204 105.465 131.702 106.861 134.954 109.113C138.206 111.365 140.2 114.464 140.2 117.872Z" stroke="#5AC5F2" stroke-opacity="0.6" stroke-width="0.25"/>
<path d="M134.167 117.872C134.167 120.127 132.848 122.181 130.688 123.677C128.528 125.173 125.537 126.102 122.228 126.102C118.919 126.102 115.929 125.173 113.769 123.677C111.608 122.181 110.289 120.127 110.289 117.872C110.289 115.618 111.608 113.563 113.769 112.067C115.929 110.571 118.919 109.642 122.228 109.642C125.537 109.642 128.528 110.571 130.688 112.067C132.848 113.563 134.167 115.618 134.167 117.872Z" stroke="#5AC5F2" stroke-opacity="0.6" stroke-width="0.25"/>
<path d="M128.136 117.872C128.136 118.973 127.492 119.983 126.423 120.723C125.355 121.463 123.873 121.924 122.229 121.924C120.586 121.924 119.103 121.463 118.035 120.723C116.967 119.983 116.322 118.973 116.322 117.872C116.322 116.771 116.967 115.761 118.035 115.021C119.103 114.281 120.586 113.82 122.229 113.82C123.873 113.82 125.355 114.281 126.423 115.021C127.492 115.761 128.136 116.771 128.136 117.872Z" stroke="#5AC5F2" stroke-opacity="0.6" stroke-width="0.25"/>
<mask id="path-10-inside-1_380_11966" fill="white">
<path d="M122.229 92.8075C127.961 92.8075 133.61 93.75 138.712 95.5575C143.814 97.365 148.224 99.9858 151.577 103.204C154.931 106.422 157.133 110.146 158.003 114.069C158.872 117.992 158.384 122.002 156.579 125.769L122.229 117.872V92.8075Z"/>
</mask>
<path d="M122.229 92.8075C127.961 92.8075 133.61 93.75 138.712 95.5575C143.814 97.365 148.224 99.9858 151.577 103.204C154.931 106.422 157.133 110.146 158.003 114.069C158.872 117.992 158.384 122.002 156.579 125.769L122.229 117.872V92.8075Z" fill="#5AC5F2" stroke="#5388D8" stroke-width="0.5" mask="url(#path-10-inside-1_380_11966)"/>
<mask id="path-11-inside-2_380_11966" fill="white">
<path d="M147.08 123.791C145.6 126.808 142.993 129.5 139.525 131.594C136.057 133.688 131.851 135.11 127.334 135.715L122.38 117.976L147.08 123.791Z"/>
</mask>
<path d="M147.08 123.791C145.6 126.808 142.993 129.5 139.525 131.594C136.057 133.688 131.851 135.11 127.334 135.715L122.38 117.976L147.08 123.791Z" fill="#37E9F4" stroke="#5AC5F2" stroke-width="0.5" mask="url(#path-11-inside-2_380_11966)"/>
<path d="M129.2 145.653C122.556 146.453 115.728 146.097 109.331 144.617C102.935 143.138 97.1687 140.581 92.5516 137.177C87.9344 133.772 84.6107 129.627 82.8789 125.113C81.1471 120.599 81.0616 115.857 82.6299 111.315L122.23 117.872L129.2 145.653Z" fill="#0D2535"/>
<mask id="path-13-inside-3_380_11966" fill="white">
<path d="M111.103 115.966C111.712 114.26 113.123 112.742 115.112 111.65C117.102 110.559 119.558 109.956 122.096 109.935L122.229 117.872L111.103 115.966Z"/>
</mask>
<path d="M111.103 115.966C111.712 114.26 113.123 112.742 115.112 111.65C117.102 110.559 119.558 109.956 122.096 109.935L122.229 117.872L111.103 115.966Z" fill="#BFE6BA" stroke="#BFE6BA" stroke-width="0.5" mask="url(#path-13-inside-3_380_11966)"/>
<path d="M121.185 111.417V113.562H120.914V111.755L120.368 111.955V111.71L121.143 111.417H121.185ZM123.321 112.325V112.65C123.321 112.825 123.305 112.973 123.274 113.093C123.243 113.213 123.198 113.31 123.139 113.383C123.081 113.456 123.01 113.509 122.927 113.543C122.845 113.575 122.752 113.591 122.648 113.591C122.566 113.591 122.491 113.581 122.421 113.56C122.352 113.54 122.29 113.507 122.234 113.462C122.179 113.416 122.132 113.357 122.093 113.283C122.054 113.21 122.024 113.121 122.004 113.017C121.983 112.912 121.973 112.79 121.973 112.65V112.325C121.973 112.15 121.989 112.004 122.02 111.886C122.052 111.768 122.098 111.673 122.156 111.602C122.215 111.529 122.285 111.478 122.367 111.446C122.45 111.415 122.543 111.399 122.646 111.399C122.729 111.399 122.805 111.41 122.874 111.43C122.944 111.45 123.007 111.482 123.062 111.525C123.116 111.568 123.163 111.626 123.201 111.698C123.24 111.77 123.27 111.857 123.29 111.961C123.311 112.064 123.321 112.186 123.321 112.325ZM123.048 112.694V112.28C123.048 112.184 123.042 112.1 123.031 112.028C123.02 111.955 123.004 111.892 122.982 111.84C122.961 111.789 122.934 111.747 122.9 111.714C122.868 111.682 122.831 111.659 122.788 111.644C122.746 111.628 122.698 111.621 122.646 111.621C122.581 111.621 122.524 111.633 122.474 111.657C122.424 111.681 122.382 111.718 122.348 111.77C122.315 111.822 122.29 111.89 122.272 111.974C122.254 112.058 122.246 112.16 122.246 112.28V112.694C122.246 112.79 122.251 112.875 122.262 112.948C122.273 113.021 122.291 113.085 122.313 113.138C122.335 113.191 122.363 113.234 122.395 113.269C122.427 113.303 122.464 113.328 122.506 113.345C122.549 113.36 122.597 113.368 122.648 113.368C122.715 113.368 122.773 113.356 122.823 113.33C122.873 113.305 122.914 113.265 122.947 113.211C122.981 113.157 123.007 113.087 123.023 113.002C123.04 112.916 123.048 112.814 123.048 112.694Z" fill="#5AC5F2" fill-opacity="0.6"/>
<path d="M121.692 109.161V109.384H120.296V109.189L120.995 108.411C121.081 108.316 121.147 108.235 121.194 108.168C121.242 108.101 121.275 108.041 121.293 107.988C121.313 107.934 121.323 107.88 121.323 107.824C121.323 107.754 121.308 107.69 121.279 107.634C121.25 107.576 121.208 107.53 121.153 107.496C121.097 107.462 121.03 107.445 120.951 107.445C120.856 107.445 120.777 107.463 120.713 107.5C120.651 107.536 120.604 107.587 120.573 107.653C120.542 107.718 120.526 107.793 120.526 107.878H120.255C120.255 107.758 120.281 107.648 120.334 107.549C120.387 107.449 120.465 107.37 120.568 107.311C120.672 107.252 120.799 107.222 120.951 107.222C121.085 107.222 121.201 107.246 121.296 107.294C121.392 107.341 121.465 107.407 121.516 107.493C121.568 107.578 121.594 107.678 121.594 107.792C121.594 107.854 121.583 107.918 121.562 107.982C121.541 108.046 121.512 108.109 121.475 108.173C121.439 108.236 121.396 108.299 121.348 108.36C121.3 108.422 121.249 108.482 121.194 108.542L120.623 109.161H121.692ZM123.321 108.148V108.473C123.321 108.648 123.305 108.795 123.274 108.915C123.243 109.036 123.198 109.132 123.139 109.205C123.081 109.279 123.01 109.332 122.927 109.365C122.845 109.397 122.752 109.413 122.648 109.413C122.566 109.413 122.491 109.403 122.421 109.383C122.352 109.362 122.29 109.329 122.234 109.285C122.179 109.239 122.132 109.179 122.093 109.106C122.054 109.033 122.024 108.944 122.004 108.839C121.983 108.735 121.973 108.613 121.973 108.473V108.148C121.973 107.973 121.989 107.827 122.02 107.708C122.052 107.59 122.098 107.495 122.156 107.424C122.215 107.352 122.285 107.3 122.367 107.269C122.45 107.238 122.543 107.222 122.646 107.222C122.729 107.222 122.805 107.232 122.874 107.253C122.944 107.272 123.007 107.304 123.062 107.348C123.116 107.391 123.163 107.449 123.201 107.521C123.24 107.592 123.27 107.68 123.29 107.783C123.311 107.887 123.321 108.008 123.321 108.148ZM123.048 108.517V108.102C123.048 108.007 123.042 107.923 123.031 107.85C123.02 107.777 123.004 107.715 122.982 107.663C122.961 107.611 122.934 107.569 122.9 107.537C122.868 107.505 122.831 107.481 122.788 107.467C122.746 107.451 122.698 107.443 122.646 107.443C122.581 107.443 122.524 107.455 122.474 107.48C122.424 107.503 122.382 107.541 122.348 107.593C122.315 107.644 122.29 107.712 122.272 107.796C122.254 107.88 122.246 107.982 122.246 108.102V108.517C122.246 108.613 122.251 108.697 122.262 108.77C122.273 108.844 122.291 108.907 122.313 108.961C122.335 109.014 122.363 109.057 122.395 109.091C122.427 109.125 122.464 109.151 122.506 109.167C122.549 109.183 122.597 109.191 122.648 109.191C122.715 109.191 122.773 109.178 122.823 109.153C122.873 109.127 122.914 109.088 122.947 109.034C122.981 108.979 123.007 108.91 123.023 108.825C123.04 108.739 123.048 108.636 123.048 108.517Z" fill="#5AC5F2" fill-opacity="0.6"/>
<path d="M120.69 104.007H120.883C120.978 104.007 121.056 103.991 121.118 103.96C121.18 103.928 121.227 103.884 121.257 103.83C121.288 103.774 121.304 103.712 121.304 103.642C121.304 103.56 121.29 103.491 121.263 103.436C121.235 103.38 121.194 103.338 121.14 103.31C121.085 103.281 121.016 103.267 120.932 103.267C120.855 103.267 120.788 103.282 120.729 103.313C120.672 103.342 120.626 103.384 120.593 103.439C120.561 103.493 120.545 103.558 120.545 103.632H120.274C120.274 103.524 120.301 103.425 120.356 103.336C120.411 103.247 120.487 103.176 120.586 103.124C120.686 103.071 120.801 103.045 120.932 103.045C121.061 103.045 121.173 103.068 121.27 103.113C121.367 103.158 121.442 103.226 121.496 103.316C121.549 103.404 121.576 103.515 121.576 103.648C121.576 103.702 121.563 103.759 121.538 103.821C121.514 103.882 121.475 103.938 121.422 103.991C121.371 104.044 121.303 104.087 121.22 104.121C121.137 104.154 121.038 104.171 120.921 104.171H120.69V104.007ZM120.69 104.23V104.067H120.921C121.057 104.067 121.169 104.083 121.258 104.115C121.347 104.148 121.417 104.191 121.468 104.244C121.52 104.298 121.556 104.357 121.576 104.422C121.598 104.485 121.608 104.549 121.608 104.612C121.608 104.712 121.591 104.8 121.557 104.877C121.524 104.954 121.477 105.02 121.415 105.073C121.354 105.127 121.283 105.168 121.201 105.195C121.119 105.222 121.03 105.236 120.933 105.236C120.84 105.236 120.753 105.223 120.671 105.196C120.59 105.17 120.518 105.132 120.456 105.082C120.393 105.031 120.344 104.969 120.309 104.896C120.274 104.822 120.256 104.737 120.256 104.643H120.527C120.527 104.717 120.543 104.782 120.576 104.838C120.609 104.893 120.656 104.937 120.716 104.968C120.778 104.998 120.85 105.013 120.933 105.013C121.016 105.013 121.087 104.999 121.147 104.971C121.208 104.942 121.254 104.898 121.286 104.839C121.319 104.78 121.336 104.707 121.336 104.618C121.336 104.529 121.317 104.456 121.28 104.4C121.243 104.342 121.19 104.299 121.122 104.272C121.055 104.244 120.975 104.23 120.883 104.23H120.69ZM123.321 103.97V104.296C123.321 104.47 123.305 104.618 123.274 104.738C123.243 104.858 123.198 104.955 123.139 105.028C123.081 105.101 123.01 105.154 122.927 105.188C122.845 105.22 122.752 105.236 122.648 105.236C122.566 105.236 122.491 105.226 122.421 105.205C122.352 105.185 122.29 105.152 122.234 105.107C122.179 105.061 122.132 105.002 122.093 104.928C122.054 104.855 122.024 104.766 122.004 104.662C121.983 104.557 121.973 104.435 121.973 104.296V103.97C121.973 103.796 121.989 103.649 122.02 103.531C122.052 103.413 122.098 103.318 122.156 103.247C122.215 103.174 122.285 103.123 122.367 103.091C122.45 103.06 122.543 103.045 122.646 103.045C122.729 103.045 122.805 103.055 122.874 103.075C122.944 103.095 123.007 103.127 123.062 103.171C123.116 103.214 123.163 103.271 123.201 103.343C123.24 103.415 123.27 103.502 123.29 103.606C123.311 103.709 123.321 103.831 123.321 103.97ZM123.048 104.34V103.925C123.048 103.829 123.042 103.745 123.031 103.673C123.02 103.6 123.004 103.537 122.982 103.486C122.961 103.434 122.934 103.392 122.9 103.36C122.868 103.327 122.831 103.304 122.788 103.289C122.746 103.274 122.698 103.266 122.646 103.266C122.581 103.266 122.524 103.278 122.474 103.302C122.424 103.326 122.382 103.363 122.348 103.415C122.315 103.467 122.29 103.535 122.272 103.619C122.254 103.703 122.246 103.805 122.246 103.925V104.34C122.246 104.435 122.251 104.52 122.262 104.593C122.273 104.666 122.291 104.73 122.313 104.783C122.335 104.836 122.363 104.88 122.395 104.914C122.427 104.948 122.464 104.973 122.506 104.99C122.549 105.006 122.597 105.013 122.648 105.013C122.715 105.013 122.773 105.001 122.823 104.975C122.873 104.95 122.914 104.91 122.947 104.857C122.981 104.802 123.007 104.732 123.023 104.647C123.04 104.561 123.048 104.459 123.048 104.34Z" fill="#5AC5F2" fill-opacity="0.6"/>
<path d="M121.736 100.312V100.534H120.195V100.375L121.15 98.8965H121.371L121.134 99.3242L120.502 100.312H121.736ZM121.438 98.8965V101.029H121.167V98.8965H121.438ZM123.321 99.793V100.118C123.321 100.293 123.305 100.44 123.274 100.561C123.243 100.681 123.198 100.777 123.139 100.851C123.081 100.924 123.01 100.977 122.927 101.01C122.845 101.042 122.752 101.059 122.648 101.059C122.566 101.059 122.491 101.048 122.421 101.028C122.352 101.007 122.29 100.975 122.234 100.93C122.179 100.884 122.132 100.824 122.093 100.751C122.054 100.678 122.024 100.589 122.004 100.484C121.983 100.38 121.973 100.258 121.973 100.118V99.793C121.973 99.6182 121.989 99.4717 122.02 99.3535C122.052 99.2354 122.098 99.1406 122.156 99.0693C122.215 98.9971 122.285 98.9453 122.367 98.9141C122.45 98.8828 122.543 98.8672 122.646 98.8672C122.729 98.8672 122.805 98.8774 122.874 98.8979C122.944 98.9175 123.007 98.9492 123.062 98.9932C123.116 99.0361 123.163 99.0938 123.201 99.166C123.24 99.2373 123.27 99.3247 123.29 99.4282C123.311 99.5317 123.321 99.6533 123.321 99.793ZM123.048 100.162V99.7476C123.048 99.6519 123.042 99.5679 123.031 99.4956C123.02 99.4224 123.004 99.3599 122.982 99.3081C122.961 99.2563 122.934 99.2144 122.9 99.1821C122.868 99.1499 122.831 99.1265 122.788 99.1118C122.746 99.0962 122.698 99.0884 122.646 99.0884C122.581 99.0884 122.524 99.1006 122.474 99.125C122.424 99.1484 122.382 99.186 122.348 99.2378C122.315 99.2896 122.29 99.3574 122.272 99.4414C122.254 99.5254 122.246 99.6274 122.246 99.7476V100.162C122.246 100.258 122.251 100.342 122.262 100.416C122.273 100.489 122.291 100.552 122.313 100.606C122.335 100.659 122.363 100.702 122.395 100.736C122.427 100.771 122.464 100.796 122.506 100.812C122.549 100.828 122.597 100.836 122.648 100.836C122.715 100.836 122.773 100.823 122.823 100.798C122.873 100.772 122.914 100.733 122.947 100.679C122.981 100.625 123.007 100.555 123.023 100.47C123.04 100.384 123.048 100.281 123.048 100.162Z" fill="#5AC5F2" fill-opacity="0.6"/>
<path d="M120.637 95.8367L120.42 95.7811L120.527 94.7191H121.622V94.9695H120.757L120.693 95.5496C120.732 95.5272 120.781 95.5062 120.841 95.4866C120.901 95.4671 120.971 95.4573 121.049 95.4573C121.147 95.4573 121.236 95.4744 121.314 95.5086C121.392 95.5418 121.458 95.5897 121.513 95.6522C121.569 95.7147 121.611 95.7899 121.641 95.8777C121.67 95.9656 121.685 96.0638 121.685 96.1722C121.685 96.2747 121.67 96.369 121.642 96.4549C121.615 96.5408 121.573 96.616 121.518 96.6805C121.462 96.744 121.392 96.7933 121.307 96.8284C121.223 96.8636 121.124 96.8812 121.009 96.8812C120.923 96.8812 120.842 96.8694 120.765 96.846C120.688 96.8216 120.62 96.785 120.56 96.7361C120.5 96.6863 120.451 96.6248 120.413 96.5516C120.376 96.4774 120.353 96.3904 120.343 96.2908H120.601C120.612 96.3709 120.636 96.4383 120.671 96.493C120.706 96.5477 120.752 96.5892 120.809 96.6175C120.866 96.6448 120.933 96.6585 121.009 96.6585C121.074 96.6585 121.131 96.6473 121.181 96.6248C121.23 96.6024 121.272 96.5701 121.307 96.5281C121.341 96.4861 121.367 96.4354 121.384 96.3758C121.403 96.3162 121.412 96.2493 121.412 96.1751C121.412 96.1077 121.403 96.0452 121.384 95.9876C121.366 95.93 121.338 95.8797 121.301 95.8367C121.265 95.7938 121.22 95.7606 121.167 95.7371C121.115 95.7127 121.054 95.7005 120.986 95.7005C120.895 95.7005 120.826 95.7127 120.779 95.7371C120.733 95.7615 120.686 95.7947 120.637 95.8367ZM123.321 95.6155V95.9407C123.321 96.1155 123.305 96.263 123.274 96.3831C123.243 96.5032 123.198 96.5999 123.139 96.6732C123.081 96.7464 123.01 96.7996 122.927 96.8328C122.845 96.8651 122.752 96.8812 122.648 96.8812C122.566 96.8812 122.491 96.8709 122.421 96.8504C122.352 96.8299 122.29 96.7972 122.234 96.7523C122.179 96.7064 122.132 96.6468 122.093 96.5735C122.054 96.5003 122.024 96.4114 122.004 96.3069C121.983 96.2025 121.973 96.0804 121.973 95.9407V95.6155C121.973 95.4407 121.989 95.2943 122.02 95.1761C122.052 95.0579 122.098 94.9632 122.156 94.8919C122.215 94.8196 122.285 94.7679 122.367 94.7366C122.45 94.7054 122.543 94.6898 122.646 94.6898C122.729 94.6898 122.805 94.7 122.874 94.7205C122.944 94.7401 123.007 94.7718 123.062 94.8157C123.116 94.8587 123.163 94.9163 123.201 94.9886C123.24 95.0599 123.27 95.1473 123.29 95.2508C123.311 95.3543 123.321 95.4759 123.321 95.6155ZM123.048 95.9847V95.5701C123.048 95.4744 123.042 95.3904 123.031 95.3182C123.02 95.2449 123.004 95.1824 122.982 95.1307C122.961 95.0789 122.934 95.0369 122.9 95.0047C122.868 94.9725 122.831 94.949 122.788 94.9344C122.746 94.9188 122.698 94.9109 122.646 94.9109C122.581 94.9109 122.524 94.9232 122.474 94.9476C122.424 94.971 122.382 95.0086 122.348 95.0604C122.315 95.1121 122.29 95.18 122.272 95.264C122.254 95.348 122.246 95.45 122.246 95.5701V95.9847C122.246 96.0804 122.251 96.1649 122.262 96.2381C122.273 96.3113 122.291 96.3748 122.313 96.4285C122.335 96.4813 122.363 96.5247 122.395 96.5589C122.427 96.5931 122.464 96.6185 122.506 96.6351C122.549 96.6507 122.597 96.6585 122.648 96.6585C122.715 96.6585 122.773 96.6458 122.823 96.6204C122.873 96.595 122.914 96.5555 122.947 96.5018C122.981 96.4471 123.007 96.3773 123.023 96.2923C123.04 96.2064 123.048 96.1038 123.048 95.9847Z" fill="#5AC5F2" fill-opacity="0.6"/>
<path d="M121.334 90.5387H121.358V90.7687H121.334C121.191 90.7687 121.071 90.7921 120.974 90.839C120.877 90.8849 120.801 90.9469 120.744 91.025C120.688 91.1022 120.646 91.1891 120.621 91.2858C120.597 91.3824 120.584 91.4806 120.584 91.5802V91.8937C120.584 91.9884 120.596 92.0724 120.618 92.1456C120.641 92.2179 120.671 92.2789 120.71 92.3287C120.75 92.3785 120.793 92.4161 120.842 92.4415C120.892 92.4669 120.944 92.4796 120.998 92.4796C121.06 92.4796 121.116 92.4679 121.165 92.4445C121.213 92.42 121.254 92.3864 121.288 92.3434C121.322 92.2994 121.348 92.2477 121.365 92.1881C121.383 92.1285 121.392 92.0631 121.392 91.9918C121.392 91.9283 121.384 91.8673 121.368 91.8087C121.353 91.7491 121.329 91.6964 121.296 91.6505C121.264 91.6036 121.224 91.567 121.175 91.5406C121.127 91.5133 121.07 91.4996 121.003 91.4996C120.928 91.4996 120.858 91.5182 120.792 91.5553C120.728 91.5914 120.675 91.6393 120.633 91.6989C120.592 91.7574 120.568 91.8214 120.562 91.8907L120.419 91.8893C120.433 91.7799 120.458 91.6866 120.495 91.6095C120.533 91.5314 120.58 91.4679 120.636 91.4191C120.692 91.3693 120.755 91.3331 120.825 91.3107C120.895 91.2872 120.969 91.2755 121.047 91.2755C121.154 91.2755 121.246 91.2955 121.323 91.3356C121.4 91.3756 121.463 91.4293 121.513 91.4967C121.563 91.5631 121.6 91.6383 121.623 91.7223C121.647 91.8053 121.66 91.8907 121.66 91.9786C121.66 92.0792 121.646 92.1735 121.617 92.2614C121.589 92.3492 121.546 92.4264 121.49 92.4928C121.434 92.5592 121.365 92.611 121.283 92.6481C121.201 92.6852 121.106 92.7037 120.998 92.7037C120.882 92.7037 120.782 92.6803 120.696 92.6334C120.61 92.5856 120.539 92.5221 120.482 92.443C120.425 92.3639 120.383 92.276 120.354 92.1793C120.326 92.0826 120.312 91.9845 120.312 91.8849V91.7574C120.312 91.6071 120.327 91.4596 120.357 91.3151C120.388 91.1705 120.44 91.0397 120.514 90.9225C120.589 90.8053 120.693 90.712 120.826 90.6427C120.959 90.5734 121.128 90.5387 121.334 90.5387ZM123.321 91.4381V91.7633C123.321 91.9381 123.305 92.0856 123.274 92.2057C123.243 92.3258 123.198 92.4225 123.139 92.4957C123.081 92.569 123.01 92.6222 122.927 92.6554C122.845 92.6876 122.752 92.7037 122.648 92.7037C122.566 92.7037 122.491 92.6935 122.421 92.673C122.352 92.6525 122.29 92.6198 122.234 92.5748C122.179 92.5289 122.132 92.4694 122.093 92.3961C122.054 92.3229 122.024 92.234 122.004 92.1295C121.983 92.025 121.973 91.903 121.973 91.7633V91.4381C121.973 91.2633 121.989 91.1168 122.02 90.9987C122.052 90.8805 122.098 90.7858 122.156 90.7145C122.215 90.6422 122.285 90.5905 122.367 90.5592C122.45 90.528 122.543 90.5123 122.646 90.5123C122.729 90.5123 122.805 90.5226 122.874 90.5431C122.944 90.5626 123.007 90.5944 123.062 90.6383C123.116 90.6813 123.163 90.7389 123.201 90.8112C123.24 90.8824 123.27 90.9698 123.29 91.0734C123.311 91.1769 123.321 91.2985 123.321 91.4381ZM123.048 91.8073V91.3927C123.048 91.297 123.042 91.213 123.031 91.1407C123.02 91.0675 123.004 91.005 122.982 90.9532C122.961 90.9015 122.934 90.8595 122.9 90.8273C122.868 90.795 122.831 90.7716 122.788 90.757C122.746 90.7413 122.698 90.7335 122.646 90.7335C122.581 90.7335 122.524 90.7457 122.474 90.7701C122.424 90.7936 122.382 90.8312 122.348 90.8829C122.315 90.9347 122.29 91.0026 122.272 91.0865C122.254 91.1705 122.246 91.2726 122.246 91.3927V91.8073C122.246 91.903 122.251 91.9874 122.262 92.0607C122.273 92.1339 122.291 92.1974 122.313 92.2511C122.335 92.3038 122.363 92.3473 122.395 92.3815C122.427 92.4156 122.464 92.441 122.506 92.4576C122.549 92.4733 122.597 92.4811 122.648 92.4811C122.715 92.4811 122.773 92.4684 122.823 92.443C122.873 92.4176 122.914 92.3781 122.947 92.3243C122.981 92.2697 123.007 92.1998 123.023 92.1149C123.04 92.0289 123.048 91.9264 123.048 91.8073Z" fill="#5AC5F2" fill-opacity="0.6"/>
<path d="M121.673 86.3642V86.5165L120.79 88.497H120.504L121.386 86.5869H120.231V86.3642H121.673ZM123.321 87.2607V87.5859C123.321 87.7607 123.305 87.9081 123.274 88.0283C123.243 88.1484 123.198 88.2451 123.139 88.3183C123.081 88.3915 123.01 88.4448 122.927 88.478C122.845 88.5102 122.752 88.5263 122.648 88.5263C122.566 88.5263 122.491 88.5161 122.421 88.4955C122.352 88.475 122.29 88.4423 122.234 88.3974C122.179 88.3515 122.132 88.2919 122.093 88.2187C122.054 88.1454 122.024 88.0566 122.004 87.9521C121.983 87.8476 121.973 87.7255 121.973 87.5859V87.2607C121.973 87.0859 121.989 86.9394 122.02 86.8212C122.052 86.7031 122.098 86.6083 122.156 86.537C122.215 86.4648 122.285 86.413 122.367 86.3818C122.45 86.3505 122.543 86.3349 122.646 86.3349C122.729 86.3349 122.805 86.3452 122.874 86.3657C122.944 86.3852 123.007 86.4169 123.062 86.4609C123.116 86.5038 123.163 86.5615 123.201 86.6337C123.24 86.705 123.27 86.7924 123.29 86.8959C123.311 86.9995 123.321 87.121 123.321 87.2607ZM123.048 87.6298V87.2153C123.048 87.1196 123.042 87.0356 123.031 86.9633C123.02 86.8901 123.004 86.8276 122.982 86.7758C122.961 86.7241 122.934 86.6821 122.9 86.6498C122.868 86.6176 122.831 86.5942 122.788 86.5795C122.746 86.5639 122.698 86.5561 122.646 86.5561C122.581 86.5561 122.524 86.5683 122.474 86.5927C122.424 86.6161 122.382 86.6537 122.348 86.7055C122.315 86.7573 122.29 86.8251 122.272 86.9091C122.254 86.9931 122.246 87.0952 122.246 87.2153V87.6298C122.246 87.7255 122.251 87.81 122.262 87.8832C122.273 87.9565 122.291 88.02 122.313 88.0737C122.335 88.1264 122.363 88.1699 122.395 88.204C122.427 88.2382 122.464 88.2636 122.506 88.2802C122.549 88.2958 122.597 88.3036 122.648 88.3036C122.715 88.3036 122.773 88.291 122.823 88.2656C122.873 88.2402 122.914 88.2006 122.947 88.1469C122.981 88.0922 123.007 88.0224 123.023 87.9374C123.04 87.8515 123.048 87.749 123.048 87.6298Z" fill="#5AC5F2" fill-opacity="0.6"/>
<path d="M121.639 83.7424C121.639 83.8723 121.609 83.9827 121.548 84.0735C121.489 84.1633 121.408 84.2317 121.305 84.2786C121.204 84.3254 121.089 84.3489 120.961 84.3489C120.833 84.3489 120.718 84.3254 120.615 84.2786C120.513 84.2317 120.432 84.1633 120.372 84.0735C120.312 83.9827 120.283 83.8723 120.283 83.7424C120.283 83.6575 120.299 83.5798 120.331 83.5095C120.364 83.4382 120.411 83.3762 120.47 83.3235C120.531 83.2708 120.602 83.2302 120.684 83.2019C120.767 83.1726 120.858 83.158 120.958 83.158C121.089 83.158 121.206 83.1833 121.308 83.2341C121.411 83.2839 121.491 83.3528 121.55 83.4407C121.609 83.5286 121.639 83.6292 121.639 83.7424ZM121.367 83.7366C121.367 83.6575 121.35 83.5876 121.315 83.5271C121.281 83.4656 121.233 83.4177 121.172 83.3835C121.11 83.3494 121.039 83.3323 120.958 83.3323C120.875 83.3323 120.803 83.3494 120.743 83.3835C120.683 83.4177 120.637 83.4656 120.604 83.5271C120.57 83.5876 120.554 83.6575 120.554 83.7366C120.554 83.8186 120.57 83.8889 120.602 83.9475C120.635 84.0051 120.682 84.0496 120.743 84.0808C120.804 84.1111 120.877 84.1262 120.961 84.1262C121.045 84.1262 121.117 84.1111 121.178 84.0808C121.238 84.0496 121.285 84.0051 121.317 83.9475C121.35 83.8889 121.367 83.8186 121.367 83.7366ZM121.589 82.7419C121.589 82.8455 121.562 82.9387 121.507 83.0217C121.453 83.1047 121.378 83.1702 121.283 83.218C121.188 83.2659 121.081 83.2898 120.961 83.2898C120.839 83.2898 120.73 83.2659 120.634 83.218C120.54 83.1702 120.465 83.1047 120.412 83.0217C120.358 82.9387 120.331 82.8455 120.331 82.7419C120.331 82.6179 120.358 82.5125 120.412 82.4255C120.466 82.3386 120.541 82.2722 120.636 82.2263C120.73 82.1804 120.838 82.1575 120.959 82.1575C121.082 82.1575 121.19 82.1804 121.285 82.2263C121.379 82.2722 121.454 82.3386 121.507 82.4255C121.562 82.5125 121.589 82.6179 121.589 82.7419ZM121.318 82.7463C121.318 82.675 121.303 82.6121 121.273 82.5574C121.243 82.5027 121.201 82.4597 121.147 82.4285C121.093 82.3962 121.031 82.3801 120.959 82.3801C120.888 82.3801 120.826 82.3953 120.772 82.4255C120.719 82.4548 120.678 82.4968 120.647 82.5515C120.618 82.6062 120.604 82.6711 120.604 82.7463C120.604 82.8196 120.618 82.8835 120.647 82.9382C120.678 82.9929 120.72 83.0354 120.773 83.0657C120.827 83.0959 120.89 83.1111 120.961 83.1111C121.032 83.1111 121.094 83.0959 121.147 83.0657C121.201 83.0354 121.243 82.9929 121.273 82.9382C121.303 82.8835 121.318 82.8196 121.318 82.7463ZM123.321 83.0833V83.4084C123.321 83.5833 123.305 83.7307 123.274 83.8508C123.243 83.9709 123.198 84.0676 123.139 84.1409C123.081 84.2141 123.01 84.2673 122.927 84.3005C122.845 84.3328 122.752 84.3489 122.648 84.3489C122.566 84.3489 122.491 84.3386 122.421 84.3181C122.352 84.2976 122.29 84.2649 122.234 84.22C122.179 84.1741 122.132 84.1145 122.093 84.0413C122.054 83.968 122.024 83.8792 122.004 83.7747C121.983 83.6702 121.973 83.5481 121.973 83.4084V83.0833C121.973 82.9084 121.989 82.762 122.02 82.6438C122.052 82.5256 122.098 82.4309 122.156 82.3596C122.215 82.2874 122.285 82.2356 122.367 82.2043C122.45 82.1731 122.543 82.1575 122.646 82.1575C122.729 82.1575 122.805 82.1677 122.874 82.1882C122.944 82.2078 123.007 82.2395 123.062 82.2834C123.116 82.3264 123.163 82.384 123.201 82.4563C123.24 82.5276 123.27 82.615 123.29 82.7185C123.311 82.822 123.321 82.9436 123.321 83.0833ZM123.048 83.4524V83.0378C123.048 82.9421 123.042 82.8582 123.031 82.7859C123.02 82.7126 123.004 82.6501 122.982 82.5984C122.961 82.5466 122.934 82.5046 122.9 82.4724C122.868 82.4402 122.831 82.4167 122.788 82.4021C122.746 82.3865 122.698 82.3787 122.646 82.3787C122.581 82.3787 122.524 82.3909 122.474 82.4153C122.424 82.4387 122.382 82.4763 122.348 82.5281C122.315 82.5798 122.29 82.6477 122.272 82.7317C122.254 82.8157 122.246 82.9177 122.246 83.0378V83.4524C122.246 83.5481 122.251 83.6326 122.262 83.7058C122.273 83.7791 122.291 83.8425 122.313 83.8962C122.335 83.949 122.363 83.9924 122.395 84.0266C122.427 84.0608 122.464 84.0862 122.506 84.1028C122.549 84.1184 122.597 84.1262 122.648 84.1262C122.715 84.1262 122.773 84.1135 122.823 84.0881C122.873 84.0627 122.914 84.0232 122.947 83.9695C122.981 83.9148 123.007 83.845 123.023 83.76C123.04 83.6741 123.048 83.5715 123.048 83.4524Z" fill="#5AC5F2" fill-opacity="0.6"/>
</g>
<g filter="url(#filter2_d_380_11966)">
<rect x="151.161" y="74.3438" width="3.12961" height="3.12961" rx="1.56481" transform="rotate(-32 151.161 74.3438)" fill="#37E9F4" stroke="#5AC5F2" stroke-width="0.170993"/>
<path d="M162.032 70.7711L161.42 68.3422L161.89 68.048L162.549 71.0766L162.232 71.2751L162.032 70.7711ZM160.167 69.1248L162.077 70.7435L162.447 71.1403L162.128 71.3399L159.698 69.4179L160.167 69.1248ZM164.401 69.407L163.853 68.5302C163.812 68.4645 163.764 68.4153 163.711 68.3825C163.657 68.3498 163.598 68.3357 163.533 68.34C163.469 68.3437 163.401 68.3682 163.328 68.4135C163.262 68.4553 163.211 68.5027 163.176 68.5558C163.142 68.6089 163.123 68.6632 163.12 68.7187C163.117 68.7742 163.13 68.8263 163.161 68.8751L162.753 69.1299C162.708 69.0574 162.681 68.9762 162.674 68.8863C162.667 68.7964 162.68 68.7039 162.713 68.6089C162.747 68.5139 162.801 68.422 162.874 68.3334C162.948 68.2448 163.043 68.1643 163.158 68.0921C163.297 68.0058 163.433 67.9525 163.569 67.9324C163.706 67.9116 163.834 67.9291 163.954 67.9849C164.074 68.0389 164.178 68.1361 164.266 68.2766L164.777 69.094C164.829 69.1778 164.882 69.2496 164.935 69.3094C164.989 69.3673 165.042 69.4135 165.095 69.4481L165.112 69.4753L164.692 69.7376C164.645 69.7054 164.595 69.6589 164.541 69.598C164.488 69.5353 164.441 69.4716 164.401 69.407ZM163.992 68.6205L164.153 68.8715L163.859 69.0552C163.784 69.1027 163.721 69.1518 163.673 69.2026C163.623 69.2523 163.588 69.3028 163.567 69.3541C163.545 69.4053 163.537 69.4562 163.541 69.5068C163.546 69.5573 163.564 69.607 163.594 69.6557C163.625 69.7044 163.664 69.7421 163.712 69.7687C163.76 69.7942 163.812 69.8048 163.869 69.8006C163.927 69.7956 163.988 69.7737 164.05 69.7347C164.134 69.6824 164.196 69.6197 164.237 69.5468C164.279 69.472 164.302 69.3984 164.307 69.3259C164.312 69.2523 164.301 69.1921 164.275 69.1453L164.521 69.2443C164.537 69.2993 164.544 69.3636 164.545 69.4374C164.545 69.5112 164.534 69.5891 164.511 69.6711C164.489 69.7512 164.45 69.8296 164.396 69.9062C164.343 69.9821 164.268 70.0498 164.173 70.1092C164.053 70.1843 163.931 70.2274 163.807 70.2385C163.683 70.2486 163.568 70.2295 163.464 70.1812C163.359 70.1317 163.274 70.0549 163.209 69.9507C163.148 69.8533 163.113 69.7558 163.102 69.6584C163.092 69.5591 163.107 69.4617 163.146 69.3661C163.187 69.2698 163.251 69.1761 163.339 69.0849C163.427 68.9926 163.537 68.9047 163.671 68.8212L163.992 68.6205ZM164.278 66.3671L165.909 68.9773L165.498 69.2342L163.867 66.6241L164.278 66.3671ZM167.193 67.5723L166.315 66.167L166.726 65.91L167.875 67.7487L167.488 67.9908L167.193 67.5723ZM167.012 67.1539L167.147 67.0645C167.225 67.188 167.282 67.3103 167.32 67.4315C167.357 67.5516 167.372 67.6679 167.363 67.7803C167.354 67.8916 167.319 67.9964 167.257 68.0946C167.195 68.1918 167.102 68.2789 166.979 68.3561C166.889 68.412 166.799 68.4503 166.708 68.471C166.617 68.4916 166.527 68.4918 166.439 68.4714C166.352 68.4503 166.266 68.4053 166.182 68.3365C166.098 68.2676 166.018 68.1726 165.942 68.0514L165.2 66.8636L165.61 66.6077L166.354 67.7989C166.396 67.8657 166.439 67.9169 166.483 67.9523C166.526 67.9865 166.57 68.0088 166.614 68.019C166.659 68.0292 166.702 68.0286 166.746 68.0173C166.789 68.006 166.831 67.9876 166.872 67.9621C166.989 67.8892 167.066 67.8092 167.105 67.7221C167.144 67.6331 167.153 67.5408 167.132 67.4449C167.113 67.3483 167.073 67.2513 167.012 67.1539ZM169.127 67.0139C168.991 67.0988 168.854 67.1536 168.716 67.178C168.579 67.2007 168.447 67.1959 168.32 67.1636C168.194 67.1306 168.076 67.0724 167.968 66.9891C167.859 66.9059 167.765 66.8014 167.687 66.6756L167.644 66.6076C167.554 66.4638 167.494 66.3204 167.463 66.1775C167.432 66.0346 167.428 65.8985 167.451 65.769C167.473 65.6385 167.522 65.5193 167.596 65.4114C167.67 65.3035 167.767 65.2124 167.886 65.138C168.017 65.0559 168.146 65.0062 168.272 64.9887C168.398 64.9713 168.519 64.9827 168.634 65.0228C168.749 65.061 168.857 65.1252 168.957 65.2152C169.059 65.3046 169.151 65.4155 169.234 65.5481L169.343 65.7231L167.923 66.6108L167.739 66.3169L168.755 65.6819L168.735 65.6496C168.687 65.5774 168.629 65.5175 168.561 65.4699C168.495 65.4216 168.422 65.3946 168.343 65.3889C168.264 65.3833 168.179 65.4087 168.088 65.4654C168.02 65.5078 167.969 65.5604 167.934 65.6232C167.899 65.6841 167.882 65.7527 167.881 65.829C167.879 65.9053 167.893 65.988 167.922 66.0771C167.951 66.1643 167.996 66.2555 168.055 66.3507L168.098 66.4186C168.148 66.4991 168.206 66.5671 168.27 66.6228C168.335 66.6766 168.405 66.7155 168.48 66.7396C168.555 66.7637 168.632 66.7714 168.712 66.7626C168.791 66.7527 168.869 66.7233 168.948 66.6745C169.046 66.6129 169.122 66.5382 169.174 66.4504C169.226 66.3626 169.258 66.2648 169.269 66.1569L169.616 66.231C169.612 66.3136 169.595 66.4013 169.565 66.4942C169.534 66.5859 169.483 66.6769 169.412 66.7671C169.342 66.8566 169.247 66.9389 169.127 67.0139ZM171.089 64.0438L171.293 64.3701L170.394 64.9318L170.19 64.6055L171.089 64.0438ZM173.763 62.0611L174.016 62.4655C174.137 62.6592 174.221 62.8367 174.268 62.9978C174.316 63.1571 174.33 63.3015 174.312 63.4311C174.294 63.5607 174.247 63.6764 174.172 63.7784C174.098 63.8796 174 63.9685 173.878 64.0449C173.781 64.1058 173.682 64.15 173.583 64.1774C173.484 64.2042 173.385 64.2118 173.285 64.2003C173.185 64.1889 173.085 64.1561 172.985 64.102C172.885 64.046 172.786 63.9673 172.686 63.8658C172.588 63.7635 172.49 63.6348 172.393 63.4796L172.14 63.0751C172.018 62.8803 171.935 62.704 171.89 62.5462C171.844 62.3873 171.831 62.2437 171.85 62.1152C171.868 61.9857 171.915 61.8708 171.989 61.7707C172.065 61.6699 172.164 61.5813 172.286 61.5048C172.385 61.4433 172.483 61.3991 172.581 61.3723C172.68 61.3437 172.778 61.335 172.877 61.346C172.976 61.3564 173.075 61.3889 173.174 61.4438C173.273 61.4967 173.372 61.5743 173.471 61.6766C173.569 61.7777 173.666 61.9058 173.763 62.0611ZM173.642 62.7792L173.315 62.2558C173.254 62.1572 173.194 62.0741 173.136 62.0064C173.077 61.9376 173.02 61.8842 172.965 61.8462C172.91 61.8064 172.856 61.7804 172.803 61.7681C172.748 61.7546 172.696 61.7536 172.645 61.7651C172.593 61.7754 172.541 61.7968 172.489 61.8294C172.425 61.8691 172.377 61.9169 172.342 61.973C172.307 62.0279 172.289 62.0926 172.289 62.1671C172.288 62.2416 172.306 62.3281 172.342 62.4267C172.379 62.5234 172.436 62.6335 172.513 62.757L172.84 63.2804C172.903 63.3801 172.963 63.4643 173.022 63.5332C173.081 63.602 173.138 63.6565 173.195 63.6967C173.251 63.7358 173.306 63.763 173.359 63.7783C173.413 63.7918 173.466 63.7933 173.518 63.783C173.571 63.772 173.623 63.7505 173.674 63.7187C173.739 63.6783 173.788 63.6301 173.822 63.574C173.857 63.5179 173.874 63.4521 173.874 63.3765C173.873 63.2997 173.854 63.2119 173.815 63.1129C173.777 63.0139 173.719 62.9027 173.642 62.7792ZM174.598 60.0958L176.149 62.5785L175.74 62.8344L174.492 60.8377L174.014 61.4224L173.802 61.0842L174.548 60.1265L174.598 60.0958ZM177.363 60.688L177.348 60.6639C177.221 60.4619 177.129 60.2652 177.069 60.0738C177.011 59.8808 176.978 59.7004 176.971 59.5325C176.964 59.3636 176.976 59.2135 177.005 59.0822C177.035 58.9493 177.076 58.8417 177.128 58.7592L177.318 58.9121C177.289 58.9869 177.269 59.0773 177.259 59.1833C177.25 59.2887 177.256 59.4079 177.276 59.541C177.297 59.6726 177.337 59.8168 177.397 59.9736C177.457 60.1289 177.542 60.2944 177.652 60.47L177.67 60.4997C177.78 60.6753 177.892 60.8247 178.005 60.9479C178.12 61.0696 178.232 61.169 178.341 61.246C178.452 61.3225 178.557 61.3803 178.656 61.4193C178.757 61.4588 178.849 61.4831 178.93 61.4923L178.979 61.7217C178.882 61.7315 178.767 61.7207 178.634 61.6893C178.503 61.6582 178.363 61.6025 178.215 61.5221C178.067 61.4427 177.919 61.3347 177.772 61.1982C177.625 61.0601 177.489 60.8901 177.363 60.688ZM177.876 58.475L179.235 60.6501L178.892 60.8643L177.533 58.6891L177.876 58.475ZM179.354 58.4454L179.51 58.6946L178.646 59.2344L178.49 58.9852L179.354 58.4454ZM178.505 58.4542L178.846 58.2409L179.773 59.725C179.803 59.7722 179.832 59.8044 179.861 59.8216C179.891 59.8373 179.921 59.8418 179.95 59.8349C179.98 59.8281 180.012 59.8143 180.045 59.7937C180.068 59.7789 180.09 59.7634 180.11 59.747C180.13 59.7306 180.146 59.7168 180.157 59.7057L180.321 59.9654C180.298 59.9916 180.27 60.0198 180.237 60.05C180.204 60.0796 180.163 60.1095 180.115 60.1396C180.037 60.1885 179.959 60.2182 179.881 60.2286C179.803 60.238 179.727 60.2217 179.654 60.1797C179.58 60.1377 179.511 60.0643 179.445 59.9595L178.505 58.4542ZM180.709 58.5632L180.724 58.5873C180.849 58.7865 180.94 58.9824 180.997 59.175C181.055 59.367 181.088 59.5477 181.094 59.7171C181.101 59.886 181.089 60.0379 181.058 60.1729C181.027 60.3073 180.986 60.4165 180.934 60.5006L180.747 60.357C180.776 60.2812 180.795 60.1902 180.803 60.0839C180.813 59.9779 180.807 59.8577 180.785 59.7233C180.764 59.5893 180.723 59.4441 180.662 59.2879C180.602 59.131 180.517 58.9648 180.408 58.7892L180.389 58.7595C180.279 58.5839 180.167 58.4351 180.051 58.3131C179.936 58.1895 179.822 58.0898 179.71 58.0139C179.598 57.9371 179.492 57.8791 179.393 57.84C179.294 57.801 179.206 57.7771 179.13 57.7683L179.082 57.538C179.18 57.5267 179.296 57.5369 179.43 57.5687C179.565 57.5999 179.707 57.6561 179.857 57.7374C180.006 57.8172 180.155 57.9254 180.302 58.0619C180.45 58.1979 180.586 58.365 180.709 58.5632Z" fill="white"/>
<path d="M165.698 75.2099L167.767 78.5202L167.221 78.8614L165.557 76.1992L164.919 76.9788L164.638 76.5279L165.632 75.251L165.698 75.2099ZM170.853 75.987L171.125 76.422L168.913 77.8038L168.68 77.43L169.022 75.5875C169.056 75.3809 169.077 75.2081 169.085 75.0689C169.093 74.9298 169.086 74.8132 169.065 74.7192C169.045 74.6227 169.011 74.5374 168.965 74.4634C168.9 74.3592 168.823 74.2801 168.735 74.2261C168.647 74.1696 168.552 74.1418 168.45 74.1428C168.346 74.1422 168.242 74.175 168.136 74.241C168.014 74.3175 167.928 74.4081 167.877 74.5129C167.827 74.6177 167.811 74.7301 167.827 74.8502C167.842 74.9687 167.887 75.0877 167.962 75.207L167.415 75.5482C167.296 75.3564 167.23 75.1538 167.218 74.9405C167.206 74.7256 167.254 74.5194 167.361 74.3219C167.468 74.123 167.638 73.9503 167.872 73.804C168.093 73.6662 168.303 73.5862 168.504 73.5639C168.704 73.5417 168.887 73.5735 169.052 73.6594C169.218 73.7444 169.36 73.8798 169.476 74.0656C169.54 74.1683 169.587 74.2806 169.617 74.4026C169.647 74.5246 169.663 74.6555 169.664 74.7954C169.666 74.9329 169.657 75.0781 169.637 75.2313C169.616 75.3829 169.588 75.5412 169.553 75.7062L169.33 76.9384L170.853 75.987ZM171.766 75.2904L172.007 75.6815C172.103 75.8356 172.164 76.0182 172.189 76.2295C172.214 76.4408 172.196 76.6389 172.135 76.824L171.737 76.8367C171.736 76.7423 171.732 76.6495 171.723 76.5583C171.715 76.4671 171.696 76.3756 171.668 76.2838C171.64 76.1921 171.597 76.0986 171.537 76.0035L171.281 75.5933L171.766 75.2904ZM174.126 72.9114L174.398 73.3464L172.019 74.833L171.795 74.5158L171.825 71.3971L172.262 71.1239L172.296 72.2309L172.298 74.0539L174.126 72.9114ZM172.387 71.046L174.448 74.345L173.902 74.6862L171.841 71.3872L172.387 71.046ZM177.165 72.0425L177.437 72.4775L175.226 73.8594L174.992 73.4855L175.334 71.643C175.369 71.4365 175.39 71.2636 175.398 71.1245C175.405 70.9853 175.398 70.8687 175.377 70.7747C175.357 70.6782 175.324 70.593 175.277 70.5189C175.212 70.4147 175.136 70.3356 175.047 70.2816C174.959 70.2251 174.864 70.1974 174.762 70.1983C174.659 70.1977 174.554 70.2305 174.449 70.2966C174.326 70.373 174.24 70.4636 174.19 70.5684C174.14 70.6732 174.123 70.7856 174.139 70.9057C174.155 71.0243 174.199 71.1432 174.274 71.2626L173.728 71.6038C173.608 71.4119 173.542 71.2093 173.531 70.996C173.518 70.7811 173.566 70.575 173.674 70.3775C173.78 70.1785 173.951 70.0058 174.185 69.8595C174.405 69.7217 174.616 69.6417 174.816 69.6194C175.017 69.5972 175.199 69.629 175.364 69.7149C175.531 69.7999 175.672 69.9353 175.788 70.1211C175.852 70.2238 175.899 70.3362 175.929 70.4581C175.959 70.5801 175.975 70.711 175.976 70.8509C175.978 70.9884 175.969 71.1337 175.949 71.2868C175.929 71.4384 175.901 71.5967 175.865 71.7617L175.643 72.9939L177.165 72.0425ZM177.319 69.9142L177.645 69.7103C177.772 69.631 177.864 69.5435 177.919 69.4478C177.977 69.3512 178.001 69.2516 177.994 69.1491C177.987 69.0465 177.952 68.9454 177.89 68.8457C177.825 68.7415 177.75 68.6642 177.666 68.6138C177.582 68.5609 177.49 68.5377 177.389 68.5441C177.29 68.5495 177.183 68.5881 177.068 68.6599C176.971 68.7203 176.896 68.7947 176.842 68.883C176.788 68.9689 176.761 69.0615 176.76 69.1608C176.758 69.2586 176.788 69.3559 176.848 69.4525L176.3 69.7952C176.19 69.6199 176.139 69.4356 176.146 69.2421C176.153 69.0485 176.212 68.8637 176.323 68.6876C176.434 68.509 176.589 68.3574 176.788 68.2328C177.001 68.0997 177.209 68.0191 177.412 67.991C177.616 67.9604 177.806 67.9868 177.981 68.07C178.157 68.1533 178.31 68.2977 178.438 68.5031C178.496 68.5968 178.534 68.7056 178.551 68.8296C178.567 68.9537 178.558 69.0826 178.521 69.2165C178.484 69.3489 178.417 69.4801 178.32 69.6101C178.222 69.7387 178.088 69.8558 177.919 69.9616L177.509 70.2178L177.319 69.9142ZM177.585 70.3402L177.398 70.0411L177.809 69.7848C178.002 69.664 178.181 69.5838 178.345 69.5442C178.511 69.5036 178.662 69.4964 178.798 69.5227C178.933 69.5474 179.052 69.5981 179.154 69.6748C179.258 69.7505 179.346 69.845 179.417 69.9583C179.513 70.1124 179.571 70.2673 179.59 70.4231C179.611 70.5764 179.596 70.7262 179.547 70.8725C179.497 71.0188 179.418 71.1556 179.309 71.2829C179.201 71.4092 179.067 71.5219 178.909 71.621C178.767 71.7097 178.618 71.775 178.464 71.8169C178.31 71.8588 178.157 71.8733 178.006 71.8605C177.854 71.8461 177.712 71.7996 177.579 71.7211C177.446 71.6401 177.332 71.5225 177.235 71.3685L177.782 71.0273C177.843 71.1254 177.92 71.1981 178.012 71.2453C178.105 71.2901 178.207 71.3077 178.316 71.2981C178.427 71.2875 178.537 71.2482 178.646 71.1803C178.761 71.1085 178.847 71.0263 178.904 70.9336C178.962 70.8409 178.988 70.7409 178.982 70.6334C178.977 70.5251 178.939 70.4142 178.868 70.3009C178.788 70.1725 178.698 70.0839 178.598 70.035C178.498 69.9861 178.39 69.9715 178.275 69.9913C178.158 70.0096 178.037 70.058 177.912 70.1363L177.585 70.3402Z" fill="white"/>
</g>
<g filter="url(#filter3_d_380_11966)">
<g clip-path="url(#clip0_380_11966)">
<rect x="174.105" y="101.115" width="3.12961" height="3.12961" rx="1.56481" transform="rotate(-34.6229 174.105 101.115)" fill="#0D2535" stroke="#0D2535" stroke-width="0.170993"/>
</g>
<path d="M184.804 97.0486L184.081 94.6503L184.538 94.3349L185.335 97.3301L185.026 97.543L184.804 97.0486ZM182.866 95.4894L184.847 97.019L185.236 97.3984L184.926 97.6125L182.411 95.8036L182.866 95.4894ZM187.108 95.5776L186.52 94.7268C186.476 94.663 186.427 94.616 186.372 94.5858C186.317 94.5555 186.257 94.5441 186.192 94.5514C186.129 94.558 186.062 94.5856 185.991 94.6342C185.926 94.679 185.878 94.7287 185.846 94.7833C185.814 94.8379 185.797 94.893 185.797 94.9486C185.796 95.0042 185.812 95.0557 185.845 95.1029L185.449 95.3762C185.4 95.3058 185.37 95.2259 185.359 95.1364C185.348 95.0469 185.356 94.954 185.386 94.8575C185.415 94.7611 185.464 94.6669 185.534 94.5749C185.604 94.483 185.694 94.3984 185.807 94.3209C185.941 94.2283 186.075 94.1689 186.209 94.1426C186.345 94.1156 186.474 94.1272 186.596 94.1775C186.719 94.2259 186.827 94.3182 186.921 94.4545L187.469 95.2477C187.525 95.329 187.581 95.3983 187.637 95.4556C187.693 95.511 187.749 95.5548 187.803 95.5869L187.821 95.6132L187.414 95.8945C187.366 95.8645 187.313 95.8203 187.257 95.7619C187.201 95.7017 187.151 95.6403 187.108 95.5776ZM186.663 94.8106L186.836 95.054L186.551 95.251C186.477 95.3018 186.417 95.3537 186.371 95.4067C186.324 95.4586 186.291 95.5107 186.272 95.5629C186.253 95.6151 186.247 95.6663 186.254 95.7166C186.261 95.7669 186.281 95.8156 186.314 95.8629C186.346 95.9102 186.387 95.946 186.436 95.9704C186.485 95.9937 186.538 96.0019 186.595 95.9951C186.653 95.9874 186.712 95.9628 186.772 95.921C186.854 95.8649 186.913 95.7994 186.951 95.7247C186.989 95.6481 187.009 95.5735 187.011 95.5008C187.012 95.4271 186.998 95.3674 186.97 95.3219L187.221 95.4096C187.238 95.4638 187.249 95.5277 187.253 95.6014C187.257 95.6751 187.249 95.7534 187.23 95.8363C187.212 95.9174 187.177 95.9974 187.126 96.0765C187.076 96.1547 187.005 96.2257 186.912 96.2895C186.796 96.3699 186.676 96.4186 186.553 96.4354C186.429 96.4511 186.314 96.4373 186.208 96.3938C186.101 96.3492 186.012 96.2763 185.942 96.1752C185.877 96.0807 185.837 95.985 185.822 95.8881C185.807 95.7894 185.818 95.6914 185.853 95.5942C185.889 95.4961 185.949 95.3995 186.033 95.3044C186.116 95.2082 186.222 95.1153 186.352 95.0258L186.663 94.8106ZM186.846 92.5465L188.595 95.0793L188.196 95.3548L186.447 92.822L186.846 92.5465ZM189.813 93.617L188.872 92.2534L189.271 91.9778L190.503 93.762L190.127 94.0216L189.813 93.617ZM189.613 93.2073L189.744 93.1118C189.827 93.2316 189.89 93.3512 189.934 93.4706C189.976 93.5888 189.996 93.7043 189.993 93.817C189.989 93.9286 189.958 94.0349 189.901 94.1359C189.843 94.2358 189.755 94.3271 189.635 94.4098C189.548 94.4698 189.46 94.5121 189.37 94.5369C189.28 94.5618 189.19 94.566 189.101 94.5497C189.013 94.5326 188.925 94.4916 188.838 94.4267C188.751 94.3617 188.667 94.2705 188.586 94.1528L187.79 93.0002L188.187 92.7258L188.985 93.8818C189.03 93.9466 189.075 93.9957 189.121 94.0291C189.166 94.0613 189.211 94.0815 189.256 94.0897C189.3 94.0979 189.344 94.0953 189.387 94.082C189.429 94.0687 189.471 94.0484 189.51 94.0211C189.623 93.9429 189.697 93.8594 189.732 93.7707C189.767 93.6801 189.772 93.5873 189.747 93.4925C189.723 93.3969 189.678 93.3019 189.613 93.2073ZM191.719 92.9707C191.587 93.0618 191.453 93.1227 191.317 93.1535C191.181 93.1823 191.049 93.1836 190.92 93.1571C190.793 93.1299 190.673 93.0772 190.56 92.999C190.448 92.9208 190.349 92.8207 190.265 92.6987L190.22 92.6327C190.123 92.4931 190.056 92.3526 190.019 92.2113C189.981 92.07 189.971 91.9342 189.988 91.8038C190.005 91.6724 190.047 91.5511 190.117 91.4399C190.186 91.3287 190.279 91.2333 190.394 91.1536C190.521 91.0655 190.648 91.0099 190.773 90.9868C190.898 90.9636 191.019 90.9694 191.136 91.0042C191.253 91.0371 191.363 91.0963 191.468 91.1817C191.573 91.2663 191.67 91.3729 191.759 91.5015L191.876 91.6714L190.498 92.6232L190.301 92.3379L191.287 91.6571L191.265 91.6258C191.214 91.5558 191.153 91.4986 191.084 91.4542C191.015 91.409 190.941 91.3854 190.862 91.3833C190.782 91.3813 190.699 91.4106 190.611 91.4713C190.545 91.5169 190.496 91.5718 190.464 91.636C190.432 91.6984 190.418 91.7678 190.42 91.8441C190.423 91.9204 190.44 92.0023 190.473 92.09C190.506 92.1758 190.555 92.2649 190.619 92.3572L190.664 92.4232C190.718 92.5012 190.779 92.5666 190.846 92.6192C190.913 92.67 190.985 92.7057 191.061 92.7263C191.137 92.7469 191.214 92.751 191.294 92.7386C191.372 92.7251 191.449 92.6922 191.525 92.6398C191.62 92.5738 191.692 92.4957 191.741 92.4056C191.789 92.3155 191.816 92.2163 191.822 92.108L192.172 92.1663C192.172 92.2489 192.159 92.3373 192.133 92.4315C192.107 92.5245 192.06 92.6178 191.993 92.7111C191.927 92.8037 191.836 92.8903 191.719 92.9707ZM193.544 89.9139L193.762 90.2305L192.89 90.8328L192.671 90.5162L193.544 89.9139ZM196.124 87.8109L196.395 88.2033C196.525 88.3913 196.617 88.5647 196.671 88.7235C196.726 88.8805 196.747 89.0241 196.735 89.1544C196.723 89.2847 196.682 89.4024 196.611 89.5077C196.542 89.6122 196.448 89.7054 196.33 89.7874C196.235 89.8527 196.139 89.9013 196.041 89.9333C195.944 89.9645 195.845 89.9767 195.745 89.9698C195.644 89.9629 195.543 89.9347 195.44 89.8853C195.338 89.8339 195.235 89.7598 195.131 89.663C195.028 89.5653 194.924 89.4412 194.82 89.2906L194.549 88.8982C194.419 88.7091 194.327 88.5368 194.275 88.3813C194.222 88.2246 194.202 88.0817 194.215 87.9526C194.228 87.8223 194.269 87.7055 194.339 87.6021C194.41 87.4979 194.504 87.4048 194.623 87.3228C194.719 87.2568 194.815 87.2082 194.912 87.177C195.009 87.1439 195.107 87.1306 195.206 87.1372C195.306 87.1429 195.406 87.1709 195.508 87.2212C195.609 87.2696 195.711 87.3426 195.815 87.4402C195.917 87.5367 196.02 87.6603 196.124 87.8109ZM196.036 88.5338L195.686 88.0259C195.62 87.9303 195.556 87.85 195.495 87.785C195.433 87.7189 195.374 87.6682 195.317 87.6328C195.26 87.5956 195.205 87.572 195.151 87.5621C195.097 87.5512 195.044 87.5526 194.993 87.5664C194.942 87.5791 194.891 87.6029 194.841 87.6378C194.779 87.6803 194.732 87.7303 194.701 87.7879C194.668 87.8444 194.653 87.9099 194.656 87.9843C194.659 88.0587 194.681 88.1444 194.721 88.2411C194.763 88.3361 194.825 88.4435 194.907 88.5633L195.258 89.0712C195.325 89.1679 195.389 89.2493 195.451 89.3154C195.513 89.3814 195.573 89.4333 195.631 89.4708C195.689 89.5073 195.745 89.532 195.799 89.5448C195.854 89.5558 195.907 89.5549 195.958 89.5422C196.011 89.5288 196.062 89.505 196.111 89.4708C196.174 89.4276 196.221 89.3771 196.253 89.3195C196.284 89.262 196.298 89.1954 196.295 89.1199C196.291 89.0432 196.267 88.9563 196.225 88.8592C196.182 88.7621 196.119 88.6536 196.036 88.5338ZM196.868 85.8094L198.531 88.2186L198.134 88.493L196.796 86.5554L196.345 87.1614L196.119 86.8333L196.82 85.8425L196.868 85.8094ZM199.657 86.2746L199.641 86.2512C199.506 86.0552 199.404 85.8629 199.336 85.6744C199.268 85.4844 199.227 85.3056 199.213 85.1382C199.199 84.9698 199.203 84.8193 199.226 84.6868C199.25 84.5527 199.286 84.4433 199.334 84.3585L199.531 84.5026C199.505 84.5787 199.49 84.6698 199.485 84.7762C199.481 84.8818 199.492 85.0007 199.518 85.1327C199.545 85.2632 199.591 85.4054 199.658 85.5594C199.726 85.7117 199.818 85.8731 199.936 86.0435L199.956 86.0724C200.073 86.2428 200.192 86.3869 200.311 86.5048C200.431 86.6211 200.547 86.7152 200.66 86.7872C200.775 86.8585 200.882 86.9114 200.983 86.9459C201.085 86.9807 201.178 87.0008 201.26 87.0062L201.319 87.2332C201.222 87.2474 201.107 87.2419 200.973 87.2166C200.841 87.1916 200.699 87.1423 200.546 87.0688C200.395 86.9963 200.242 86.8951 200.089 86.7655C199.936 86.6342 199.792 86.4706 199.657 86.2746ZM200.069 84.0404L201.526 86.151L201.193 86.3806L199.736 84.27L200.069 84.0404ZM201.544 83.9432L201.711 84.185L200.872 84.7638L200.705 84.5219L201.544 83.9432ZM200.696 83.9908L201.027 83.7621L202.021 85.2022C202.053 85.248 202.084 85.2789 202.114 85.2947C202.144 85.3091 202.174 85.3121 202.203 85.3039C202.233 85.2957 202.263 85.2806 202.296 85.2584C202.318 85.2426 202.339 85.2261 202.359 85.2088C202.378 85.1915 202.393 85.177 202.404 85.1654L202.58 85.4173C202.558 85.4445 202.531 85.474 202.499 85.5057C202.467 85.5368 202.428 85.5685 202.382 85.6007C202.306 85.6532 202.229 85.6864 202.152 85.7003C202.075 85.7133 201.998 85.7005 201.923 85.6619C201.847 85.6233 201.775 85.5532 201.704 85.4515L200.696 83.9908ZM202.903 83.9988L202.919 84.0222C203.053 84.2155 203.152 84.407 203.219 84.5968C203.286 84.7859 203.326 84.965 203.34 85.134C203.355 85.3023 203.35 85.4546 203.325 85.5909C203.301 85.7266 203.264 85.8376 203.216 85.9239L203.023 85.789C203.048 85.712 203.063 85.6202 203.066 85.5136C203.071 85.4073 203.06 85.2875 203.031 85.1543C203.004 85.0213 202.957 84.8782 202.889 84.7249C202.822 84.571 202.73 84.4088 202.612 84.2384L202.592 84.2096C202.474 84.0392 202.355 83.8957 202.234 83.7791C202.113 83.6609 201.995 83.5665 201.88 83.4958C201.764 83.4242 201.656 83.3711 201.555 83.3366C201.454 83.3022 201.365 83.2823 201.289 83.2771L201.231 83.0492C201.328 83.0334 201.444 83.0383 201.58 83.0639C201.716 83.0888 201.861 83.1385 202.013 83.2129C202.167 83.2858 202.32 83.387 202.473 83.5167C202.627 83.6458 202.77 83.8065 202.903 83.9988Z" fill="white"/>
<path d="M188.667 101.315L190.885 104.527L190.355 104.893L188.571 102.31L187.97 103.118L187.668 102.68L188.603 101.359L188.667 101.315ZM193.852 101.855L194.143 102.278L191.997 103.759L191.747 103.396L192.004 101.54C192.029 101.332 192.043 101.159 192.044 101.019C192.045 100.88 192.033 100.764 192.008 100.671C191.983 100.575 191.946 100.492 191.896 100.42C191.826 100.319 191.746 100.243 191.655 100.193C191.565 100.141 191.469 100.118 191.367 100.123C191.264 100.127 191.161 100.165 191.058 100.236C190.939 100.318 190.857 100.412 190.812 100.519C190.767 100.626 190.755 100.739 190.777 100.858C190.798 100.976 190.848 101.093 190.928 101.209L190.398 101.574C190.27 101.388 190.195 101.189 190.173 100.976C190.151 100.762 190.189 100.554 190.288 100.352C190.385 100.148 190.548 99.968 190.775 99.8112C190.989 99.6634 191.195 99.5738 191.394 99.5424C191.593 99.511 191.777 99.5345 191.946 99.6127C192.116 99.69 192.264 99.8188 192.388 99.9991C192.457 100.099 192.509 100.209 192.545 100.329C192.58 100.45 192.602 100.58 192.61 100.72C192.618 100.857 192.616 101.002 192.603 101.156C192.589 101.309 192.568 101.468 192.54 101.634L192.374 102.876L193.852 101.855ZM194.732 101.118L194.991 101.497C195.094 101.647 195.163 101.827 195.198 102.037C195.232 102.247 195.223 102.445 195.171 102.633L194.774 102.664C194.769 102.57 194.76 102.477 194.748 102.386C194.735 102.296 194.712 102.205 194.68 102.115C194.648 102.024 194.6 101.933 194.536 101.841L194.262 101.443L194.732 101.118ZM196.981 98.6333L197.272 99.0554L194.964 100.649L194.726 100.343L194.613 97.2259L195.037 96.9329L195.121 98.0373L195.207 99.8583L196.981 98.6333ZM195.158 96.8495L197.369 100.051L196.839 100.416L194.628 97.2153L195.158 96.8495ZM199.977 97.6262L200.269 98.0484L198.123 99.53L197.872 99.1672L198.13 97.311C198.155 97.103 198.168 96.9294 198.169 96.7901C198.17 96.6507 198.158 96.5345 198.133 96.4416C198.108 96.3461 198.071 96.2625 198.022 96.1907C197.952 96.0895 197.872 96.014 197.781 95.9641C197.691 95.9117 197.594 95.8883 197.492 95.894C197.389 95.8981 197.286 95.9356 197.183 96.0064C197.065 96.0884 196.983 96.1829 196.938 96.2899C196.892 96.3968 196.881 96.5099 196.902 96.6291C196.923 96.7469 196.973 96.8636 197.053 96.9794L196.523 97.3453C196.395 97.1591 196.32 96.9597 196.299 96.7471C196.276 96.5331 196.315 96.3249 196.413 96.1227C196.511 95.9191 196.673 95.7388 196.9 95.582C197.114 95.4342 197.321 95.3446 197.52 95.3132C197.719 95.2818 197.903 95.3053 198.072 95.3835C198.242 95.4608 198.389 95.5896 198.514 95.7699C198.582 95.8695 198.635 95.9796 198.67 96.1001C198.706 96.2205 198.727 96.3506 198.735 96.4903C198.743 96.6275 198.741 96.7731 198.728 96.927C198.714 97.0794 198.693 97.2388 198.665 97.4053L198.5 98.6463L199.977 97.6262ZM200.034 95.4931L200.35 95.2745C200.473 95.1895 200.56 95.0979 200.612 94.9998C200.664 94.9006 200.685 94.8 200.673 94.6979C200.661 94.5958 200.621 94.4964 200.555 94.3997C200.485 94.2985 200.407 94.2247 200.32 94.1782C200.235 94.1292 200.141 94.1102 200.041 94.1212C199.942 94.1312 199.836 94.1747 199.725 94.2516C199.631 94.3164 199.559 94.3941 199.509 94.4849C199.46 94.5731 199.437 94.6669 199.441 94.7661C199.443 94.8639 199.477 94.9597 199.542 95.0535L199.01 95.4209C198.892 95.2509 198.833 95.069 198.831 94.8754C198.829 94.6817 198.88 94.4944 198.982 94.3134C199.085 94.1299 199.233 93.9713 199.426 93.8378C199.633 93.6951 199.837 93.605 200.038 93.5677C200.24 93.5278 200.431 93.5454 200.611 93.6206C200.79 93.6957 200.949 93.833 201.087 94.0323C201.149 94.1232 201.192 94.2302 201.214 94.3534C201.236 94.4765 201.233 94.6058 201.203 94.7411C201.172 94.8751 201.111 95.0092 201.019 95.1436C200.927 95.2765 200.799 95.3996 200.635 95.513L200.237 95.7878L200.034 95.4931ZM200.319 95.9065L200.119 95.6163L200.516 95.3415C200.704 95.212 200.879 95.1236 201.041 95.0765C201.205 95.0284 201.356 95.0144 201.493 95.0344C201.629 95.0529 201.75 95.0981 201.856 95.17C201.963 95.2409 202.055 95.3313 202.131 95.4412C202.234 95.5907 202.299 95.7428 202.326 95.8975C202.353 96.0497 202.345 96.2001 202.303 96.3485C202.26 96.4969 202.187 96.6372 202.083 96.7693C201.981 96.9004 201.853 97.0191 201.699 97.1254C201.562 97.2205 201.417 97.2925 201.264 97.3414C201.112 97.3904 200.96 97.4119 200.809 97.4059C200.656 97.3985 200.512 97.3586 200.375 97.2863C200.239 97.2114 200.12 97.0992 200.016 96.9497L200.546 96.5839C200.612 96.6791 200.692 96.7482 200.787 96.7912C200.882 96.8316 200.984 96.8445 201.093 96.8299C201.203 96.8143 201.311 96.77 201.417 96.6972C201.528 96.6202 201.611 96.5342 201.664 96.4389C201.717 96.3437 201.738 96.2426 201.727 96.1355C201.717 96.0275 201.675 95.9185 201.599 95.8086C201.513 95.684 201.419 95.5995 201.317 95.5553C201.215 95.511 201.106 95.5014 200.992 95.5265C200.876 95.5501 200.757 95.6039 200.636 95.6879L200.319 95.9065Z" fill="white"/>
</g>
<g filter="url(#filter4_d_380_11966)">
<rect x="212.711" y="74.574" width="3.12961" height="3.12961" rx="1.56481" transform="rotate(-34.6229 212.711 74.574)" fill="#5AC5F2" stroke="#5388D8" stroke-width="0.170993"/>
<path d="M223.41 70.5075L222.686 68.1092L223.143 67.7939L223.94 70.789L223.632 71.0019L223.41 70.5075ZM221.471 68.9483L223.453 70.4779L223.841 70.8574L223.531 71.0714L221.016 69.2625L221.471 68.9483ZM225.713 69.0365L225.126 68.1857C225.082 68.1219 225.032 68.0749 224.977 68.0447C224.922 68.0145 224.862 68.003 224.798 68.0104C224.734 68.017 224.667 68.0445 224.597 68.0931C224.532 68.1379 224.483 68.1876 224.451 68.2422C224.419 68.2969 224.403 68.352 224.402 68.4076C224.402 68.4632 224.418 68.5146 224.45 68.5619L224.055 68.8351C224.006 68.7647 223.976 68.6848 223.964 68.5953C223.953 68.5058 223.962 68.4129 223.991 68.3164C224.02 68.22 224.07 68.1258 224.139 68.0339C224.209 67.942 224.3 67.8573 224.412 67.7799C224.546 67.6873 224.68 67.6278 224.815 67.6016C224.95 67.5745 225.079 67.5861 225.202 67.6364C225.324 67.6848 225.433 67.7771 225.527 67.9135L226.075 68.7066C226.131 68.788 226.187 68.8573 226.242 68.9145C226.299 68.9699 226.354 69.0137 226.409 69.0458L226.427 69.0722L226.02 69.3534C225.971 69.3234 225.919 69.2792 225.862 69.2209C225.806 69.1606 225.756 69.0992 225.713 69.0365ZM225.269 68.2695L225.442 68.5129L225.156 68.7099C225.083 68.7607 225.023 68.8127 224.977 68.8657C224.93 68.9176 224.897 68.9696 224.877 69.0218C224.858 69.074 224.852 69.1252 224.859 69.1755C224.866 69.2258 224.886 69.2746 224.919 69.3218C224.952 69.3691 224.993 69.4049 225.042 69.4293C225.09 69.4526 225.143 69.4608 225.2 69.454C225.258 69.4464 225.317 69.4217 225.378 69.3799C225.459 69.3238 225.519 69.2583 225.557 69.1836C225.595 69.107 225.614 69.0324 225.616 68.9597C225.617 68.886 225.604 68.8264 225.576 68.7809L225.826 68.8685C225.844 68.9227 225.855 68.9866 225.859 69.0603C225.862 69.134 225.855 69.2123 225.836 69.2952C225.817 69.3763 225.782 69.4564 225.731 69.5354C225.681 69.6136 225.61 69.6846 225.518 69.7484C225.401 69.8289 225.282 69.8775 225.158 69.8943C225.035 69.9101 224.919 69.8962 224.813 69.8527C224.706 69.8081 224.618 69.7353 224.548 69.6341C224.483 69.5396 224.442 69.4439 224.428 69.3471C224.413 69.2484 224.423 69.1504 224.458 69.0531C224.494 68.955 224.554 68.8585 224.638 68.7633C224.721 68.6671 224.827 68.5742 224.957 68.4847L225.269 68.2695ZM225.451 66.0054L227.2 68.5382L226.801 68.8137L225.052 66.2809L225.451 66.0054ZM228.419 67.076L227.477 65.7123L227.876 65.4368L229.108 67.2209L228.732 67.4805L228.419 67.076ZM228.219 66.6662L228.35 66.5707C228.433 66.6906 228.496 66.8101 228.539 66.9295C228.582 67.0477 228.601 67.1632 228.598 67.2759C228.594 67.3875 228.563 67.4938 228.507 67.5948C228.449 67.6947 228.36 67.786 228.24 67.8687C228.154 67.9287 228.065 67.9711 227.975 67.9959C227.885 68.0207 227.795 68.0249 227.706 68.0086C227.618 67.9915 227.531 67.9505 227.444 67.8856C227.357 67.8207 227.272 67.7294 227.191 67.6118L226.395 66.4591L226.793 66.1848L227.591 67.3407C227.636 67.4055 227.681 67.4546 227.727 67.488C227.772 67.5202 227.816 67.5404 227.861 67.5486C227.906 67.5568 227.949 67.5542 227.992 67.5409C228.035 67.5276 228.076 67.5073 228.116 67.48C228.229 67.4018 228.303 67.3184 228.337 67.2296C228.372 67.139 228.377 67.0463 228.352 66.9514C228.328 66.8558 228.284 66.7608 228.219 66.6662ZM230.325 66.4296C230.193 66.5207 230.059 66.5816 229.922 66.6124C229.787 66.6413 229.654 66.6425 229.526 66.6161C229.398 66.5889 229.278 66.5362 229.166 66.458C229.053 66.3797 228.955 66.2796 228.871 66.1576L228.825 66.0916C228.729 65.952 228.662 65.8116 228.624 65.6703C228.587 65.5289 228.577 65.3931 228.594 65.2628C228.61 65.1313 228.653 65.01 228.722 64.8988C228.792 64.7876 228.884 64.6922 228.999 64.6125C229.127 64.5245 229.253 64.4689 229.379 64.4457C229.504 64.4225 229.625 64.4284 229.741 64.4631C229.858 64.4961 229.969 64.5552 230.073 64.6406C230.179 64.7252 230.276 64.8318 230.365 64.9605L230.482 65.1303L229.103 66.0821L228.906 65.7968L229.892 65.116L229.871 65.0847C229.819 65.0147 229.759 64.9575 229.689 64.9131C229.621 64.8679 229.547 64.8443 229.467 64.8422C229.388 64.8402 229.304 64.8695 229.216 64.9302C229.15 64.9758 229.101 65.0307 229.07 65.0949C229.038 65.1573 229.023 65.2267 229.026 65.303C229.028 65.3793 229.046 65.4613 229.079 65.5489C229.112 65.6347 229.16 65.7238 229.224 65.8161L229.27 65.8821C229.324 65.9601 229.384 66.0255 229.451 66.0781C229.519 66.1289 229.591 66.1646 229.666 66.1852C229.742 66.2058 229.82 66.21 229.899 66.1976C229.977 66.184 230.054 66.1511 230.13 66.0987C230.226 66.0327 230.298 65.9546 230.346 65.8646C230.394 65.7745 230.421 65.6753 230.428 65.567L230.777 65.6252C230.778 65.7078 230.765 65.7962 230.739 65.8904C230.712 65.9835 230.665 66.0767 230.598 66.17C230.532 66.2626 230.441 66.3492 230.325 66.4296ZM232.149 63.3729L232.368 63.6895L231.495 64.2917L231.277 63.9751L232.149 63.3729ZM234.73 61.2698L235.001 61.6623C235.13 61.8502 235.222 62.0236 235.277 62.1825C235.332 62.3394 235.353 62.483 235.341 62.6133C235.328 62.7436 235.287 62.8613 235.217 62.9666C235.148 63.0711 235.054 63.1644 234.935 63.2463C234.841 63.3116 234.744 63.3602 234.646 63.3922C234.549 63.4234 234.451 63.4356 234.35 63.4287C234.25 63.4218 234.148 63.3937 234.046 63.3442C233.944 63.2929 233.841 63.2188 233.736 63.1219C233.633 63.0243 233.53 62.9001 233.426 62.7495L233.155 62.3571C233.024 62.168 232.933 61.9957 232.881 61.8402C232.828 61.6836 232.808 61.5407 232.821 61.4115C232.833 61.2812 232.874 61.1644 232.944 61.061C233.015 60.9568 233.11 60.8637 233.229 60.7818C233.324 60.7157 233.421 60.6671 233.518 60.6359C233.615 60.6028 233.713 60.5895 233.811 60.5961C233.911 60.6019 234.012 60.6299 234.113 60.6801C234.215 60.7285 234.317 60.8015 234.42 60.8991C234.522 60.9956 234.626 61.1192 234.73 61.2698ZM234.642 61.9927L234.291 61.4848C234.225 61.3892 234.162 61.3089 234.1 61.2439C234.039 61.1779 233.979 61.1271 233.922 61.0917C233.866 61.0545 233.811 61.0309 233.757 61.0211C233.702 61.0101 233.649 61.0115 233.599 61.0253C233.548 61.038 233.497 61.0618 233.446 61.0967C233.385 61.1392 233.338 61.1893 233.306 61.2468C233.274 61.3033 233.259 61.3688 233.262 61.4432C233.264 61.5177 233.286 61.6033 233.327 61.7001C233.368 61.795 233.43 61.9024 233.513 62.0222L233.864 62.5301C233.93 62.6268 233.995 62.7082 234.056 62.7743C234.118 62.8404 234.178 62.8922 234.237 62.9298C234.295 62.9663 234.351 62.9909 234.405 63.0037C234.459 63.0147 234.512 63.0138 234.564 63.0011C234.616 62.9877 234.667 62.9639 234.717 62.9297C234.779 62.8865 234.826 62.8361 234.858 62.7785C234.89 62.7209 234.904 62.6543 234.9 62.5788C234.896 62.5022 234.873 62.4153 234.83 62.3181C234.787 62.221 234.725 62.1125 234.642 61.9927ZM235.473 59.2684L237.137 61.6775L236.739 61.9519L235.402 60.0144L234.951 60.6203L234.724 60.2922L235.426 59.3014L235.473 59.2684ZM238.263 59.7335L238.246 59.7101C238.111 59.5141 238.009 59.3218 237.941 59.1333C237.874 58.9433 237.833 58.7645 237.819 58.5971C237.804 58.4287 237.808 58.2783 237.832 58.1457C237.856 58.0116 237.892 57.9022 237.94 57.8174L238.137 57.9615C238.111 58.0376 238.095 58.1288 238.09 58.2351C238.086 58.3408 238.097 58.4596 238.123 58.5917C238.15 58.7222 238.197 58.8644 238.264 59.0183C238.331 59.1707 238.424 59.3321 238.541 59.5024L238.561 59.5313C238.679 59.7017 238.797 59.8458 238.917 59.9637C239.036 60.08 239.153 60.1742 239.266 60.2461C239.38 60.3174 239.488 60.3704 239.588 60.4048C239.691 60.4396 239.783 60.4597 239.865 60.4652L239.925 60.6921C239.828 60.7063 239.712 60.7008 239.578 60.6755C239.446 60.6505 239.304 60.6012 239.152 60.5277C239 60.4552 238.848 60.3541 238.695 60.2244C238.542 60.0932 238.398 59.9295 238.263 59.7335ZM238.674 57.4993L240.131 59.61L239.799 59.8396L238.342 57.7289L238.674 57.4993ZM240.149 57.4021L240.316 57.6439L239.478 58.2227L239.311 57.9808L240.149 57.4021ZM239.301 57.4497L239.632 57.221L240.627 58.6611C240.658 58.7069 240.689 58.7378 240.719 58.7537C240.749 58.768 240.779 58.7711 240.809 58.7629C240.838 58.7547 240.869 58.7395 240.901 58.7174C240.924 58.7015 240.945 58.685 240.964 58.6677C240.983 58.6504 240.998 58.6359 241.009 58.6243L241.185 58.8762C241.163 58.9035 241.136 58.9329 241.104 58.9646C241.073 58.9957 241.034 59.0274 240.987 59.0596C240.911 59.1121 240.835 59.1453 240.758 59.1593C240.68 59.1723 240.604 59.1595 240.528 59.1208C240.453 59.0822 240.38 59.0121 240.31 58.9104L239.301 57.4497ZM241.509 57.4578L241.525 57.4811C241.658 57.6744 241.758 57.8659 241.824 58.0557C241.891 58.2448 241.931 58.4239 241.945 58.5929C241.96 58.7613 241.955 58.9136 241.93 59.0498C241.906 59.1855 241.87 59.2965 241.821 59.3828L241.629 59.2479C241.654 59.1709 241.668 59.0791 241.672 58.9725C241.677 58.8662 241.665 58.7464 241.637 58.6132C241.61 58.4802 241.562 58.3371 241.494 58.1838C241.427 58.0299 241.335 57.8677 241.217 57.6973L241.198 57.6685C241.08 57.4981 240.96 57.3546 240.839 57.238C240.719 57.1198 240.601 57.0254 240.486 56.9547C240.37 56.8831 240.261 56.8301 240.161 56.7956C240.06 56.7611 239.971 56.7412 239.894 56.736L239.836 56.5081C239.934 56.4923 240.05 56.4972 240.185 56.5228C240.322 56.5478 240.466 56.5974 240.619 56.6718C240.772 56.7447 240.925 56.846 241.078 56.9756C241.232 57.1047 241.376 57.2654 241.509 57.4578Z" fill="white"/>
<path d="M227.273 74.774L229.49 77.9862L228.96 78.3521L227.177 75.7687L226.576 76.5766L226.273 76.1391L227.209 74.8181L227.273 74.774ZM232.457 75.3144L232.749 75.7365L230.603 77.2181L230.352 76.8553L230.61 74.9991C230.635 74.7912 230.648 74.6175 230.649 74.4782C230.651 74.3388 230.639 74.2227 230.613 74.1297C230.589 74.0343 230.551 73.9506 230.502 73.8788C230.432 73.7777 230.352 73.7022 230.261 73.6522C230.171 73.5999 230.074 73.5765 229.972 73.5821C229.869 73.5862 229.766 73.6237 229.664 73.6946C229.545 73.7766 229.463 73.871 229.418 73.978C229.372 74.0849 229.361 74.198 229.382 74.3172C229.403 74.435 229.453 74.5518 229.533 74.6676L229.004 75.0334C228.875 74.8472 228.8 74.6479 228.779 74.4353C228.757 74.2212 228.795 74.0131 228.893 73.8109C228.991 73.6072 229.153 73.427 229.38 73.2701C229.594 73.1223 229.801 73.0328 230 73.0014C230.199 72.9699 230.383 72.9934 230.552 73.0717C230.722 73.1489 230.869 73.2777 230.994 73.458C231.063 73.5577 231.115 73.6677 231.15 73.7882C231.186 73.9087 231.207 74.0388 231.215 74.1785C231.223 74.3157 231.221 74.4612 231.208 74.6151C231.194 74.7675 231.173 74.9269 231.146 75.0934L230.98 76.3345L232.457 75.3144ZM233.338 74.5767L233.596 74.9564C233.7 75.1059 233.769 75.2856 233.803 75.4955C233.838 75.7054 233.829 75.9042 233.776 76.0918L233.379 76.1227C233.374 76.0284 233.366 75.9359 233.353 75.8452C233.34 75.7545 233.318 75.664 233.286 75.5736C233.253 75.4832 233.206 75.3919 233.142 75.2995L232.867 74.9016L233.338 74.5767ZM235.586 72.0922L235.878 72.5143L233.569 74.1083L233.332 73.8016L233.219 70.6848L233.643 70.3919L233.727 71.4962L233.812 73.3172L235.586 72.0922ZM233.764 70.3084L235.974 73.5096L235.444 73.8754L233.234 70.6742L233.764 70.3084ZM238.583 71.0852L238.874 71.5073L236.728 72.9889L236.478 72.6261L236.735 70.7699C236.76 70.562 236.774 70.3883 236.775 70.249C236.776 70.1096 236.764 69.9935 236.739 69.9005C236.714 69.8051 236.677 69.7214 236.627 69.6496C236.557 69.5485 236.477 69.4729 236.386 69.423C236.296 69.3707 236.2 69.3473 236.098 69.3529C235.994 69.357 235.891 69.3945 235.789 69.4654C235.67 69.5473 235.588 69.6418 235.543 69.7488C235.498 69.8557 235.486 69.9688 235.508 70.088C235.528 70.2058 235.579 70.3226 235.659 70.4383L235.129 70.8042C235 70.618 234.925 70.4187 234.904 70.2061C234.882 69.992 234.92 69.7839 235.019 69.5817C235.116 69.378 235.278 69.1977 235.506 69.0409C235.72 68.8931 235.926 68.8035 236.125 68.7721C236.324 68.7407 236.508 68.7642 236.677 68.8425C236.847 68.9197 236.995 69.0485 237.119 69.2288C237.188 69.3285 237.24 69.4385 237.276 69.559C237.311 69.6795 237.333 69.8096 237.341 69.9493C237.349 70.0865 237.346 70.232 237.334 70.3859C237.32 70.5383 237.299 70.6977 237.271 70.8642L237.105 72.1053L238.583 71.0852ZM238.639 68.9521L238.956 68.7335C239.079 68.6485 239.166 68.5569 239.217 68.4587C239.27 68.3595 239.29 68.2589 239.278 68.1568C239.266 68.0547 239.227 67.9553 239.16 67.8586C239.09 67.7575 239.012 67.6836 238.926 67.6371C238.84 67.5881 238.747 67.5691 238.646 67.5801C238.547 67.5902 238.442 67.6336 238.33 67.7105C238.237 67.7753 238.165 67.8531 238.115 67.9438C238.065 68.032 238.043 68.1258 238.046 68.2251C238.049 68.3228 238.082 68.4186 238.147 68.5124L237.615 68.8798C237.498 68.7098 237.438 68.5279 237.436 68.3343C237.435 68.1406 237.485 67.9533 237.587 67.7723C237.69 67.5888 237.838 67.4303 238.032 67.2967C238.238 67.154 238.442 67.0639 238.644 67.0266C238.846 66.9867 239.037 67.0044 239.216 67.0795C239.396 67.1547 239.554 67.2919 239.692 67.4912C239.755 67.5821 239.797 67.6891 239.82 67.8123C239.842 67.9354 239.838 68.0647 239.808 68.2001C239.777 68.334 239.716 68.4681 239.625 68.6025C239.533 68.7354 239.405 68.8586 239.24 68.9719L238.842 69.2467L238.639 68.9521ZM238.924 69.3654L238.724 69.0752L239.122 68.8004C239.31 68.6709 239.485 68.5826 239.647 68.5355C239.811 68.4873 239.961 68.4733 240.098 68.4933C240.234 68.5118 240.355 68.557 240.461 68.6289C240.569 68.6998 240.66 68.7902 240.736 68.9001C240.839 69.0496 240.904 69.2017 240.931 69.3564C240.958 69.5087 240.951 69.659 240.908 69.8074C240.866 69.9558 240.793 70.0961 240.689 70.2282C240.587 70.3593 240.459 70.478 240.305 70.5843C240.167 70.6794 240.022 70.7514 239.87 70.8004C239.717 70.8493 239.566 70.8708 239.414 70.8649C239.262 70.8574 239.118 70.8176 238.981 70.7452C238.845 70.6703 238.725 70.5581 238.622 70.4086L239.152 70.0428C239.218 70.1381 239.298 70.2072 239.392 70.2501C239.487 70.2905 239.589 70.3034 239.698 70.2888C239.809 70.2732 239.917 70.2289 240.022 70.1561C240.134 70.0792 240.216 69.9931 240.269 69.8979C240.323 69.8026 240.344 69.7015 240.333 69.5945C240.323 69.4864 240.28 69.3774 240.204 69.2675C240.118 69.1429 240.024 69.0585 239.922 69.0142C239.82 68.9699 239.712 68.9603 239.597 68.9854C239.481 69.009 239.363 69.0628 239.241 69.1468L238.924 69.3654Z" fill="white"/>
</g>
<g filter="url(#filter5_d_380_11966)">
<rect x="186.029" y="50.1883" width="3.30061" height="3.30061" rx="1.6503" transform="rotate(-32 186.029 50.1883)" fill="#BFE6BA"/>
<path d="M197.019 46.6428L196.406 44.2139L196.877 43.9198L197.536 46.9483L197.218 47.1469L197.019 46.6428ZM195.154 44.9965L197.063 46.6152L197.434 47.012L197.114 47.2117L194.685 45.2896L195.154 44.9965ZM199.387 45.2788L198.839 44.4019C198.798 44.3362 198.751 44.287 198.697 44.2543C198.644 44.2216 198.584 44.2074 198.519 44.2118C198.456 44.2155 198.387 44.2399 198.315 44.2853C198.248 44.327 198.197 44.3745 198.163 44.4275C198.128 44.4806 198.109 44.535 198.106 44.5905C198.103 44.646 198.117 44.6981 198.147 44.7468L197.739 45.0016C197.694 44.9291 197.668 44.8479 197.66 44.758C197.653 44.6681 197.666 44.5756 197.7 44.4806C197.733 44.3856 197.787 44.2938 197.861 44.2051C197.934 44.1165 198.029 44.0361 198.145 43.9639C198.283 43.8775 198.42 43.8243 198.555 43.8042C198.692 43.7834 198.82 43.8009 198.94 43.8567C199.061 43.9106 199.165 44.0079 199.252 44.1483L199.763 44.9657C199.816 45.0496 199.868 45.1214 199.921 45.1811C199.975 45.239 200.028 45.2853 200.081 45.3198L200.098 45.347L199.679 45.6093C199.632 45.5772 199.581 45.5306 199.528 45.4697C199.474 45.407 199.427 45.3433 199.387 45.2788ZM198.978 44.4922L199.14 44.7433L198.846 44.927C198.77 44.9744 198.708 45.0235 198.659 45.0744C198.61 45.1241 198.574 45.1745 198.553 45.2258C198.531 45.2771 198.523 45.328 198.528 45.3785C198.533 45.4291 198.55 45.4787 198.581 45.5274C198.611 45.5761 198.65 45.6138 198.699 45.6404C198.746 45.6659 198.798 45.6765 198.855 45.6723C198.914 45.6674 198.974 45.6454 199.036 45.6065C199.12 45.5541 199.183 45.4914 199.224 45.4185C199.265 45.3438 199.289 45.2701 199.294 45.1976C199.298 45.124 199.287 45.0638 199.261 45.0171L199.507 45.1161C199.523 45.171 199.531 45.2354 199.531 45.3092C199.532 45.3829 199.52 45.4608 199.498 45.5428C199.475 45.6229 199.437 45.7013 199.382 45.7779C199.329 45.8538 199.255 45.9215 199.159 45.981C199.039 46.056 198.917 46.0991 198.794 46.1103C198.669 46.1203 198.555 46.1012 198.451 46.0529C198.346 46.0035 198.261 45.9266 198.196 45.8224C198.135 45.725 198.099 45.6276 198.088 45.5301C198.078 45.4309 198.093 45.3334 198.133 45.2379C198.173 45.1416 198.238 45.0478 198.326 44.9567C198.413 44.8643 198.523 44.7764 198.657 44.6929L198.978 44.4922ZM199.264 42.2388L200.895 44.849L200.484 45.106L198.853 42.4958L199.264 42.2388ZM202.179 43.4441L201.301 42.0387L201.712 41.7817L202.861 43.6204L202.474 43.8625L202.179 43.4441ZM201.998 43.0256L202.134 42.9362C202.211 43.0597 202.268 43.182 202.306 43.3033C202.344 43.4233 202.358 43.5396 202.35 43.652C202.34 43.7633 202.305 43.8681 202.243 43.9664C202.181 44.0635 202.088 44.1507 201.965 44.2278C201.876 44.2837 201.785 44.322 201.694 44.3427C201.603 44.3634 201.513 44.3635 201.425 44.3431C201.338 44.322 201.252 44.277 201.168 44.2082C201.084 44.1394 201.004 44.0444 200.929 43.9231L200.186 42.7353L200.596 42.4794L201.34 43.6706C201.382 43.7375 201.425 43.7886 201.469 43.824C201.513 43.8583 201.557 43.8805 201.601 43.8907C201.645 43.9009 201.689 43.9003 201.732 43.889C201.775 43.8777 201.817 43.8593 201.858 43.8338C201.975 43.7609 202.052 43.6809 202.091 43.5938C202.13 43.5049 202.139 43.4125 202.119 43.3166C202.099 43.22 202.059 43.123 201.998 43.0256ZM204.113 42.8856C203.977 42.9706 203.84 43.0253 203.703 43.0498C203.566 43.0724 203.434 43.0676 203.306 43.0353C203.18 43.0023 203.063 42.9442 202.954 42.8609C202.845 42.7776 202.751 42.6731 202.673 42.5473L202.63 42.4794C202.541 42.3355 202.48 42.1921 202.449 42.0492C202.418 41.9064 202.414 41.7702 202.437 41.6408C202.46 41.5102 202.508 41.391 202.582 41.2831C202.657 41.1752 202.753 41.0841 202.872 41.0098C203.004 40.9276 203.132 40.8779 203.259 40.8605C203.385 40.8431 203.505 40.8544 203.62 40.8945C203.735 40.9327 203.843 40.9969 203.944 41.087C204.045 41.1763 204.137 41.2873 204.22 41.4198L204.33 41.5949L202.909 42.4826L202.725 42.1886L203.741 41.5536L203.721 41.5213C203.673 41.4491 203.615 41.3892 203.547 41.3416C203.481 41.2933 203.408 41.2663 203.329 41.2607C203.25 41.255 203.165 41.2805 203.074 41.3371C203.006 41.3796 202.955 41.4322 202.92 41.4949C202.886 41.5558 202.868 41.6244 202.867 41.7007C202.866 41.777 202.88 41.8597 202.909 41.9488C202.938 42.036 202.982 42.1272 203.042 42.2224L203.084 42.2904C203.134 42.3708 203.192 42.4389 203.257 42.4945C203.322 42.5483 203.392 42.5873 203.467 42.6114C203.542 42.6354 203.619 42.6431 203.698 42.6343C203.777 42.6244 203.856 42.595 203.934 42.5462C204.033 42.4846 204.108 42.4099 204.16 42.3221C204.212 42.2343 204.244 42.1365 204.256 42.0286L204.602 42.1027C204.598 42.1853 204.582 42.273 204.551 42.3659C204.521 42.4577 204.469 42.5486 204.398 42.6388C204.328 42.7283 204.233 42.8106 204.113 42.8856ZM206.075 39.9155L206.279 40.2418L205.38 40.8035L205.176 40.4773L206.075 39.9155ZM208.749 37.9328L209.002 38.3372C209.123 38.531 209.207 38.7084 209.254 38.8695C209.302 39.0288 209.317 39.1733 209.298 39.3028C209.28 39.4324 209.233 39.5482 209.159 39.6501C209.085 39.7514 208.987 39.8402 208.864 39.9167C208.767 39.9775 208.668 40.0217 208.569 40.0492C208.471 40.0759 208.372 40.0836 208.271 40.0721C208.171 40.0606 208.071 40.0278 207.971 39.9737C207.872 39.9178 207.772 39.839 207.673 39.7375C207.574 39.6352 207.476 39.5065 207.379 39.3513L207.127 38.9469C207.005 38.752 206.921 38.5757 206.876 38.418C206.831 38.2591 206.817 38.1154 206.836 37.987C206.855 37.8574 206.901 37.7426 206.975 37.6425C207.051 37.5417 207.15 37.453 207.272 37.3766C207.371 37.315 207.469 37.2708 207.568 37.2441C207.666 37.2155 207.765 37.2067 207.863 37.2178C207.962 37.2281 208.062 37.2607 208.16 37.3155C208.26 37.3685 208.359 37.4461 208.457 37.5483C208.555 37.6494 208.652 37.7776 208.749 37.9328ZM208.629 38.6509L208.302 38.1275C208.24 38.029 208.18 37.9458 208.122 37.8781C208.063 37.8093 208.006 37.7559 207.951 37.718C207.896 37.6782 207.842 37.6521 207.789 37.6398C207.735 37.6263 207.682 37.6253 207.631 37.6368C207.579 37.6471 207.527 37.6686 207.475 37.7011C207.412 37.7408 207.363 37.7886 207.329 37.8447C207.294 37.8997 207.276 37.9644 207.275 38.0389C207.274 38.1133 207.292 38.1999 207.329 38.2984C207.365 38.3951 207.422 38.5052 207.5 38.6287L207.827 39.1521C207.889 39.2518 207.949 39.3361 208.008 39.4049C208.067 39.4737 208.125 39.5282 208.181 39.5685C208.237 39.6075 208.292 39.6347 208.346 39.65C208.4 39.6635 208.453 39.6651 208.505 39.6547C208.557 39.6437 208.609 39.6222 208.66 39.5904C208.725 39.55 208.774 39.5018 208.809 39.4458C208.843 39.3897 208.86 39.3238 208.86 39.2482C208.859 39.1715 208.84 39.0836 208.802 38.9846C208.764 38.8856 208.706 38.7744 208.629 38.6509ZM209.584 35.9675L211.135 38.4502L210.726 38.7061L209.478 36.7094L209 37.2941L208.789 36.9559L209.535 35.9983L209.584 35.9675ZM212.349 36.5598L212.334 36.5357C212.208 36.3336 212.115 36.1369 212.056 35.9455C211.997 35.7526 211.964 35.5722 211.958 35.4042C211.951 35.2354 211.962 35.0853 211.991 34.9539C212.021 34.8211 212.062 34.7134 212.114 34.6309L212.305 34.7839C212.275 34.8587 212.255 34.9491 212.246 35.055C212.237 35.1604 212.242 35.2797 212.262 35.4128C212.283 35.5443 212.323 35.6885 212.383 35.8454C212.443 36.0007 212.528 36.1661 212.638 36.3417L212.657 36.3714C212.766 36.547 212.878 36.6964 212.992 36.8197C213.106 36.9413 213.218 37.0407 213.328 37.1178C213.439 37.1942 213.544 37.252 213.643 37.2911C213.744 37.3305 213.835 37.3548 213.917 37.364L213.966 37.5934C213.868 37.6032 213.753 37.5924 213.62 37.561C213.489 37.53 213.35 37.4742 213.201 37.3939C213.053 37.3144 212.905 37.2065 212.758 37.0699C212.612 36.9318 212.475 36.7618 212.349 36.5598ZM212.862 34.3467L214.221 36.5219L213.879 36.736L212.52 34.5609L212.862 34.3467ZM214.34 34.3171L214.496 34.5664L213.632 35.1061L213.476 34.8569L214.34 34.3171ZM213.491 34.3259L213.832 34.1126L214.76 35.5967C214.789 35.6439 214.819 35.6761 214.848 35.6934C214.877 35.7091 214.907 35.7135 214.937 35.7067C214.967 35.6998 214.998 35.6861 215.031 35.6654C215.055 35.6507 215.077 35.6351 215.096 35.6187C215.116 35.6023 215.132 35.5886 215.144 35.5775L215.308 35.8371C215.285 35.8633 215.256 35.8915 215.223 35.9217C215.19 35.9514 215.15 35.9812 215.102 36.0113C215.023 36.0603 214.945 36.0899 214.868 36.1003C214.79 36.1097 214.714 36.0935 214.64 36.0514C214.567 36.0094 214.497 35.936 214.432 35.8312L213.491 34.3259ZM215.696 34.435L215.711 34.459C215.835 34.6582 215.926 34.8541 215.984 35.0467C216.042 35.2387 216.074 35.4194 216.08 35.5889C216.087 35.7577 216.075 35.9097 216.044 36.0447C216.014 36.1791 215.972 36.2883 215.92 36.3723L215.734 36.2287C215.762 36.153 215.781 36.0619 215.789 35.9556C215.799 35.8496 215.793 35.7295 215.771 35.595C215.75 35.461 215.709 35.3158 215.648 35.1596C215.588 35.0028 215.504 34.8366 215.394 34.661L215.375 34.6312C215.266 34.4556 215.153 34.3068 215.037 34.1848C214.922 34.0612 214.809 33.9615 214.697 33.8856C214.584 33.8088 214.479 33.7508 214.379 33.7118C214.28 33.6727 214.192 33.6488 214.116 33.6401L214.069 33.4098C214.167 33.3985 214.283 33.4087 214.417 33.4404C214.552 33.4716 214.694 33.5278 214.843 33.6092C214.993 33.6889 215.141 33.7971 215.288 33.9336C215.436 34.0696 215.572 34.2367 215.696 34.435Z" fill="white"/>
<path d="M200.684 51.0817L202.753 54.392L202.207 54.7332L200.543 52.0709L199.906 52.8505L199.624 52.3996L200.619 51.1227L200.684 51.0817ZM205.839 51.8587L206.111 52.2937L203.899 53.6756L203.666 53.3017L204.008 51.4592C204.043 51.2527 204.064 51.0798 204.071 50.9407C204.079 50.8015 204.072 50.6849 204.051 50.5909C204.031 50.4944 203.998 50.4092 203.951 50.3352C203.886 50.2309 203.809 50.1518 203.721 50.0978C203.633 50.0413 203.538 50.0136 203.436 50.0145C203.333 50.0139 203.228 50.0467 203.122 50.1128C203 50.1892 202.914 50.2798 202.864 50.3846C202.814 50.4894 202.797 50.6018 202.813 50.7219C202.828 50.8405 202.873 50.9594 202.948 51.0788L202.402 51.42C202.282 51.2281 202.216 51.0255 202.205 50.8122C202.192 50.5973 202.24 50.3912 202.348 50.1937C202.454 49.9947 202.625 49.822 202.859 49.6757C203.079 49.5379 203.29 49.4579 203.49 49.4356C203.69 49.4134 203.873 49.4452 204.038 49.5311C204.205 49.6161 204.346 49.7515 204.462 49.9373C204.526 50.04 204.573 50.1524 204.603 50.2743C204.633 50.3963 204.649 50.5272 204.65 50.6671C204.652 50.8046 204.643 50.9499 204.623 51.103C204.603 51.2546 204.574 51.4129 204.539 51.5779L204.316 52.8101L205.839 51.8587ZM206.752 51.1621L206.993 51.5532C207.09 51.7073 207.15 51.89 207.175 52.1012C207.2 52.3125 207.182 52.5107 207.121 52.6957L206.723 52.7084C206.723 52.614 206.718 52.5212 206.71 52.43C206.701 52.3388 206.683 52.2473 206.655 52.1556C206.627 52.0638 206.583 51.9703 206.524 51.8752L206.267 51.4651L206.752 51.1621ZM209.112 48.7831L209.384 49.2181L207.005 50.7047L206.782 50.3875L206.811 47.2689L207.249 46.9956L207.282 48.1027L207.284 49.9257L209.112 48.7831ZM207.373 46.9177L209.435 50.2167L208.889 50.5579L206.827 47.259L207.373 46.9177ZM212.152 47.9142L212.423 48.3493L210.212 49.7311L209.978 49.3572L210.32 47.5147C210.355 47.3082 210.376 47.1353 210.384 46.9962C210.391 46.857 210.385 46.7405 210.364 46.6464C210.343 46.5499 210.31 46.4647 210.264 46.3907C210.199 46.2865 210.122 46.2073 210.034 46.1533C209.946 46.0969 209.851 46.0691 209.748 46.07C209.645 46.0695 209.541 46.1022 209.435 46.1683C209.313 46.2447 209.226 46.3354 209.176 46.4401C209.126 46.5449 209.109 46.6574 209.126 46.7774C209.141 46.896 209.186 47.015 209.26 47.1343L208.714 47.4755C208.594 47.2837 208.529 47.0811 208.517 46.8677C208.505 46.6529 208.552 46.4467 208.66 46.2492C208.767 46.0502 208.937 45.8776 209.171 45.7313C209.392 45.5935 209.602 45.5134 209.803 45.4912C210.003 45.4689 210.186 45.5007 210.351 45.5867C210.517 45.6716 210.658 45.807 210.774 45.9928C210.839 46.0955 210.886 46.2079 210.916 46.3299C210.946 46.4518 210.961 46.5828 210.963 46.7227C210.965 46.8601 210.956 47.0054 210.936 47.1585C210.915 47.3101 210.887 47.4684 210.851 47.6334L210.629 48.8657L212.152 47.9142ZM212.305 45.7859L212.632 45.5821C212.759 45.5028 212.85 45.4153 212.906 45.3196C212.963 45.2229 212.988 45.1233 212.98 45.0208C212.973 44.9183 212.938 44.8172 212.876 44.7175C212.811 44.6132 212.736 44.5359 212.652 44.4855C212.569 44.4326 212.477 44.4094 212.376 44.4158C212.276 44.4213 212.169 44.4599 212.054 44.5316C211.957 44.592 211.882 44.6664 211.828 44.7547C211.775 44.8406 211.747 44.9333 211.747 45.0326C211.745 45.1304 211.774 45.2276 211.834 45.3243L211.286 45.6669C211.176 45.4917 211.125 45.3073 211.133 45.1138C211.14 44.9203 211.199 44.7354 211.309 44.5593C211.42 44.3807 211.575 44.2291 211.775 44.1045C211.988 43.9714 212.196 43.8908 212.399 43.8627C212.602 43.8321 212.792 43.8585 212.968 43.9418C213.144 44.0251 213.296 44.1694 213.424 44.3748C213.483 44.4685 213.52 44.5773 213.537 44.7014C213.554 44.8254 213.544 44.9544 213.508 45.0882C213.471 45.2206 213.404 45.3518 213.306 45.4819C213.208 45.6104 213.075 45.7276 212.905 45.8333L212.495 46.0896L212.305 45.7859ZM212.572 46.2119L212.385 45.9128L212.795 45.6566C212.988 45.5358 213.167 45.4555 213.331 45.4159C213.497 45.3753 213.648 45.3682 213.784 45.3944C213.919 45.4192 214.038 45.4699 214.141 45.5465C214.245 45.6222 214.332 45.7168 214.403 45.83C214.499 45.9841 214.557 46.139 214.577 46.2948C214.597 46.4481 214.582 46.5979 214.533 46.7442C214.484 46.8906 214.404 47.0273 214.295 47.1546C214.187 47.2809 214.054 47.3936 213.895 47.4927C213.753 47.5814 213.605 47.6467 213.45 47.6886C213.296 47.7305 213.143 47.7451 212.992 47.7322C212.841 47.7178 212.698 47.6714 212.565 47.5928C212.432 47.5118 212.318 47.3943 212.222 47.2402L212.768 46.899C212.829 46.9972 212.906 47.0699 212.999 47.1171C213.092 47.1618 213.193 47.1794 213.303 47.1698C213.414 47.1592 213.523 47.12 213.632 47.052C213.747 46.9803 213.833 46.8981 213.891 46.8054C213.948 46.7127 213.974 46.6126 213.968 46.5052C213.963 46.3968 213.925 46.286 213.855 46.1727C213.774 46.0443 213.684 45.9556 213.584 45.9067C213.485 45.8578 213.377 45.8433 213.261 45.8631C213.144 45.8814 213.023 45.9297 212.898 46.008L212.572 46.2119Z" fill="white"/>
</g>
<defs>
<filter id="filter0_d_380_11966" x="0.0546875" y="9.14977" width="302.885" height="198.044" filterUnits="userSpaceOnUse" color-interpolation-filters="sRGB">
<feFlood flood-opacity="0" result="BackgroundImageFix"/>
<feColorMatrix in="SourceAlpha" type="matrix" values="0 0 0 0 0 0 0 0 0 0 0 0 0 0 0 0 0 0 127 0" result="hardAlpha"/>
<feOffset dx="-3" dy="7"/>
<feGaussianBlur stdDeviation="2"/>
<feComposite in2="hardAlpha" operator="out"/>
<feColorMatrix type="matrix" values="0 0 0 0 0 0 0 0 0 0 0 0 0 0 0 0 0 0 0.25 0"/>
<feBlend mode="normal" in2="BackgroundImageFix" result="effect1_dropShadow_380_11966"/>
<feBlend mode="normal" in="SourceGraphic" in2="effect1_dropShadow_380_11966" result="shape"/>
</filter>
<filter id="filter1_d_380_11966" x="73.9727" y="81.3196" width="106.514" height="86.9719" filterUnits="userSpaceOnUse" color-interpolation-filters="sRGB">
<feFlood flood-opacity="0" result="BackgroundImageFix"/>
<feColorMatrix in="SourceAlpha" type="matrix" values="0 0 0 0 0 0 0 0 0 0 0 0 0 0 0 0 0 0 127 0" result="hardAlpha"/>
<feOffset dx="6" dy="13"/>
<feGaussianBlur stdDeviation="2"/>
<feComposite in2="hardAlpha" operator="out"/>
<feColorMatrix type="matrix" values="0 0 0 0 0 0 0 0 0 0 0 0 0 0 0 0 0 0 0.5 0"/>
<feBlend mode="normal" in2="BackgroundImageFix" result="effect1_dropShadow_380_11966"/>
<feBlend mode="normal" in="SourceGraphic" in2="effect1_dropShadow_380_11966" result="shape"/>
</filter>
<filter id="filter2_d_380_11966" x="145.77" y="52.3657" width="53.252" height="45.7712" filterUnits="userSpaceOnUse" color-interpolation-filters="sRGB">
<feFlood flood-opacity="0" result="BackgroundImageFix"/>
<feColorMatrix in="SourceAlpha" type="matrix" values="0 0 0 0 0 0 0 0 0 0 0 0 0 0 0 0 0 0 127 0" result="hardAlpha"/>
<feOffset dx="2" dy="5"/>
<feGaussianBlur stdDeviation="2.5"/>
<feComposite in2="hardAlpha" operator="out"/>
<feColorMatrix type="matrix" values="0 0 0 0 0 0 0 0 0 0 0 0 0 0 0 0 0 0 0.5 0"/>
<feBlend mode="normal" in2="BackgroundImageFix" result="effect1_dropShadow_380_11966"/>
<feBlend mode="normal" in="SourceGraphic" in2="effect1_dropShadow_380_11966" result="shape"/>
</filter>
<filter id="filter3_d_380_11966" x="168.691" y="77.7003" width="52.8848" height="46.8926" filterUnits="userSpaceOnUse" color-interpolation-filters="sRGB">
<feFlood flood-opacity="0" result="BackgroundImageFix"/>
<feColorMatrix in="SourceAlpha" type="matrix" values="0 0 0 0 0 0 0 0 0 0 0 0 0 0 0 0 0 0 127 0" result="hardAlpha"/>
<feOffset dx="2" dy="5"/>
<feGaussianBlur stdDeviation="2.5"/>
<feComposite in2="hardAlpha" operator="out"/>
<feColorMatrix type="matrix" values="0 0 0 0 0 0 0 0 0 0 0 0 0 0 0 0 0 0 0.5 0"/>
<feBlend mode="normal" in2="BackgroundImageFix" result="effect1_dropShadow_380_11966"/>
<feBlend mode="normal" in="SourceGraphic" in2="effect1_dropShadow_380_11966" result="shape"/>
</filter>
<filter id="filter4_d_380_11966" x="207.297" y="51.1592" width="52.8848" height="46.8926" filterUnits="userSpaceOnUse" color-interpolation-filters="sRGB">
<feFlood flood-opacity="0" result="BackgroundImageFix"/>
<feColorMatrix in="SourceAlpha" type="matrix" values="0 0 0 0 0 0 0 0 0 0 0 0 0 0 0 0 0 0 127 0" result="hardAlpha"/>
<feOffset dx="2" dy="5"/>
<feGaussianBlur stdDeviation="2.5"/>
<feComposite in2="hardAlpha" operator="out"/>
<feColorMatrix type="matrix" values="0 0 0 0 0 0 0 0 0 0 0 0 0 0 0 0 0 0 0.5 0"/>
<feBlend mode="normal" in2="BackgroundImageFix" result="effect1_dropShadow_380_11966"/>
<feBlend mode="normal" in="SourceGraphic" in2="effect1_dropShadow_380_11966" result="shape"/>
</filter>
<filter id="filter5_d_380_11966" x="180.756" y="28.2374" width="53.252" height="45.7712" filterUnits="userSpaceOnUse" color-interpolation-filters="sRGB">
<feFlood flood-opacity="0" result="BackgroundImageFix"/>
<feColorMatrix in="SourceAlpha" type="matrix" values="0 0 0 0 0 0 0 0 0 0 0 0 0 0 0 0 0 0 127 0" result="hardAlpha"/>
<feOffset dx="2" dy="5"/>
<feGaussianBlur stdDeviation="2.5"/>
<feComposite in2="hardAlpha" operator="out"/>
<feColorMatrix type="matrix" values="0 0 0 0 0 0 0 0 0 0 0 0 0 0 0 0 0 0 0.5 0"/>
<feBlend mode="normal" in2="BackgroundImageFix" result="effect1_dropShadow_380_11966"/>
<feBlend mode="normal" in="SourceGraphic" in2="effect1_dropShadow_380_11966" result="shape"/>
</filter>
<clipPath id="clip0_380_11966">
<rect width="6.60121" height="6.60121" fill="white" transform="translate(171.691 100.673) rotate(-34.6229)"/>
</clipPath>
</defs>
</svg>
