<svg width="315" height="205" viewBox="0 0 315 205" fill="none" xmlns="http://www.w3.org/2000/svg">
<g filter="url(#filter0_d_380_11999)">
<path d="M310.943 68.0989L204.098 1.30143C203.111 0.684348 201.856 0.693968 200.878 1.3261L8.0149 126.051C6.15713 127.252 6.19453 129.983 8.08451 131.133L111.461 194.039C113.728 195.419 116.58 195.398 118.826 193.985L310.949 73.1824C312.823 72.0042 312.819 69.2722 310.943 68.0989Z" fill="#D6D9E1"/>
<path d="M310.943 68.0989L204.098 1.30143C203.111 0.684348 201.856 0.693968 200.878 1.3261L8.0149 126.051C6.15713 127.252 6.19453 129.983 8.08451 131.133L111.461 194.039C113.728 195.419 116.58 195.398 118.826 193.985L310.949 73.1824C312.823 72.0042 312.819 69.2722 310.943 68.0989Z" stroke="#D6D9E1"/>
</g>
<g filter="url(#filter1_d_380_11999)">
<g filter="url(#filter2_d_380_11999)">
<path d="M105.144 56.0963L153.041 37.9237L200.939 56.0963L212.761 96.9031L179.626 129.638H126.457L93.3215 96.9031L105.144 56.0963Z" stroke="black" stroke-opacity="0.12" stroke-width="0.153153"/>
<path d="M111.137 59.8629L153.039 43.9648L194.942 59.8629L205.283 95.5588L176.297 124.195H129.782L100.795 95.5588L111.137 59.8629Z" stroke="black" stroke-opacity="0.12" stroke-width="0.153153"/>
<path d="M117.134 63.6296L153.041 50.006L188.949 63.6296L197.81 94.2145L172.972 118.752H133.111L108.273 94.2145L117.134 63.6296Z" stroke="black" stroke-opacity="0.12" stroke-width="0.153153"/>
<path d="M123.129 67.3962L153.041 56.0472L182.954 67.3962L190.334 92.8702L169.645 113.309H136.438L115.749 92.8702L123.129 67.3962Z" stroke="black" stroke-opacity="0.12" stroke-width="0.153153"/>
<path d="M129.124 71.1628L153.041 62.0884L176.959 71.1628L182.858 91.5259L166.318 107.866H139.765L123.224 91.5259L129.124 71.1628Z" stroke="black" stroke-opacity="0.12" stroke-width="0.153153"/>
<path d="M135.117 74.9294L153.039 68.1296L170.962 74.9295L175.38 90.1817L162.989 102.423H143.09L130.698 90.1817L135.117 74.9294Z" stroke="black" stroke-opacity="0.12" stroke-width="0.153153"/>
<path d="M141.112 78.6961L153.039 74.1708L164.966 78.6961L167.904 88.8374L159.662 96.9805H146.417L138.174 88.8374L141.112 78.6961Z" stroke="black" stroke-opacity="0.12" stroke-width="0.153153"/>
<path d="M147.107 82.4627L153.039 80.212L158.971 82.4627L160.429 87.4931L156.335 91.5376H149.744L145.65 87.4931L147.107 82.4627Z" stroke="black" stroke-opacity="0.12" stroke-width="0.153153"/>
<path d="M153.232 86.3222L200.774 56.2673M153.232 86.3222L212.467 96.8943M153.232 86.3222L179.495 129.517M153.232 86.3222L126.586 129.517M153.232 86.3222L93.6133 96.8943M153.232 86.3222L105.307 56.2673M153.232 86.3222L153.04 38.1437" stroke="black" stroke-opacity="0.12" stroke-width="0.153153" stroke-linecap="round" stroke-linejoin="round"/>
<path d="M180.022 130.675L179.661 131.668H179.514L179.929 130.579H180.024L180.022 130.675ZM180.324 131.668L179.963 130.675L179.96 130.579H180.055L180.472 131.668H180.324ZM180.305 131.265V131.383H179.693V131.265H180.305ZM180.735 131.014V131.979H180.596V130.859H180.723L180.735 131.014ZM181.28 131.257V131.272C181.28 131.331 181.273 131.386 181.259 131.436C181.245 131.486 181.225 131.529 181.198 131.566C181.172 131.603 181.139 131.632 181.1 131.652C181.061 131.673 181.016 131.683 180.966 131.683C180.915 131.683 180.869 131.674 180.83 131.657C180.791 131.64 180.757 131.616 180.73 131.583C180.702 131.551 180.68 131.512 180.664 131.467C180.648 131.421 180.637 131.37 180.631 131.313V131.23C180.637 131.17 180.648 131.116 180.665 131.069C180.681 131.021 180.703 130.981 180.73 130.948C180.757 130.914 180.79 130.888 180.829 130.871C180.868 130.853 180.913 130.844 180.964 130.844C181.015 130.844 181.06 130.854 181.099 130.874C181.139 130.893 181.172 130.921 181.199 130.957C181.226 130.994 181.246 131.037 181.259 131.088C181.273 131.139 181.28 131.195 181.28 131.257ZM181.141 131.272V131.257C181.141 131.216 181.137 131.178 181.128 131.143C181.12 131.107 181.107 131.076 181.089 131.049C181.071 131.021 181.049 131 181.021 130.984C180.994 130.968 180.961 130.96 180.924 130.96C180.889 130.96 180.858 130.966 180.832 130.978C180.807 130.99 180.785 131.006 180.767 131.027C180.749 131.047 180.735 131.07 180.723 131.096C180.712 131.121 180.704 131.148 180.698 131.175V131.369C180.708 131.404 180.722 131.436 180.74 131.467C180.758 131.498 180.782 131.522 180.812 131.541C180.842 131.56 180.88 131.569 180.925 131.569C180.962 131.569 180.995 131.561 181.021 131.546C181.049 131.53 181.071 131.508 181.089 131.481C181.107 131.453 181.12 131.422 181.128 131.387C181.137 131.351 181.141 131.313 181.141 131.272ZM181.595 130.986V131.668H181.457V130.859H181.591L181.595 130.986ZM181.848 130.854L181.847 130.983C181.836 130.98 181.825 130.979 181.814 130.978C181.804 130.977 181.793 130.977 181.78 130.977C181.748 130.977 181.72 130.982 181.695 130.992C181.671 131.002 181.65 131.016 181.633 131.034C181.616 131.052 181.603 131.073 181.593 131.098C181.583 131.122 181.577 131.149 181.574 131.179L181.535 131.201C181.535 131.152 181.54 131.106 181.549 131.064C181.559 131.021 181.575 130.983 181.595 130.95C181.615 130.917 181.641 130.891 181.673 130.872C181.705 130.853 181.743 130.844 181.786 130.844C181.796 130.844 181.808 130.845 181.821 130.847C181.834 130.849 181.843 130.852 181.848 130.854ZM182.126 130.859V131.668H181.987V130.859H182.126ZM181.976 130.644C181.976 130.622 181.983 130.603 181.997 130.587C182.011 130.572 182.031 130.564 182.058 130.564C182.084 130.564 182.105 130.572 182.119 130.587C182.133 130.603 182.14 130.622 182.14 130.644C182.14 130.665 182.133 130.684 182.119 130.699C182.105 130.714 182.084 130.722 182.058 130.722C182.031 130.722 182.011 130.714 181.997 130.699C181.983 130.684 181.976 130.665 181.976 130.644ZM182.498 130.519V131.668H182.359V130.519H182.498Z" fill="black" fill-opacity="0.6"/>
<path d="M120.623 130.579H120.763L121.12 131.467L121.476 130.579H121.616L121.174 131.668H121.064L120.623 130.579ZM120.578 130.579H120.701L120.721 131.243V131.668H120.578V130.579ZM121.538 130.579H121.661V131.668H121.518V131.243L121.538 130.579ZM122.371 131.529V131.113C122.371 131.081 122.364 131.053 122.351 131.03C122.339 131.006 122.32 130.988 122.295 130.975C122.269 130.962 122.238 130.955 122.2 130.955C122.165 130.955 122.135 130.961 122.108 130.973C122.082 130.985 122.062 131.001 122.047 131.02C122.033 131.04 122.025 131.061 122.025 131.083H121.887C121.887 131.054 121.894 131.025 121.909 130.997C121.924 130.969 121.946 130.943 121.974 130.92C122.002 130.897 122.036 130.878 122.075 130.865C122.115 130.851 122.16 130.844 122.209 130.844C122.267 130.844 122.319 130.854 122.364 130.874C122.409 130.894 122.445 130.924 122.47 130.964C122.496 131.004 122.509 131.054 122.509 131.114V131.491C122.509 131.518 122.511 131.547 122.516 131.577C122.521 131.608 122.528 131.634 122.538 131.656V131.668H122.393C122.386 131.652 122.381 131.631 122.377 131.604C122.373 131.577 122.371 131.552 122.371 131.529ZM122.395 131.177L122.396 131.274H122.256C122.217 131.274 122.182 131.278 122.151 131.284C122.12 131.29 122.094 131.299 122.073 131.312C122.052 131.324 122.036 131.34 122.025 131.359C122.014 131.377 122.009 131.399 122.009 131.424C122.009 131.449 122.015 131.473 122.026 131.494C122.038 131.515 122.055 131.531 122.078 131.544C122.101 131.556 122.13 131.562 122.164 131.562C122.206 131.562 122.243 131.553 122.276 131.535C122.308 131.517 122.334 131.495 122.353 131.469C122.372 131.443 122.383 131.418 122.384 131.393L122.443 131.46C122.44 131.481 122.43 131.504 122.415 131.529C122.399 131.555 122.379 131.579 122.353 131.603C122.327 131.626 122.297 131.645 122.262 131.66C122.227 131.675 122.187 131.683 122.143 131.683C122.089 131.683 122.041 131.672 121.999 131.651C121.958 131.629 121.926 131.601 121.903 131.565C121.881 131.528 121.87 131.488 121.87 131.443C121.87 131.399 121.878 131.361 121.895 131.328C121.912 131.295 121.937 131.267 121.968 131.245C122 131.223 122.039 131.206 122.084 131.194C122.129 131.183 122.179 131.177 122.234 131.177H122.395ZM122.942 131.584L123.167 130.859H123.315L122.991 131.793C122.983 131.813 122.973 131.834 122.961 131.857C122.949 131.88 122.933 131.903 122.914 131.924C122.896 131.945 122.873 131.961 122.846 131.974C122.819 131.988 122.788 131.995 122.751 131.995C122.74 131.995 122.726 131.993 122.709 131.99C122.692 131.987 122.68 131.985 122.673 131.983L122.672 131.87C122.676 131.871 122.682 131.871 122.691 131.872C122.7 131.873 122.706 131.873 122.71 131.873C122.741 131.873 122.768 131.869 122.79 131.861C122.812 131.853 122.83 131.839 122.845 131.82C122.86 131.801 122.874 131.775 122.885 131.741L122.942 131.584ZM122.777 130.859L122.987 131.487L123.023 131.633L122.923 131.684L122.626 130.859H122.777Z" fill="black" fill-opacity="0.6"/>
<path d="M84.9954 96.3111V95.5401H85.139V96.3111C85.139 96.3829 85.1243 96.4434 85.0949 96.4928C85.0655 96.5422 85.0248 96.5798 84.973 96.6057C84.9216 96.6311 84.8625 96.6439 84.7957 96.6439C84.7289 96.6439 84.6696 96.6324 84.6178 96.6095C84.5659 96.5865 84.5253 96.5516 84.4959 96.5048C84.4665 96.4579 84.4517 96.3988 84.4517 96.3275H84.5961C84.5961 96.3734 84.6045 96.411 84.6215 96.4404C84.6384 96.4699 84.6619 96.4915 84.6918 96.5055C84.7222 96.5195 84.7569 96.5264 84.7957 96.5264C84.8336 96.5264 84.8675 96.5185 84.8974 96.5025C84.9279 96.4861 84.9518 96.4619 84.9692 96.43C84.9867 96.3976 84.9954 96.3579 84.9954 96.3111ZM85.8576 96.4419V95.8198H85.9967V96.6289H85.8644L85.8576 96.4419ZM85.8838 96.2714L85.9414 96.2699C85.9414 96.3238 85.9357 96.3736 85.9242 96.4195C85.9132 96.4649 85.8953 96.5043 85.8704 96.5377C85.8454 96.5711 85.8128 96.5972 85.7724 96.6162C85.732 96.6346 85.6829 96.6439 85.6251 96.6439C85.5857 96.6439 85.5495 96.6381 85.5166 96.6267C85.4842 96.6152 85.4563 96.5975 85.4329 96.5736C85.4094 96.5496 85.3913 96.5185 85.3783 96.4801C85.3658 96.4417 85.3596 96.3956 85.3596 96.3417V95.8198H85.4979V96.3432C85.4979 96.3796 85.5019 96.4098 85.5099 96.4337C85.5184 96.4571 85.5296 96.4758 85.5436 96.4898C85.558 96.5033 85.574 96.5127 85.5914 96.5182C85.6094 96.5237 85.6278 96.5264 85.6468 96.5264C85.7056 96.5264 85.7522 96.5152 85.7866 96.4928C85.821 96.4699 85.8457 96.4392 85.8606 96.4008C85.8761 96.3619 85.8838 96.3188 85.8838 96.2714ZM86.346 95.9925V96.6289H86.2076V95.8198H86.3385L86.346 95.9925ZM86.3131 96.1937L86.2555 96.1914C86.256 96.1361 86.2642 96.085 86.2802 96.0381C86.2961 95.9908 86.3185 95.9496 86.3475 95.9147C86.3764 95.8798 86.4108 95.8529 86.4507 95.834C86.491 95.8145 86.5357 95.8048 86.5845 95.8048C86.6244 95.8048 86.6603 95.8103 86.6922 95.8213C86.7241 95.8317 86.7513 95.8487 86.7737 95.8721C86.7967 95.8955 86.8141 95.9259 86.8261 95.9633C86.838 96.0002 86.844 96.0454 86.844 96.0987V96.6289H86.7049V96.0972C86.7049 96.0548 86.6987 96.0209 86.6862 95.9955C86.6738 95.9696 86.6556 95.9509 86.6316 95.9394C86.6077 95.9274 86.5783 95.9215 86.5434 95.9215C86.509 95.9215 86.4776 95.9287 86.4492 95.9431C86.4212 95.9576 86.3971 95.9775 86.3766 96.003C86.3567 96.0284 86.341 96.0576 86.3295 96.0905C86.3185 96.1229 86.3131 96.1573 86.3131 96.1937ZM87.3899 96.6439C87.3336 96.6439 87.2825 96.6344 87.2366 96.6154C87.1913 96.596 87.1521 96.5688 87.1192 96.5339C87.0868 96.499 87.0619 96.4576 87.0444 96.4098C87.027 96.3619 87.0183 96.3096 87.0183 96.2527V96.2213C87.0183 96.1555 87.028 96.097 87.0474 96.0456C87.0669 95.9938 87.0933 95.9499 87.1267 95.914C87.1601 95.8781 87.198 95.8509 87.2404 95.8325C87.2827 95.814 87.3266 95.8048 87.372 95.8048C87.4298 95.8048 87.4797 95.8148 87.5215 95.8347C87.5639 95.8547 87.5986 95.8826 87.6255 95.9185C87.6524 95.9539 87.6723 95.9957 87.6853 96.0441C87.6983 96.092 87.7048 96.1443 87.7048 96.2011V96.2632H87.1005V96.1503H87.5664V96.1398C87.5644 96.1039 87.5569 96.069 87.544 96.0351C87.5315 96.0012 87.5116 95.9733 87.4841 95.9514C87.4567 95.9294 87.4193 95.9185 87.372 95.9185C87.3406 95.9185 87.3116 95.9252 87.2852 95.9387C87.2588 95.9516 87.2361 95.9711 87.2172 95.997C87.1982 96.0229 87.1835 96.0546 87.1731 96.092C87.1626 96.1294 87.1573 96.1725 87.1573 96.2213V96.2527C87.1573 96.2911 87.1626 96.3273 87.1731 96.3612C87.184 96.3946 87.1997 96.424 87.2202 96.4494C87.2411 96.4748 87.2663 96.4948 87.2957 96.5092C87.3256 96.5237 87.3595 96.5309 87.3974 96.5309C87.4463 96.5309 87.4876 96.521 87.5215 96.501C87.5554 96.4811 87.5851 96.4544 87.6105 96.421L87.6943 96.4876C87.6768 96.514 87.6546 96.5392 87.6277 96.5631C87.6008 96.587 87.5677 96.6065 87.5283 96.6214C87.4894 96.6364 87.4433 96.6439 87.3899 96.6439Z" fill="black" fill-opacity="0.6"/>
<path d="M98.4134 54.929V54.158H98.557V54.929C98.557 55.0008 98.5423 55.0613 98.5128 55.1107C98.4834 55.16 98.4428 55.1977 98.3909 55.2236C98.3396 55.249 98.2805 55.2618 98.2137 55.2618C98.1469 55.2618 98.0876 55.2503 98.0357 55.2274C97.9839 55.2044 97.9432 55.1695 97.9138 55.1227C97.8844 55.0758 97.8697 55.0167 97.8697 54.9454H98.014C98.014 54.9913 98.0225 55.0289 98.0395 55.0583C98.0564 55.0878 98.0798 55.1094 98.1098 55.1234C98.1402 55.1374 98.1748 55.1443 98.2137 55.1443C98.2516 55.1443 98.2855 55.1364 98.3154 55.1204C98.3458 55.104 98.3698 55.0798 98.3872 55.0479C98.4047 55.0155 98.4134 54.9758 98.4134 54.929ZM99.2756 55.0598V54.4377H99.4147V55.2468H99.2823L99.2756 55.0598ZM99.3018 54.8893L99.3594 54.8878C99.3594 54.9417 99.3536 54.9915 99.3422 55.0374C99.3312 55.0828 99.3133 55.1222 99.2883 55.1556C99.2634 55.189 99.2307 55.2151 99.1904 55.2341C99.15 55.2525 99.1009 55.2618 99.043 55.2618C99.0037 55.2618 98.9675 55.256 98.9346 55.2446C98.9022 55.2331 98.8743 55.2154 98.8508 55.1915C98.8274 55.1675 98.8092 55.1364 98.7963 55.098C98.7838 55.0596 98.7776 55.0135 98.7776 54.9596V54.4377H98.9159V54.9611C98.9159 54.9975 98.9199 55.0277 98.9279 55.0516C98.9364 55.075 98.9476 55.0937 98.9615 55.1077C98.976 55.1212 98.9919 55.1306 99.0094 55.1361C99.0273 55.1416 99.0458 55.1443 99.0647 55.1443C99.1236 55.1443 99.1702 55.1331 99.2046 55.1107C99.239 55.0878 99.2636 55.0571 99.2786 55.0187C99.2941 54.9798 99.3018 54.9367 99.3018 54.8893ZM99.7759 54.0981V55.2468H99.6368V54.0981H99.7759ZM100.225 55.163L100.45 54.4377H100.599L100.274 55.3717C100.266 55.3916 100.256 55.4131 100.244 55.436C100.232 55.4594 100.217 55.4816 100.198 55.5025C100.179 55.5235 100.156 55.5404 100.129 55.5534C100.102 55.5669 100.071 55.5736 100.034 55.5736C100.023 55.5736 100.009 55.5721 99.992 55.5691C99.9751 55.5661 99.9631 55.5636 99.9561 55.5616L99.9554 55.4495C99.9594 55.45 99.9656 55.4505 99.9741 55.4509C99.983 55.4519 99.9893 55.4524 99.9928 55.4524C100.024 55.4524 100.051 55.4482 100.073 55.4397C100.095 55.4318 100.113 55.418 100.128 55.3986C100.144 55.3797 100.157 55.3535 100.168 55.3201L100.225 55.163ZM100.06 54.4377L100.27 55.0658L100.306 55.2116L100.207 55.2625L99.909 54.4377H100.06Z" fill="black" fill-opacity="0.6"/>
<path d="M147.105 31.9723V31.2013H147.248V31.9723C147.248 32.0441 147.234 32.1047 147.204 32.1541C147.175 32.2034 147.134 32.241 147.082 32.267C147.031 32.2924 146.972 32.3051 146.905 32.3051C146.838 32.3051 146.779 32.2936 146.727 32.2707C146.675 32.2478 146.635 32.2129 146.605 32.166C146.576 32.1192 146.561 32.0601 146.561 31.9888H146.705C146.705 32.0346 146.714 32.0723 146.731 32.1017C146.748 32.1311 146.771 32.1528 146.801 32.1668C146.832 32.1807 146.866 32.1877 146.905 32.1877C146.943 32.1877 146.977 32.1797 147.007 32.1638C147.037 32.1473 147.061 32.1231 147.079 32.0912C147.096 32.0588 147.105 32.0192 147.105 31.9723ZM147.949 32.1518V31.7353C147.949 31.7034 147.943 31.6757 147.93 31.6523C147.917 31.6283 147.898 31.6099 147.873 31.5969C147.847 31.584 147.816 31.5775 147.779 31.5775C147.744 31.5775 147.713 31.5835 147.687 31.5954C147.661 31.6074 147.64 31.6231 147.625 31.6425C147.611 31.662 147.604 31.6829 147.604 31.7054H147.465C147.465 31.6764 147.473 31.6478 147.488 31.6194C147.503 31.5909 147.524 31.5653 147.552 31.5423C147.58 31.5189 147.614 31.5005 147.654 31.487C147.694 31.473 147.738 31.4661 147.787 31.4661C147.846 31.4661 147.897 31.476 147.942 31.496C147.988 31.5159 148.023 31.5461 148.049 31.5865C148.074 31.6263 148.087 31.6764 148.087 31.7368V32.1137C148.087 32.1406 148.09 32.1693 148.094 32.1997C148.099 32.2301 148.106 32.2563 148.116 32.2782V32.2902H147.972C147.965 32.2742 147.959 32.253 147.955 32.2266C147.951 32.1997 147.949 32.1747 147.949 32.1518ZM147.973 31.7996L147.974 31.8968H147.835C147.795 31.8968 147.76 31.9 147.729 31.9065C147.698 31.9125 147.672 31.9217 147.651 31.9342C147.63 31.9467 147.615 31.9624 147.604 31.9813C147.593 31.9998 147.587 32.0214 147.587 32.0464C147.587 32.0718 147.593 32.095 147.604 32.1159C147.616 32.1369 147.633 32.1536 147.656 32.166C147.679 32.178 147.708 32.184 147.742 32.184C147.784 32.184 147.822 32.175 147.854 32.157C147.887 32.1391 147.912 32.1172 147.931 32.0912C147.951 32.0653 147.961 32.0401 147.963 32.0157L148.022 32.0823C148.018 32.1032 148.009 32.1264 147.993 32.1518C147.978 32.1772 147.957 32.2017 147.931 32.2251C147.906 32.248 147.875 32.2672 147.84 32.2827C147.805 32.2976 147.766 32.3051 147.722 32.3051C147.667 32.3051 147.619 32.2944 147.577 32.273C147.537 32.2515 147.505 32.2228 147.482 32.187C147.459 32.1506 147.448 32.1099 147.448 32.0651C147.448 32.0217 147.457 31.9835 147.473 31.9506C147.49 31.9172 147.515 31.8896 147.547 31.8676C147.579 31.8452 147.617 31.8283 147.662 31.8168C147.707 31.8053 147.757 31.7996 147.812 31.7996H147.973ZM148.443 31.6538V32.2902H148.305V31.481H148.436L148.443 31.6538ZM148.41 31.8549L148.353 31.8527C148.353 31.7973 148.362 31.7462 148.378 31.6994C148.394 31.652 148.416 31.6109 148.445 31.576C148.474 31.5411 148.508 31.5142 148.548 31.4952C148.588 31.4758 148.633 31.4661 148.682 31.4661C148.722 31.4661 148.758 31.4715 148.79 31.4825C148.822 31.493 148.849 31.5099 148.871 31.5334C148.894 31.5568 148.912 31.5872 148.923 31.6246C148.935 31.6615 148.941 31.7066 148.941 31.76V32.2902H148.802V31.7585C148.802 31.7161 148.796 31.6822 148.784 31.6568C148.771 31.6308 148.753 31.6121 148.729 31.6007C148.705 31.5887 148.676 31.5827 148.641 31.5827C148.606 31.5827 148.575 31.5899 148.547 31.6044C148.519 31.6189 148.494 31.6388 148.474 31.6642C148.454 31.6897 148.438 31.7188 148.427 31.7517C148.416 31.7841 148.41 31.8185 148.41 31.8549ZM149.647 32.1032V31.481H149.786V32.2902H149.653L149.647 32.1032ZM149.673 31.9327L149.73 31.9312C149.73 31.985 149.725 32.0349 149.713 32.0808C149.702 32.1261 149.684 32.1655 149.659 32.1989C149.634 32.2323 149.602 32.2585 149.561 32.2774C149.521 32.2959 149.472 32.3051 149.414 32.3051C149.375 32.3051 149.339 32.2994 149.306 32.2879C149.273 32.2764 149.245 32.2587 149.222 32.2348C149.198 32.2109 149.18 32.1797 149.167 32.1413C149.155 32.1029 149.149 32.0568 149.149 32.003V31.481H149.287V32.0045C149.287 32.0409 149.291 32.071 149.299 32.095C149.307 32.1184 149.319 32.1371 149.333 32.1511C149.347 32.1645 149.363 32.174 149.38 32.1795C149.398 32.185 149.417 32.1877 149.436 32.1877C149.495 32.1877 149.541 32.1765 149.576 32.1541C149.61 32.1311 149.635 32.1005 149.65 32.0621C149.665 32.0232 149.673 31.9801 149.673 31.9327ZM150.474 32.1518V31.7353C150.474 31.7034 150.467 31.6757 150.454 31.6523C150.442 31.6283 150.423 31.6099 150.397 31.5969C150.372 31.584 150.341 31.5775 150.303 31.5775C150.268 31.5775 150.238 31.5835 150.211 31.5954C150.185 31.6074 150.165 31.6231 150.15 31.6425C150.135 31.662 150.128 31.6829 150.128 31.7054H149.99C149.99 31.6764 149.997 31.6478 150.012 31.6194C150.027 31.5909 150.049 31.5653 150.077 31.5423C150.105 31.5189 150.139 31.5005 150.178 31.487C150.218 31.473 150.263 31.4661 150.311 31.4661C150.37 31.4661 150.422 31.476 150.467 31.496C150.512 31.5159 150.548 31.5461 150.573 31.5865C150.599 31.6263 150.612 31.6764 150.612 31.7368V32.1137C150.612 32.1406 150.614 32.1693 150.619 32.1997C150.624 32.2301 150.631 32.2563 150.64 32.2782V32.2902H150.496C150.489 32.2742 150.484 32.253 150.48 32.2266C150.476 32.1997 150.474 32.1747 150.474 32.1518ZM150.498 31.7996L150.499 31.8968H150.359C150.32 31.8968 150.285 31.9 150.254 31.9065C150.223 31.9125 150.197 31.9217 150.176 31.9342C150.155 31.9467 150.139 31.9624 150.128 31.9813C150.117 31.9998 150.112 32.0214 150.112 32.0464C150.112 32.0718 150.117 32.095 150.129 32.1159C150.14 32.1369 150.158 32.1536 150.181 32.166C150.204 32.178 150.233 32.184 150.267 32.184C150.309 32.184 150.346 32.175 150.379 32.157C150.411 32.1391 150.437 32.1172 150.456 32.0912C150.475 32.0653 150.486 32.0401 150.487 32.0157L150.546 32.0823C150.543 32.1032 150.533 32.1264 150.518 32.1518C150.502 32.1772 150.482 32.2017 150.456 32.2251C150.43 32.248 150.4 32.2672 150.365 32.2827C150.33 32.2976 150.29 32.3051 150.246 32.3051C150.192 32.3051 150.143 32.2944 150.102 32.273C150.061 32.2515 150.029 32.2228 150.006 32.187C149.984 32.1506 149.973 32.1099 149.973 32.0651C149.973 32.0217 149.981 31.9835 149.998 31.9506C150.015 31.9172 150.039 31.8896 150.071 31.8676C150.103 31.8452 150.142 31.8283 150.187 31.8168C150.231 31.8053 150.282 31.7996 150.337 31.7996H150.498ZM150.968 31.6081V32.2902H150.83V31.481H150.964L150.968 31.6081ZM151.221 31.4765L151.22 31.6052C151.209 31.6027 151.198 31.6012 151.187 31.6007C151.177 31.5997 151.166 31.5992 151.153 31.5992C151.121 31.5992 151.093 31.6042 151.068 31.6141C151.044 31.6241 151.023 31.6381 151.006 31.656C150.989 31.674 150.976 31.6954 150.966 31.7203C150.956 31.7447 150.95 31.7717 150.947 31.8011L150.908 31.8235C150.908 31.7747 150.913 31.7288 150.922 31.6859C150.932 31.643 150.948 31.6052 150.968 31.5722C150.988 31.5388 151.014 31.5129 151.046 31.4945C151.078 31.4755 151.116 31.4661 151.159 31.4661C151.169 31.4661 151.181 31.4673 151.194 31.4698C151.207 31.4718 151.216 31.474 151.221 31.4765ZM151.589 32.2064L151.815 31.481H151.963L151.638 32.415C151.631 32.435 151.621 32.4564 151.608 32.4794C151.596 32.5028 151.581 32.525 151.562 32.5459C151.543 32.5668 151.52 32.5838 151.493 32.5968C151.467 32.6102 151.435 32.617 151.398 32.617C151.387 32.617 151.373 32.6155 151.356 32.6125C151.339 32.6095 151.327 32.607 151.32 32.605L151.319 32.4928C151.323 32.4933 151.33 32.4938 151.338 32.4943C151.347 32.4953 151.353 32.4958 151.357 32.4958C151.388 32.4958 151.415 32.4916 151.437 32.4831C151.459 32.4751 151.477 32.4614 151.492 32.442C151.508 32.423 151.521 32.3968 151.532 32.3634L151.589 32.2064ZM151.424 31.481L151.634 32.1092L151.67 32.255L151.571 32.3059L151.273 31.481H151.424Z" fill="black" fill-opacity="0.6"/>
<path d="M202.003 54.762V55.8509H201.859V54.762H202.003ZM202.459 55.2519V55.37H201.972V55.2519H202.459ZM202.533 54.762V54.8802H201.972V54.762H202.533ZM203.004 55.8658C202.947 55.8658 202.896 55.8564 202.85 55.8374C202.805 55.818 202.766 55.7908 202.733 55.7559C202.701 55.721 202.676 55.6796 202.658 55.6318C202.641 55.5839 202.632 55.5315 202.632 55.4747V55.4433C202.632 55.3775 202.642 55.3189 202.661 55.2676C202.681 55.2157 202.707 55.1718 202.74 55.136C202.774 55.1001 202.812 55.0729 202.854 55.0544C202.897 55.036 202.94 55.0268 202.986 55.0268C203.044 55.0268 203.093 55.0367 203.135 55.0567C203.178 55.0766 203.212 55.1045 203.239 55.1404C203.266 55.1758 203.286 55.2177 203.299 55.2661C203.312 55.3139 203.319 55.3663 203.319 55.4231V55.4852H202.714V55.3723H203.18V55.3618C203.178 55.3259 203.171 55.291 203.158 55.2571C203.145 55.2232 203.125 55.1953 203.098 55.1733C203.071 55.1514 203.033 55.1404 202.986 55.1404C202.954 55.1404 202.925 55.1472 202.899 55.1606C202.873 55.1736 202.85 55.193 202.831 55.219C202.812 55.2449 202.797 55.2765 202.787 55.3139C202.776 55.3513 202.771 55.3944 202.771 55.4433V55.4747C202.771 55.5131 202.776 55.5492 202.787 55.5831C202.798 55.6166 202.814 55.646 202.834 55.6714C202.855 55.6968 202.88 55.7168 202.909 55.7312C202.939 55.7457 202.973 55.7529 203.011 55.7529C203.06 55.7529 203.101 55.7429 203.135 55.723C203.169 55.703 203.199 55.6764 203.224 55.643L203.308 55.7095C203.291 55.736 203.268 55.7611 203.242 55.7851C203.215 55.809 203.181 55.8284 203.142 55.8434C203.103 55.8583 203.057 55.8658 203.004 55.8658ZM203.479 54.7022H203.618V55.6938L203.606 55.8509H203.479V54.7022ZM204.165 55.4396V55.4553C204.165 55.5141 204.158 55.5687 204.144 55.619C204.13 55.6689 204.11 55.7123 204.083 55.7492C204.056 55.7861 204.023 55.8147 203.984 55.8352C203.945 55.8556 203.901 55.8658 203.85 55.8658C203.799 55.8658 203.754 55.8571 203.715 55.8397C203.676 55.8217 203.644 55.796 203.618 55.7626C203.591 55.7292 203.57 55.6888 203.554 55.6415C203.539 55.5941 203.528 55.5408 203.522 55.4814V55.4126C203.528 55.3528 203.539 55.2992 203.554 55.2519C203.57 55.2045 203.591 55.1641 203.618 55.1307C203.644 55.0968 203.676 55.0711 203.715 55.0537C203.753 55.0357 203.798 55.0268 203.849 55.0268C203.9 55.0268 203.945 55.0367 203.984 55.0567C204.023 55.0761 204.056 55.104 204.083 55.1404C204.11 55.1768 204.13 55.2205 204.144 55.2713C204.158 55.3217 204.165 55.3777 204.165 55.4396ZM204.026 55.4553V55.4396C204.026 55.3992 204.022 55.3613 204.015 55.3259C204.007 55.29 203.995 55.2586 203.979 55.2317C203.962 55.2043 203.941 55.1828 203.914 55.1674C203.887 55.1514 203.854 55.1434 203.814 55.1434C203.779 55.1434 203.749 55.1494 203.723 55.1614C203.698 55.1733 203.676 55.1895 203.658 55.21C203.64 55.2299 203.625 55.2529 203.614 55.2788C203.603 55.3042 203.595 55.3306 203.589 55.3581V55.5383C203.597 55.5732 203.61 55.6068 203.628 55.6392C203.647 55.6711 203.671 55.6973 203.701 55.7178C203.732 55.7382 203.77 55.7484 203.816 55.7484C203.853 55.7484 203.885 55.7409 203.912 55.726C203.938 55.7105 203.96 55.6893 203.977 55.6624C203.994 55.6355 204.006 55.6043 204.014 55.5689C204.022 55.5335 204.026 55.4957 204.026 55.4553ZM204.478 55.1689V55.8509H204.34V55.0417H204.475L204.478 55.1689ZM204.731 55.0372L204.73 55.1659C204.719 55.1634 204.708 55.1619 204.698 55.1614C204.688 55.1604 204.676 55.1599 204.663 55.1599C204.631 55.1599 204.603 55.1649 204.579 55.1748C204.554 55.1848 204.533 55.1988 204.517 55.2167C204.5 55.2347 204.486 55.2561 204.476 55.281C204.467 55.3055 204.46 55.3324 204.457 55.3618L204.419 55.3842C204.419 55.3354 204.423 55.2895 204.433 55.2466C204.443 55.2038 204.458 55.1659 204.478 55.133C204.499 55.0996 204.525 55.0736 204.556 55.0552C204.588 55.0362 204.626 55.0268 204.67 55.0268C204.68 55.0268 204.691 55.028 204.704 55.0305C204.717 55.0325 204.726 55.0347 204.731 55.0372ZM205.354 55.6639V55.0417H205.493V55.8509H205.361L205.354 55.6639ZM205.38 55.4934L205.438 55.4919C205.438 55.5458 205.432 55.5956 205.421 55.6415C205.41 55.6868 205.392 55.7262 205.367 55.7596C205.342 55.793 205.309 55.8192 205.269 55.8382C205.228 55.8566 205.179 55.8658 205.122 55.8658C205.082 55.8658 205.046 55.8601 205.013 55.8486C204.981 55.8372 204.953 55.8195 204.929 55.7955C204.906 55.7716 204.888 55.7404 204.875 55.7021C204.862 55.6637 204.856 55.6175 204.856 55.5637V55.0417H204.994V55.5652C204.994 55.6016 204.998 55.6318 205.006 55.6557C205.015 55.6791 205.026 55.6978 205.04 55.7118C205.054 55.7252 205.07 55.7347 205.088 55.7402C205.106 55.7457 205.124 55.7484 205.143 55.7484C205.202 55.7484 205.249 55.7372 205.283 55.7148C205.317 55.6918 205.342 55.6612 205.357 55.6228C205.373 55.5839 205.38 55.5408 205.38 55.4934ZM206.181 55.7125V55.296C206.181 55.2641 206.175 55.2364 206.162 55.213C206.149 55.189 206.13 55.1706 206.105 55.1576C206.079 55.1447 206.048 55.1382 206.011 55.1382C205.976 55.1382 205.945 55.1442 205.919 55.1561C205.893 55.1681 205.872 55.1838 205.857 55.2033C205.843 55.2227 205.836 55.2436 205.836 55.2661H205.697C205.697 55.2372 205.705 55.2085 205.72 55.1801C205.735 55.1517 205.756 55.126 205.784 55.1031C205.813 55.0796 205.846 55.0612 205.886 55.0477C205.926 55.0338 205.97 55.0268 206.019 55.0268C206.078 55.0268 206.13 55.0367 206.174 55.0567C206.22 55.0766 206.255 55.1068 206.281 55.1472C206.307 55.1871 206.32 55.2372 206.32 55.2975V55.6744C206.32 55.7013 206.322 55.73 206.326 55.7604C206.331 55.7908 206.338 55.817 206.348 55.8389V55.8509H206.204C206.197 55.8349 206.191 55.8137 206.187 55.7873C206.183 55.7604 206.181 55.7355 206.181 55.7125ZM206.205 55.3603L206.207 55.4575H206.067C206.027 55.4575 205.992 55.4608 205.961 55.4672C205.93 55.4732 205.904 55.4824 205.884 55.4949C205.863 55.5074 205.847 55.5231 205.836 55.542C205.825 55.5605 205.819 55.5822 205.819 55.6071C205.819 55.6325 205.825 55.6557 205.836 55.6766C205.848 55.6976 205.865 55.7143 205.888 55.7267C205.911 55.7387 205.94 55.7447 205.974 55.7447C206.016 55.7447 206.054 55.7357 206.086 55.7178C206.119 55.6998 206.144 55.6779 206.163 55.6519C206.183 55.626 206.193 55.6008 206.195 55.5764L206.254 55.643C206.25 55.6639 206.241 55.6871 206.225 55.7125C206.21 55.7379 206.189 55.7624 206.163 55.7858C206.138 55.8087 206.107 55.8279 206.072 55.8434C206.037 55.8583 205.998 55.8658 205.954 55.8658C205.899 55.8658 205.851 55.8551 205.81 55.8337C205.769 55.8122 205.737 55.7836 205.714 55.7477C205.691 55.7113 205.68 55.6706 205.68 55.6258C205.68 55.5824 205.689 55.5443 205.706 55.5114C205.723 55.478 205.747 55.4503 205.779 55.4284C205.811 55.4059 205.849 55.389 205.894 55.3775C205.939 55.366 205.989 55.3603 206.044 55.3603H206.205ZM206.675 55.1689V55.8509H206.537V55.0417H206.672L206.675 55.1689ZM206.928 55.0372L206.928 55.1659C206.916 55.1634 206.905 55.1619 206.895 55.1614C206.885 55.1604 206.873 55.1599 206.86 55.1599C206.828 55.1599 206.8 55.1649 206.776 55.1748C206.751 55.1848 206.731 55.1988 206.714 55.2167C206.697 55.2347 206.683 55.2561 206.673 55.281C206.664 55.3055 206.658 55.3324 206.655 55.3618L206.616 55.3842C206.616 55.3354 206.62 55.2895 206.63 55.2466C206.64 55.2038 206.655 55.1659 206.675 55.133C206.696 55.0996 206.722 55.0736 206.753 55.0552C206.785 55.0362 206.823 55.0268 206.867 55.0268C206.877 55.0268 206.888 55.028 206.901 55.0305C206.914 55.0325 206.923 55.0347 206.928 55.0372ZM207.297 55.7671L207.522 55.0417H207.67L207.346 55.9758C207.338 55.9957 207.328 56.0171 207.316 56.0401C207.304 56.0635 207.288 56.0857 207.269 56.1066C207.25 56.1276 207.227 56.1445 207.2 56.1575C207.174 56.1709 207.142 56.1777 207.105 56.1777C207.095 56.1777 207.081 56.1762 207.064 56.1732C207.047 56.1702 207.035 56.1677 207.028 56.1657L207.027 56.0535C207.031 56.054 207.037 56.0545 207.046 56.055C207.055 56.056 207.061 56.0565 207.064 56.0565C207.096 56.0565 207.122 56.0523 207.144 56.0438C207.166 56.0358 207.185 56.0221 207.2 56.0027C207.215 55.9837 207.228 55.9576 207.239 55.9242L207.297 55.7671ZM207.132 55.0417L207.342 55.6699L207.378 55.8157L207.278 55.8666L206.981 55.0417H207.132Z" fill="black" fill-opacity="0.6"/>
<path d="M213.406 95.5401H213.546L213.903 96.4277L214.259 95.5401H214.399L213.957 96.6289H213.848L213.406 95.5401ZM213.361 95.5401H213.484L213.504 96.2041V96.6289H213.361V95.5401ZM214.321 95.5401H214.444V96.6289H214.301V96.2041L214.321 95.5401ZM215.154 96.4906V96.074C215.154 96.0421 215.148 96.0144 215.135 95.991C215.122 95.9671 215.103 95.9486 215.078 95.9357C215.052 95.9227 215.021 95.9162 214.984 95.9162C214.949 95.9162 214.918 95.9222 214.892 95.9342C214.866 95.9461 214.845 95.9618 214.83 95.9813C214.816 96.0007 214.809 96.0217 214.809 96.0441H214.67C214.67 96.0152 214.678 95.9865 214.693 95.9581C214.708 95.9297 214.729 95.904 214.757 95.8811C214.785 95.8576 214.819 95.8392 214.859 95.8257C214.899 95.8118 214.943 95.8048 214.992 95.8048C215.051 95.8048 215.102 95.8148 215.147 95.8347C215.193 95.8547 215.228 95.8848 215.253 95.9252C215.279 95.9651 215.292 96.0152 215.292 96.0755V96.4524C215.292 96.4793 215.295 96.508 215.299 96.5384C215.304 96.5688 215.311 96.595 215.321 96.6169V96.6289H215.176C215.169 96.6129 215.164 96.5918 215.16 96.5653C215.156 96.5384 215.154 96.5135 215.154 96.4906ZM215.178 96.1383L215.179 96.2355H215.04C215 96.2355 214.965 96.2388 214.934 96.2453C214.903 96.2513 214.877 96.2605 214.856 96.2729C214.835 96.2854 214.82 96.3011 214.809 96.32C214.798 96.3385 214.792 96.3602 214.792 96.3851C214.792 96.4105 214.798 96.4337 214.809 96.4547C214.821 96.4756 214.838 96.4923 214.861 96.5048C214.884 96.5167 214.913 96.5227 214.947 96.5227C214.989 96.5227 215.027 96.5137 215.059 96.4958C215.091 96.4778 215.117 96.4559 215.136 96.43C215.156 96.4041 215.166 96.3789 215.167 96.3544L215.227 96.421C215.223 96.4419 215.214 96.4651 215.198 96.4906C215.183 96.516 215.162 96.5404 215.136 96.5638C215.111 96.5868 215.08 96.606 215.045 96.6214C215.01 96.6364 214.971 96.6439 214.927 96.6439C214.872 96.6439 214.824 96.6331 214.782 96.6117C214.741 96.5903 214.71 96.5616 214.687 96.5257C214.664 96.4893 214.653 96.4487 214.653 96.4038C214.653 96.3604 214.661 96.3223 214.678 96.2894C214.695 96.256 214.72 96.2283 214.752 96.2064C214.784 96.1839 214.822 96.167 214.867 96.1555C214.912 96.1441 214.962 96.1383 215.017 96.1383H215.178ZM215.648 95.9469V96.6289H215.51V95.8198H215.645L215.648 95.9469ZM215.901 95.8153L215.9 95.9439C215.889 95.9414 215.878 95.9399 215.867 95.9394C215.857 95.9384 215.846 95.9379 215.833 95.9379C215.801 95.9379 215.773 95.9429 215.749 95.9529C215.724 95.9628 215.703 95.9768 215.686 95.9947C215.67 96.0127 215.656 96.0341 215.646 96.0591C215.637 96.0835 215.63 96.1104 215.627 96.1398L215.589 96.1623C215.589 96.1134 215.593 96.0675 215.603 96.0247C215.613 95.9818 215.628 95.9439 215.648 95.911C215.669 95.8776 215.695 95.8517 215.726 95.8332C215.758 95.8143 215.796 95.8048 215.84 95.8048C215.85 95.8048 215.861 95.806 215.874 95.8085C215.887 95.8105 215.896 95.8128 215.901 95.8153ZM216.338 96.5302C216.371 96.5302 216.401 96.5235 216.429 96.51C216.457 96.4965 216.48 96.4781 216.498 96.4547C216.516 96.4307 216.526 96.4036 216.529 96.3731H216.66C216.658 96.421 216.641 96.4656 216.612 96.507C216.582 96.5479 216.543 96.581 216.496 96.6065C216.448 96.6314 216.395 96.6439 216.338 96.6439C216.277 96.6439 216.224 96.6331 216.179 96.6117C216.134 96.5903 216.096 96.5608 216.066 96.5235C216.037 96.4861 216.015 96.4432 216 96.3948C215.985 96.346 215.978 96.2944 215.978 96.24V96.2086C215.978 96.1543 215.985 96.1029 216 96.0546C216.015 96.0057 216.037 95.9626 216.066 95.9252C216.096 95.8878 216.134 95.8584 216.179 95.837C216.224 95.8155 216.277 95.8048 216.338 95.8048C216.401 95.8048 216.456 95.8178 216.504 95.8437C216.551 95.8691 216.588 95.904 216.615 95.9484C216.643 95.9923 216.658 96.0421 216.66 96.0979H216.529C216.526 96.0645 216.517 96.0344 216.5 96.0075C216.484 95.9805 216.462 95.9591 216.434 95.9431C216.407 95.9267 216.375 95.9185 216.338 95.9185C216.295 95.9185 216.26 95.9269 216.231 95.9439C216.202 95.9603 216.18 95.9828 216.163 96.0112C216.146 96.0391 216.134 96.0703 216.127 96.1047C216.12 96.1386 216.116 96.1732 216.116 96.2086V96.24C216.116 96.2754 216.12 96.3103 216.127 96.3447C216.134 96.3791 216.146 96.4103 216.162 96.4382C216.179 96.4661 216.202 96.4886 216.23 96.5055C216.259 96.522 216.295 96.5302 216.338 96.5302ZM216.954 95.4803V96.6289H216.816V95.4803H216.954ZM216.921 96.1937L216.864 96.1914C216.864 96.1361 216.872 96.085 216.888 96.0381C216.904 95.9908 216.927 95.9496 216.956 95.9147C216.984 95.8798 217.019 95.8529 217.059 95.834C217.099 95.8145 217.144 95.8048 217.193 95.8048C217.232 95.8048 217.268 95.8103 217.3 95.8213C217.332 95.8317 217.359 95.8487 217.382 95.8721C217.405 95.8955 217.422 95.9259 217.434 95.9633C217.446 96.0002 217.452 96.0454 217.452 96.0987V96.6289H217.313V96.0972C217.313 96.0548 217.307 96.0209 217.294 95.9955C217.282 95.9696 217.264 95.9509 217.24 95.9394C217.216 95.9274 217.186 95.9215 217.151 95.9215C217.117 95.9215 217.086 95.9287 217.057 95.9431C217.029 95.9576 217.005 95.9775 216.985 96.003C216.965 96.0284 216.949 96.0576 216.938 96.0905C216.927 96.1229 216.921 96.1573 216.921 96.1937Z" fill="black" fill-opacity="0.6"/>
<g clip-path="url(#clip0_380_11999)">
<path d="M151.668 82.8475V83.9423H151.53V83.0203L151.251 83.122V82.9971L151.647 82.8475H151.668ZM152.759 83.3112V83.4772C152.759 83.5664 152.751 83.6417 152.735 83.703C152.719 83.7644 152.696 83.8137 152.666 83.8511C152.636 83.8885 152.6 83.9157 152.557 83.9326C152.515 83.9491 152.468 83.9573 152.415 83.9573C152.373 83.9573 152.335 83.9521 152.299 83.9416C152.264 83.9311 152.232 83.9144 152.204 83.8915C152.176 83.8681 152.152 83.8376 152.132 83.8003C152.112 83.7629 152.097 83.7175 152.086 83.6641C152.076 83.6108 152.071 83.5485 152.071 83.4772V83.3112C152.071 83.2219 152.079 83.1472 152.094 83.0868C152.111 83.0265 152.134 82.9782 152.164 82.9418C152.194 82.9049 152.23 82.8784 152.272 82.8625C152.314 82.8465 152.361 82.8386 152.414 82.8386C152.456 82.8386 152.495 82.8438 152.53 82.8543C152.566 82.8642 152.598 82.8804 152.626 82.9029C152.654 82.9248 152.678 82.9542 152.697 82.9911C152.717 83.0275 152.732 83.0721 152.743 83.125C152.753 83.1778 152.759 83.2399 152.759 83.3112ZM152.619 83.4996V83.288C152.619 83.2391 152.616 83.1963 152.61 83.1594C152.605 83.122 152.597 83.0901 152.586 83.0637C152.575 83.0372 152.561 83.0158 152.544 82.9993C152.527 82.9829 152.508 82.9709 152.486 82.9634C152.465 82.9555 152.441 82.9515 152.414 82.9515C152.381 82.9515 152.352 82.9577 152.326 82.9702C152.301 82.9821 152.279 83.0013 152.262 83.0278C152.245 83.0542 152.232 83.0888 152.223 83.1317C152.214 83.1746 152.21 83.2267 152.21 83.288V83.4996C152.21 83.5485 152.212 83.5916 152.218 83.629C152.224 83.6664 152.233 83.6988 152.244 83.7262C152.255 83.7531 152.269 83.7753 152.286 83.7928C152.302 83.8102 152.321 83.8232 152.343 83.8317C152.365 83.8396 152.389 83.8436 152.415 83.8436C152.449 83.8436 152.479 83.8371 152.504 83.8242C152.53 83.8112 152.551 83.791 152.568 83.7636C152.585 83.7357 152.598 83.7 152.607 83.6567C152.615 83.6128 152.619 83.5605 152.619 83.4996Z" fill="black"/>
</g>
<g clip-path="url(#clip1_380_11999)">
<path d="M151.927 77.7875V77.9012H151.214V77.8017L151.571 77.4046C151.615 77.3557 151.649 77.3144 151.673 77.2805C151.697 77.2461 151.714 77.2154 151.724 77.1885C151.734 77.1611 151.739 77.1331 151.739 77.1047C151.739 77.0688 151.731 77.0364 151.716 77.0075C151.702 76.9781 151.68 76.9547 151.652 76.9372C151.623 76.9198 151.589 76.911 151.549 76.911C151.5 76.911 151.46 76.9205 151.427 76.9395C151.396 76.9579 151.372 76.9838 151.356 77.0172C151.34 77.0506 151.332 77.089 151.332 77.1324H151.193C151.193 77.0711 151.207 77.015 151.234 76.9641C151.261 76.9133 151.301 76.8729 151.353 76.843C151.406 76.8126 151.471 76.7974 151.549 76.7974C151.617 76.7974 151.676 76.8096 151.725 76.834C151.774 76.8579 151.811 76.8918 151.837 76.9357C151.864 76.9791 151.877 77.0299 151.877 77.0883C151.877 77.1202 151.871 77.1526 151.86 77.1855C151.85 77.2179 151.835 77.2503 151.816 77.2827C151.798 77.3151 151.776 77.347 151.751 77.3784C151.727 77.4098 151.701 77.4407 151.673 77.4712L151.381 77.7875H151.927ZM152.759 77.27V77.436C152.759 77.5253 152.751 77.6005 152.735 77.6619C152.719 77.7232 152.696 77.7725 152.666 77.8099C152.636 77.8473 152.6 77.8745 152.557 77.8914C152.515 77.9079 152.468 77.9161 152.415 77.9161C152.373 77.9161 152.335 77.9109 152.299 77.9004C152.264 77.8899 152.232 77.8732 152.204 77.8503C152.176 77.8269 152.152 77.7965 152.132 77.7591C152.112 77.7217 152.097 77.6763 152.086 77.623C152.076 77.5696 152.071 77.5073 152.071 77.436V77.27C152.071 77.1808 152.079 77.106 152.094 77.0456C152.111 76.9853 152.134 76.937 152.164 76.9006C152.194 76.8637 152.23 76.8373 152.272 76.8213C152.314 76.8054 152.361 76.7974 152.414 76.7974C152.456 76.7974 152.495 76.8026 152.53 76.8131C152.566 76.823 152.598 76.8393 152.626 76.8617C152.654 76.8836 152.678 76.913 152.697 76.9499C152.717 76.9863 152.732 77.0309 152.743 77.0838C152.753 77.1366 152.759 77.1987 152.759 77.27ZM152.619 77.4584V77.2468C152.619 77.198 152.616 77.1551 152.61 77.1182C152.605 77.0808 152.597 77.0489 152.586 77.0225C152.575 76.996 152.561 76.9746 152.544 76.9582C152.527 76.9417 152.508 76.9297 152.486 76.9223C152.465 76.9143 152.441 76.9103 152.414 76.9103C152.381 76.9103 152.352 76.9165 152.326 76.929C152.301 76.941 152.279 76.9601 152.262 76.9866C152.245 77.013 152.232 77.0476 152.223 77.0905C152.214 77.1334 152.21 77.1855 152.21 77.2468V77.4584C152.21 77.5073 152.212 77.5504 152.218 77.5878C152.224 77.6252 152.233 77.6576 152.244 77.685C152.255 77.712 152.269 77.7341 152.286 77.7516C152.302 77.769 152.321 77.782 152.343 77.7905C152.365 77.7985 152.389 77.8024 152.415 77.8024C152.449 77.8024 152.479 77.796 152.504 77.783C152.53 77.77 152.551 77.7498 152.568 77.7224C152.585 77.6945 152.598 77.6589 152.607 77.6155C152.615 77.5716 152.619 77.5193 152.619 77.4584Z" fill="black"/>
</g>
<g clip-path="url(#clip2_380_11999)">
<path d="M151.415 71.2475H151.514C151.563 71.2475 151.602 71.2395 151.634 71.2236C151.666 71.2071 151.689 71.1849 151.705 71.157C151.721 71.1286 151.729 71.0967 151.729 71.0613C151.729 71.0194 151.722 70.9843 151.708 70.9559C151.694 70.9274 151.673 70.906 151.645 70.8915C151.617 70.8771 151.582 70.8699 151.539 70.8699C151.5 70.8699 151.466 70.8776 151.436 70.893C151.406 70.908 151.383 70.9294 151.366 70.9573C151.35 70.9853 151.341 71.0182 151.341 71.0561H151.203C151.203 71.0007 151.217 70.9504 151.245 70.905C151.273 70.8596 151.312 70.8235 151.362 70.7966C151.413 70.7696 151.472 70.7562 151.539 70.7562C151.605 70.7562 151.662 70.7679 151.712 70.7913C151.761 70.8143 151.799 70.8487 151.827 70.8945C151.854 70.9399 151.868 70.9965 151.868 71.0643C151.868 71.0917 151.861 71.1211 151.848 71.1525C151.836 71.1834 151.816 71.2124 151.789 71.2393C151.763 71.2662 151.729 71.2884 151.686 71.3058C151.644 71.3228 151.593 71.3313 151.534 71.3313H151.415V71.2475ZM151.415 71.3612V71.2782H151.534C151.603 71.2782 151.66 71.2864 151.706 71.3028C151.751 71.3193 151.787 71.3412 151.813 71.3686C151.839 71.3961 151.857 71.4262 151.868 71.4591C151.879 71.4915 151.884 71.5239 151.884 71.5563C151.884 71.6072 151.876 71.6523 151.858 71.6917C151.841 71.7311 151.817 71.7645 151.786 71.7919C151.755 71.8193 151.718 71.84 151.676 71.854C151.635 71.8679 151.589 71.8749 151.54 71.8749C151.492 71.8749 151.448 71.8682 151.406 71.8547C151.364 71.8413 151.328 71.8218 151.296 71.7964C151.264 71.7705 151.239 71.7388 151.221 71.7014C151.203 71.6635 151.194 71.6204 151.194 71.5721H151.332C151.332 71.6099 151.341 71.6431 151.357 71.6715C151.374 71.6999 151.398 71.7221 151.429 71.7381C151.46 71.7535 151.497 71.7613 151.54 71.7613C151.582 71.7613 151.618 71.754 151.649 71.7396C151.68 71.7246 151.703 71.7022 151.72 71.6723C151.737 71.6423 151.745 71.6047 151.745 71.5593C151.745 71.514 151.736 71.4768 151.717 71.4479C151.698 71.4185 151.671 71.3968 151.636 71.3829C151.602 71.3684 151.561 71.3612 151.514 71.3612H151.415ZM152.759 71.2288V71.3948C152.759 71.4841 152.751 71.5593 152.735 71.6207C152.719 71.682 152.696 71.7313 152.666 71.7687C152.636 71.8061 152.6 71.8333 152.557 71.8502C152.515 71.8667 152.468 71.8749 152.415 71.8749C152.373 71.8749 152.335 71.8697 152.299 71.8592C152.264 71.8487 152.232 71.832 152.204 71.8091C152.176 71.7857 152.152 71.7553 152.132 71.7179C152.112 71.6805 152.097 71.6351 152.086 71.5818C152.076 71.5284 152.071 71.4661 152.071 71.3948V71.2288C152.071 71.1396 152.079 71.0648 152.094 71.0045C152.111 70.9441 152.134 70.8958 152.164 70.8594C152.194 70.8225 152.23 70.7961 152.272 70.7801C152.314 70.7642 152.361 70.7562 152.414 70.7562C152.456 70.7562 152.495 70.7614 152.53 70.7719C152.566 70.7819 152.598 70.7981 152.626 70.8205C152.654 70.8424 152.678 70.8718 152.697 70.9087C152.717 70.9451 152.732 70.9898 152.743 71.0426C152.753 71.0954 152.759 71.1575 152.759 71.2288ZM152.619 71.4173V71.2056C152.619 71.1568 152.616 71.1139 152.61 71.077C152.605 71.0396 152.597 71.0077 152.586 70.9813C152.575 70.9549 152.561 70.9334 152.544 70.917C152.527 70.9005 152.508 70.8885 152.486 70.8811C152.465 70.8731 152.441 70.8691 152.414 70.8691C152.381 70.8691 152.352 70.8753 152.326 70.8878C152.301 70.8998 152.279 70.919 152.262 70.9454C152.245 70.9718 152.232 71.0065 152.223 71.0493C152.214 71.0922 152.21 71.1443 152.21 71.2056V71.4173C152.21 71.4661 152.212 71.5092 152.218 71.5466C152.224 71.584 152.233 71.6164 152.244 71.6438C152.255 71.6708 152.269 71.6929 152.286 71.7104C152.302 71.7278 152.321 71.7408 152.343 71.7493C152.365 71.7573 152.389 71.7613 152.415 71.7613C152.449 71.7613 152.479 71.7548 152.504 71.7418C152.53 71.7288 152.551 71.7087 152.568 71.6812C152.585 71.6533 152.598 71.6177 152.607 71.5743C152.615 71.5304 152.619 71.4781 152.619 71.4173Z" fill="black"/>
</g>
<g clip-path="url(#clip3_380_11999)">
<path d="M151.949 65.4524V65.566H151.163V65.4845L151.65 64.73H151.763L151.642 64.9483L151.32 65.4524H151.949ZM151.798 64.73V65.8188H151.659V64.73H151.798ZM152.759 65.1876V65.3536C152.759 65.4429 152.751 65.5182 152.735 65.5795C152.719 65.6408 152.696 65.6902 152.666 65.7276C152.636 65.7649 152.6 65.7921 152.557 65.8091C152.515 65.8255 152.468 65.8337 152.415 65.8337C152.373 65.8337 152.335 65.8285 152.299 65.818C152.264 65.8076 152.232 65.7909 152.204 65.7679C152.176 65.7445 152.152 65.7141 152.132 65.6767C152.112 65.6393 152.097 65.5939 152.086 65.5406C152.076 65.4873 152.071 65.4249 152.071 65.3536V65.1876C152.071 65.0984 152.079 65.0236 152.094 64.9633C152.111 64.903 152.134 64.8546 152.164 64.8182C152.194 64.7813 152.23 64.7549 152.272 64.7389C152.314 64.723 152.361 64.715 152.414 64.715C152.456 64.715 152.495 64.7202 152.53 64.7307C152.566 64.7407 152.598 64.7569 152.626 64.7793C152.654 64.8013 152.678 64.8307 152.697 64.8676C152.717 64.904 152.732 64.9486 152.743 65.0014C152.753 65.0543 152.759 65.1163 152.759 65.1876ZM152.619 65.3761V65.1644C152.619 65.1156 152.616 65.0727 152.61 65.0358C152.605 64.9984 152.597 64.9665 152.586 64.9401C152.575 64.9137 152.561 64.8922 152.544 64.8758C152.527 64.8593 152.508 64.8474 152.486 64.8399C152.465 64.8319 152.441 64.8279 152.414 64.8279C152.381 64.8279 152.352 64.8342 152.326 64.8466C152.301 64.8586 152.279 64.8778 152.262 64.9042C152.245 64.9306 152.232 64.9653 152.223 65.0082C152.214 65.051 152.21 65.1031 152.21 65.1644V65.3761C152.21 65.4249 152.212 65.4681 152.218 65.5055C152.224 65.5428 152.233 65.5752 152.244 65.6027C152.255 65.6296 152.269 65.6518 152.286 65.6692C152.302 65.6867 152.321 65.6996 152.343 65.7081C152.365 65.7161 152.389 65.7201 152.415 65.7201C152.449 65.7201 152.479 65.7136 152.504 65.7006C152.53 65.6877 152.551 65.6675 152.568 65.6401C152.585 65.6121 152.598 65.5765 152.607 65.5331C152.615 65.4892 152.619 65.4369 152.619 65.3761Z" fill="black"/>
</g>
<g clip-path="url(#clip4_380_11999)">
<path d="M151.389 59.2594L151.278 59.231L151.332 58.6889H151.891V58.8167H151.45L151.417 59.1129C151.437 59.1014 151.462 59.0907 151.492 59.0807C151.523 59.0707 151.559 59.0658 151.599 59.0658C151.649 59.0658 151.694 59.0745 151.734 59.0919C151.774 59.1089 151.808 59.1333 151.836 59.1652C151.864 59.1971 151.886 59.2355 151.901 59.2804C151.916 59.3253 151.923 59.3754 151.923 59.4307C151.923 59.483 151.916 59.5312 151.902 59.575C151.888 59.6189 151.866 59.6573 151.838 59.6902C151.81 59.7226 151.774 59.7478 151.73 59.7657C151.687 59.7837 151.637 59.7926 151.578 59.7926C151.535 59.7926 151.493 59.7867 151.454 59.7747C151.415 59.7622 151.38 59.7435 151.349 59.7186C151.318 59.6932 151.294 59.6618 151.274 59.6244C151.255 59.5865 151.243 59.5421 151.238 59.4913H151.37C151.376 59.5322 151.388 59.5666 151.406 59.5945C151.424 59.6224 151.447 59.6436 151.476 59.658C151.505 59.672 151.54 59.679 151.578 59.679C151.611 59.679 151.641 59.6732 151.666 59.6618C151.691 59.6503 151.713 59.6339 151.73 59.6124C151.748 59.591 151.761 59.5651 151.77 59.5346C151.779 59.5042 151.784 59.4701 151.784 59.4322C151.784 59.3978 151.779 59.3659 151.77 59.3365C151.76 59.3071 151.746 59.2814 151.727 59.2594C151.709 59.2375 151.686 59.2206 151.659 59.2086C151.632 59.1961 151.601 59.1899 151.567 59.1899C151.52 59.1899 151.485 59.1961 151.461 59.2086C151.438 59.2211 151.413 59.238 151.389 59.2594ZM152.759 59.1465V59.3125C152.759 59.4018 152.751 59.4771 152.735 59.5384C152.719 59.5997 152.696 59.6491 152.666 59.6865C152.636 59.7238 152.6 59.751 152.557 59.768C152.515 59.7844 152.468 59.7926 152.415 59.7926C152.373 59.7926 152.335 59.7874 152.299 59.7769C152.264 59.7665 152.232 59.7498 152.204 59.7268C152.176 59.7034 152.152 59.673 152.132 59.6356C152.112 59.5982 152.097 59.5528 152.086 59.4995C152.076 59.4462 152.071 59.3838 152.071 59.3125V59.1465C152.071 59.0573 152.079 58.9825 152.094 58.9222C152.111 58.8619 152.134 58.8135 152.164 58.7771C152.194 58.7402 152.23 58.7138 152.272 58.6978C152.314 58.6819 152.361 58.6739 152.414 58.6739C152.456 58.6739 152.495 58.6791 152.53 58.6896C152.566 58.6996 152.598 58.7158 152.626 58.7382C152.654 58.7602 152.678 58.7896 152.697 58.8265C152.717 58.8629 152.732 58.9075 152.743 58.9603C152.753 59.0132 152.759 59.0752 152.759 59.1465ZM152.619 59.335V59.1233C152.619 59.0745 152.616 59.0316 152.61 58.9947C152.605 58.9573 152.597 58.9254 152.586 58.899C152.575 58.8726 152.561 58.8511 152.544 58.8347C152.527 58.8182 152.508 58.8063 152.486 58.7988C152.465 58.7908 152.441 58.7868 152.414 58.7868C152.381 58.7868 152.352 58.7931 152.326 58.8055C152.301 58.8175 152.279 58.8367 152.262 58.8631C152.245 58.8895 152.232 58.9242 152.223 58.9671C152.214 59.0099 152.21 59.062 152.21 59.1233V59.335C152.21 59.3838 152.212 59.427 152.218 59.4644C152.224 59.5017 152.233 59.5341 152.244 59.5616C152.255 59.5885 152.269 59.6107 152.286 59.6281C152.302 59.6456 152.321 59.6585 152.343 59.667C152.365 59.675 152.389 59.679 152.415 59.679C152.449 59.679 152.479 59.6725 152.504 59.6595C152.53 59.6466 152.551 59.6264 152.568 59.599C152.585 59.571 152.598 59.5354 152.607 59.492C152.615 59.4481 152.619 59.3958 152.619 59.335Z" fill="black"/>
</g>
<g clip-path="url(#clip5_380_11999)">
<path d="M151.744 52.6462H151.756V52.7636H151.744C151.671 52.7636 151.61 52.7756 151.561 52.7995C151.511 52.823 151.472 52.8546 151.443 52.8945C151.414 52.9339 151.393 52.9783 151.38 53.0276C151.368 53.077 151.362 53.1271 151.362 53.1779V53.338C151.362 53.3863 151.367 53.4292 151.379 53.4666C151.39 53.5035 151.406 53.5346 151.426 53.5601C151.446 53.5855 151.468 53.6047 151.493 53.6176C151.519 53.6306 151.545 53.6371 151.572 53.6371C151.604 53.6371 151.633 53.6311 151.658 53.6191C151.683 53.6067 151.704 53.5895 151.721 53.5675C151.738 53.5451 151.751 53.5187 151.76 53.4883C151.769 53.4579 151.774 53.4245 151.774 53.3881C151.774 53.3557 151.77 53.3245 151.762 53.2946C151.754 53.2642 151.741 53.2372 151.725 53.2138C151.709 53.1899 151.688 53.1712 151.663 53.1577C151.639 53.1438 151.609 53.1368 151.575 53.1368C151.537 53.1368 151.501 53.1463 151.468 53.1652C151.435 53.1837 151.408 53.2081 151.386 53.2385C151.365 53.2684 151.353 53.3011 151.35 53.3365L151.277 53.3357C151.284 53.2799 151.297 53.2323 151.316 53.1929C151.335 53.153 151.359 53.1206 151.388 53.0957C151.417 53.0702 151.449 53.0518 151.484 53.0403C151.52 53.0284 151.558 53.0224 151.598 53.0224C151.652 53.0224 151.699 53.0326 151.739 53.053C151.778 53.0735 151.81 53.1009 151.836 53.1353C151.861 53.1692 151.88 53.2076 151.892 53.2505C151.904 53.2928 151.91 53.3365 151.91 53.3813C151.91 53.4327 151.903 53.4808 151.889 53.5257C151.874 53.5705 151.853 53.6099 151.824 53.6438C151.795 53.6777 151.76 53.7041 151.718 53.7231C151.676 53.742 151.628 53.7515 151.572 53.7515C151.514 53.7515 151.462 53.7395 151.418 53.7156C151.375 53.6912 151.338 53.6588 151.309 53.6184C151.28 53.578 151.259 53.5331 151.244 53.4838C151.23 53.4344 151.223 53.3843 151.223 53.3335V53.2684C151.223 53.1916 151.23 53.1164 151.246 53.0426C151.261 52.9688 151.288 52.902 151.326 52.8422C151.364 52.7823 151.417 52.7347 151.485 52.6993C151.553 52.6639 151.639 52.6462 151.744 52.6462ZM152.759 53.1054V53.2714C152.759 53.3606 152.751 53.4359 152.735 53.4972C152.719 53.5586 152.696 53.6079 152.666 53.6453C152.636 53.6827 152.6 53.7099 152.557 53.7268C152.515 53.7433 152.468 53.7515 152.415 53.7515C152.373 53.7515 152.335 53.7463 152.299 53.7358C152.264 53.7253 152.232 53.7086 152.204 53.6857C152.176 53.6623 152.152 53.6318 152.132 53.5945C152.112 53.5571 152.097 53.5117 152.086 53.4584C152.076 53.405 152.071 53.3427 152.071 53.2714V53.1054C152.071 53.0161 152.079 52.9414 152.094 52.881C152.111 52.8207 152.134 52.7724 152.164 52.736C152.194 52.6991 152.23 52.6726 152.272 52.6567C152.314 52.6407 152.361 52.6328 152.414 52.6328C152.456 52.6328 152.495 52.638 152.53 52.6485C152.566 52.6584 152.598 52.6746 152.626 52.6971C152.654 52.719 152.678 52.7484 152.697 52.7853C152.717 52.8217 152.732 52.8663 152.743 52.9192C152.753 52.972 152.759 53.0341 152.759 53.1054ZM152.619 53.2938V53.0822C152.619 53.0333 152.616 52.9905 152.61 52.9536C152.605 52.9162 152.597 52.8843 152.586 52.8579C152.575 52.8314 152.561 52.81 152.544 52.7935C152.527 52.7771 152.508 52.7651 152.486 52.7576C152.465 52.7497 152.441 52.7457 152.414 52.7457C152.381 52.7457 152.352 52.7519 152.326 52.7644C152.301 52.7763 152.279 52.7955 152.262 52.822C152.245 52.8484 152.232 52.883 152.223 52.9259C152.214 52.9688 152.21 53.0209 152.21 53.0822V53.2938C152.21 53.3427 152.212 53.3858 152.218 53.4232C152.224 53.4606 152.233 53.493 152.244 53.5204C152.255 53.5473 152.269 53.5695 152.286 53.587C152.302 53.6044 152.321 53.6174 152.343 53.6259C152.365 53.6338 152.389 53.6378 152.415 53.6378C152.449 53.6378 152.479 53.6313 152.504 53.6184C152.53 53.6054 152.551 53.5852 152.568 53.5578C152.585 53.5299 152.598 53.4942 152.607 53.4509C152.615 53.407 152.619 53.3547 152.619 53.2938Z" fill="black"/>
</g>
<g clip-path="url(#clip6_380_11999)">
<path d="M151.917 46.6065V46.6843L151.466 47.6954H151.32L151.771 46.7202H151.181V46.6065H151.917ZM152.759 47.0642V47.2302C152.759 47.3195 152.751 47.3947 152.735 47.4561C152.719 47.5174 152.696 47.5667 152.666 47.6041C152.636 47.6415 152.6 47.6687 152.557 47.6856C152.515 47.7021 152.468 47.7103 152.415 47.7103C152.373 47.7103 152.335 47.7051 152.299 47.6946C152.264 47.6841 152.232 47.6674 152.204 47.6445C152.176 47.6211 152.152 47.5907 152.132 47.5533C152.112 47.5159 152.097 47.4705 152.086 47.4172C152.076 47.3638 152.071 47.3015 152.071 47.2302V47.0642C152.071 46.975 152.079 46.9002 152.094 46.8399C152.111 46.7795 152.134 46.7312 152.164 46.6948C152.194 46.6579 152.23 46.6315 152.272 46.6155C152.314 46.5996 152.361 46.5916 152.414 46.5916C152.456 46.5916 152.495 46.5968 152.53 46.6073C152.566 46.6173 152.598 46.6335 152.626 46.6559C152.654 46.6778 152.678 46.7072 152.697 46.7441C152.717 46.7805 152.732 46.8251 152.743 46.878C152.753 46.9308 152.759 46.9929 152.759 47.0642ZM152.619 47.2526V47.041C152.619 46.9922 152.616 46.9493 152.61 46.9124C152.605 46.875 152.597 46.8431 152.586 46.8167C152.575 46.7902 152.561 46.7688 152.544 46.7524C152.527 46.7359 152.508 46.7239 152.486 46.7165C152.465 46.7085 152.441 46.7045 152.414 46.7045C152.381 46.7045 152.352 46.7107 152.326 46.7232C152.301 46.7352 152.279 46.7544 152.262 46.7808C152.245 46.8072 152.232 46.8418 152.223 46.8847C152.214 46.9276 152.21 46.9797 152.21 47.041V47.2526C152.21 47.3015 152.212 47.3446 152.218 47.382C152.224 47.4194 152.233 47.4518 152.244 47.4792C152.255 47.5062 152.269 47.5283 152.286 47.5458C152.302 47.5632 152.321 47.5762 152.343 47.5847C152.365 47.5927 152.389 47.5966 152.415 47.5966C152.449 47.5966 152.479 47.5902 152.504 47.5772C152.53 47.5642 152.551 47.544 152.568 47.5166C152.585 47.4887 152.598 47.4531 152.607 47.4097C152.615 47.3658 152.619 47.3135 152.619 47.2526Z" fill="black"/>
</g>
<g clip-path="url(#clip7_380_11999)">
<path d="M151.9 41.3594C151.9 41.4257 151.885 41.482 151.854 41.5284C151.823 41.5742 151.782 41.6091 151.73 41.6331C151.678 41.657 151.619 41.669 151.554 41.669C151.488 41.669 151.43 41.657 151.377 41.6331C151.325 41.6091 151.284 41.5742 151.253 41.5284C151.223 41.482 151.208 41.4257 151.208 41.3594C151.208 41.316 151.216 41.2764 151.232 41.2405C151.249 41.2041 151.273 41.1724 151.303 41.1455C151.334 41.1186 151.371 41.0979 151.412 41.0834C151.455 41.0685 151.501 41.061 151.552 41.061C151.619 41.061 151.679 41.0739 151.731 41.0999C151.783 41.1253 151.825 41.1604 151.854 41.2053C151.885 41.2502 151.9 41.3015 151.9 41.3594ZM151.761 41.3564C151.761 41.316 151.752 41.2803 151.735 41.2494C151.717 41.218 151.693 41.1936 151.661 41.1762C151.63 41.1587 151.594 41.15 151.552 41.15C151.51 41.15 151.473 41.1587 151.442 41.1762C151.412 41.1936 151.388 41.218 151.371 41.2494C151.354 41.2803 151.346 41.316 151.346 41.3564C151.346 41.3983 151.354 41.4341 151.371 41.4641C151.388 41.4935 151.411 41.5162 151.442 41.5321C151.474 41.5476 151.511 41.5553 151.554 41.5553C151.597 41.5553 151.634 41.5476 151.664 41.5321C151.695 41.5162 151.719 41.4935 151.736 41.4641C151.752 41.4341 151.761 41.3983 151.761 41.3564ZM151.875 40.8486C151.875 40.9015 151.861 40.9491 151.833 40.9914C151.805 41.0338 151.767 41.0672 151.718 41.0916C151.67 41.1161 151.615 41.1283 151.554 41.1283C151.491 41.1283 151.436 41.1161 151.387 41.0916C151.339 41.0672 151.301 41.0338 151.273 40.9914C151.246 40.9491 151.232 40.9015 151.232 40.8486C151.232 40.7853 151.246 40.7314 151.273 40.6871C151.301 40.6427 151.339 40.6088 151.388 40.5854C151.436 40.5619 151.491 40.5502 151.553 40.5502C151.615 40.5502 151.671 40.5619 151.719 40.5854C151.767 40.6088 151.805 40.6427 151.833 40.6871C151.861 40.7314 151.875 40.7853 151.875 40.8486ZM151.736 40.8509C151.736 40.8145 151.729 40.7823 151.713 40.7544C151.698 40.7265 151.676 40.7045 151.649 40.6886C151.621 40.6721 151.589 40.6639 151.553 40.6639C151.517 40.6639 151.485 40.6716 151.457 40.6871C151.43 40.702 151.409 40.7235 151.394 40.7514C151.379 40.7793 151.371 40.8125 151.371 40.8509C151.371 40.8882 151.379 40.9209 151.394 40.9488C151.409 40.9767 151.431 40.9984 151.458 41.0139C151.485 41.0293 151.517 41.0371 151.554 41.0371C151.59 41.0371 151.622 41.0293 151.649 41.0139C151.676 40.9984 151.698 40.9767 151.713 40.9488C151.729 40.9209 151.736 40.8882 151.736 40.8509ZM152.759 41.0228V41.1889C152.759 41.2781 152.751 41.3534 152.735 41.4147C152.719 41.476 152.696 41.5254 152.666 41.5628C152.636 41.6002 152.6 41.6273 152.557 41.6443C152.515 41.6607 152.468 41.669 152.415 41.669C152.373 41.669 152.335 41.6637 152.299 41.6533C152.264 41.6428 152.232 41.6261 152.204 41.6032C152.176 41.5797 152.152 41.5493 152.132 41.5119C152.112 41.4745 152.097 41.4292 152.086 41.3758C152.076 41.3225 152.071 41.2602 152.071 41.1889V41.0228C152.071 40.9336 152.079 40.8588 152.094 40.7985C152.111 40.7382 152.134 40.6898 152.164 40.6534C152.194 40.6165 152.23 40.5901 152.272 40.5742C152.314 40.5582 152.361 40.5502 152.414 40.5502C152.456 40.5502 152.495 40.5555 152.53 40.5659C152.566 40.5759 152.598 40.5921 152.626 40.6145C152.654 40.6365 152.678 40.6659 152.697 40.7028C152.717 40.7392 152.732 40.7838 152.743 40.8366C152.753 40.8895 152.759 40.9516 152.759 41.0228ZM152.619 41.2113V40.9997C152.619 40.9508 152.616 40.9079 152.61 40.871C152.605 40.8337 152.597 40.8017 152.586 40.7753C152.575 40.7489 152.561 40.7275 152.544 40.711C152.527 40.6946 152.508 40.6826 152.486 40.6751C152.465 40.6671 152.441 40.6631 152.414 40.6631C152.381 40.6631 152.352 40.6694 152.326 40.6818C152.301 40.6938 152.279 40.713 152.262 40.7394C152.245 40.7658 152.232 40.8005 152.223 40.8434C152.214 40.8862 152.21 40.9383 152.21 40.9997V41.2113C152.21 41.2602 152.212 41.3033 152.218 41.3407C152.224 41.3781 152.233 41.4105 152.244 41.4379C152.255 41.4648 152.269 41.487 152.286 41.5044C152.302 41.5219 152.321 41.5349 152.343 41.5433C152.365 41.5513 152.389 41.5553 152.415 41.5553C152.449 41.5553 152.479 41.5488 152.504 41.5359C152.53 41.5229 152.551 41.5027 152.568 41.4753C152.585 41.4474 152.598 41.4117 152.607 41.3683C152.615 41.3245 152.619 41.2721 152.619 41.2113Z" fill="black"/>
</g>
<g clip-path="url(#clip8_380_11999)">
<path d="M151.351 35.497H151.365C151.445 35.497 151.51 35.4858 151.56 35.4634C151.61 35.4409 151.648 35.4108 151.675 35.3729C151.702 35.335 151.72 35.2924 151.73 35.245C151.74 35.1971 151.745 35.148 151.745 35.0977V34.9309C151.745 34.8816 151.739 34.8377 151.728 34.7993C151.717 34.7609 151.702 34.7288 151.682 34.7028C151.662 34.6769 151.64 34.6572 151.615 34.6438C151.59 34.6303 151.564 34.6236 151.536 34.6236C151.504 34.6236 151.475 34.63 151.45 34.643C151.425 34.6555 151.404 34.6732 151.386 34.6961C151.369 34.719 151.356 34.746 151.347 34.7769C151.338 34.8078 151.334 34.8414 151.334 34.8778C151.334 34.9102 151.338 34.9416 151.346 34.9721C151.354 35.0025 151.366 35.0299 151.383 35.0543C151.399 35.0787 151.419 35.0982 151.444 35.1126C151.469 35.1266 151.498 35.1336 151.531 35.1336C151.562 35.1336 151.591 35.1276 151.618 35.1156C151.646 35.1032 151.67 35.0865 151.691 35.0655C151.712 35.0441 151.729 35.0199 151.741 34.993C151.754 34.9661 151.762 34.9379 151.764 34.9085H151.83C151.83 34.9499 151.822 34.9907 151.805 35.0311C151.789 35.071 151.767 35.1074 151.738 35.1403C151.709 35.1732 151.675 35.1996 151.636 35.2196C151.597 35.239 151.555 35.2487 151.509 35.2487C151.455 35.2487 151.408 35.2383 151.369 35.2173C151.33 35.1964 151.297 35.1685 151.272 35.1336C151.247 35.0987 151.228 35.0598 151.216 35.0169C151.204 34.9735 151.198 34.9297 151.198 34.8853C151.198 34.8335 151.205 34.7848 151.22 34.7395C151.234 34.6941 151.255 34.6542 151.284 34.6198C151.312 34.5849 151.347 34.5578 151.389 34.5383C151.432 34.5189 151.481 34.5092 151.536 34.5092C151.598 34.5092 151.651 34.5216 151.695 34.5465C151.739 34.5715 151.775 34.6049 151.802 34.6467C151.83 34.6886 151.85 34.7357 151.863 34.7881C151.876 34.8404 151.883 34.8943 151.883 34.9496V34.9997C151.883 35.0561 151.879 35.1134 151.872 35.1717C151.865 35.2295 151.851 35.2849 151.83 35.3377C151.811 35.3906 151.781 35.4379 151.743 35.4798C151.705 35.5212 151.654 35.5541 151.593 35.5785C151.531 35.6025 151.456 35.6144 151.365 35.6144H151.351V35.497ZM152.759 34.9818V35.1478C152.759 35.237 152.751 35.3123 152.735 35.3736C152.719 35.4349 152.696 35.4843 152.666 35.5217C152.636 35.5591 152.6 35.5863 152.557 35.6032C152.515 35.6197 152.468 35.6279 152.415 35.6279C152.373 35.6279 152.335 35.6227 152.299 35.6122C152.264 35.6017 152.232 35.585 152.204 35.5621C152.176 35.5386 152.152 35.5082 152.132 35.4708C152.112 35.4335 152.097 35.3881 152.086 35.3347C152.076 35.2814 152.071 35.2191 152.071 35.1478V34.9818C152.071 34.8925 152.079 34.8178 152.094 34.7574C152.111 34.6971 152.134 34.6487 152.164 34.6123C152.194 34.5755 152.23 34.549 152.272 34.5331C152.314 34.5171 152.361 34.5092 152.414 34.5092C152.456 34.5092 152.495 34.5144 152.53 34.5249C152.566 34.5348 152.598 34.551 152.626 34.5735C152.654 34.5954 152.678 34.6248 152.697 34.6617C152.717 34.6981 152.732 34.7427 152.743 34.7956C152.753 34.8484 152.759 34.9105 152.759 34.9818ZM152.619 35.1702V34.9586C152.619 34.9097 152.616 34.8669 152.61 34.83C152.605 34.7926 152.597 34.7607 152.586 34.7342C152.575 34.7078 152.561 34.6864 152.544 34.6699C152.527 34.6535 152.508 34.6415 152.486 34.634C152.465 34.6261 152.441 34.6221 152.414 34.6221C152.381 34.6221 152.352 34.6283 152.326 34.6408C152.301 34.6527 152.279 34.6719 152.262 34.6983C152.245 34.7248 152.232 34.7594 152.223 34.8023C152.214 34.8452 152.21 34.8973 152.21 34.9586V35.1702C152.21 35.2191 152.212 35.2622 152.218 35.2996C152.224 35.337 152.233 35.3694 152.244 35.3968C152.255 35.4237 152.269 35.4459 152.286 35.4634C152.302 35.4808 152.321 35.4938 152.343 35.5023C152.365 35.5102 152.389 35.5142 152.415 35.5142C152.449 35.5142 152.479 35.5077 152.504 35.4948C152.53 35.4818 152.551 35.4616 152.568 35.4342C152.585 35.4063 152.598 35.3706 152.607 35.3273C152.615 35.2834 152.619 35.231 152.619 35.1702Z" fill="black"/>
</g>
<path d="M150.412 91.2528C150.396 91.2364 150.373 91.228 150.35 91.23L101.021 95.5985L115.518 62.6872H153.424V62.6874L153.429 62.6871L195.145 60.2749L198.009 94.4285L166.287 107.527L150.412 91.2528Z" fill="#0D2535" stroke="#0D2535" stroke-width="0.153153" stroke-linecap="round" stroke-linejoin="round"/>
<ellipse cx="195.024" cy="60.3451" rx="0.575101" ry="0.453089" fill="#0D2535"/>
<ellipse cx="153.231" cy="62.7616" rx="0.575101" ry="0.453089" fill="#0D2535"/>
<path d="M116.236 62.7616C116.236 63.0118 115.979 63.2147 115.661 63.2147C115.343 63.2147 115.086 63.0118 115.086 62.7616C115.086 62.5114 115.343 62.3085 115.661 62.3085C115.979 62.3085 116.236 62.5114 116.236 62.7616Z" fill="#0D2535"/>
<ellipse cx="101.091" cy="95.3841" rx="0.575101" ry="0.453089" fill="#0D2535"/>
<ellipse cx="150.165" cy="91.1552" rx="0.575101" ry="0.453089" fill="#0D2535"/>
<ellipse cx="166.267" cy="107.466" rx="0.575101" ry="0.453089" fill="#0D2535"/>
<ellipse cx="197.71" cy="94.4779" rx="0.575101" ry="0.453089" fill="#0D2535"/>
<path d="M153.041 50.2262L164.735 78.9218L182.563 91.6083H156.492L133.296 118.492L116.043 92.6655L123.328 67.7456L153.041 50.2262Z" fill="#8BD1D5" stroke="#8BD1D5" stroke-width="0.153153" stroke-linecap="round" stroke-linejoin="round"/>
<ellipse cx="152.849" cy="50.0752" rx="0.575101" ry="0.453089" fill="#8BD1D5"/>
<ellipse cx="123.327" cy="67.5946" rx="0.575101" ry="0.453089" fill="#8BD1D5"/>
<ellipse cx="116.042" cy="92.6655" rx="0.575101" ry="0.453089" fill="#8BD1D5"/>
<ellipse cx="133.294" cy="118.643" rx="0.575101" ry="0.453089" fill="#8BD1D5"/>
<ellipse cx="156.683" cy="91.7593" rx="0.575101" ry="0.453089" fill="#8BD1D5"/>
<ellipse cx="182.372" cy="91.4573" rx="0.575101" ry="0.453089" fill="#8BD1D5"/>
<ellipse cx="164.735" cy="78.7707" rx="0.575101" ry="0.453089" fill="#8BD1D5"/>
</g>
</g>
<defs>
<filter id="filter0_d_380_11999" x="0.144531" y="0.345222" width="314.707" height="204.214" filterUnits="userSpaceOnUse" color-interpolation-filters="sRGB">
<feFlood flood-opacity="0" result="BackgroundImageFix"/>
<feColorMatrix in="SourceAlpha" type="matrix" values="0 0 0 0 0 0 0 0 0 0 0 0 0 0 0 0 0 0 127 0" result="hardAlpha"/>
<feOffset dx="-2" dy="5"/>
<feGaussianBlur stdDeviation="2"/>
<feComposite in2="hardAlpha" operator="out"/>
<feColorMatrix type="matrix" values="0 0 0 0 0 0 0 0 0 0 0 0 0 0 0 0 0 0 0.25 0"/>
<feBlend mode="normal" in2="BackgroundImageFix" result="effect1_dropShadow_380_11999"/>
<feBlend mode="normal" in="SourceGraphic" in2="effect1_dropShadow_380_11999" result="shape"/>
</filter>
<filter id="filter1_d_380_11999" x="46" y="30.2902" width="203" height="140" filterUnits="userSpaceOnUse" color-interpolation-filters="sRGB">
<feFlood flood-opacity="0" result="BackgroundImageFix"/>
<feColorMatrix in="SourceAlpha" type="matrix" values="0 0 0 0 0 0 0 0 0 0 0 0 0 0 0 0 0 0 127 0" result="hardAlpha"/>
<feOffset dy="4"/>
<feGaussianBlur stdDeviation="2"/>
<feComposite in2="hardAlpha" operator="out"/>
<feColorMatrix type="matrix" values="0 0 0 0 0 0 0 0 0 0 0 0 0 0 0 0 0 0 0.25 0"/>
<feBlend mode="normal" in2="BackgroundImageFix" result="effect1_dropShadow_380_11999"/>
<feBlend mode="normal" in="SourceGraphic" in2="effect1_dropShadow_380_11999" result="shape"/>
</filter>
<filter id="filter2_d_380_11999" x="81.4121" y="30.2902" width="147.941" height="115.211" filterUnits="userSpaceOnUse" color-interpolation-filters="sRGB">
<feFlood flood-opacity="0" result="BackgroundImageFix"/>
<feColorMatrix in="SourceAlpha" type="matrix" values="0 0 0 0 0 0 0 0 0 0 0 0 0 0 0 0 0 0 127 0" result="hardAlpha"/>
<feOffset dx="1" dy="7"/>
<feGaussianBlur stdDeviation="2"/>
<feComposite in2="hardAlpha" operator="out"/>
<feColorMatrix type="matrix" values="0 0 0 0 0 0 0 0 0 0 0 0 0 0 0 0 0 0 0.7 0"/>
<feBlend mode="normal" in2="BackgroundImageFix" result="effect1_dropShadow_380_11999"/>
<feBlend mode="normal" in="SourceGraphic" in2="effect1_dropShadow_380_11999" result="shape"/>
</filter>
<clipPath id="clip0_380_11999">
<rect x="151.123" y="81.9423" width="4.60081" height="3.02059" rx="0.612613" fill="white"/>
</clipPath>
<clipPath id="clip1_380_11999">
<rect width="4.60081" height="3.62471" fill="white" transform="translate(151.123 75.9012)"/>
</clipPath>
<clipPath id="clip2_380_11999">
<rect width="4.60081" height="3.62471" fill="white" transform="translate(151.123 69.86)"/>
</clipPath>
<clipPath id="clip3_380_11999">
<rect width="4.60081" height="3.62471" fill="white" transform="translate(151.123 63.8188)"/>
</clipPath>
<clipPath id="clip4_380_11999">
<rect width="4.60081" height="3.62471" fill="white" transform="translate(151.123 57.7777)"/>
</clipPath>
<clipPath id="clip5_380_11999">
<rect width="4.60081" height="3.62471" fill="white" transform="translate(151.123 51.7365)"/>
</clipPath>
<clipPath id="clip6_380_11999">
<rect width="4.60081" height="3.62471" fill="white" transform="translate(151.123 45.6954)"/>
</clipPath>
<clipPath id="clip7_380_11999">
<rect width="4.60081" height="3.62471" fill="white" transform="translate(151.123 39.654)"/>
</clipPath>
<clipPath id="clip8_380_11999">
<rect width="4.60081" height="3.62471" fill="white" transform="translate(151.123 33.6128)"/>
</clipPath>
</defs>
</svg>
