<svg width="230" height="223" viewBox="0 0 230 223" fill="none" xmlns="http://www.w3.org/2000/svg">
<path d="M178.334 86.2938L188.634 98.497H192.183L209.407 112.981L214.254 121.991L235.027 128.834H205.772L161.976 125.071L152.714 112.981L140.077 94.5053H129.691L115.15 116.175L110.13 136.247H62.0056H50.7536V121.991V94.5053L53.0906 84.8111H58.7166L65.2081 77.512L70.6611 71.6954H75.8543H80.961L84.2501 60.5186L82.9518 55.0442L84.2501 51.8509L87.366 50.1401L93.2517 41.4724L103.379 37.8228L110.13 20.8294L115.15 23.7947L120.776 25.7336L126.835 31.7782L135.317 41.4724L143.54 44.4377H148.646V39.7616L152.714 44.4377L161.976 56.6409L166.563 63.3698L170.718 75.5731L178.334 86.2938Z" fill="url(#paint0_linear_380_12004)" stroke="url(#paint1_linear_380_12004)" stroke-opacity="0.8"/>
<path d="M161.75 121.695L172.05 133.898H175.599L192.823 148.383L197.67 157.393L218.443 164.235H189.188L145.392 160.472L136.13 148.383L123.493 129.907H113.107L98.5659 151.576L93.5458 171.649H45.4217H34.1696V157.393V129.907L36.5066 120.212H42.1326L48.6242 112.913L54.0771 107.097H59.2703H64.377L67.6661 95.9199L66.3678 90.4455L67.6661 87.2522L70.782 85.5414L76.6677 76.8737L86.7945 73.2241L93.5458 56.2307L98.5659 59.196L104.192 61.1349L110.251 67.1795L118.733 76.8737L126.956 79.839H132.062V75.1629L136.13 79.839L145.392 92.0422L149.979 98.7712L154.134 110.974L161.75 121.695Z" fill="url(#paint2_linear_380_12004)" stroke="url(#paint3_linear_380_12004)" stroke-opacity="0.8"/>
<path d="M128.58 137.698L138.88 149.902H142.429L159.653 164.386L164.5 173.396L185.273 180.239H156.018L112.222 176.475L102.96 164.386L90.3236 145.91H79.9371L65.396 167.579L60.3758 187.652H12.2517H0.99971V173.396V145.91L3.33667 136.216H8.96269L15.4542 128.917L20.9072 123.1H26.1004H31.2071L34.4962 111.923L33.1978 106.449L34.4962 103.256L37.6121 101.545L43.4978 92.877L53.6246 89.2274L60.3758 72.2341L65.396 75.1994L71.022 77.1382L77.0808 83.1828L85.5631 92.877L93.7857 95.8423H98.8924V91.1663L102.96 95.8423L112.222 108.046L116.809 114.774L120.964 126.978L128.58 137.698Z" fill="url(#paint4_linear_380_12004)" stroke="url(#paint5_linear_380_12004)" stroke-opacity="0.8"/>
<path d="M101.666 58.1021L91.3657 68.7466H87.8169L70.5927 81.3806L65.7456 89.2396L44.9727 95.2085H74.228L118.024 91.9256L127.286 81.3806L139.923 65.2647H150.309L164.85 84.1661L169.87 101.675H217.994H229.246V89.2396V65.2647L226.909 56.8088H221.283L214.792 50.4421L209.339 45.3685H204.146H199.039L195.75 35.6194L197.048 30.8443L195.75 28.0588L192.634 26.5666L186.748 19.0061L176.621 15.8227L169.87 1L164.85 3.58651L159.224 5.27768L153.165 10.5502L144.683 19.0061L136.46 21.5926H131.354V17.5138L127.286 21.5926L118.024 32.237L113.437 38.1064L109.282 48.7509L101.666 58.1021Z" fill="url(#paint6_linear_380_12004)" stroke="url(#paint7_linear_380_12004)" stroke-opacity="0.8"/>
<path d="M118.25 88.9813L107.95 99.6258H104.401L87.1767 112.26L82.3296 120.119L61.5566 126.088H90.8119L134.608 122.805L143.87 112.26L156.507 96.144H166.893L181.434 115.045L186.454 132.554H234.578H245.83V120.119V96.144L243.493 87.6881H237.867L231.376 81.3213L225.923 76.2478H220.73H215.623L212.334 66.4986L213.632 61.7235L212.334 58.9381L209.218 57.4459L203.332 49.8853L193.205 46.7019L186.454 31.8792L181.434 34.4657L175.808 36.1569L169.749 41.4294L161.267 49.8853L153.044 52.4718H147.938V48.3931L143.87 52.4718L134.608 63.1163L130.021 68.9857L125.866 79.6301L118.25 88.9813Z" fill="url(#paint8_linear_380_12004)" stroke="url(#paint9_linear_380_12004)" stroke-opacity="0.8"/>
<path d="M151.42 102.94L141.12 113.585H137.571L120.347 126.219L115.5 134.078L94.7266 140.047H123.982L167.778 136.764L177.04 126.219L189.676 110.103H200.063L214.604 129.004L219.624 146.513H267.748H279V134.078V110.103L276.663 101.647H271.037L264.546 95.2804L259.093 90.2069H253.9H248.793L245.504 80.4577L246.802 75.6826L245.504 72.8972L242.388 71.405L236.502 63.8444L226.375 60.661L219.624 45.8383L214.604 48.4249L208.978 50.116L202.919 55.3885L194.437 63.8444L186.214 66.4309H181.108V62.3522L177.04 66.4309L167.778 77.0754L163.191 82.9448L159.036 93.5892L151.42 102.94Z" fill="url(#paint10_linear_380_12004)" stroke="url(#paint11_linear_380_12004)" stroke-opacity="0.8"/>
<path d="M126.082 82.87L138.389 61.5376L126.082 144.561L119.049 189.243L102.724 210.576L89.4121 204.234L114.277 175.694L119.049 139.083L126.082 82.87Z" fill="url(#paint12_linear_380_12004)" fill-opacity="0.8" stroke="url(#paint13_linear_380_12004)"/>
<path d="M140.397 69.6093L128.09 48.277L140.397 131.3L147.429 175.983L163.755 197.315L177.066 190.973L152.201 162.434L147.429 125.823L140.397 69.6093Z" fill="url(#paint14_linear_380_12004)" fill-opacity="0.8" stroke="url(#paint15_linear_380_12004)"/>
<path d="M132.359 128.417V84.8879L139.141 151.768V180.307L132.359 206.251L114.275 211.44L132.359 192.703V164.163V128.417Z" fill="url(#paint16_linear_380_12004)" fill-opacity="0.8" stroke="url(#paint17_linear_380_12004)"/>
<path d="M111.514 83.4465L123.821 62.1142L111.514 145.137L104.481 189.82L88.1554 211.152L74.8438 204.81L99.7089 176.271L104.481 139.66L111.514 83.4465Z" fill="url(#paint18_linear_380_12004)" fill-opacity="0.8" stroke="url(#paint19_linear_380_12004)"/>
<path d="M136.379 82.87L124.072 61.5376L136.379 144.561L143.412 189.243L159.737 210.576L173.049 204.234L148.184 175.694L143.412 139.083L136.379 82.87Z" fill="url(#paint20_linear_380_12004)" fill-opacity="0.8" stroke="url(#paint21_linear_380_12004)"/>
<path d="M122.065 67.0699L129.098 112.408L103.479 123.818L89.4139 150.54L69.3208 185.069L41.9441 209.99H27.1254L56.0092 139.431L69.3208 150.54L84.6418 118.113L89.4139 86.5863L97.1999 96.7949H112.019L122.065 67.0699Z" fill="url(#paint22_linear_380_12004)" fill-opacity="0.8" stroke="url(#paint23_linear_380_12004)"/>
<path d="M132.614 77.2785L139.646 122.617L114.028 134.026L99.9627 160.749L79.8697 195.278L52.4929 220.198H37.6743L66.558 149.639L79.8697 160.749L95.1906 128.321L99.9627 96.7949L107.749 107.003H122.567L132.614 77.2785Z" fill="url(#paint24_linear_380_12004)" stroke="url(#paint25_linear_380_12004)"/>
<path d="M152.706 79.08L159.738 124.418L134.12 135.828L120.055 162.55L99.9615 197.079L72.5847 222H57.7661L86.6498 151.441L99.9615 162.55L115.282 130.123L120.055 98.5964L127.841 108.805H142.659L152.706 79.08Z" fill="url(#paint26_linear_380_12004)" fill-opacity="0.8" stroke="url(#paint27_linear_380_12004)"/>
<path d="M145.41 42.3609L138.377 88.3137L163.996 99.8779L178.061 126.963L198.154 161.96L225.531 187.219H240.349L211.465 115.703L198.154 126.963L182.833 94.0958L178.061 62.1419L170.275 72.4889H155.456L145.41 42.3609Z" fill="url(#paint28_linear_380_12004)" fill-opacity="0.8" stroke="url(#paint29_linear_380_12004)"/>
<path d="M120.292 58.1857L113.26 104.138L138.878 115.703L152.944 142.787L173.037 177.785L200.413 203.043H215.232L186.348 131.528L173.037 142.787L157.716 109.921L152.944 77.9667L145.157 88.3137H130.339L120.292 58.1857Z" fill="url(#paint30_linear_380_12004)" stroke="url(#paint31_linear_380_12004)"/>
<path d="M119.011 92.8785L113.26 130.529L134.209 140.004L145.711 162.195L162.141 190.869L184.528 211.564H196.646L173.027 152.97L162.141 162.195L149.613 135.266L145.711 109.086L139.344 117.563H127.226L119.011 92.8785Z" fill="url(#paint32_linear_380_12004)" stroke="url(#paint33_linear_380_12004)"/>
<defs>
<linearGradient id="paint0_linear_380_12004" x1="142.89" y1="20.8294" x2="142.89" y2="136.247" gradientUnits="userSpaceOnUse">
<stop stop-color="#5AC5F2"/>
<stop offset="1" stop-color="#5AC5F2" stop-opacity="0"/>
</linearGradient>
<linearGradient id="paint1_linear_380_12004" x1="142.89" y1="20.8294" x2="142.89" y2="136.247" gradientUnits="userSpaceOnUse">
<stop stop-color="#1A4159"/>
<stop offset="1" stop-opacity="0"/>
</linearGradient>
<linearGradient id="paint2_linear_380_12004" x1="126.306" y1="56.2307" x2="126.306" y2="171.649" gradientUnits="userSpaceOnUse">
<stop stop-color="#5AC5F2"/>
<stop offset="1" stop-color="#5AC5F2" stop-opacity="0"/>
</linearGradient>
<linearGradient id="paint3_linear_380_12004" x1="126.306" y1="56.2307" x2="126.306" y2="171.649" gradientUnits="userSpaceOnUse">
<stop stop-color="#1A4159"/>
<stop offset="1" stop-opacity="0"/>
</linearGradient>
<linearGradient id="paint4_linear_380_12004" x1="93.1366" y1="72.2341" x2="93.1366" y2="187.652" gradientUnits="userSpaceOnUse">
<stop stop-color="#5AC5F2"/>
<stop offset="1" stop-color="#5AC5F2" stop-opacity="0"/>
</linearGradient>
<linearGradient id="paint5_linear_380_12004" x1="93.1366" y1="72.2341" x2="93.1366" y2="187.652" gradientUnits="userSpaceOnUse">
<stop stop-color="#1A4159"/>
<stop offset="1" stop-opacity="0"/>
</linearGradient>
<linearGradient id="paint6_linear_380_12004" x1="137.11" y1="1" x2="137.11" y2="101.675" gradientUnits="userSpaceOnUse">
<stop stop-color="#7FC8E8"/>
<stop offset="1" stop-color="#5AC5F2" stop-opacity="0"/>
</linearGradient>
<linearGradient id="paint7_linear_380_12004" x1="137.11" y1="1" x2="137.11" y2="101.675" gradientUnits="userSpaceOnUse">
<stop stop-color="#1A4159"/>
<stop offset="1" stop-opacity="0"/>
</linearGradient>
<linearGradient id="paint8_linear_380_12004" x1="153.694" y1="31.8792" x2="239.817" y2="143.33" gradientUnits="userSpaceOnUse">
<stop stop-color="#72B5D1"/>
<stop offset="1" stop-color="#5AC5F2" stop-opacity="0"/>
</linearGradient>
<linearGradient id="paint9_linear_380_12004" x1="153.694" y1="31.8792" x2="153.694" y2="132.554" gradientUnits="userSpaceOnUse">
<stop stop-color="#1A4159"/>
<stop offset="1" stop-opacity="0"/>
</linearGradient>
<linearGradient id="paint10_linear_380_12004" x1="186.862" y1="45.9708" x2="249.418" y2="129.436" gradientUnits="userSpaceOnUse">
<stop stop-color="#759FB0"/>
<stop offset="1" stop-color="#5AC5F2" stop-opacity="0"/>
</linearGradient>
<linearGradient id="paint11_linear_380_12004" x1="186.863" y1="45.8383" x2="186.863" y2="146.513" gradientUnits="userSpaceOnUse">
<stop/>
<stop offset="0.682292" stop-opacity="0.2"/>
<stop offset="1" stop-opacity="0"/>
</linearGradient>
<linearGradient id="paint12_linear_380_12004" x1="113.901" y1="61.5376" x2="113.901" y2="210.576" gradientUnits="userSpaceOnUse">
<stop stop-color="#D9D9D9"/>
<stop offset="1" stop-color="#D9D9D9" stop-opacity="0"/>
</linearGradient>
<linearGradient id="paint13_linear_380_12004" x1="113.901" y1="61.5376" x2="113.901" y2="210.576" gradientUnits="userSpaceOnUse">
<stop/>
<stop offset="1" stop-opacity="0"/>
</linearGradient>
<linearGradient id="paint14_linear_380_12004" x1="152.578" y1="48.277" x2="152.578" y2="197.315" gradientUnits="userSpaceOnUse">
<stop stop-color="#D9D9D9"/>
<stop offset="1" stop-color="#D9D9D9" stop-opacity="0"/>
</linearGradient>
<linearGradient id="paint15_linear_380_12004" x1="152.578" y1="48.277" x2="152.578" y2="197.315" gradientUnits="userSpaceOnUse">
<stop/>
<stop offset="1" stop-opacity="0"/>
</linearGradient>
<linearGradient id="paint16_linear_380_12004" x1="126.708" y1="84.8879" x2="126.708" y2="211.44" gradientUnits="userSpaceOnUse">
<stop stop-color="#D9D9D9"/>
<stop offset="1" stop-color="#D9D9D9" stop-opacity="0"/>
</linearGradient>
<linearGradient id="paint17_linear_380_12004" x1="126.708" y1="84.8879" x2="126.708" y2="211.44" gradientUnits="userSpaceOnUse">
<stop/>
<stop offset="0.583333" stop-opacity="0.15"/>
<stop offset="0.807292" stop-opacity="0.1"/>
<stop offset="1" stop-opacity="0"/>
</linearGradient>
<linearGradient id="paint18_linear_380_12004" x1="99.3322" y1="62.1142" x2="99.3322" y2="211.152" gradientUnits="userSpaceOnUse">
<stop stop-color="#D9D9D9"/>
<stop offset="1" stop-color="#D9D9D9" stop-opacity="0"/>
</linearGradient>
<linearGradient id="paint19_linear_380_12004" x1="99.3322" y1="62.1142" x2="99.3322" y2="211.152" gradientUnits="userSpaceOnUse">
<stop/>
<stop offset="1" stop-opacity="0"/>
</linearGradient>
<linearGradient id="paint20_linear_380_12004" x1="148.56" y1="61.5376" x2="148.56" y2="210.576" gradientUnits="userSpaceOnUse">
<stop stop-color="#D9D9D9"/>
<stop offset="1" stop-color="#D9D9D9" stop-opacity="0"/>
</linearGradient>
<linearGradient id="paint21_linear_380_12004" x1="148.56" y1="61.5376" x2="148.56" y2="210.576" gradientUnits="userSpaceOnUse">
<stop/>
<stop offset="1" stop-opacity="0"/>
</linearGradient>
<linearGradient id="paint22_linear_380_12004" x1="78.1115" y1="67.0699" x2="78.1115" y2="209.99" gradientUnits="userSpaceOnUse">
<stop stop-color="#D9D9D9"/>
<stop offset="1" stop-color="#D9D9D9" stop-opacity="0"/>
</linearGradient>
<linearGradient id="paint23_linear_380_12004" x1="78.1115" y1="67.0699" x2="78.1115" y2="209.99" gradientUnits="userSpaceOnUse">
<stop stop-color="#1A4159" stop-opacity="0.74"/>
<stop offset="0.208333" stop-color="#153346" stop-opacity="0.3"/>
<stop offset="0.322917" stop-color="#122C3C" stop-opacity="0.2"/>
<stop offset="0.776042" stop-color="#060F14" stop-opacity="0.1"/>
<stop offset="1" stop-opacity="0"/>
</linearGradient>
<linearGradient id="paint24_linear_380_12004" x1="88.6604" y1="77.2785" x2="88.6604" y2="220.198" gradientUnits="userSpaceOnUse">
<stop stop-color="#668995"/>
<stop offset="1" stop-color="#D9D9D9" stop-opacity="0"/>
</linearGradient>
<linearGradient id="paint25_linear_380_12004" x1="88.6604" y1="77.2785" x2="88.6604" y2="220.198" gradientUnits="userSpaceOnUse">
<stop stop-color="#1A4159" stop-opacity="0.74"/>
<stop offset="0.208333" stop-color="#153346" stop-opacity="0.3"/>
<stop offset="0.322917" stop-color="#122C3C" stop-opacity="0.2"/>
<stop offset="0.776042" stop-color="#060F14" stop-opacity="0.1"/>
<stop offset="1" stop-opacity="0"/>
</linearGradient>
<linearGradient id="paint26_linear_380_12004" x1="108.752" y1="79.08" x2="108.752" y2="222" gradientUnits="userSpaceOnUse">
<stop stop-color="#D9D9D9"/>
<stop offset="1" stop-color="#D9D9D9" stop-opacity="0"/>
</linearGradient>
<linearGradient id="paint27_linear_380_12004" x1="108.752" y1="79.08" x2="108.752" y2="222" gradientUnits="userSpaceOnUse">
<stop stop-color="#1A4159" stop-opacity="0.74"/>
<stop offset="0.208333" stop-color="#153346" stop-opacity="0.3"/>
<stop offset="0.322917" stop-color="#122C3C" stop-opacity="0.2"/>
<stop offset="0.776042" stop-color="#060F14" stop-opacity="0.1"/>
<stop offset="1" stop-opacity="0"/>
</linearGradient>
<linearGradient id="paint28_linear_380_12004" x1="189.363" y1="42.3609" x2="189.363" y2="187.219" gradientUnits="userSpaceOnUse">
<stop stop-color="#D9D9D9"/>
<stop offset="1" stop-color="#D9D9D9" stop-opacity="0"/>
</linearGradient>
<linearGradient id="paint29_linear_380_12004" x1="189.363" y1="42.3609" x2="189.363" y2="187.219" gradientUnits="userSpaceOnUse">
<stop stop-color="#0D2535" stop-opacity="0.42"/>
<stop offset="0.302083" stop-color="#091A25" stop-opacity="0.19"/>
<stop offset="0.682292" stop-color="#040C11" stop-opacity="0.1"/>
<stop offset="1" stop-opacity="0"/>
</linearGradient>
<linearGradient id="paint30_linear_380_12004" x1="159.976" y1="52.4036" x2="166.241" y2="202.96" gradientUnits="userSpaceOnUse">
<stop stop-color="#668995"/>
<stop offset="1" stop-color="#D9D9D9" stop-opacity="0"/>
</linearGradient>
<linearGradient id="paint31_linear_380_12004" x1="164.246" y1="58.1857" x2="164.246" y2="203.043" gradientUnits="userSpaceOnUse">
<stop stop-color="#0D2535" stop-opacity="0.42"/>
<stop offset="0.302083" stop-color="#091A25" stop-opacity="0.19"/>
<stop offset="0.682292" stop-color="#040C11" stop-opacity="0.1"/>
<stop offset="1" stop-opacity="0"/>
</linearGradient>
<linearGradient id="paint32_linear_380_12004" x1="154.953" y1="92.8785" x2="154.953" y2="211.564" gradientUnits="userSpaceOnUse">
<stop stop-color="#285D7D"/>
<stop offset="0.395833" stop-color="#47849B" stop-opacity="0.3"/>
<stop offset="1" stop-color="#77C0C9" stop-opacity="0.1"/>
</linearGradient>
<linearGradient id="paint33_linear_380_12004" x1="154.953" y1="92.8785" x2="154.953" y2="211.564" gradientUnits="userSpaceOnUse">
<stop stop-color="#0D2535" stop-opacity="0.42"/>
<stop offset="0.302083" stop-color="#091A25" stop-opacity="0.19"/>
<stop offset="0.682292" stop-color="#040C11" stop-opacity="0.1"/>
<stop offset="1" stop-opacity="0"/>
</linearGradient>
</defs>
</svg>
