<svg width="220" height="226" viewBox="0 0 220 226" fill="none" xmlns="http://www.w3.org/2000/svg">
<path d="M126.301 87.3973L135.786 99.7584H139.054L154.915 114.43L159.379 123.557L178.508 130.488H151.568L111.237 126.676L102.709 114.43L91.0719 95.7151H81.5074L68.117 117.665L63.4942 137.997H19.1785H8.81686V123.557V95.7151L10.9689 85.8955H16.1497L22.1275 78.5019L27.1489 72.6101H31.9312H36.6337L39.6625 61.2887L38.4669 55.7435L39.6625 52.5088L42.5319 50.7759L47.9518 41.996L57.2772 38.2992L63.4942 21.086L68.117 24.0896L73.2978 26.0536L78.8772 32.1764L86.6882 41.996L94.2601 44.9997H98.9627V40.2631L102.709 44.9997L111.237 57.3608L115.462 64.1768L119.287 76.5379L126.301 87.3973Z" fill="url(#paint0_linear_380_12027)" stroke="url(#paint1_linear_380_12027)" stroke-opacity="0.8"/>
<path d="M111.028 123.257L120.513 135.618H123.781L139.642 150.289L144.105 159.416L163.234 166.347H136.294L95.9638 162.535L87.4354 150.289L75.7985 131.574H66.234L52.8436 153.524L48.2207 173.856H3.90501H-6.45657V159.416V131.574L-4.30455 121.755H0.876251L6.85408 114.361L11.8755 108.469H16.6577H21.3603L24.3891 97.148L23.1935 91.6028L24.3891 88.3681L27.2585 86.6352L32.6784 77.8553L42.0038 74.1585L48.2207 56.9453L52.8436 59.949L58.0244 61.9129L63.6037 68.0357L71.4148 77.8553L78.9867 80.859H83.6893V76.1224L87.4354 80.859L95.9638 93.2201L100.188 100.036L104.014 112.397L111.028 123.257Z" fill="url(#paint2_linear_380_12027)" stroke="url(#paint3_linear_380_12027)" stroke-opacity="0.8"/>
<path d="M80.4849 139.467L89.9698 151.828H93.2377L109.099 166.5L113.562 175.626L132.691 182.558H105.751L65.4208 178.745L56.8924 166.5L45.2555 147.785H35.691L22.3006 169.735L17.6778 190.067H-26.638H-36.9995V175.626V147.785L-34.8475 137.965H-29.6667L-23.6889 130.572L-18.6675 124.68H-13.8852H-9.18266L-6.15388 113.358L-7.34946 107.813L-6.15388 104.578L-3.28452 102.846L2.13539 94.0657L11.4608 90.3689L17.6778 73.1557L22.3006 76.1593L27.4814 78.1233L33.0607 84.2461L40.8718 94.0657L48.4437 97.0694H53.1463V92.3328L56.8924 97.0694L65.4208 109.431L69.6451 116.246L73.4709 128.608L80.4849 139.467Z" fill="url(#paint4_linear_380_12027)" stroke="url(#paint5_linear_380_12027)" stroke-opacity="0.8"/>
<path d="M55.6987 58.8409L46.2138 69.623H42.9459L27.0847 82.4206L22.6213 90.3813L3.49219 96.4273H30.4323L70.7628 93.102L79.2912 82.4206L90.9281 66.0962H100.493L113.883 85.2421L118.506 102.977H162.822H173.183V90.3813V66.0962L171.031 57.5309H165.85L159.872 51.0817L154.851 45.9426H150.069H145.366L142.337 36.0673L143.533 31.2304L142.337 28.4089L139.468 26.8974L134.048 19.239L124.723 16.0144L118.506 1L113.883 3.61997L108.702 5.33303L103.123 10.6737L95.3118 19.239L87.7399 21.859H83.0373V17.7275L79.2912 21.859L70.7628 32.6412L66.5385 38.5865L62.7127 49.3687L55.6987 58.8409Z" fill="url(#paint6_linear_380_12027)" stroke="url(#paint7_linear_380_12027)" stroke-opacity="0.8"/>
<path d="M70.9701 90.1196L61.4853 100.902H58.2174L42.3562 113.699L37.8928 121.66L18.7637 127.706H45.7038L86.0343 124.381L94.5627 113.699L106.2 97.3749H115.764L129.154 116.521L133.777 134.256H178.093H188.455V121.66V97.3749L186.303 88.8096H181.122L175.144 82.3605L170.123 77.2213H165.34H160.638L157.609 67.346L158.805 62.5092L157.609 59.6877L154.74 58.1761L149.32 50.5178L139.994 47.2932L133.777 32.2787L129.154 34.8987L123.974 36.6118L118.394 41.9525L110.583 50.5178L103.011 53.1377H98.3088V49.0062L94.5627 53.1377L86.0343 63.9199L81.81 69.8652L77.9841 80.6474L70.9701 90.1196Z" fill="url(#paint8_linear_380_12027)" stroke="url(#paint9_linear_380_12027)" stroke-opacity="0.8"/>
<path d="M101.515 104.259L92.0302 115.042H88.7623L72.9011 127.839L68.4377 135.8L49.3086 141.846H76.2487L116.579 138.52L125.108 127.839L136.744 111.515H146.309L159.699 130.661L164.322 148.396H208.638H219V135.8V111.515L216.848 102.949H211.667L205.689 96.5002L200.667 91.361H195.885H191.183L188.154 81.4857L189.349 76.6489L188.154 73.8274L185.285 72.3158L179.865 64.6575L170.539 61.4329L164.322 46.4185L159.699 49.0384L154.519 50.7515L148.939 56.0922L141.128 64.6575L133.556 67.2774H128.854V63.146L125.108 67.2774L116.579 78.0596L112.355 84.0049L108.529 94.7871L101.515 104.259Z" fill="url(#paint10_linear_380_12027)" stroke="url(#paint11_linear_380_12027)" stroke-opacity="0.8"/>
<path d="M78.182 83.9292L89.515 62.3209L78.182 146.418L71.7059 191.679L56.6723 213.287L44.4141 206.863L67.3115 177.954L71.7059 140.87L78.182 83.9292Z" fill="url(#paint12_linear_380_12027)" fill-opacity="0.8" stroke="url(#paint13_linear_380_12027)"/>
<path d="M91.3649 70.497L80.0319 48.8887L91.3649 132.986L97.841 178.246L112.875 199.855L125.133 193.431L102.235 164.522L97.841 127.438L91.3649 70.497Z" fill="url(#paint14_linear_380_12027)" fill-opacity="0.8" stroke="url(#paint15_linear_380_12027)"/>
<path d="M83.9632 130.066V85.9732L90.208 153.718V182.627L83.9632 208.907L67.3105 214.163L83.9632 195.183V166.274V130.066Z" fill="url(#paint16_linear_380_12027)" fill-opacity="0.8" stroke="url(#paint17_linear_380_12027)"/>
<path d="M64.7679 84.5132L76.101 62.9049L64.7679 147.002L58.2919 192.263L43.2582 213.871L31 207.447L53.8974 178.538L58.2919 141.454L64.7679 84.5132Z" fill="url(#paint18_linear_380_12027)" fill-opacity="0.8" stroke="url(#paint19_linear_380_12027)"/>
<path d="M87.6637 83.9292L76.3307 62.3209L87.6637 146.418L94.1398 191.679L109.173 213.287L121.432 206.863L98.5342 177.954L94.1398 140.87L87.6637 83.9292Z" fill="url(#paint20_linear_380_12027)" fill-opacity="0.8" stroke="url(#paint21_linear_380_12027)"/>
<path d="M74.4849 67.9247L80.9609 113.849L57.3697 125.407L44.4176 152.475L25.9146 187.45L0.704369 212.694H-12.9416L13.6564 141.222L25.9146 152.475L40.0231 119.628L44.4176 87.6936L51.5875 98.0343H65.2334L74.4849 67.9247Z" fill="url(#paint22_linear_380_12027)" fill-opacity="0.8" stroke="url(#paint23_linear_380_12027)"/>
<path d="M84.1997 78.2654L90.6758 124.19L67.0845 135.747L54.1324 162.815L35.6295 197.791L10.4192 223.034H-3.22672L23.3713 151.562L35.6295 162.815L49.738 129.969L54.1324 98.0343L61.3023 108.375H74.9483L84.1997 78.2654Z" fill="url(#paint24_linear_380_12027)" stroke="url(#paint25_linear_380_12027)"/>
<path d="M102.702 80.0902L109.178 126.015L85.5865 137.572L72.6344 164.64L54.1314 199.616L28.9212 224.859H15.2752L41.8732 153.387L54.1314 164.64L68.2399 131.793L72.6344 99.8591L79.8043 110.2H93.4502L102.702 80.0902Z" fill="url(#paint26_linear_380_12027)" fill-opacity="0.8" stroke="url(#paint27_linear_380_12027)"/>
<path d="M95.9819 42.896L89.5059 89.4433L113.097 101.157L126.049 128.592L144.552 164.042L169.762 189.628H183.408L156.81 117.187L144.552 128.592L130.444 95.3002L126.049 62.9329L118.879 73.4138H105.233L95.9819 42.896Z" fill="url(#paint28_linear_380_12027)" fill-opacity="0.8" stroke="url(#paint29_linear_380_12027)"/>
<path d="M72.853 58.9255L66.377 105.473L89.9682 117.187L102.92 144.622L121.423 180.072L146.634 205.657H160.279L133.681 133.216L121.423 144.622L107.315 111.33L102.92 78.9625L95.7504 89.4433H82.1045L72.853 58.9255Z" fill="url(#paint30_linear_380_12027)" stroke="url(#paint31_linear_380_12027)"/>
<path d="M71.6726 94.0672L66.377 132.205L85.6683 141.802L96.2597 164.281L111.39 193.326L132.005 214.289H143.164L121.414 154.936L111.39 164.281L99.8532 137.003L96.2597 110.484L90.3966 119.071H79.2379L71.6726 94.0672Z" fill="url(#paint32_linear_380_12027)" stroke="url(#paint33_linear_380_12027)"/>
<defs>
<linearGradient id="paint0_linear_380_12027" x1="93.6623" y1="21.086" x2="93.6623" y2="137.997" gradientUnits="userSpaceOnUse">
<stop stop-color="#5AC5F2"/>
<stop offset="1" stop-color="#5AC5F2" stop-opacity="0"/>
</linearGradient>
<linearGradient id="paint1_linear_380_12027" x1="93.6623" y1="21.086" x2="93.6623" y2="137.997" gradientUnits="userSpaceOnUse">
<stop stop-color="#1A4159"/>
<stop offset="1" stop-opacity="0"/>
</linearGradient>
<linearGradient id="paint2_linear_380_12027" x1="78.3889" y1="56.9453" x2="78.3889" y2="173.856" gradientUnits="userSpaceOnUse">
<stop stop-color="#5AC5F2"/>
<stop offset="1" stop-color="#5AC5F2" stop-opacity="0"/>
</linearGradient>
<linearGradient id="paint3_linear_380_12027" x1="78.3889" y1="56.9453" x2="78.3889" y2="173.856" gradientUnits="userSpaceOnUse">
<stop stop-color="#1A4159"/>
<stop offset="1" stop-opacity="0"/>
</linearGradient>
<linearGradient id="paint4_linear_380_12027" x1="47.8459" y1="73.1557" x2="47.8459" y2="190.067" gradientUnits="userSpaceOnUse">
<stop stop-color="#5AC5F2"/>
<stop offset="1" stop-color="#5AC5F2" stop-opacity="0"/>
</linearGradient>
<linearGradient id="paint5_linear_380_12027" x1="47.8459" y1="73.1557" x2="47.8459" y2="190.067" gradientUnits="userSpaceOnUse">
<stop stop-color="#1A4159"/>
<stop offset="1" stop-opacity="0"/>
</linearGradient>
<linearGradient id="paint6_linear_380_12027" x1="88.3377" y1="1" x2="88.3377" y2="102.977" gradientUnits="userSpaceOnUse">
<stop stop-color="#7FC8E8"/>
<stop offset="1" stop-color="#5AC5F2" stop-opacity="0"/>
</linearGradient>
<linearGradient id="paint7_linear_380_12027" x1="88.3377" y1="1" x2="88.3377" y2="102.977" gradientUnits="userSpaceOnUse">
<stop stop-color="#1A4159"/>
<stop offset="1" stop-opacity="0"/>
</linearGradient>
<linearGradient id="paint8_linear_380_12027" x1="103.609" y1="32.2787" x2="192.584" y2="136.954" gradientUnits="userSpaceOnUse">
<stop stop-color="#72B5D1"/>
<stop offset="1" stop-color="#5AC5F2" stop-opacity="0"/>
</linearGradient>
<linearGradient id="paint9_linear_380_12027" x1="103.609" y1="32.2787" x2="103.609" y2="134.256" gradientUnits="userSpaceOnUse">
<stop stop-color="#1A4159"/>
<stop offset="1" stop-opacity="0"/>
</linearGradient>
<linearGradient id="paint10_linear_380_12027" x1="134.153" y1="46.5526" x2="198.959" y2="125.161" gradientUnits="userSpaceOnUse">
<stop stop-color="#759FB0"/>
<stop offset="1" stop-color="#5AC5F2" stop-opacity="0"/>
</linearGradient>
<linearGradient id="paint11_linear_380_12027" x1="134.154" y1="46.4185" x2="134.154" y2="148.396" gradientUnits="userSpaceOnUse">
<stop/>
<stop offset="0.682292" stop-opacity="0.2"/>
<stop offset="1" stop-opacity="0"/>
</linearGradient>
<linearGradient id="paint12_linear_380_12027" x1="66.9645" y1="62.3209" x2="66.9645" y2="213.287" gradientUnits="userSpaceOnUse">
<stop stop-color="#D9D9D9"/>
<stop offset="1" stop-color="#D9D9D9" stop-opacity="0"/>
</linearGradient>
<linearGradient id="paint13_linear_380_12027" x1="66.9645" y1="62.3209" x2="66.9645" y2="213.287" gradientUnits="userSpaceOnUse">
<stop/>
<stop offset="1" stop-opacity="0"/>
</linearGradient>
<linearGradient id="paint14_linear_380_12027" x1="102.582" y1="48.8887" x2="102.582" y2="199.855" gradientUnits="userSpaceOnUse">
<stop stop-color="#D9D9D9"/>
<stop offset="1" stop-color="#D9D9D9" stop-opacity="0"/>
</linearGradient>
<linearGradient id="paint15_linear_380_12027" x1="102.582" y1="48.8887" x2="102.582" y2="199.855" gradientUnits="userSpaceOnUse">
<stop/>
<stop offset="1" stop-opacity="0"/>
</linearGradient>
<linearGradient id="paint16_linear_380_12027" x1="78.7593" y1="85.9732" x2="78.7593" y2="214.163" gradientUnits="userSpaceOnUse">
<stop stop-color="#D9D9D9"/>
<stop offset="1" stop-color="#D9D9D9" stop-opacity="0"/>
</linearGradient>
<linearGradient id="paint17_linear_380_12027" x1="78.7593" y1="85.9732" x2="78.7593" y2="214.163" gradientUnits="userSpaceOnUse">
<stop/>
<stop offset="0.583333" stop-opacity="0.15"/>
<stop offset="0.807292" stop-opacity="0.1"/>
<stop offset="1" stop-opacity="0"/>
</linearGradient>
<linearGradient id="paint18_linear_380_12027" x1="53.5505" y1="62.9049" x2="53.5505" y2="213.871" gradientUnits="userSpaceOnUse">
<stop stop-color="#D9D9D9"/>
<stop offset="1" stop-color="#D9D9D9" stop-opacity="0"/>
</linearGradient>
<linearGradient id="paint19_linear_380_12027" x1="53.5505" y1="62.9049" x2="53.5505" y2="213.871" gradientUnits="userSpaceOnUse">
<stop/>
<stop offset="1" stop-opacity="0"/>
</linearGradient>
<linearGradient id="paint20_linear_380_12027" x1="98.8812" y1="62.3209" x2="98.8812" y2="213.287" gradientUnits="userSpaceOnUse">
<stop stop-color="#D9D9D9"/>
<stop offset="1" stop-color="#D9D9D9" stop-opacity="0"/>
</linearGradient>
<linearGradient id="paint21_linear_380_12027" x1="98.8812" y1="62.3209" x2="98.8812" y2="213.287" gradientUnits="userSpaceOnUse">
<stop/>
<stop offset="1" stop-opacity="0"/>
</linearGradient>
<linearGradient id="paint22_linear_380_12027" x1="34.0097" y1="67.9247" x2="34.0097" y2="212.694" gradientUnits="userSpaceOnUse">
<stop stop-color="#D9D9D9"/>
<stop offset="1" stop-color="#D9D9D9" stop-opacity="0"/>
</linearGradient>
<linearGradient id="paint23_linear_380_12027" x1="34.0097" y1="67.9247" x2="34.0097" y2="212.694" gradientUnits="userSpaceOnUse">
<stop stop-color="#1A4159" stop-opacity="0.74"/>
<stop offset="0.208333" stop-color="#153346" stop-opacity="0.3"/>
<stop offset="0.322917" stop-color="#122C3C" stop-opacity="0.2"/>
<stop offset="0.776042" stop-color="#060F14" stop-opacity="0.1"/>
<stop offset="1" stop-opacity="0"/>
</linearGradient>
<linearGradient id="paint24_linear_380_12027" x1="43.7245" y1="78.2654" x2="43.7245" y2="223.034" gradientUnits="userSpaceOnUse">
<stop stop-color="#668995"/>
<stop offset="1" stop-color="#D9D9D9" stop-opacity="0"/>
</linearGradient>
<linearGradient id="paint25_linear_380_12027" x1="43.7245" y1="78.2654" x2="43.7245" y2="223.034" gradientUnits="userSpaceOnUse">
<stop stop-color="#1A4159" stop-opacity="0.74"/>
<stop offset="0.208333" stop-color="#153346" stop-opacity="0.3"/>
<stop offset="0.322917" stop-color="#122C3C" stop-opacity="0.2"/>
<stop offset="0.776042" stop-color="#060F14" stop-opacity="0.1"/>
<stop offset="1" stop-opacity="0"/>
</linearGradient>
<linearGradient id="paint26_linear_380_12027" x1="62.2265" y1="80.0902" x2="62.2265" y2="224.859" gradientUnits="userSpaceOnUse">
<stop stop-color="#D9D9D9"/>
<stop offset="1" stop-color="#D9D9D9" stop-opacity="0"/>
</linearGradient>
<linearGradient id="paint27_linear_380_12027" x1="62.2265" y1="80.0902" x2="62.2265" y2="224.859" gradientUnits="userSpaceOnUse">
<stop stop-color="#1A4159" stop-opacity="0.74"/>
<stop offset="0.208333" stop-color="#153346" stop-opacity="0.3"/>
<stop offset="0.322917" stop-color="#122C3C" stop-opacity="0.2"/>
<stop offset="0.776042" stop-color="#060F14" stop-opacity="0.1"/>
<stop offset="1" stop-opacity="0"/>
</linearGradient>
<linearGradient id="paint28_linear_380_12027" x1="136.457" y1="42.896" x2="136.457" y2="189.628" gradientUnits="userSpaceOnUse">
<stop stop-color="#D9D9D9"/>
<stop offset="1" stop-color="#D9D9D9" stop-opacity="0"/>
</linearGradient>
<linearGradient id="paint29_linear_380_12027" x1="136.457" y1="42.896" x2="136.457" y2="189.628" gradientUnits="userSpaceOnUse">
<stop stop-color="#0D2535" stop-opacity="0.42"/>
<stop offset="0.302083" stop-color="#091A25" stop-opacity="0.19"/>
<stop offset="0.682292" stop-color="#040C11" stop-opacity="0.1"/>
<stop offset="1" stop-opacity="0"/>
</linearGradient>
<linearGradient id="paint30_linear_380_12027" x1="109.396" y1="53.0686" x2="116.374" y2="205.518" gradientUnits="userSpaceOnUse">
<stop stop-color="#668995"/>
<stop offset="1" stop-color="#D9D9D9" stop-opacity="0"/>
</linearGradient>
<linearGradient id="paint31_linear_380_12027" x1="113.328" y1="58.9255" x2="113.328" y2="205.657" gradientUnits="userSpaceOnUse">
<stop stop-color="#0D2535" stop-opacity="0.42"/>
<stop offset="0.302083" stop-color="#091A25" stop-opacity="0.19"/>
<stop offset="0.682292" stop-color="#040C11" stop-opacity="0.1"/>
<stop offset="1" stop-opacity="0"/>
</linearGradient>
<linearGradient id="paint32_linear_380_12027" x1="104.771" y1="94.0672" x2="104.771" y2="214.289" gradientUnits="userSpaceOnUse">
<stop stop-color="#285D7D"/>
<stop offset="0.395833" stop-color="#47849B" stop-opacity="0.3"/>
<stop offset="1" stop-color="#77C0C9" stop-opacity="0.1"/>
</linearGradient>
<linearGradient id="paint33_linear_380_12027" x1="104.771" y1="94.0672" x2="104.771" y2="214.289" gradientUnits="userSpaceOnUse">
<stop stop-color="#0D2535" stop-opacity="0.42"/>
<stop offset="0.302083" stop-color="#091A25" stop-opacity="0.19"/>
<stop offset="0.682292" stop-color="#040C11" stop-opacity="0.1"/>
<stop offset="1" stop-opacity="0"/>
</linearGradient>
</defs>
</svg>
