<svg width="133" height="23" viewBox="0 0 133 23" fill="none" xmlns="http://www.w3.org/2000/svg">
<g clip-path="url(#clip0_534_27430)">
<path d="M128.965 18.991V17.9998H129.764C130.105 17.9998 130.462 18.069 130.462 18.4965C130.462 18.924 130.105 18.991 129.764 18.991H128.965ZM130.831 18.454C130.803 17.8635 130.327 17.7571 129.842 17.7571H128.623V20.5472H128.965V19.2611H129.592L130.39 20.5472H130.798L129.955 19.2568C130.486 19.235 130.858 19.0488 130.831 18.454ZM129.553 21.3254C128.361 21.3254 127.457 20.3202 127.457 19.1568C127.457 17.9906 128.362 16.9847 129.553 16.9847C130.743 16.9847 131.649 17.9906 131.649 19.1568C131.649 20.32 130.743 21.3254 129.553 21.3254ZM129.553 16.6553C128.173 16.6553 127.055 17.7741 127.055 19.1569C127.055 20.5369 128.173 21.655 129.553 21.655C129.881 21.655 130.206 21.5905 130.509 21.4649C130.812 21.3394 131.087 21.1554 131.319 20.9234C131.551 20.6915 131.735 20.4161 131.861 20.113C131.986 19.8099 132.051 19.485 132.051 19.1569C132.051 17.7743 130.934 16.6553 129.553 16.6553Z" fill="white"/>
<path d="M50.9619 9.95384C51.4661 16.3996 46.1775 22.0822 39.7725 22.2798C33.003 22.4893 28.1044 16.579 29.4414 9.95384H50.9617M50.2899 7.00718C48.7087 2.94296 44.7924 0.510461 40.5012 0.622614C36.2641 0.731876 32.3987 3.26533 30.4776 7.00718H50.2899Z" fill="#E71933"/>
<path d="M7.75326 9.95401H19.3205C20.1196 9.95401 20.8136 9.30494 20.8876 8.50777C20.9638 7.67611 20.3375 7.00716 19.5025 7.00716H5.65737L7.41547 1.88824C7.5664 1.45155 7.98815 1.14038 8.4543 1.14038H20.643C24.7932 1.14038 27.9097 4.55625 27.5253 8.69108C27.1587 12.6509 23.7093 15.798 19.7374 15.7993L12.1229 15.8022C11.4148 15.8029 10.8048 16.2481 10.5883 16.878L9.20535 20.9058C9.05514 21.3432 8.63484 21.6549 8.16941 21.6549H2.5564C1.56271 21.6549 0.949232 20.7096 1.26861 19.7797L3.62123 12.9332C4.22135 11.185 5.89135 9.95401 7.75326 9.95401ZM115.096 21.6549L113.798 16.7991C113.634 16.1854 113.118 15.8017 112.49 15.8017L110.691 15.8024C109.983 15.8031 109.373 16.2483 109.157 16.8782L107.774 20.9058C107.623 21.3432 107.203 21.6549 106.738 21.6549H101.125C100.131 21.6549 99.5175 20.7096 99.8376 19.7797L102.189 12.9332C102.79 11.185 104.46 9.95401 106.322 9.95401H117.889C118.688 9.95401 119.382 9.30494 119.456 8.50777C119.533 7.67611 118.906 7.00716 118.071 7.00716H104.226L105.984 1.88824C106.135 1.45155 106.556 1.14038 107.023 1.14038H119.212C123.361 1.14038 126.478 4.55625 126.094 8.69108C125.835 11.4841 124.043 13.8714 121.617 15.0375L123.389 21.6549H115.096ZM64.187 7.00735L65.7541 2.44576C65.9761 1.79957 65.5425 1.14056 64.8506 1.14056H58.6953C58.2299 1.14056 57.8074 1.45173 57.6572 1.88843L55.8984 7.00735H64.187ZM69.3042 21.6549H52.7974C51.8037 21.6549 51.1909 20.7096 51.5103 19.7797L54.8855 9.95401H63.1741L62.0176 13.3206C61.698 14.2503 62.3251 15.1957 63.3173 15.1957H70.3499C71.3443 15.1957 71.9777 16.139 71.6588 17.0673L70.3393 20.9058C70.189 21.3432 69.7695 21.6549 69.304 21.6549M88.3675 1.53355L83.8067 7.00735H96.0912L95.6313 1.99931C95.5848 1.4949 95.1715 1.14074 94.6673 1.14074H89.2059C88.88 1.14074 88.574 1.2854 88.3673 1.53373M90.0268 21.6549H96.2371C96.8612 21.6549 97.3839 21.0864 97.3274 20.4599L96.3618 9.95401H81.3515L73.5854 19.2753C72.7984 20.2206 73.349 21.6549 74.6116 21.6549H79.5447C79.8705 21.6549 80.1787 21.494 80.3838 21.2457L84.4608 16.3546C84.7578 15.9976 85.2019 15.8009 85.6688 15.8009H87.3346C88.0582 15.8009 88.6527 16.3025 88.7197 17.0292L89.0646 20.7781C89.0848 21.0186 89.1952 21.2427 89.3736 21.4053C89.5519 21.5678 89.7851 21.657 90.0265 21.6549" fill="white"/>
</g>
<defs>
<clipPath id="clip0_534_27430">
<rect width="133" height="21.9788" fill="white" transform="translate(0 0.510498)"/>
</clipPath>
</defs>
</svg>
