<svg width="119" height="37" viewBox="0 0 119 37" fill="none" xmlns="http://www.w3.org/2000/svg">
<g id="suunto-2 1" clip-path="url(#clip0_534_27434)">
<path id="Vector" d="M59.8462 0.830566L53.5352 9.59904H66.2228L59.8462 0.830566Z" fill="#ED1A3A"/>
<path id="Vector_2" d="M9.83001 16.8125C13.9688 16.8125 16.5976 18.2389 17.5063 18.8831L15.2029 21.6522C14.396 21.0057 12.6171 20.0449 9.70117 20.0449C6.61125 20.0449 5.50593 21.0848 5.50593 22.0772C5.50593 23.2277 6.1953 23.7409 10.7523 24.3784C16.6135 25.2011 18.5755 27.3283 18.5755 30.0341C18.5755 34.1188 14.3757 36.169 9.45716 36.169C5.38392 36.169 2.39327 34.8445 0.75 33.1469L3.46693 30.866C4.31457 31.6933 6.39651 32.9411 9.46608 32.9411C12.5154 32.9411 14.6583 31.8877 14.6583 30.4908C14.6583 29.1164 13.3653 28.7434 8.93705 28.0562C3.81957 27.256 1.6067 25.208 1.6067 22.4795C1.6067 19.6132 4.21069 16.8125 9.83001 16.8125ZM91.2789 35.7012H87.3706L87.3662 20.7728H81.1501V17.3686H97.4973V20.7706L91.2767 20.7728L91.2789 35.7012ZM78.4874 35.7012H75.065L65.6912 23.4176L65.6957 35.7012H62.0769L62.0746 17.3686H65.6731L74.8617 29.2114V17.3686H78.4829L78.4874 35.7012ZM50.0696 32.8032C53.1211 32.8032 54.283 31.0332 54.283 28.6597V17.3662H58.1913V28.7817C58.1913 34.3132 53.736 36.1668 50.0696 36.1668C46.2247 36.1668 41.8486 34.3132 41.8486 28.7817V17.3664H45.7569L45.7545 28.6599C45.7545 30.9928 47.0181 32.8032 50.0696 32.8032ZM29.7893 32.8032C32.8387 32.8032 34.0049 31.0332 34.0049 28.6597L34.0027 17.3662H37.911L37.9065 28.7817C37.9065 34.3132 33.4579 36.1668 29.7893 36.1668C25.942 36.1668 21.5705 34.3132 21.5705 28.7817L21.566 17.3662H25.4743V28.6597C25.4743 30.9926 26.7378 32.8032 29.7893 32.8032ZM101.984 26.4896C101.984 30.6218 104.642 32.984 108.094 32.984C111.546 32.984 114.202 30.6218 114.202 26.4897C114.202 22.3575 111.546 19.9953 108.094 19.9953C104.642 19.9953 101.984 22.3575 101.984 26.4896ZM97.9358 26.4896C97.9358 20.6643 102.484 16.8125 108.094 16.8125C113.702 16.8125 118.25 20.6645 118.25 26.4897C118.25 32.1363 113.702 36.169 108.094 36.169C102.484 36.169 97.9358 32.3218 97.9358 26.4897" fill="white"/>
</g>
<defs>
<clipPath id="clip0_534_27434">
<rect width="117.5" height="35.3455" fill="white" transform="translate(0.75 0.827148)"/>
</clipPath>
</defs>
</svg>
