<svg width="311" height="209" viewBox="0 0 311 209" fill="none" xmlns="http://www.w3.org/2000/svg">
<g filter="url(#filter0_d_380_11972)">
<path d="M304.603 60.3819L211.032 1.78238C209.581 0.873647 207.733 0.897063 206.305 1.84227L9.7016 132.015C7.04205 133.776 7.10751 137.702 9.82429 139.373L100.804 195.341C103.32 196.888 106.502 196.847 108.977 195.235L304.669 67.7392C307.34 65.9986 307.305 62.0743 304.603 60.3819Z" fill="#D6D9E1"/>
</g>
<g filter="url(#filter1_d_380_11972)">
<g clip-path="url(#clip0_380_11972)">
<rect width="1.52343" height="1.99433" rx="0.761716" transform="matrix(-0.819152 0.573576 0.573576 0.819152 65.5996 122.777)" fill="#5AC5F2"/>
</g>
<path d="M61.8227 126.639L60.5967 125.753L60.3987 125.892L61.8755 126.914L62.0167 126.815L61.8227 126.639ZM61.3832 125.202L61.8 126.655L61.8964 126.899L62.0376 126.8L61.5813 125.064L61.3832 125.202ZM59.8598 126.451L61.197 127.389L61.3837 127.258L59.8917 126.247L59.7713 126.331L59.8598 126.451ZM60.3574 127.977L59.9346 126.399L59.8519 126.274L59.7315 126.359L60.1698 128.108L60.3574 127.977ZM60.0235 127.449L60.1283 127.599L60.9035 127.056L60.7986 126.907L60.0235 127.449ZM59.0441 128.675L59.1483 128.823L59.8381 128.34L59.734 128.192L59.0441 128.675ZM58.836 126.986L59.8021 128.366L59.985 128.237L59.0189 126.858L58.836 126.986ZM57.2345 128.107L57.0526 128.235L57.7062 129.168C57.7787 129.272 57.8622 129.342 57.9565 129.378C58.0508 129.415 58.1484 129.424 58.2491 129.405C58.3488 129.386 58.4432 129.345 58.5323 129.283C58.6258 129.217 58.6985 129.141 58.7504 129.054C58.8013 128.967 58.8247 128.873 58.8207 128.773C58.8161 128.674 58.7775 128.572 58.705 128.469L58.0514 127.535L57.8704 127.662L58.524 128.595C58.5744 128.667 58.6027 128.736 58.6089 128.801C58.6151 128.867 58.6025 128.927 58.571 128.983C58.5389 129.04 58.4913 129.09 58.4281 129.134C58.3643 129.179 58.3008 129.206 58.2375 129.217C58.1735 129.228 58.1119 129.219 58.0527 129.191C57.9934 129.163 57.9385 129.113 57.8881 129.041L57.2345 128.107ZM56.7508 130.28L56.855 130.429L57.5856 129.918L57.4815 129.769L56.7508 130.28ZM56.5826 128.564L57.5487 129.943L57.7316 129.815L56.7655 128.436L56.5826 128.564ZM56.4009 129.575L56.5051 129.724L57.1391 129.28L57.0349 129.131L56.4009 129.575ZM55.8984 129.043L56.0032 129.192L56.7244 128.688L56.6195 128.538L55.8984 129.043ZM55.8796 130.427L55.8741 130.419C55.7938 130.305 55.7082 130.21 55.6176 130.135C55.5265 130.06 55.4365 130.002 55.3474 129.96C55.2584 129.918 55.1757 129.889 55.0994 129.874C55.0228 129.859 54.9586 129.854 54.9068 129.86L54.9435 129.978C54.9911 129.98 55.0456 129.99 55.1068 130.009C55.1675 130.029 55.2325 130.059 55.3017 130.101C55.3704 130.143 55.441 130.198 55.5133 130.267C55.5857 130.336 55.6569 130.42 55.7269 130.52L55.7347 130.531C55.8047 130.631 55.8598 130.727 55.8998 130.819C55.9395 130.911 55.9676 130.996 55.9841 131.075C56 131.155 56.0071 131.228 56.0053 131.292C56.0034 131.358 55.9958 131.414 55.9825 131.461L56.0752 131.528C56.0982 131.482 56.1156 131.42 56.1274 131.342C56.1395 131.266 56.1411 131.178 56.1321 131.08C56.1234 130.983 56.0994 130.878 56.0599 130.767C56.0205 130.656 55.9604 130.542 55.8796 130.427ZM54.4689 131.107L54.5917 131.282C54.6576 131.376 54.7217 131.45 54.7839 131.503C54.8461 131.556 54.9068 131.591 54.966 131.608C55.0253 131.626 55.0835 131.628 55.1408 131.614C55.1972 131.601 55.2533 131.574 55.3091 131.535C55.3533 131.504 55.3903 131.47 55.4199 131.433C55.4495 131.396 55.4709 131.354 55.4839 131.309C55.4961 131.264 55.4989 131.214 55.4923 131.16C55.4857 131.106 55.4682 131.046 55.4398 130.982C55.4114 130.918 55.3709 130.849 55.3182 130.773L55.1954 130.598C55.1294 130.504 55.0657 130.431 55.0043 130.379C54.9423 130.327 54.882 130.293 54.8235 130.277C54.7647 130.26 54.7072 130.259 54.6512 130.273C54.5947 130.287 54.5388 130.314 54.4835 130.353C54.4387 130.384 54.4015 130.418 54.3719 130.455C54.3414 130.493 54.3197 130.533 54.3068 130.578C54.2935 130.621 54.2902 130.67 54.297 130.723C54.3028 130.776 54.3198 130.835 54.3478 130.898C54.3758 130.962 54.4162 131.031 54.4689 131.107ZM54.7551 131.203L54.5986 130.979C54.5625 130.928 54.534 130.88 54.513 130.837C54.4912 130.793 54.4762 130.754 54.4683 130.718C54.4603 130.682 54.4592 130.649 54.465 130.619C54.4702 130.589 54.4816 130.562 54.4992 130.538C54.516 130.514 54.5385 130.492 54.567 130.472C54.6017 130.448 54.6371 130.433 54.6732 130.427C54.7089 130.421 54.7457 130.425 54.7837 130.44C54.8211 130.456 54.8604 130.483 54.9016 130.521C54.9428 130.56 54.986 130.612 55.0314 130.676L55.1879 130.9C55.224 130.951 55.253 130.999 55.2748 131.042C55.2962 131.086 55.3109 131.127 55.3191 131.164C55.3269 131.201 55.3285 131.235 55.3241 131.266C55.3196 131.296 55.3092 131.324 55.2928 131.349C55.2755 131.373 55.253 131.396 55.2251 131.415C55.1893 131.44 55.1531 131.455 55.1167 131.46C55.0803 131.465 55.043 131.46 55.0048 131.443C54.9657 131.427 54.9257 131.399 54.8847 131.359C54.8433 131.319 54.8001 131.267 54.7551 131.203ZM53.458 131.085L54.2675 132.241L54.4136 132.139L53.7318 131.165L54.1016 131.066L54.0092 130.934L53.4809 131.069L53.458 131.085ZM53.1584 132.321L53.1639 132.329C53.2446 132.444 53.3305 132.539 53.4216 132.614C53.5126 132.69 53.6025 132.748 53.6911 132.789C53.7802 132.831 53.8628 132.86 53.9391 132.875C54.0158 132.89 54.08 132.895 54.1318 132.889L54.1006 132.779C54.053 132.777 53.9984 132.766 53.937 132.745C53.8759 132.725 53.8102 132.694 53.7398 132.65C53.6699 132.608 53.5985 132.552 53.5258 132.483C53.4527 132.413 53.3811 132.328 53.3111 132.228L53.3034 132.217C53.2333 132.117 53.1788 132.021 53.1398 131.928C53.1004 131.835 53.073 131.747 53.0578 131.666C53.0421 131.586 53.0352 131.513 53.0373 131.449C53.0385 131.384 53.045 131.331 53.0567 131.288L52.9634 131.221C52.9404 131.267 52.923 131.329 52.9112 131.407C52.899 131.483 52.8975 131.571 52.9065 131.669C52.9155 131.767 52.9398 131.871 52.9792 131.983C53.0183 132.093 53.078 132.206 53.1584 132.321Z" fill="black" fill-opacity="0.38"/>
<rect width="209.147" height="0.249291" transform="matrix(-0.819152 0.573576 0.573576 0.819152 252.314 51.6872)" fill="#E3E3E3"/>
<rect width="209.147" height="0.249291" transform="matrix(-0.819152 0.573576 0.573576 0.819152 246.023 42.7021)" fill="#E3E3E3"/>
<rect width="209.147" height="0.249291" transform="matrix(-0.819152 0.573576 0.573576 0.819152 239.588 33.5127)" fill="#E3E3E3"/>
<rect width="209.147" height="0.249291" transform="matrix(-0.819152 0.573576 0.573576 0.819152 233.154 24.3234)" fill="#E3E3E3"/>
<rect width="209.147" height="0.249291" transform="matrix(-0.819152 0.573576 0.573576 0.819152 226.861 15.3382)" fill="#E3E3E3"/>
<path d="M193.728 94.6051L194.7 95.9924L194.875 95.8696L194.057 94.7012L194.501 94.5826L194.39 94.4243L193.756 94.5858L193.728 94.6051ZM192.927 96.5419L193.027 96.686L194.024 95.9879L193.952 95.8846L192.665 95.3611L192.522 95.4613L192.869 95.6305L193.725 95.9832L192.927 96.5419ZM192.478 95.4918L193.444 96.8716L193.619 96.7488L192.653 95.3691L192.478 95.4918ZM193.016 97.0328C192.995 97.0031 192.969 96.9846 192.936 96.9772C192.903 96.9696 192.868 96.9782 192.833 97.003C192.797 97.0278 192.778 97.057 192.774 97.0907C192.769 97.1242 192.777 97.1558 192.798 97.1854C192.819 97.2145 192.845 97.2325 192.878 97.2395C192.911 97.2468 192.945 97.2382 192.98 97.2134C193.016 97.1886 193.036 97.1595 193.04 97.126C193.045 97.0929 193.036 97.0619 193.016 97.0328ZM192.429 96.1967C192.409 96.1671 192.382 96.1485 192.349 96.1411C192.316 96.1335 192.281 96.1421 192.246 96.1669C192.211 96.1917 192.191 96.2209 192.187 96.2546C192.183 96.2881 192.191 96.3197 192.211 96.3494C192.232 96.3784 192.258 96.3964 192.292 96.4034C192.324 96.4108 192.358 96.4021 192.393 96.3773C192.429 96.3525 192.449 96.3234 192.454 96.2899C192.458 96.2569 192.45 96.2258 192.429 96.1967ZM191.196 97.2535L191.344 97.4639C191.423 97.577 191.5 97.6653 191.574 97.7289C191.649 97.7924 191.722 97.8346 191.793 97.8554C191.864 97.8763 191.934 97.8786 192.003 97.8625C192.07 97.8462 192.138 97.8146 192.205 97.7677C192.258 97.7306 192.302 97.6896 192.338 97.645C192.373 97.6003 192.399 97.5508 192.414 97.4965C192.429 97.4421 192.432 97.3823 192.424 97.3172C192.417 97.2522 192.396 97.1812 192.361 97.1043C192.327 97.0274 192.279 96.9438 192.215 96.8534L192.068 96.6431C191.989 96.53 191.913 96.4423 191.839 96.38C191.764 96.3182 191.692 96.2775 191.622 96.2579C191.551 96.2377 191.482 96.236 191.415 96.253C191.347 96.2704 191.28 96.3023 191.214 96.3487C191.16 96.3863 191.116 96.4275 191.08 96.4721C191.043 96.5166 191.017 96.5655 191.002 96.6187C190.986 96.6712 190.982 96.7295 190.99 96.7935C190.997 96.8573 191.017 96.9274 191.051 97.0036C191.085 97.0799 191.133 97.1632 191.196 97.2535ZM191.54 97.3689L191.352 97.1007C191.309 97.0388 191.274 96.9818 191.249 96.9298C191.223 96.8775 191.205 96.8298 191.196 96.7866C191.186 96.7434 191.185 96.7038 191.192 96.6679C191.198 96.6325 191.212 96.6003 191.233 96.5714C191.253 96.5422 191.28 96.5157 191.314 96.4918C191.356 96.4626 191.398 96.4447 191.442 96.4379C191.484 96.4305 191.529 96.4358 191.574 96.4538C191.619 96.4722 191.666 96.5046 191.716 96.551C191.765 96.5974 191.817 96.6594 191.871 96.7371L192.059 97.0053C192.102 97.0672 192.137 97.1243 192.164 97.1765C192.189 97.2292 192.207 97.278 192.217 97.3229C192.226 97.3672 192.228 97.4077 192.223 97.4444C192.217 97.4812 192.205 97.5144 192.185 97.5442C192.164 97.5737 192.137 97.6002 192.104 97.6237C192.061 97.6538 192.017 97.6719 191.974 97.678C191.93 97.6841 191.885 97.6773 191.839 97.6576C191.793 97.6377 191.745 97.6041 191.695 97.5566C191.646 97.5086 191.594 97.446 191.54 97.3689ZM190.105 98.0179L190.252 98.2283C190.331 98.3414 190.408 98.4297 190.483 98.4932C190.557 98.5568 190.63 98.599 190.701 98.6198C190.772 98.6407 190.842 98.643 190.911 98.6269C190.979 98.6106 191.046 98.579 191.113 98.5321C191.166 98.495 191.21 98.454 191.246 98.4094C191.281 98.3647 191.307 98.3152 191.323 98.2609C191.337 98.2065 191.341 98.1467 191.333 98.0816C191.325 98.0166 191.304 97.9456 191.27 97.8687C191.236 97.7918 191.187 97.7082 191.124 97.6178L190.977 97.4075C190.897 97.2944 190.821 97.2067 190.747 97.1444C190.673 97.0826 190.6 97.0419 190.53 97.0223C190.46 97.0021 190.391 97.0004 190.323 97.0174C190.256 97.0348 190.189 97.0667 190.122 97.1131C190.068 97.1507 190.024 97.1919 189.988 97.2365C189.952 97.281 189.926 97.3299 189.91 97.3831C189.894 97.4356 189.89 97.4939 189.898 97.5579C189.905 97.6217 189.926 97.6918 189.959 97.768C189.993 97.8443 190.041 97.9276 190.105 98.0179ZM190.448 98.1333L190.26 97.8651C190.217 97.8032 190.183 97.7462 190.158 97.6942C190.131 97.6419 190.114 97.5942 190.104 97.551C190.094 97.5078 190.093 97.4682 190.1 97.4323C190.106 97.3969 190.12 97.3647 190.141 97.3357C190.161 97.3066 190.188 97.2801 190.222 97.2562C190.264 97.227 190.307 97.209 190.35 97.2023C190.393 97.1949 190.437 97.2002 190.482 97.2182C190.527 97.2366 190.575 97.269 190.624 97.3154C190.673 97.3618 190.725 97.4238 190.78 97.5015L190.967 97.7697C191.011 97.8316 191.046 97.8887 191.072 97.9409C191.097 97.9936 191.115 98.0424 191.125 98.0873C191.134 98.1316 191.136 98.1721 191.131 98.2088C191.126 98.2455 191.113 98.2788 191.093 98.3085C191.073 98.3381 191.046 98.3646 191.012 98.3881C190.969 98.4182 190.926 98.4363 190.882 98.4424C190.838 98.4485 190.794 98.4417 190.748 98.422C190.701 98.4021 190.653 98.3685 190.604 98.321C190.554 98.273 190.502 98.2104 190.448 98.1333Z" fill="#181819" fill-opacity="0.42"/>
<path d="M167.705 112.827L168.676 114.214L168.852 114.092L168.033 112.923L168.477 112.805L168.366 112.646L167.732 112.808L167.705 112.827ZM167.479 114.074L167.594 113.94L167.044 113.301L166.336 113.797L166.45 113.959L167.009 113.567L167.313 113.913C167.278 113.917 167.236 113.925 167.189 113.94C167.141 113.954 167.092 113.98 167.041 114.015C166.977 114.06 166.928 114.111 166.893 114.168C166.857 114.225 166.836 114.286 166.829 114.351C166.821 114.417 166.828 114.485 166.849 114.555C166.87 114.625 166.904 114.695 166.954 114.765C167 114.832 167.052 114.886 167.109 114.929C167.166 114.972 167.227 115.002 167.292 115.019C167.357 115.034 167.424 115.034 167.495 115.019C167.566 115.003 167.638 114.97 167.712 114.918C167.767 114.879 167.815 114.835 167.854 114.785C167.892 114.734 167.92 114.68 167.937 114.621C167.953 114.561 167.957 114.5 167.948 114.435C167.938 114.37 167.914 114.303 167.875 114.234L167.709 114.351C167.737 114.408 167.753 114.462 167.755 114.514C167.757 114.565 167.746 114.613 167.722 114.657C167.697 114.7 167.66 114.74 167.611 114.774C167.569 114.803 167.527 114.822 167.485 114.83C167.442 114.838 167.4 114.836 167.359 114.824C167.318 114.813 167.278 114.792 167.24 114.761C167.201 114.731 167.165 114.692 167.131 114.644C167.101 114.6 167.078 114.556 167.064 114.51C167.05 114.464 167.045 114.419 167.05 114.375C167.054 114.33 167.068 114.289 167.091 114.25C167.114 114.21 167.148 114.175 167.192 114.144C167.251 114.103 167.301 114.079 167.342 114.074C167.383 114.069 167.429 114.069 167.479 114.074ZM166.993 115.255C166.972 115.225 166.945 115.207 166.913 115.199C166.879 115.192 166.845 115.2 166.809 115.225C166.774 115.25 166.754 115.279 166.751 115.313C166.746 115.346 166.754 115.378 166.775 115.407C166.795 115.437 166.822 115.455 166.855 115.462C166.887 115.469 166.921 115.46 166.957 115.435C166.992 115.411 167.012 115.382 167.017 115.348C167.021 115.315 167.013 115.284 166.993 115.255ZM166.406 114.419C166.385 114.389 166.358 114.371 166.326 114.363C166.292 114.356 166.258 114.364 166.223 114.389C166.187 114.414 166.168 114.443 166.164 114.477C166.159 114.51 166.167 114.542 166.188 114.571C166.208 114.6 166.235 114.618 166.268 114.625C166.301 114.633 166.334 114.624 166.37 114.599C166.405 114.575 166.425 114.545 166.43 114.512C166.434 114.479 166.426 114.448 166.406 114.419ZM165.173 115.476L165.32 115.686C165.399 115.799 165.476 115.887 165.551 115.951C165.626 116.014 165.698 116.057 165.77 116.077C165.841 116.098 165.91 116.101 165.979 116.085C166.047 116.068 166.114 116.037 166.181 115.99C166.234 115.953 166.279 115.912 166.314 115.867C166.35 115.822 166.375 115.773 166.391 115.719C166.406 115.664 166.409 115.604 166.401 115.539C166.393 115.474 166.372 115.403 166.338 115.326C166.304 115.249 166.255 115.166 166.192 115.075L166.045 114.865C165.966 114.752 165.889 114.664 165.815 114.602C165.741 114.54 165.669 114.5 165.599 114.48C165.528 114.46 165.459 114.458 165.392 114.475C165.324 114.492 165.257 114.524 165.19 114.571C165.137 114.608 165.092 114.65 165.057 114.694C165.02 114.739 164.994 114.788 164.978 114.841C164.962 114.893 164.959 114.952 164.967 115.016C164.974 115.079 164.994 115.149 165.028 115.226C165.061 115.302 165.11 115.385 165.173 115.476ZM165.516 115.591L165.329 115.323C165.285 115.261 165.251 115.204 165.226 115.152C165.2 115.1 165.182 115.052 165.172 115.009C165.163 114.965 165.161 114.926 165.168 114.89C165.174 114.855 165.188 114.822 165.209 114.793C165.229 114.764 165.257 114.738 165.291 114.714C165.332 114.685 165.375 114.667 165.418 114.66C165.461 114.653 165.505 114.658 165.551 114.676C165.596 114.694 165.643 114.727 165.692 114.773C165.742 114.819 165.794 114.881 165.848 114.959L166.036 115.227C166.079 115.289 166.114 115.346 166.14 115.399C166.166 115.451 166.183 115.5 166.193 115.545C166.203 115.589 166.205 115.63 166.199 115.666C166.194 115.703 166.181 115.736 166.162 115.766C166.141 115.796 166.114 115.822 166.08 115.846C166.037 115.876 165.994 115.894 165.95 115.9C165.907 115.906 165.862 115.899 165.816 115.88C165.769 115.86 165.721 115.826 165.672 115.779C165.622 115.731 165.57 115.668 165.516 115.591ZM164.081 116.24L164.229 116.45C164.308 116.563 164.385 116.652 164.459 116.715C164.534 116.779 164.607 116.821 164.678 116.842C164.749 116.863 164.819 116.865 164.888 116.849C164.955 116.833 165.023 116.801 165.09 116.754C165.143 116.717 165.187 116.676 165.222 116.631C165.258 116.587 165.284 116.537 165.299 116.483C165.314 116.429 165.317 116.369 165.309 116.304C165.301 116.239 165.28 116.168 165.246 116.091C165.212 116.014 165.164 115.93 165.1 115.84L164.953 115.63C164.874 115.516 164.797 115.429 164.724 115.366C164.649 115.305 164.577 115.264 164.507 115.244C164.436 115.224 164.367 115.222 164.3 115.239C164.232 115.257 164.165 115.289 164.099 115.335C164.045 115.373 164 115.414 163.965 115.459C163.928 115.503 163.902 115.552 163.887 115.605C163.871 115.658 163.867 115.716 163.875 115.78C163.882 115.844 163.902 115.914 163.936 115.99C163.97 116.066 164.018 116.15 164.081 116.24ZM164.425 116.355L164.237 116.087C164.194 116.025 164.159 115.968 164.134 115.916C164.108 115.864 164.09 115.816 164.081 115.773C164.071 115.73 164.07 115.69 164.077 115.654C164.083 115.619 164.096 115.587 164.118 115.558C164.138 115.529 164.165 115.502 164.199 115.478C164.241 115.449 164.283 115.431 164.326 115.424C164.369 115.417 164.413 115.422 164.459 115.44C164.504 115.459 164.551 115.491 164.601 115.537C164.65 115.584 164.702 115.646 164.756 115.724L164.944 115.992C164.987 116.054 165.022 116.111 165.048 116.163C165.074 116.216 165.092 116.264 165.101 116.309C165.111 116.354 165.113 116.394 165.107 116.431C165.102 116.468 165.09 116.501 165.07 116.531C165.049 116.56 165.022 116.587 164.989 116.61C164.946 116.64 164.902 116.658 164.859 116.664C164.815 116.671 164.77 116.664 164.724 116.644C164.677 116.624 164.629 116.591 164.58 116.543C164.531 116.495 164.479 116.432 164.425 116.355Z" fill="#181819" fill-opacity="0.42"/>
<path d="M141.439 131.218L142.411 132.605L142.586 132.482L141.768 131.314L142.212 131.195L142.101 131.037L141.467 131.199L141.439 131.218ZM140.255 132.056L140.24 132.066L140.344 132.215L140.359 132.204C140.452 132.139 140.54 132.1 140.624 132.087C140.707 132.072 140.785 132.078 140.857 132.103C140.929 132.127 140.995 132.165 141.055 132.216C141.114 132.267 141.167 132.325 141.212 132.39L141.354 132.592C141.397 132.654 141.428 132.713 141.446 132.771C141.464 132.828 141.472 132.881 141.469 132.931C141.467 132.981 141.455 133.025 141.435 133.064C141.415 133.103 141.387 133.134 141.352 133.159C141.312 133.187 141.27 133.205 141.228 133.211C141.185 133.218 141.144 133.215 141.103 133.202C141.061 133.189 141.02 133.167 140.982 133.137C140.944 133.106 140.908 133.068 140.876 133.021C140.847 132.98 140.825 132.937 140.808 132.892C140.792 132.847 140.783 132.802 140.783 132.758C140.783 132.713 140.792 132.671 140.812 132.631C140.831 132.592 140.861 132.557 140.904 132.527C140.953 132.493 141.007 132.473 141.066 132.468C141.124 132.462 141.18 132.469 141.234 132.488C141.287 132.508 141.332 132.538 141.367 132.581L141.459 132.515C141.401 132.45 141.342 132.401 141.283 132.368C141.223 132.335 141.164 132.315 141.106 132.309C141.046 132.302 140.989 132.307 140.934 132.324C140.878 132.341 140.825 132.367 140.774 132.402C140.706 132.45 140.655 132.505 140.623 132.566C140.592 132.627 140.575 132.69 140.573 132.756C140.571 132.822 140.581 132.887 140.604 132.952C140.626 133.017 140.657 133.078 140.697 133.134C140.742 133.199 140.794 133.254 140.852 133.298C140.91 133.342 140.973 133.373 141.04 133.39C141.106 133.408 141.174 133.41 141.244 133.397C141.313 133.384 141.383 133.353 141.454 133.304C141.528 133.251 141.583 133.191 141.617 133.121C141.651 133.051 141.668 132.978 141.669 132.901C141.67 132.824 141.657 132.748 141.632 132.673C141.607 132.598 141.571 132.528 141.526 132.463L141.468 132.381C141.4 132.284 141.324 132.195 141.239 132.115C141.154 132.035 141.061 131.974 140.959 131.932C140.858 131.891 140.748 131.877 140.631 131.893C140.514 131.908 140.388 131.962 140.255 132.056ZM140.727 133.646C140.706 133.616 140.68 133.597 140.647 133.59C140.614 133.582 140.579 133.591 140.544 133.616C140.508 133.641 140.489 133.67 140.485 133.703C140.48 133.737 140.488 133.769 140.509 133.798C140.529 133.827 140.556 133.845 140.589 133.852C140.622 133.86 140.656 133.851 140.691 133.826C140.726 133.801 140.747 133.772 140.751 133.739C140.756 133.706 140.747 133.675 140.727 133.646ZM140.14 132.809C140.119 132.78 140.093 132.761 140.06 132.754C140.027 132.746 139.992 132.755 139.957 132.78C139.922 132.804 139.902 132.834 139.898 132.867C139.893 132.901 139.901 132.932 139.922 132.962C139.943 132.991 139.969 133.009 140.002 133.016C140.035 133.024 140.069 133.015 140.104 132.99C140.14 132.965 140.16 132.936 140.165 132.903C140.169 132.87 140.161 132.839 140.14 132.809ZM138.907 133.866L139.055 134.077C139.134 134.19 139.211 134.278 139.285 134.342C139.36 134.405 139.433 134.447 139.504 134.468C139.575 134.489 139.645 134.491 139.714 134.475C139.781 134.459 139.849 134.427 139.916 134.38C139.969 134.343 140.013 134.302 140.049 134.258C140.084 134.213 140.11 134.164 140.125 134.109C140.14 134.055 140.143 133.995 140.135 133.93C140.127 133.865 140.106 133.794 140.072 133.717C140.038 133.64 139.99 133.557 139.926 133.466L139.779 133.256C139.7 133.143 139.623 133.055 139.55 132.993C139.475 132.931 139.403 132.89 139.333 132.871C139.262 132.85 139.193 132.849 139.126 132.866C139.058 132.883 138.991 132.915 138.925 132.961C138.871 132.999 138.826 133.04 138.791 133.085C138.754 133.129 138.728 133.178 138.713 133.231C138.697 133.284 138.693 133.342 138.701 133.406C138.708 133.47 138.728 133.54 138.762 133.616C138.796 133.693 138.844 133.776 138.907 133.866ZM139.251 133.982L139.063 133.713C139.02 133.652 138.985 133.595 138.96 133.543C138.934 133.49 138.916 133.443 138.907 133.399C138.897 133.356 138.896 133.317 138.903 133.281C138.909 133.245 138.923 133.213 138.944 133.184C138.964 133.155 138.991 133.128 139.025 133.105C139.067 133.075 139.109 133.057 139.152 133.051C139.195 133.043 139.239 133.049 139.285 133.067C139.33 133.085 139.377 133.117 139.427 133.164C139.476 133.21 139.528 133.272 139.582 133.35L139.77 133.618C139.813 133.68 139.848 133.737 139.874 133.789C139.9 133.842 139.918 133.891 139.928 133.936C139.937 133.98 139.939 134.02 139.934 134.057C139.928 134.094 139.916 134.127 139.896 134.157C139.875 134.186 139.848 134.213 139.815 134.236C139.772 134.267 139.728 134.285 139.685 134.291C139.641 134.297 139.596 134.29 139.55 134.27C139.503 134.25 139.455 134.217 139.406 134.169C139.357 134.121 139.305 134.059 139.251 133.982ZM137.816 134.631L137.963 134.841C138.042 134.954 138.119 135.042 138.194 135.106C138.268 135.17 138.341 135.212 138.412 135.233C138.483 135.253 138.553 135.256 138.622 135.24C138.69 135.223 138.757 135.192 138.824 135.145C138.877 135.108 138.921 135.067 138.957 135.022C138.992 134.977 139.018 134.928 139.034 134.874C139.048 134.819 139.052 134.759 139.044 134.694C139.036 134.629 139.015 134.558 138.981 134.481C138.947 134.405 138.898 134.321 138.835 134.231L138.687 134.02C138.608 133.907 138.532 133.819 138.458 133.757C138.384 133.695 138.311 133.655 138.241 133.635C138.171 133.615 138.102 133.613 138.034 133.63C137.967 133.648 137.899 133.679 137.833 133.726C137.779 133.763 137.735 133.805 137.699 133.849C137.663 133.894 137.637 133.943 137.621 133.996C137.605 134.048 137.601 134.107 137.609 134.171C137.616 134.234 137.637 134.305 137.67 134.381C137.704 134.457 137.752 134.54 137.816 134.631ZM138.159 134.746L137.971 134.478C137.928 134.416 137.894 134.359 137.869 134.307C137.842 134.255 137.824 134.207 137.815 134.164C137.805 134.121 137.804 134.081 137.811 134.045C137.817 134.01 137.831 133.977 137.852 133.948C137.872 133.919 137.899 133.893 137.933 133.869C137.975 133.84 138.018 133.822 138.061 133.815C138.104 133.808 138.148 133.813 138.193 133.831C138.238 133.849 138.285 133.882 138.335 133.928C138.384 133.975 138.436 134.037 138.491 134.114L138.678 134.382C138.722 134.444 138.757 134.501 138.783 134.554C138.808 134.606 138.826 134.655 138.836 134.7C138.845 134.744 138.847 134.785 138.842 134.822C138.836 134.858 138.824 134.892 138.804 134.921C138.784 134.951 138.757 134.977 138.723 135.001C138.68 135.031 138.637 135.049 138.593 135.055C138.549 135.061 138.505 135.054 138.459 135.035C138.412 135.015 138.364 134.981 138.315 134.934C138.265 134.886 138.213 134.823 138.159 134.746Z" fill="#181819" fill-opacity="0.42"/>
<path d="M115.176 149.609L116.147 150.996L116.322 150.873L115.504 149.705L115.948 149.586L115.837 149.428L115.203 149.589L115.176 149.609ZM113.774 150.602L113.843 150.7L115.311 151.581L115.496 151.452L114.06 150.616L114.807 150.093L114.706 149.949L113.774 150.602ZM114.463 152.036C114.443 152.007 114.416 151.988 114.384 151.981C114.35 151.973 114.315 151.982 114.28 152.007C114.245 152.031 114.225 152.061 114.221 152.094C114.217 152.128 114.225 152.159 114.245 152.189C114.266 152.218 114.293 152.236 114.326 152.243C114.358 152.25 114.392 152.242 114.427 152.217C114.463 152.192 114.483 152.163 114.488 152.13C114.492 152.097 114.484 152.065 114.463 152.036ZM113.877 151.2C113.856 151.171 113.829 151.152 113.797 151.145C113.763 151.137 113.729 151.146 113.693 151.17C113.658 151.195 113.638 151.224 113.635 151.258C113.63 151.292 113.638 151.323 113.659 151.353C113.679 151.382 113.706 151.4 113.739 151.407C113.771 151.414 113.805 151.406 113.841 151.381C113.876 151.356 113.896 151.327 113.901 151.293C113.905 151.26 113.897 151.229 113.877 151.2ZM112.644 152.257L112.791 152.467C112.87 152.581 112.947 152.669 113.022 152.732C113.096 152.796 113.169 152.838 113.24 152.859C113.311 152.88 113.381 152.882 113.45 152.866C113.518 152.85 113.585 152.818 113.652 152.771C113.705 152.734 113.749 152.693 113.785 152.649C113.82 152.604 113.846 152.554 113.862 152.5C113.876 152.446 113.88 152.386 113.872 152.321C113.864 152.256 113.843 152.185 113.809 152.108C113.775 152.031 113.726 151.947 113.663 151.857L113.515 151.647C113.436 151.534 113.36 151.446 113.286 151.384C113.212 151.322 113.139 151.281 113.069 151.261C112.999 151.241 112.93 151.24 112.862 151.257C112.795 151.274 112.727 151.306 112.661 151.352C112.607 151.39 112.563 151.431 112.527 151.476C112.491 151.52 112.465 151.569 112.449 151.622C112.433 151.675 112.429 151.733 112.437 151.797C112.444 151.861 112.465 151.931 112.498 152.007C112.532 152.083 112.58 152.167 112.644 152.257ZM112.987 152.372L112.799 152.104C112.756 152.042 112.722 151.985 112.697 151.933C112.67 151.881 112.652 151.833 112.643 151.79C112.633 151.747 112.632 151.707 112.639 151.672C112.645 151.636 112.659 151.604 112.68 151.575C112.7 151.546 112.727 151.519 112.761 151.495C112.803 151.466 112.846 151.448 112.889 151.441C112.932 151.434 112.976 151.439 113.021 151.457C113.066 151.476 113.113 151.508 113.163 151.555C113.212 151.601 113.264 151.663 113.319 151.741L113.506 152.009C113.55 152.071 113.585 152.128 113.611 152.18C113.636 152.233 113.654 152.282 113.664 152.327C113.673 152.371 113.675 152.411 113.67 152.448C113.664 152.485 113.652 152.518 113.632 152.548C113.612 152.577 113.585 152.604 113.551 152.627C113.508 152.657 113.465 152.675 113.421 152.682C113.377 152.688 113.333 152.681 113.287 152.661C113.24 152.641 113.192 152.608 113.143 152.56C113.093 152.512 113.041 152.45 112.987 152.372ZM111.552 153.021L111.699 153.232C111.778 153.345 111.855 153.433 111.93 153.497C112.005 153.56 112.077 153.603 112.149 153.623C112.22 153.644 112.29 153.647 112.358 153.63C112.426 153.614 112.493 153.583 112.56 153.536C112.613 153.499 112.658 153.458 112.693 153.413C112.729 153.368 112.754 153.319 112.77 153.265C112.785 153.21 112.788 153.15 112.78 153.085C112.772 153.02 112.751 152.949 112.717 152.872C112.683 152.795 112.634 152.712 112.571 152.621L112.424 152.411C112.345 152.298 112.268 152.21 112.194 152.148C112.12 152.086 112.048 152.045 111.978 152.026C111.907 152.006 111.838 152.004 111.771 152.021C111.703 152.038 111.636 152.07 111.569 152.117C111.516 152.154 111.471 152.195 111.436 152.24C111.399 152.285 111.373 152.333 111.357 152.387C111.341 152.439 111.338 152.497 111.346 152.562C111.353 152.625 111.373 152.695 111.407 152.772C111.44 152.848 111.489 152.931 111.552 153.021ZM111.895 153.137L111.708 152.869C111.664 152.807 111.63 152.75 111.605 152.698C111.579 152.645 111.561 152.598 111.551 152.555C111.542 152.511 111.54 152.472 111.547 152.436C111.553 152.4 111.567 152.368 111.588 152.339C111.608 152.31 111.636 152.284 111.67 152.26C111.711 152.231 111.754 152.213 111.797 152.206C111.84 152.198 111.884 152.204 111.93 152.222C111.975 152.24 112.022 152.273 112.071 152.319C112.121 152.365 112.173 152.427 112.227 152.505L112.415 152.773C112.458 152.835 112.493 152.892 112.519 152.945C112.545 152.997 112.562 153.046 112.572 153.091C112.582 153.135 112.584 153.176 112.578 153.212C112.573 153.249 112.56 153.282 112.541 153.312C112.52 153.342 112.493 153.368 112.459 153.392C112.416 153.422 112.373 153.44 112.329 153.446C112.286 153.452 112.241 153.445 112.195 153.426C112.148 153.406 112.1 153.372 112.051 153.325C112.001 153.277 111.949 153.214 111.895 153.137Z" fill="#181819" fill-opacity="0.42"/>
<path d="M88.9099 167.999L89.8814 169.387L90.0567 169.264L89.2385 168.095L89.6822 167.977L89.5714 167.819L88.9374 167.98L88.9099 167.999ZM88.2345 169.983C88.2933 170.067 88.3629 170.125 88.4432 170.156C88.5224 170.188 88.6058 170.195 88.6934 170.179C88.7803 170.163 88.8652 170.126 88.948 170.068C89.0307 170.011 89.0946 169.943 89.1397 169.866C89.1848 169.79 89.2063 169.709 89.2042 169.624C89.2016 169.538 89.1708 169.453 89.112 169.369C89.0735 169.314 89.0279 169.271 88.9752 169.24C88.9215 169.209 88.8634 169.19 88.8009 169.183C88.7379 169.176 88.6734 169.182 88.6075 169.201C88.5405 169.22 88.4748 169.252 88.4104 169.297C88.3257 169.356 88.2617 169.425 88.2184 169.505C88.1746 169.583 88.1537 169.664 88.1556 169.748C88.1569 169.832 88.1832 169.91 88.2345 169.983ZM88.4081 169.856C88.3723 169.805 88.3517 169.752 88.3464 169.697C88.3406 169.642 88.3499 169.59 88.3742 169.54C88.3985 169.49 88.4369 169.446 88.4894 169.41C88.5431 169.372 88.5972 169.35 88.6519 169.345C88.7059 169.34 88.7576 169.35 88.8069 169.375C88.8558 169.399 88.8982 169.437 88.934 169.488C88.9712 169.541 88.9926 169.594 88.9983 169.646C89.0029 169.699 88.9927 169.749 88.9677 169.796C88.9416 169.844 88.9014 169.886 88.8471 169.924C88.7928 169.962 88.7392 169.985 88.6863 169.993C88.633 170 88.5828 169.993 88.5359 169.97C88.4879 169.947 88.4453 169.909 88.4081 169.856ZM87.8135 169.314C87.8604 169.381 87.9203 169.429 87.9933 169.457C88.0663 169.486 88.1443 169.495 88.2272 169.483C88.3102 169.471 88.3905 169.438 88.4682 169.383C88.5472 169.328 88.6068 169.263 88.647 169.189C88.6866 169.115 88.705 169.039 88.7022 168.961C88.6993 168.883 88.6744 168.811 88.6275 168.744C88.5714 168.663 88.5062 168.607 88.4321 168.575C88.3573 168.544 88.2789 168.535 88.1969 168.548C88.1148 168.561 88.0346 168.595 87.9563 168.65C87.8773 168.705 87.8176 168.769 87.7771 168.842C87.7366 168.915 87.7186 168.991 87.7233 169.072C87.7273 169.153 87.7573 169.233 87.8135 169.314ZM87.9908 169.194C87.9585 169.148 87.9398 169.1 87.9346 169.051C87.9294 169.002 87.9371 168.955 87.9577 168.91C87.9779 168.865 88.011 168.827 88.0571 168.794C88.1032 168.762 88.1505 168.743 88.199 168.739C88.2464 168.734 88.2922 168.742 88.3366 168.764C88.3803 168.786 88.4192 168.821 88.4533 168.87C88.4864 168.917 88.5059 168.965 88.5118 169.014C88.5169 169.063 88.509 169.11 88.488 169.153C88.467 169.197 88.4334 169.235 88.3873 169.268C88.3411 169.3 88.2942 169.318 88.2463 169.323C88.1979 169.327 88.1515 169.319 88.1071 169.297C88.0628 169.276 88.024 169.241 87.9908 169.194ZM88.1978 170.427C88.177 170.397 88.1504 170.379 88.1179 170.371C88.0843 170.364 88.0499 170.373 88.0145 170.397C87.9791 170.422 87.9596 170.451 87.9558 170.485C87.951 170.518 87.959 170.55 87.9798 170.58C88.0002 170.609 88.0269 170.627 88.06 170.634C88.0925 170.641 88.1264 170.632 88.1618 170.608C88.1972 170.583 88.2173 170.554 88.2221 170.52C88.2262 170.487 88.2181 170.456 88.1978 170.427ZM87.6109 169.591C87.5901 169.561 87.5635 169.543 87.531 169.535C87.4975 169.528 87.463 169.536 87.4276 169.561C87.3923 169.586 87.3727 169.615 87.369 169.649C87.3642 169.682 87.3722 169.714 87.393 169.744C87.4133 169.773 87.4401 169.791 87.4732 169.798C87.5056 169.805 87.5396 169.796 87.5749 169.772C87.6103 169.747 87.6304 169.718 87.6352 169.684C87.6394 169.651 87.6313 169.62 87.6109 169.591ZM86.378 170.648L86.5253 170.858C86.6045 170.971 86.6814 171.06 86.756 171.123C86.8306 171.187 86.9035 171.229 86.9746 171.25C87.0457 171.271 87.1156 171.273 87.1843 171.257C87.252 171.24 87.3193 171.209 87.3863 171.162C87.4393 171.125 87.4836 171.084 87.5192 171.039C87.5548 170.995 87.5804 170.945 87.5961 170.891C87.6106 170.836 87.614 170.777 87.6061 170.712C87.5982 170.646 87.5772 170.575 87.5431 170.499C87.509 170.422 87.4604 170.338 87.3971 170.248L87.2498 170.037C87.1706 169.924 87.0942 169.837 87.0204 169.774C86.9461 169.712 86.8738 169.672 86.8036 169.652C86.7329 169.632 86.664 169.63 86.5968 169.647C86.5289 169.665 86.4618 169.697 86.3955 169.743C86.3418 169.781 86.2972 169.822 86.2616 169.866C86.225 169.911 86.1989 169.96 86.1834 170.013C86.1675 170.066 86.1636 170.124 86.1717 170.188C86.1787 170.252 86.1991 170.322 86.2327 170.398C86.2663 170.474 86.3147 170.557 86.378 170.648ZM86.7215 170.763L86.5337 170.495C86.4903 170.433 86.4561 170.376 86.4309 170.324C86.4047 170.272 86.3868 170.224 86.3773 170.181C86.3677 170.138 86.3664 170.098 86.3733 170.062C86.3795 170.027 86.3932 169.995 86.4144 169.966C86.4345 169.937 86.4616 169.91 86.4957 169.886C86.5374 169.857 86.5799 169.839 86.6232 169.832C86.666 169.825 86.7102 169.83 86.7558 169.848C86.8007 169.867 86.8478 169.899 86.8973 169.945C86.9467 169.992 86.9986 170.054 87.053 170.131L87.2408 170.4C87.2841 170.461 87.3189 170.519 87.3451 170.571C87.3707 170.624 87.3884 170.672 87.3982 170.717C87.4076 170.762 87.4096 170.802 87.4042 170.839C87.3989 170.875 87.3864 170.909 87.3667 170.938C87.346 170.968 87.3189 170.995 87.2854 171.018C87.2424 171.048 87.1991 171.066 87.1554 171.072C87.1117 171.078 87.0669 171.072 87.0211 171.052C86.9742 171.032 86.9262 170.998 86.8769 170.951C86.8273 170.903 86.7754 170.84 86.7215 170.763ZM85.2863 171.412L85.4336 171.623C85.5128 171.736 85.5897 171.824 85.6644 171.888C85.739 171.951 85.8118 171.993 85.8829 172.014C85.954 172.035 86.0239 172.037 86.0926 172.021C86.1603 172.005 86.2276 171.973 86.2946 171.926C86.3477 171.889 86.392 171.848 86.4275 171.804C86.4631 171.759 86.4887 171.709 86.5044 171.655C86.519 171.601 86.5223 171.541 86.5144 171.476C86.5065 171.411 86.4855 171.34 86.4514 171.263C86.4174 171.186 86.3687 171.102 86.3055 171.012L86.1582 170.802C86.079 170.689 86.0025 170.601 85.9288 170.539C85.8544 170.477 85.7821 170.436 85.7119 170.417C85.6413 170.396 85.5723 170.395 85.5051 170.412C85.4373 170.429 85.3702 170.461 85.3038 170.507C85.2501 170.545 85.2055 170.586 85.1699 170.631C85.1333 170.675 85.1073 170.724 85.0918 170.777C85.0759 170.83 85.072 170.888 85.0801 170.952C85.0871 171.016 85.1074 171.086 85.141 171.162C85.1746 171.239 85.2231 171.322 85.2863 171.412ZM85.6298 171.528L85.442 171.259C85.3987 171.197 85.3644 171.141 85.3393 171.088C85.313 171.036 85.2952 170.988 85.2856 170.945C85.2761 170.902 85.2747 170.862 85.2816 170.827C85.2879 170.791 85.3016 170.759 85.3227 170.73C85.3428 170.701 85.3699 170.674 85.404 170.651C85.4457 170.621 85.4882 170.603 85.5315 170.597C85.5743 170.589 85.6185 170.594 85.6641 170.612C85.709 170.631 85.7562 170.663 85.8056 170.71C85.855 170.756 85.9069 170.818 85.9613 170.896L86.1491 171.164C86.1925 171.226 86.2272 171.283 86.2535 171.335C86.2791 171.388 86.2968 171.437 86.3066 171.482C86.3159 171.526 86.3179 171.566 86.3126 171.603C86.3072 171.64 86.2947 171.673 86.275 171.703C86.2543 171.732 86.2272 171.759 86.1937 171.782C86.1508 171.812 86.1074 171.831 86.0637 171.837C86.02 171.843 85.9752 171.836 85.9294 171.816C85.8825 171.796 85.8345 171.763 85.7853 171.715C85.7356 171.667 85.6838 171.605 85.6298 171.528Z" fill="#181819" fill-opacity="0.42"/>
<path d="M246.258 57.8235L247.229 59.2109L247.404 59.0881L246.586 57.9197L247.03 57.8011L246.919 57.6428L246.285 57.8043L246.258 57.8235ZM245.709 60.0608L245.809 60.2048L246.713 59.5725L246.624 59.4465L245.82 59.2598C245.721 59.2368 245.641 59.2144 245.581 59.1927C245.519 59.1708 245.471 59.147 245.435 59.1213C245.398 59.0954 245.367 59.0644 245.342 59.0284C245.31 58.9829 245.29 58.9352 245.284 58.8853C245.276 58.8352 245.282 58.7865 245.303 58.7392C245.323 58.6918 245.359 58.6503 245.41 58.6144C245.472 58.5715 245.531 58.5477 245.589 58.5429C245.646 58.538 245.699 58.5496 245.749 58.5778C245.799 58.606 245.843 58.6475 245.882 58.7025L246.057 58.5797C246.003 58.502 245.936 58.4429 245.857 58.4024C245.777 58.3618 245.691 58.346 245.597 58.355C245.503 58.3634 245.408 58.4018 245.31 58.4704C245.222 58.5314 245.159 58.5991 245.118 58.6734C245.078 58.7471 245.06 58.8232 245.067 58.9018C245.072 58.9802 245.1 59.0564 245.152 59.1303C245.18 59.1707 245.216 59.2069 245.259 59.2389C245.301 59.2707 245.348 59.2987 245.401 59.3229C245.453 59.3476 245.509 59.3688 245.568 59.3865C245.627 59.4046 245.688 59.4206 245.75 59.4343L246.4 59.5764L245.709 60.0608ZM245.545 60.2513C245.525 60.2216 245.498 60.2031 245.466 60.1957C245.432 60.1881 245.398 60.1967 245.362 60.2215C245.327 60.2463 245.307 60.2755 245.303 60.3092C245.299 60.3426 245.307 60.3742 245.327 60.4039C245.348 60.433 245.375 60.451 245.408 60.4579C245.44 60.4653 245.474 60.4566 245.509 60.4319C245.545 60.4071 245.565 60.378 245.57 60.3445C245.574 60.3114 245.566 60.2804 245.545 60.2513ZM244.959 59.4152C244.938 59.3855 244.911 59.367 244.879 59.3596C244.845 59.352 244.811 59.3606 244.775 59.3854C244.74 59.4102 244.72 59.4394 244.717 59.4731C244.712 59.5066 244.72 59.5381 244.741 59.5678C244.761 59.5969 244.788 59.6149 244.821 59.6218C244.853 59.6292 244.887 59.6205 244.923 59.5958C244.958 59.571 244.978 59.5419 244.983 59.5084C244.987 59.4753 244.979 59.4443 244.959 59.4152ZM243.726 60.472L243.873 60.6824C243.952 60.7955 244.029 60.8838 244.104 60.9473C244.178 61.0109 244.251 61.0531 244.322 61.0739C244.393 61.0948 244.463 61.0971 244.532 61.081C244.6 61.0647 244.667 61.0331 244.734 60.9862C244.787 60.949 244.831 60.9081 244.867 60.8634C244.902 60.8188 244.928 60.7693 244.944 60.715C244.958 60.6606 244.962 60.6008 244.954 60.5357C244.946 60.4706 244.925 60.3997 244.891 60.3228C244.857 60.2459 244.808 60.1623 244.745 60.0719L244.597 59.8616C244.518 59.7485 244.442 59.6608 244.368 59.5985C244.294 59.5367 244.221 59.4959 244.151 59.4764C244.081 59.4562 244.012 59.4545 243.944 59.4715C243.877 59.4888 243.809 59.5208 243.743 59.5672C243.689 59.6048 243.645 59.646 243.609 59.6906C243.573 59.7351 243.547 59.784 243.531 59.8372C243.515 59.8897 243.511 59.948 243.519 60.012C243.526 60.0758 243.547 60.1459 243.58 60.2221C243.614 60.2984 243.662 60.3817 243.726 60.472ZM244.069 60.5874L243.881 60.3192C243.838 60.2573 243.804 60.2003 243.779 60.1483C243.752 60.096 243.734 60.0483 243.725 60.0051C243.715 59.9618 243.714 59.9223 243.721 59.8864C243.727 59.851 243.741 59.8188 243.762 59.7898C243.782 59.7607 243.809 59.7342 243.843 59.7103C243.885 59.6811 243.928 59.6631 243.971 59.6564C244.014 59.649 244.058 59.6543 244.103 59.6723C244.148 59.6907 244.195 59.7231 244.245 59.7695C244.294 59.8158 244.346 59.8779 244.401 59.9556L244.588 60.2238C244.632 60.2857 244.667 60.3428 244.693 60.395C244.718 60.4477 244.736 60.4965 244.746 60.5414C244.755 60.5857 244.757 60.6262 244.752 60.6629C244.747 60.6996 244.734 60.7329 244.714 60.7626C244.694 60.7922 244.667 60.8187 244.633 60.8422C244.59 60.8722 244.547 60.8903 244.503 60.8965C244.459 60.9026 244.415 60.8958 244.369 60.8761C244.322 60.8562 244.274 60.8226 244.225 60.7751C244.175 60.727 244.123 60.6645 244.069 60.5874ZM242.634 61.2364L242.781 61.4468C242.86 61.5599 242.937 61.6482 243.012 61.7117C243.087 61.7753 243.159 61.8175 243.231 61.8383C243.302 61.8591 243.372 61.8615 243.44 61.8454C243.508 61.8291 243.575 61.7975 243.642 61.7506C243.695 61.7134 243.74 61.6725 243.775 61.6278C243.811 61.5832 243.836 61.5337 243.852 61.4794C243.867 61.4249 243.87 61.3652 243.862 61.3001C243.854 61.235 243.833 61.164 243.799 61.0872C243.765 61.0103 243.716 60.9267 243.653 60.8363L243.506 60.6259C243.427 60.5129 243.35 60.4252 243.276 60.3629C243.202 60.301 243.13 60.2603 243.06 60.2408C242.989 60.2206 242.92 60.2189 242.853 60.2359C242.785 60.2532 242.718 60.2852 242.651 60.3316C242.598 60.3692 242.553 60.4103 242.518 60.455C242.481 60.4995 242.455 60.5483 242.439 60.6015C242.424 60.6541 242.42 60.7124 242.428 60.7764C242.435 60.8402 242.455 60.9102 242.489 60.9865C242.522 61.0628 242.571 61.1461 242.634 61.2364ZM242.977 61.3518L242.79 61.0836C242.746 61.0217 242.712 60.9647 242.687 60.9126C242.661 60.8604 242.643 60.8127 242.633 60.7695C242.624 60.7262 242.622 60.6867 242.629 60.6508C242.636 60.6154 242.649 60.5832 242.67 60.5542C242.69 60.5251 242.718 60.4986 242.752 60.4747C242.793 60.4455 242.836 60.4275 242.879 60.4208C242.922 60.4134 242.966 60.4187 243.012 60.4367C243.057 60.4551 243.104 60.4875 243.153 60.5339C243.203 60.5802 243.255 60.6423 243.309 60.72L243.497 60.9882C243.54 61.0501 243.575 61.1072 243.601 61.1594C243.627 61.2121 243.644 61.2609 243.654 61.3058C243.664 61.3501 243.666 61.3906 243.66 61.4273C243.655 61.464 243.642 61.4973 243.623 61.527C243.602 61.5566 243.575 61.5831 243.541 61.6065C243.498 61.6366 243.455 61.6547 243.411 61.6609C243.368 61.667 243.323 61.6602 243.277 61.6405C243.23 61.6206 243.182 61.5869 243.133 61.5395C243.083 61.4914 243.031 61.4289 242.977 61.3518Z" fill="#181819" fill-opacity="0.42"/>
<path d="M238.286 19.2773L239.257 20.6646L239.432 20.5418L238.614 19.3734L239.058 19.2548L238.947 19.0965L238.313 19.258L238.286 19.2773ZM238.06 20.5241L238.175 20.3899L237.625 19.7513L236.917 20.247L237.03 20.409L237.59 20.0175L237.894 20.3636C237.859 20.3667 237.817 20.3755 237.77 20.3899C237.722 20.4046 237.672 20.4297 237.622 20.4651C237.558 20.5098 237.509 20.5609 237.474 20.6184C237.438 20.6753 237.417 20.7363 237.41 20.8015C237.402 20.8671 237.409 20.935 237.429 21.0052C237.45 21.0753 237.485 21.1454 237.534 21.2155C237.581 21.2819 237.633 21.3364 237.69 21.3792C237.747 21.4224 237.807 21.4522 237.873 21.4687C237.937 21.4846 238.005 21.4846 238.076 21.4689C238.146 21.4536 238.219 21.4201 238.292 21.3683C238.348 21.3294 238.395 21.2849 238.435 21.2347C238.473 21.1844 238.501 21.1298 238.518 21.0708C238.534 21.0116 238.537 20.9497 238.529 20.885C238.519 20.8202 238.495 20.7534 238.456 20.6845L238.289 20.8013C238.318 20.8584 238.333 20.9126 238.335 20.9639C238.338 21.0152 238.327 21.0628 238.303 21.1068C238.278 21.1506 238.241 21.1898 238.192 21.2243C238.15 21.2535 238.108 21.2721 238.065 21.2801C238.023 21.2881 237.981 21.2863 237.94 21.2746C237.899 21.2629 237.859 21.2418 237.821 21.2112C237.782 21.1811 237.746 21.142 237.712 21.094C237.681 21.0504 237.659 21.0058 237.645 20.9601C237.631 20.9144 237.626 20.8693 237.631 20.8247C237.635 20.7805 237.648 20.7389 237.672 20.6999C237.695 20.6602 237.729 20.6249 237.773 20.5939C237.832 20.5528 237.882 20.5295 237.923 20.524C237.964 20.519 238.009 20.5191 238.06 20.5241ZM236.224 21.5966L236.371 21.807C236.45 21.9201 236.527 22.0084 236.602 22.0719C236.676 22.1355 236.749 22.1777 236.82 22.1985C236.891 22.2194 236.961 22.2217 237.03 22.2056C237.098 22.1893 237.165 22.1577 237.232 22.1108C237.285 22.0736 237.329 22.0327 237.365 21.988C237.401 21.9434 237.426 21.8939 237.442 21.8396C237.456 21.7852 237.46 21.7254 237.452 21.6603C237.444 21.5952 237.423 21.5243 237.389 21.4474C237.355 21.3705 237.306 21.2869 237.243 21.1965L237.096 20.9862C237.016 20.8731 236.94 20.7854 236.866 20.7231C236.792 20.6613 236.72 20.6205 236.649 20.601C236.579 20.5808 236.51 20.5791 236.443 20.5961C236.375 20.6135 236.308 20.6454 236.241 20.6918C236.188 20.7294 236.143 20.7706 236.107 20.8152C236.071 20.8597 236.045 20.9086 236.029 20.9618C236.013 21.0143 236.009 21.0726 236.017 21.1366C236.025 21.2004 236.045 21.2705 236.078 21.3467C236.112 21.423 236.161 21.5063 236.224 21.5966ZM236.567 21.712L236.379 21.4438C236.336 21.3819 236.302 21.3249 236.277 21.2729C236.25 21.2206 236.233 21.1729 236.223 21.1297C236.214 21.0865 236.212 21.0469 236.219 21.011C236.225 20.9756 236.239 20.9434 236.26 20.9144C236.28 20.8853 236.307 20.8588 236.341 20.8349C236.383 20.8057 236.426 20.7877 236.469 20.781C236.512 20.7736 236.556 20.7789 236.602 20.7969C236.646 20.8153 236.694 20.8477 236.743 20.8941C236.792 20.9405 236.844 21.0025 236.899 21.0802L237.087 21.3484C237.13 21.4103 237.165 21.4674 237.191 21.5196C237.217 21.5723 237.234 21.6211 237.244 21.666C237.253 21.7103 237.255 21.7508 237.25 21.7875C237.245 21.8242 237.232 21.8575 237.212 21.8872C237.192 21.9168 237.165 21.9433 237.131 21.9668C237.088 21.9968 237.045 22.0149 237.001 22.0211C236.957 22.0272 236.913 22.0204 236.867 22.0007C236.82 21.9808 236.772 21.9472 236.723 21.8997C236.673 21.8516 236.621 21.7891 236.567 21.712Z" fill="#181819" fill-opacity="0.42"/>
<path d="M232.537 11.765L232.638 11.9091L233.541 11.2767L233.453 11.1507L232.649 10.964C232.55 10.941 232.47 10.9186 232.41 10.8969C232.348 10.875 232.3 10.8512 232.264 10.8255C232.227 10.7996 232.196 10.7686 232.17 10.7326C232.139 10.6871 232.119 10.6394 232.113 10.5895C232.105 10.5394 232.111 10.4907 232.132 10.4434C232.152 10.3961 232.188 10.3545 232.239 10.3186C232.3 10.2757 232.36 10.2519 232.418 10.2472C232.475 10.2422 232.528 10.2538 232.578 10.282C232.628 10.3102 232.672 10.3518 232.71 10.4067L232.886 10.284C232.831 10.2063 232.764 10.1471 232.685 10.1066C232.606 10.066 232.52 10.0502 232.426 10.0592C232.332 10.0676 232.236 10.106 232.138 10.1746C232.051 10.2357 231.987 10.3033 231.947 10.3776C231.907 10.4513 231.889 10.5274 231.895 10.606C231.9 10.6845 231.929 10.7606 231.98 10.8345C232.009 10.875 232.044 10.9112 232.088 10.9431C232.13 10.9749 232.177 11.0029 232.23 11.0272C232.282 11.0519 232.338 11.073 232.397 11.0907C232.456 11.1089 232.517 11.1248 232.579 11.1386L233.229 11.2806L232.537 11.765ZM231.024 11.8471L231.172 12.0575C231.251 12.1706 231.328 12.2589 231.402 12.3224C231.477 12.386 231.55 12.4282 231.621 12.449C231.692 12.4699 231.762 12.4722 231.831 12.4561C231.898 12.4398 231.966 12.4082 232.033 12.3613C232.086 12.3241 232.13 12.2832 232.166 12.2385C232.201 12.1939 232.227 12.1444 232.242 12.0901C232.257 12.0357 232.26 11.9759 232.252 11.9108C232.245 11.8457 232.224 11.7748 232.19 11.6979C232.155 11.621 232.107 11.5374 232.044 11.447L231.896 11.2367C231.817 11.1236 231.741 11.0359 231.667 10.9736C231.592 10.9118 231.52 10.871 231.45 10.8515C231.379 10.8313 231.31 10.8296 231.243 10.8466C231.175 10.864 231.108 10.8959 231.042 10.9423C230.988 10.9799 230.944 11.0211 230.908 11.0657C230.871 11.1102 230.845 11.1591 230.83 11.2123C230.814 11.2648 230.81 11.3231 230.818 11.3871C230.825 11.4509 230.845 11.521 230.879 11.5972C230.913 11.6735 230.961 11.7568 231.024 11.8471ZM231.368 11.9625L231.18 11.6943C231.137 11.6324 231.103 11.5754 231.077 11.5234C231.051 11.4711 231.033 11.4234 231.024 11.3802C231.014 11.337 231.013 11.2974 231.02 11.2615C231.026 11.2261 231.04 11.1939 231.061 11.1649C231.081 11.1358 231.108 11.1093 231.142 11.0854C231.184 11.0562 231.226 11.0382 231.27 11.0315C231.312 11.0241 231.357 11.0294 231.402 11.0474C231.447 11.0658 231.494 11.0982 231.544 11.1446C231.593 11.191 231.645 11.253 231.699 11.3307L231.887 11.5989C231.931 11.6608 231.965 11.7179 231.992 11.7701C232.017 11.8228 232.035 11.8716 232.045 11.9165C232.054 11.9608 232.056 12.0013 232.051 12.038C232.045 12.0747 232.033 12.108 232.013 12.1377C231.992 12.1673 231.965 12.1938 231.932 12.2173C231.889 12.2473 231.846 12.2654 231.802 12.2716C231.758 12.2777 231.713 12.2709 231.668 12.2512C231.621 12.2313 231.573 12.1977 231.523 12.1502C231.474 12.1021 231.422 12.0396 231.368 11.9625ZM229.933 12.6115L230.08 12.8219C230.159 12.935 230.236 13.0233 230.311 13.0868C230.385 13.1504 230.458 13.1926 230.529 13.2134C230.6 13.2343 230.67 13.2366 230.739 13.2205C230.807 13.2042 230.874 13.1726 230.941 13.1257C230.994 13.0885 231.038 13.0476 231.074 13.0029C231.11 12.9583 231.135 12.9088 231.151 12.8545C231.165 12.8001 231.169 12.7403 231.161 12.6752C231.153 12.6101 231.132 12.5392 231.098 12.4623C231.064 12.3854 231.015 12.3018 230.952 12.2114L230.805 12.001C230.725 11.888 230.649 11.8003 230.575 11.738C230.501 11.6762 230.429 11.6354 230.358 11.6159C230.288 11.5957 230.219 11.594 230.152 11.611C230.084 11.6283 230.017 11.6603 229.95 11.7067C229.897 11.7443 229.852 11.7854 229.816 11.8301C229.78 11.8746 229.754 11.9235 229.738 11.9767C229.722 12.0292 229.718 12.0875 229.726 12.1515C229.733 12.2153 229.754 12.2854 229.787 12.3616C229.821 12.4379 229.87 12.5212 229.933 12.6115ZM230.276 12.7269L230.088 12.4587C230.045 12.3968 230.011 12.3398 229.986 12.2878C229.959 12.2355 229.942 12.1878 229.932 12.1446C229.922 12.1013 229.921 12.0618 229.928 12.0259C229.934 11.9905 229.948 11.9583 229.969 11.9293C229.989 11.9002 230.016 11.8737 230.05 11.8498C230.092 11.8206 230.135 11.8026 230.178 11.7959C230.221 11.7885 230.265 11.7938 230.311 11.8118C230.355 11.8302 230.403 11.8626 230.452 11.909C230.501 11.9553 230.553 12.0174 230.608 12.0951L230.796 12.3633C230.839 12.4252 230.874 12.4823 230.9 12.5345C230.925 12.5872 230.943 12.636 230.953 12.6809C230.962 12.7252 230.964 12.7657 230.959 12.8024C230.954 12.8391 230.941 12.8724 230.921 12.9021C230.901 12.9317 230.874 12.9582 230.84 12.9817C230.797 13.0117 230.754 13.0298 230.71 13.036C230.666 13.0421 230.622 13.0353 230.576 13.0156C230.529 12.9957 230.481 12.9621 230.432 12.9146C230.382 12.8665 230.33 12.804 230.276 12.7269Z" fill="#181819" fill-opacity="0.42"/>
<path d="M244.721 28.4666L245.693 29.854L245.868 29.7312L245.05 28.5628L245.494 28.4442L245.383 28.2859L244.749 28.4474L244.721 28.4666ZM243.751 30.0216L243.898 30.232C243.977 30.3451 244.054 30.4334 244.129 30.4969C244.204 30.5605 244.276 30.6027 244.348 30.6235C244.419 30.6444 244.489 30.6467 244.557 30.6306C244.625 30.6143 244.692 30.5827 244.759 30.5358C244.812 30.4986 244.857 30.4577 244.892 30.413C244.928 30.3684 244.953 30.3189 244.969 30.2646C244.984 30.2102 244.987 30.1504 244.979 30.0853C244.971 30.0202 244.95 29.9493 244.916 29.8724C244.882 29.7955 244.833 29.7119 244.77 29.6215L244.623 29.4112C244.544 29.2981 244.467 29.2104 244.393 29.1481C244.319 29.0863 244.247 29.0455 244.177 29.026C244.106 29.0058 244.037 29.0041 243.97 29.0211C243.902 29.0385 243.835 29.0704 243.768 29.1168C243.715 29.1544 243.67 29.1956 243.635 29.2402C243.598 29.2847 243.572 29.3336 243.556 29.3868C243.541 29.4393 243.537 29.4976 243.545 29.5616C243.552 29.6254 243.572 29.6955 243.606 29.7717C243.639 29.848 243.688 29.9313 243.751 30.0216ZM244.094 30.137L243.907 29.8688C243.863 29.8069 243.829 29.7499 243.804 29.6979C243.778 29.6456 243.76 29.5979 243.75 29.5547C243.741 29.5115 243.739 29.4719 243.746 29.436C243.753 29.4006 243.766 29.3684 243.787 29.3394C243.807 29.3103 243.835 29.2838 243.869 29.2599C243.91 29.2307 243.953 29.2127 243.996 29.206C244.039 29.1986 244.083 29.2039 244.129 29.2219C244.174 29.2403 244.221 29.2727 244.27 29.3191C244.32 29.3655 244.372 29.4275 244.426 29.5052L244.614 29.7734C244.657 29.8353 244.692 29.8924 244.718 29.9446C244.744 29.9973 244.761 30.0461 244.771 30.091C244.781 30.1353 244.783 30.1758 244.777 30.2125C244.772 30.2492 244.759 30.2825 244.74 30.3122C244.719 30.3418 244.692 30.3683 244.658 30.3918C244.615 30.4218 244.572 30.4399 244.528 30.4461C244.485 30.4522 244.44 30.4454 244.394 30.4257C244.347 30.4058 244.299 30.3722 244.25 30.3247C244.2 30.2766 244.148 30.2141 244.094 30.137ZM242.659 30.786L242.807 30.9964C242.886 31.1095 242.963 31.1978 243.037 31.2613C243.112 31.3249 243.185 31.3671 243.256 31.3879C243.327 31.4088 243.397 31.4111 243.466 31.395C243.533 31.3787 243.601 31.3471 243.668 31.3002C243.721 31.263 243.765 31.2221 243.801 31.1774C243.836 31.1328 243.862 31.0833 243.877 31.029C243.892 30.9746 243.895 30.9148 243.887 30.8497C243.879 30.7846 243.858 30.7137 243.824 30.6368C243.79 30.5599 243.742 30.4763 243.678 30.3859L243.531 30.1755C243.452 30.0625 243.376 29.9748 243.302 29.9125C243.227 29.8506 243.155 29.8099 243.085 29.7904C243.014 29.7702 242.945 29.7685 242.878 29.7855C242.81 29.8028 242.743 29.8348 242.677 29.8812C242.623 29.9188 242.578 29.9599 242.543 30.0046C242.506 30.0491 242.48 30.098 242.465 30.1512C242.449 30.2037 242.445 30.262 242.453 30.326C242.46 30.3898 242.48 30.4599 242.514 30.5361C242.548 30.6124 242.596 30.6957 242.659 30.786ZM243.003 30.9014L242.815 30.6332C242.772 30.5713 242.737 30.5143 242.712 30.4623C242.686 30.41 242.668 30.3623 242.659 30.3191C242.649 30.2758 242.648 30.2363 242.655 30.2004C242.661 30.165 242.675 30.1328 242.696 30.1038C242.716 30.0747 242.743 30.0482 242.777 30.0243C242.819 29.9951 242.861 29.9771 242.904 29.9704C242.947 29.963 242.992 29.9683 243.037 29.9863C243.082 30.0047 243.129 30.0371 243.179 30.0835C243.228 30.1298 243.28 30.1919 243.334 30.2696L243.522 30.5378C243.565 30.5997 243.6 30.6568 243.626 30.709C243.652 30.7617 243.67 30.8105 243.68 30.8554C243.689 30.8997 243.691 30.9402 243.686 30.9769C243.68 31.0136 243.668 31.0469 243.648 31.0766C243.627 31.1062 243.6 31.1327 243.567 31.1562C243.524 31.1862 243.48 31.2043 243.437 31.2105C243.393 31.2166 243.348 31.2098 243.302 31.1901C243.256 31.1702 243.207 31.1366 243.158 31.0891C243.109 31.041 243.057 30.9785 243.003 30.9014Z" fill="#181819" fill-opacity="0.42"/>
<path d="M250.191 39.1152L250.306 38.981L249.756 38.3424L249.048 38.8381L249.161 39.0001L249.72 38.6087L250.025 38.9547C249.989 38.9579 249.948 38.9666 249.9 38.981C249.852 38.9958 249.803 39.0209 249.753 39.0563C249.689 39.1009 249.639 39.152 249.604 39.2095C249.569 39.2664 249.548 39.3274 249.54 39.3926C249.533 39.4583 249.539 39.5262 249.56 39.5963C249.581 39.6664 249.616 39.7366 249.665 39.8067C249.712 39.873 249.763 39.9276 249.821 39.9703C249.877 40.0135 249.938 40.0434 250.003 40.0599C250.068 40.0757 250.136 40.0758 250.207 40.06C250.277 40.0447 250.349 40.0112 250.423 39.9594C250.479 39.9205 250.526 39.876 250.565 39.8259C250.604 39.7756 250.631 39.7209 250.648 39.6619C250.664 39.6027 250.668 39.5408 250.66 39.4762C250.65 39.4113 250.626 39.3445 250.587 39.2756L250.42 39.3924C250.449 39.4495 250.464 39.5037 250.466 39.555C250.468 39.6063 250.457 39.654 250.434 39.698C250.409 39.7417 250.372 39.7809 250.322 39.8154C250.281 39.8446 250.239 39.8632 250.196 39.8712C250.154 39.8793 250.112 39.8774 250.071 39.8658C250.03 39.8541 249.99 39.8329 249.952 39.8024C249.913 39.7722 249.876 39.7332 249.843 39.6852C249.812 39.6416 249.79 39.5969 249.776 39.5512C249.762 39.5056 249.757 39.4604 249.761 39.4158C249.765 39.3717 249.779 39.3301 249.803 39.291C249.826 39.2513 249.859 39.216 249.904 39.185C249.962 39.1439 250.012 39.1206 250.054 39.1152C250.094 39.1102 250.14 39.1102 250.191 39.1152ZM248.355 40.1877L248.502 40.3981C248.581 40.5112 248.658 40.5995 248.733 40.6631C248.807 40.7266 248.88 40.7688 248.951 40.7897C249.022 40.8105 249.092 40.8129 249.161 40.7967C249.228 40.7804 249.296 40.7488 249.363 40.7019C249.416 40.6648 249.46 40.6239 249.496 40.5792C249.531 40.5345 249.557 40.485 249.573 40.4308C249.587 40.3763 249.59 40.3165 249.583 40.2515C249.575 40.1864 249.554 40.1154 249.52 40.0385C249.486 39.9616 249.437 39.878 249.374 39.7877L249.226 39.5773C249.147 39.4642 249.071 39.3765 248.997 39.3142C248.923 39.2524 248.85 39.2117 248.78 39.1921C248.709 39.1719 248.641 39.1703 248.573 39.1872C248.505 39.2046 248.438 39.2365 248.372 39.283C248.318 39.3206 248.274 39.3617 248.238 39.4064C248.201 39.4509 248.175 39.4997 248.16 39.5529C248.144 39.6055 248.14 39.6638 248.148 39.7278C248.155 39.7916 248.176 39.8616 248.209 39.9379C248.243 40.0141 248.291 40.0974 248.355 40.1877ZM248.698 40.3031L248.51 40.035C248.467 39.973 248.433 39.9161 248.407 39.864C248.381 39.8118 248.363 39.764 248.354 39.7208C248.344 39.6776 248.343 39.638 248.35 39.6022C248.356 39.5667 248.37 39.5345 248.391 39.5056C248.411 39.4764 248.438 39.4499 248.472 39.426C248.514 39.3969 248.556 39.3789 248.6 39.3721C248.643 39.3647 248.687 39.37 248.732 39.388C248.777 39.4065 248.824 39.4389 248.874 39.4852C248.923 39.5316 248.975 39.5936 249.029 39.6713L249.217 39.9395C249.261 40.0014 249.295 40.0585 249.322 40.1108C249.347 40.1634 249.365 40.2122 249.375 40.2572C249.384 40.3015 249.386 40.342 249.381 40.3787C249.375 40.4154 249.363 40.4486 249.343 40.4784C249.322 40.5079 249.295 40.5344 249.262 40.5579C249.219 40.588 249.176 40.6061 249.132 40.6122C249.088 40.6184 249.043 40.6116 248.998 40.5919C248.951 40.572 248.903 40.5383 248.853 40.4909C248.804 40.4428 248.752 40.3802 248.698 40.3031Z" fill="#181819" fill-opacity="0.42"/>
<path d="M254.052 49.5896L254.199 49.8C254.278 49.9131 254.355 50.0014 254.43 50.0649C254.504 50.1285 254.577 50.1707 254.648 50.1915C254.719 50.2124 254.789 50.2147 254.858 50.1986C254.926 50.1823 254.993 50.1507 255.06 50.1038C255.113 50.0666 255.157 50.0257 255.193 49.9811C255.228 49.9364 255.254 49.8869 255.27 49.8326C255.284 49.7782 255.288 49.7184 255.28 49.6533C255.272 49.5882 255.251 49.5173 255.217 49.4404C255.183 49.3635 255.134 49.2799 255.071 49.1895L254.923 48.9792C254.844 48.8661 254.768 48.7784 254.694 48.7161C254.62 48.6543 254.547 48.6135 254.477 48.594C254.407 48.5738 254.338 48.5721 254.27 48.5891C254.203 48.6065 254.135 48.6384 254.069 48.6848C254.015 48.7224 253.971 48.7636 253.935 48.8082C253.899 48.8527 253.873 48.9016 253.857 48.9548C253.841 49.0073 253.837 49.0656 253.845 49.1296C253.852 49.1934 253.873 49.2635 253.906 49.3397C253.94 49.416 253.988 49.4993 254.052 49.5896ZM254.395 49.705L254.207 49.4368C254.164 49.3749 254.13 49.3179 254.105 49.2659C254.078 49.2136 254.06 49.1659 254.051 49.1227C254.041 49.0795 254.04 49.0399 254.047 49.004C254.053 48.9686 254.067 48.9364 254.088 48.9074C254.108 48.8783 254.135 48.8518 254.169 48.8279C254.211 48.7987 254.254 48.7807 254.297 48.774C254.34 48.7666 254.384 48.7719 254.429 48.7899C254.474 48.8083 254.521 48.8407 254.571 48.8871C254.62 48.9335 254.672 48.9955 254.727 49.0732L254.914 49.3414C254.958 49.4033 254.993 49.4604 255.019 49.5126C255.044 49.5653 255.062 49.6141 255.072 49.659C255.081 49.7033 255.083 49.7438 255.078 49.7805C255.072 49.8172 255.06 49.8505 255.04 49.8802C255.02 49.9098 254.993 49.9363 254.959 49.9598C254.916 49.9898 254.873 50.0079 254.829 50.0141C254.785 50.0202 254.741 50.0134 254.695 49.9937C254.648 49.9738 254.6 49.9402 254.551 49.8927C254.501 49.8446 254.449 49.7821 254.395 49.705Z" fill="#181819" fill-opacity="0.42"/>
<path d="M220.234 76.0456L221.206 77.4329L221.381 77.3102L220.563 76.1417L221.006 76.0231L220.896 75.8649L220.262 76.0263L220.234 76.0456ZM219.891 77.1969L219.766 77.2845C219.704 77.3274 219.647 77.3527 219.593 77.3604C219.538 77.3678 219.488 77.3607 219.444 77.3391C219.398 77.3172 219.36 77.2838 219.328 77.239C219.291 77.1859 219.269 77.1352 219.261 77.0868C219.254 77.0384 219.261 76.9927 219.284 76.9496C219.307 76.9065 219.345 76.8659 219.399 76.8279C219.449 76.7934 219.499 76.7726 219.551 76.7657C219.601 76.7585 219.65 76.7651 219.696 76.7855C219.741 76.8062 219.781 76.8406 219.815 76.8886L219.99 76.7659C219.941 76.6958 219.879 76.6443 219.803 76.6116C219.727 76.5789 219.646 76.5678 219.558 76.5784C219.47 76.5894 219.383 76.6245 219.298 76.6838C219.215 76.7422 219.153 76.8082 219.111 76.8816C219.069 76.9545 219.05 77.0321 219.056 77.1146C219.062 77.1964 219.095 77.2803 219.155 77.3662C219.179 77.4009 219.214 77.4325 219.258 77.4608C219.301 77.4889 219.352 77.508 219.41 77.5183C219.467 77.5289 219.53 77.5265 219.599 77.511C219.668 77.4949 219.74 77.4605 219.815 77.4079L219.965 77.3031L219.891 77.1969ZM219.992 77.341L219.918 77.2358L219.768 77.3406C219.68 77.4021 219.615 77.4634 219.572 77.5245C219.529 77.5856 219.504 77.645 219.495 77.7028C219.486 77.761 219.489 77.8156 219.505 77.8665C219.52 77.9173 219.542 77.9633 219.571 78.0043C219.616 78.0688 219.667 78.1182 219.724 78.1526C219.78 78.1875 219.841 78.2084 219.905 78.2153C219.968 78.2226 220.033 78.2165 220.098 78.197C220.164 78.1776 220.228 78.1459 220.29 78.1021C220.35 78.0601 220.401 78.012 220.442 77.9578C220.482 77.904 220.512 77.8469 220.529 77.7863C220.547 77.7252 220.55 77.6629 220.54 77.5996C220.529 77.5357 220.502 77.4731 220.459 77.4118L220.284 77.5345C220.318 77.5826 220.337 77.6319 220.341 77.6825C220.345 77.7335 220.334 77.7829 220.309 77.8305C220.283 77.878 220.243 77.9205 220.189 77.9581C220.136 77.9957 220.083 78.0188 220.032 78.0275C219.979 78.036 219.929 78.0285 219.882 78.0052C219.834 77.9824 219.79 77.9422 219.75 77.8847C219.709 77.8272 219.688 77.7718 219.687 77.7183C219.685 77.6642 219.699 77.6128 219.731 77.5642C219.762 77.5154 219.807 77.4701 219.867 77.4286L219.992 77.341ZM219.522 78.4734C219.501 78.4437 219.475 78.4251 219.442 78.4178C219.409 78.4102 219.374 78.4188 219.339 78.4435C219.303 78.4683 219.284 78.4975 219.28 78.5312C219.275 78.5647 219.283 78.5963 219.304 78.626C219.324 78.655 219.351 78.673 219.384 78.68C219.417 78.6874 219.451 78.6787 219.486 78.6539C219.521 78.6291 219.541 78.6 219.546 78.5665C219.55 78.5335 219.542 78.5024 219.522 78.4734ZM218.935 77.6373C218.914 77.6076 218.888 77.589 218.855 77.5817C218.822 77.5741 218.787 77.5827 218.752 77.6075C218.716 77.6322 218.697 77.6614 218.693 77.6951C218.688 77.7286 218.696 77.7602 218.717 77.7899C218.738 77.819 218.764 77.837 218.797 77.8439C218.83 77.8513 218.864 77.8426 218.899 77.8178C218.935 77.7931 218.955 77.7639 218.959 77.7304C218.964 77.6974 218.956 77.6663 218.935 77.6373ZM217.702 78.6941L217.85 78.9044C217.929 79.0175 218.006 79.1058 218.08 79.1694C218.155 79.2329 218.228 79.2751 218.299 79.296C218.37 79.3168 218.44 79.3192 218.509 79.3031C218.576 79.2867 218.644 79.2551 218.71 79.2083C218.764 79.1711 218.808 79.1302 218.843 79.0855C218.879 79.0408 218.905 78.9914 218.92 78.9371C218.935 78.8826 218.938 78.8228 218.93 78.7578C218.922 78.6927 218.901 78.6217 218.867 78.5448C218.833 78.4679 218.785 78.3843 218.721 78.294L218.574 78.0836C218.495 77.9705 218.418 77.8828 218.345 77.8206C218.27 77.7587 218.198 77.718 218.128 77.6984C218.057 77.6782 217.988 77.6766 217.921 77.6935C217.853 77.7109 217.786 77.7428 217.72 77.7893C217.666 77.8269 217.621 77.868 217.586 77.9127C217.549 77.9572 217.523 78.006 217.508 78.0592C217.492 78.1118 217.488 78.1701 217.496 78.2341C217.503 78.2979 217.523 78.3679 217.557 78.4442C217.591 78.5204 217.639 78.6037 217.702 78.6941ZM218.046 78.8094L217.858 78.5413C217.815 78.4794 217.78 78.4224 217.755 78.3703C217.729 78.3181 217.711 78.2703 217.701 78.2271C217.692 78.1839 217.691 78.1444 217.697 78.1085C217.704 78.073 217.717 78.0408 217.739 78.0119C217.759 77.9828 217.786 77.9563 217.82 77.9324C217.862 77.9032 217.904 77.8852 217.947 77.8784C217.99 77.871 218.034 77.8763 218.08 77.8943C218.125 77.9128 218.172 77.9452 218.221 77.9915C218.271 78.0379 218.323 78.0999 218.377 78.1777L218.565 78.4458C218.608 78.5077 218.643 78.5648 218.669 78.6171C218.695 78.6698 218.713 78.7186 218.722 78.7635C218.732 78.8078 218.734 78.8483 218.728 78.885C218.723 78.9217 218.711 78.9549 218.691 78.9847C218.67 79.0143 218.643 79.0408 218.61 79.0642C218.567 79.0943 218.523 79.1124 218.48 79.1185C218.436 79.1247 218.391 79.1179 218.345 79.0982C218.298 79.0783 218.25 79.0446 218.201 78.9972C218.151 78.9491 218.1 78.8865 218.046 78.8094ZM216.611 79.4585L216.758 79.6688C216.837 79.7819 216.914 79.8702 216.989 79.9338C217.063 79.9973 217.136 80.0395 217.207 80.0604C217.278 80.0812 217.348 80.0836 217.417 80.0674C217.485 80.0511 217.552 80.0195 217.619 79.9726C217.672 79.9355 217.716 79.8946 217.752 79.8499C217.787 79.8052 217.813 79.7557 217.829 79.7015C217.843 79.647 217.847 79.5872 217.839 79.5222C217.831 79.4571 217.81 79.3861 217.776 79.3092C217.742 79.2323 217.693 79.1487 217.63 79.0584L217.482 78.848C217.403 78.7349 217.327 78.6472 217.253 78.585C217.179 78.5231 217.106 78.4824 217.036 78.4628C216.965 78.4426 216.897 78.441 216.829 78.4579C216.761 78.4753 216.694 78.5072 216.628 78.5537C216.574 78.5913 216.53 78.6324 216.494 78.6771C216.458 78.7216 216.431 78.7704 216.416 78.8236C216.4 78.8762 216.396 78.9345 216.404 78.9985C216.411 79.0623 216.432 79.1323 216.465 79.2086C216.499 79.2848 216.547 79.3681 216.611 79.4585ZM216.954 79.5738L216.766 79.3057C216.723 79.2438 216.689 79.1868 216.663 79.1347C216.637 79.0825 216.619 79.0347 216.61 78.9915C216.6 78.9483 216.599 78.9088 216.606 78.8729C216.612 78.8374 216.626 78.8052 216.647 78.7763C216.667 78.7472 216.694 78.7206 216.728 78.6968C216.77 78.6676 216.812 78.6496 216.856 78.6428C216.899 78.6354 216.943 78.6407 216.988 78.6587C217.033 78.6772 217.08 78.7096 217.13 78.7559C217.179 78.8023 217.231 78.8643 217.286 78.942L217.473 79.2102C217.517 79.2721 217.551 79.3292 217.578 79.3815C217.603 79.4342 217.621 79.483 217.631 79.5279C217.64 79.5722 217.642 79.6127 217.637 79.6494C217.631 79.6861 217.619 79.7193 217.599 79.7491C217.579 79.7787 217.551 79.8052 217.518 79.8286C217.475 79.8587 217.432 79.8768 217.388 79.8829C217.344 79.8891 217.299 79.8823 217.254 79.8626C217.207 79.8427 217.159 79.809 217.109 79.7616C217.06 79.7135 217.008 79.6509 216.954 79.5738Z" fill="#181819" fill-opacity="0.42"/>
<path d="M151.383 90.6054C156.119 87.2888 173.3 80.0478 179.681 75.5799C186.062 71.1119 201.337 73.9509 209.816 68.014C218.294 62.0771 222.645 44.6633 228.327 40.685C234.008 36.7067 242.383 37.5055 242.383 37.5055L252.314 51.6871L80.9904 171.649L66.3643 150.761C71.1008 147.444 72.4017 142.056 77.0227 138.821C81.6436 135.585 104.732 139.512 110.851 135.228C116.97 130.943 117.399 115.081 126.427 112.868C135.455 110.655 146.646 93.9219 151.383 90.6054Z" fill="url(#paint0_linear_380_11972)"/>
<path d="M66.3681 150.766C71.1046 147.449 72.4017 142.056 77.0227 138.821C81.6436 135.585 104.749 139.536 110.868 135.252C116.987 130.968 116.909 115.377 125.577 113.48C134.245 111.582 146.649 93.9266 151.386 90.6101C156.122 87.2935 173.307 80.0583 179.688 75.5904C186.069 71.1224 201.356 73.9777 209.834 68.0409C218.313 62.104 222.652 44.6728 228.333 40.6945C234.015 36.7161 242.396 37.523 242.396 37.523" stroke="#5AC5F2" stroke-width="0.394868"/>
</g>
<defs>
<filter id="filter0_d_380_11972" x="0.106746" y="1.11674" width="307.635" height="207.361" filterUnits="userSpaceOnUse" color-interpolation-filters="sRGB">
<feFlood flood-opacity="0" result="BackgroundImageFix"/>
<feColorMatrix in="SourceAlpha" type="matrix" values="0 0 0 0 0 0 0 0 0 0 0 0 0 0 0 0 0 0 127 0" result="hardAlpha"/>
<feOffset dx="-3.27401" dy="7.63935"/>
<feGaussianBlur stdDeviation="2.18267"/>
<feComposite in2="hardAlpha" operator="out"/>
<feColorMatrix type="matrix" values="0 0 0 0 0 0 0 0 0 0 0 0 0 0 0 0 0 0 0.25 0"/>
<feBlend mode="normal" in2="BackgroundImageFix" result="effect1_dropShadow_380_11972"/>
<feBlend mode="normal" in="SourceGraphic" in2="effect1_dropShadow_380_11972" result="shape"/>
</filter>
<filter id="filter1_d_380_11972" x="47.3945" y="6.29016" width="217" height="178.035" filterUnits="userSpaceOnUse" color-interpolation-filters="sRGB">
<feFlood flood-opacity="0" result="BackgroundImageFix"/>
<feColorMatrix in="SourceAlpha" type="matrix" values="0 0 0 0 0 0 0 0 0 0 0 0 0 0 0 0 0 0 127 0" result="hardAlpha"/>
<feOffset dx="-1" dy="5"/>
<feGaussianBlur stdDeviation="2"/>
<feComposite in2="hardAlpha" operator="out"/>
<feColorMatrix type="matrix" values="0 0 0 0 0 0 0 0 0 0 0 0 0 0 0 0 0 0 0.4 0"/>
<feBlend mode="normal" in2="BackgroundImageFix" result="effect1_dropShadow_380_11972"/>
<feBlend mode="normal" in="SourceGraphic" in2="effect1_dropShadow_380_11972" result="shape"/>
</filter>
<linearGradient id="paint0_linear_380_11972" x1="149.527" y1="87.2104" x2="166.652" y2="111.668" gradientUnits="userSpaceOnUse">
<stop stop-color="#5AC5F2" stop-opacity="0.6"/>
<stop offset="1" stop-color="white" stop-opacity="0"/>
</linearGradient>
<clipPath id="clip0_380_11972">
<rect width="3.04687" height="3.98866" fill="white" transform="matrix(-0.819152 0.573576 0.573576 0.819152 65.6523 121.523)"/>
</clipPath>
</defs>
</svg>
