<svg width="254" height="167" viewBox="0 0 254 167" fill="none" xmlns="http://www.w3.org/2000/svg">
<g filter="url(#filter0_d_380_11963)">
<path d="M248.06 101.083L162.404 154.726C161.1 155.543 159.443 155.539 158.143 154.716L9.41746 60.6072C6.91729 59.0252 6.94045 55.3703 9.46047 53.8201L92.795 2.55565C95.0522 1.1671 97.9001 1.17229 100.152 2.56909L248.046 94.2938C250.562 95.8541 250.57 99.5119 248.06 101.083Z" fill="#1A4159"/>
<path d="M248.06 101.083L162.404 154.726C161.1 155.543 159.443 155.539 158.143 154.716L9.41746 60.6072C6.91729 59.0252 6.94045 55.3703 9.46047 53.8201L92.795 2.55565C95.0522 1.1671 97.9001 1.17229 100.152 2.56909L248.046 94.2938C250.562 95.8541 250.57 99.5119 248.06 101.083Z" stroke="#1A4159"/>
</g>
<g filter="url(#filter1_d_380_11963)">
<path d="M141.875 65.7641C141.875 58.1672 137.429 51.2761 130.213 46.279C122.998 41.2822 113.023 38.1876 102 38.1876C90.9765 38.1876 81.0021 41.2822 73.7869 46.279C66.5712 51.2761 62.125 58.1672 62.125 65.7641C62.125 73.3611 66.5712 80.2522 73.7869 85.2493C81.0021 90.246 90.9765 93.3406 102 93.3406C113.023 93.3406 122.998 90.246 130.213 85.2493C137.429 80.2522 141.875 73.3611 141.875 65.7641Z" stroke="#5AC5F2" stroke-opacity="0.6" stroke-width="0.25"/>
<path d="M136.875 65.7641C136.875 59.1233 132.988 53.0979 126.678 48.7275C120.367 44.3573 111.643 41.6503 102 41.6503C92.3572 41.6503 83.6328 44.3573 77.3224 48.7275C71.0116 53.0979 67.125 59.1233 67.125 65.7641C67.125 72.4049 71.0116 78.4303 77.3224 82.8008C83.6328 87.1709 92.3572 89.8779 102 89.8779C111.643 89.8779 120.367 87.1709 126.678 82.8008C132.988 78.4303 136.875 72.4049 136.875 65.7641Z" stroke="#5AC5F2" stroke-opacity="0.6" stroke-width="0.25"/>
<path d="M131.875 65.7641C131.875 60.0795 128.548 54.9198 123.142 51.1759C117.737 47.4324 110.262 45.113 102 45.113C93.7379 45.113 86.2635 47.4324 80.858 51.1759C75.4519 54.9198 72.125 60.0795 72.125 65.7641C72.125 71.4487 75.4519 76.6084 80.858 80.3523C86.2635 84.0958 93.7379 86.4152 102 86.4152C110.262 86.4152 117.737 84.0958 123.142 80.3523C128.548 76.6084 131.875 71.4487 131.875 65.7641Z" stroke="#5AC5F2" stroke-opacity="0.6" stroke-width="0.25"/>
<path d="M126.875 65.7641C126.875 61.0357 124.108 56.7417 119.607 53.6244C115.106 50.5075 108.881 48.5757 102 48.5757C95.1187 48.5757 88.8942 50.5075 84.3935 53.6244C79.8923 56.7417 77.125 61.0357 77.125 65.7641C77.125 70.4925 79.8923 74.7866 84.3935 77.9038C88.8942 81.0207 95.1187 82.9525 102 82.9525C108.881 82.9525 115.106 81.0207 119.607 77.9038C124.108 74.7866 126.875 70.4925 126.875 65.7641Z" stroke="#5AC5F2" stroke-opacity="0.6" stroke-width="0.25"/>
<path d="M121.875 65.7641C121.875 61.9919 119.667 58.5635 116.071 56.0729C112.475 53.5826 107.501 52.0384 102 52.0384C96.4994 52.0384 91.5249 53.5826 87.929 56.0729C84.3327 58.5635 82.125 61.9919 82.125 65.7641C82.125 69.5363 84.3327 72.9647 87.929 75.4553C91.5249 77.9456 96.4994 79.4899 102 79.4899C107.501 79.4899 112.475 77.9456 116.071 75.4553C119.667 72.9647 121.875 69.5363 121.875 65.7641Z" stroke="#5AC5F2" stroke-opacity="0.6" stroke-width="0.25"/>
<path d="M116.875 65.7641C116.875 62.9481 115.227 60.3854 112.535 58.5214C109.844 56.6577 106.12 55.5011 102 55.5011C97.8801 55.5011 94.1556 56.6577 91.4646 58.5214C88.773 60.3854 87.125 62.9481 87.125 65.7641C87.125 68.5801 88.773 71.1428 91.4646 73.0068C94.1556 74.8705 97.8801 76.0272 102 76.0272C106.12 76.0272 109.844 74.8705 112.535 73.0068C115.227 71.1428 116.875 68.5801 116.875 65.7641Z" stroke="#5AC5F2" stroke-opacity="0.6" stroke-width="0.25"/>
<path d="M111.875 65.7641C111.875 63.9043 110.787 62.2073 109 60.9699C107.214 59.7329 104.739 58.9637 102 58.9637C99.2608 58.9637 96.7863 59.7329 95.0001 60.9699C93.2134 62.2073 92.125 63.9043 92.125 65.7641C92.125 67.6239 93.2134 69.321 95.0001 70.5583C96.7863 71.7954 99.2608 72.5645 102 72.5645C104.739 72.5645 107.214 71.7954 109 70.5583C110.787 69.321 111.875 67.6239 111.875 65.7641Z" stroke="#5AC5F2" stroke-opacity="0.6" stroke-width="0.25"/>
<path d="M106.875 65.7641C106.875 64.8605 106.346 64.0291 105.464 63.4184C104.583 62.808 103.358 62.4264 102 62.4264C100.642 62.4264 99.4171 62.808 98.5356 63.4184C97.6537 64.0291 97.125 64.8605 97.125 65.7641C97.125 66.6677 97.6537 67.4991 98.5356 68.1098C99.4171 68.7203 100.642 69.1018 102 69.1018C103.358 69.1018 104.583 68.7203 105.464 68.1098C106.346 67.4991 106.875 66.6677 106.875 65.7641Z" stroke="#5AC5F2" stroke-opacity="0.6" stroke-width="0.25"/>
<mask id="path-10-inside-1_380_11963" fill="white">
<path d="M102 86.5402C106.75 86.5402 111.433 85.759 115.662 84.2607C119.891 82.7625 123.547 80.5901 126.327 77.9224C129.107 75.2547 130.932 72.168 131.653 68.9162C132.373 65.6644 131.969 62.3406 130.472 59.2183L102 65.7641V86.5402Z"/>
</mask>
<path d="M102 86.5402C106.75 86.5402 111.433 85.759 115.662 84.2607C119.891 82.7625 123.547 80.5901 126.327 77.9224C129.107 75.2547 130.932 72.168 131.653 68.9162C132.373 65.6644 131.969 62.3406 130.472 59.2183L102 65.7641V86.5402Z" fill="#5AC5F2" stroke="#5388D8" stroke-width="0.5" mask="url(#path-10-inside-1_380_11963)"/>
<mask id="path-11-inside-2_380_11963" fill="white">
<path d="M122.599 60.8577C121.372 58.357 119.212 56.1256 116.337 54.3898C113.462 52.654 109.976 51.4755 106.232 50.974L102.125 65.6775L122.599 60.8577Z"/>
</mask>
<path d="M122.599 60.8577C121.372 58.357 119.212 56.1256 116.337 54.3898C113.462 52.654 109.976 51.4755 106.232 50.974L102.125 65.6775L122.599 60.8577Z" fill="#37E9F4" stroke="#5AC5F2" stroke-width="0.5" mask="url(#path-11-inside-2_380_11963)"/>
<path d="M107.778 42.736C102.27 42.0733 96.6107 42.3684 91.3083 43.5948C86.0059 44.8213 81.2265 46.9406 77.3993 49.7626C73.5722 52.5846 70.8171 56.0207 69.3816 59.7624C67.9462 63.504 67.8752 67.4341 69.1752 71.1994L102 65.7641L107.778 42.736Z" fill="#0D2535"/>
<mask id="path-13-inside-3_380_11963" fill="white">
<path d="M92.778 67.344C93.2832 68.7584 94.4521 70.0166 96.1012 70.9213C97.7504 71.826 99.7865 72.326 101.89 72.3428L102 65.7641L92.778 67.344Z"/>
</mask>
<path d="M92.778 67.344C93.2832 68.7584 94.4521 70.0166 96.1012 70.9213C97.7504 71.826 99.7865 72.326 101.89 72.3428L102 65.7641L92.778 67.344Z" fill="#BFE6BA" stroke="#BFE6BA" stroke-width="0.5" mask="url(#path-13-inside-3_380_11963)"/>
<path d="M101.318 70.9683V68.8238H101.047V70.63L100.5 70.4307V70.6754L101.275 70.9683H101.318ZM103.454 70.0601V69.7349C103.454 69.5601 103.438 69.4127 103.407 69.2926C103.375 69.1724 103.331 69.0758 103.272 69.0025C103.213 68.9293 103.143 68.8761 103.06 68.8429C102.978 68.8106 102.885 68.7945 102.781 68.7945C102.699 68.7945 102.624 68.8048 102.554 68.8253C102.485 68.8458 102.422 68.8785 102.367 68.9234C102.312 68.9693 102.265 69.0289 102.226 69.1021C102.187 69.1754 102.157 69.2642 102.137 69.3687C102.116 69.4732 102.106 69.5953 102.106 69.7349V70.0601C102.106 70.2349 102.122 70.3814 102.153 70.4996C102.185 70.6178 102.23 70.7125 102.289 70.7838C102.348 70.856 102.418 70.9078 102.5 70.9391C102.583 70.9703 102.676 70.9859 102.778 70.9859C102.861 70.9859 102.938 70.9757 103.007 70.9552C103.077 70.9356 103.14 70.9039 103.194 70.8599C103.249 70.817 103.295 70.7594 103.333 70.6871C103.373 70.6158 103.402 70.5284 103.423 70.4249C103.443 70.3214 103.454 70.1998 103.454 70.0601ZM103.181 69.691V70.1056C103.181 70.2013 103.175 70.2852 103.164 70.3575C103.153 70.4307 103.137 70.4932 103.115 70.545C103.094 70.5968 103.066 70.6388 103.033 70.671C103.001 70.7032 102.963 70.7266 102.92 70.7413C102.878 70.7569 102.831 70.7647 102.778 70.7647C102.714 70.7647 102.657 70.7525 102.607 70.7281C102.557 70.7047 102.515 70.6671 102.481 70.6153C102.448 70.5636 102.422 70.4957 102.405 70.4117C102.387 70.3277 102.378 70.2257 102.378 70.1056V69.691C102.378 69.5953 102.384 69.5108 102.395 69.4376C102.406 69.3643 102.423 69.3009 102.446 69.2472C102.468 69.1944 102.496 69.151 102.528 69.1168C102.56 69.0826 102.597 69.0572 102.639 69.0406C102.682 69.025 102.729 69.0172 102.781 69.0172C102.848 69.0172 102.906 69.0299 102.956 69.0553C103.005 69.0807 103.047 69.1202 103.08 69.1739C103.114 69.2286 103.14 69.2984 103.156 69.3834C103.173 69.4693 103.181 69.5719 103.181 69.691Z" fill="#5AC5F2" fill-opacity="0.6"/>
<path d="M101.825 72.5092V72.2865H100.429V72.4813L101.127 73.2592C101.213 73.3549 101.28 73.4359 101.327 73.5023C101.375 73.5697 101.408 73.6298 101.426 73.6825C101.446 73.7362 101.456 73.7909 101.456 73.8466C101.456 73.9169 101.441 73.9804 101.412 74.037C101.383 74.0946 101.341 74.1405 101.286 74.1747C101.23 74.2089 101.163 74.226 101.083 74.226C100.989 74.226 100.91 74.2074 100.846 74.1703C100.784 74.1342 100.737 74.0834 100.706 74.0179C100.674 73.9525 100.659 73.8773 100.659 73.7924H100.388C100.388 73.9125 100.414 74.0223 100.467 74.122C100.52 74.2216 100.598 74.3007 100.701 74.3593C100.805 74.4188 100.932 74.4486 101.083 74.4486C101.218 74.4486 101.333 74.4247 101.429 74.3768C101.525 74.33 101.598 74.2636 101.649 74.1776C101.701 74.0927 101.727 73.993 101.727 73.8788C101.727 73.8163 101.716 73.7528 101.694 73.6884C101.674 73.6249 101.645 73.5614 101.608 73.4979C101.572 73.4345 101.529 73.372 101.48 73.3104C101.433 73.2489 101.381 73.1884 101.327 73.1288L100.755 72.5092H101.825ZM103.454 73.5228V73.1976C103.454 73.0228 103.438 72.8754 103.407 72.7553C103.375 72.6351 103.331 72.5385 103.272 72.4652C103.213 72.392 103.143 72.3387 103.06 72.3055C102.978 72.2733 102.885 72.2572 102.781 72.2572C102.699 72.2572 102.624 72.2675 102.554 72.288C102.485 72.3085 102.422 72.3412 102.367 72.3861C102.312 72.432 102.265 72.4916 102.226 72.5648C102.187 72.6381 102.157 72.7269 102.137 72.8314C102.116 72.9359 102.106 73.058 102.106 73.1976V73.5228C102.106 73.6976 102.122 73.8441 102.153 73.9623C102.185 74.0804 102.23 74.1752 102.289 74.2465C102.348 74.3187 102.418 74.3705 102.5 74.4017C102.583 74.433 102.676 74.4486 102.778 74.4486C102.861 74.4486 102.938 74.4384 103.007 74.4179C103.077 74.3983 103.14 74.3666 103.194 74.3226C103.249 74.2797 103.295 74.222 103.333 74.1498C103.373 74.0785 103.402 73.9911 103.423 73.8876C103.443 73.7841 103.454 73.6625 103.454 73.5228ZM103.181 73.1537V73.5682C103.181 73.6639 103.175 73.7479 103.164 73.8202C103.153 73.8934 103.137 73.9559 103.115 74.0077C103.094 74.0595 103.066 74.1014 103.033 74.1337C103.001 74.1659 102.963 74.1893 102.92 74.204C102.878 74.2196 102.831 74.2274 102.778 74.2274C102.714 74.2274 102.657 74.2152 102.607 74.1908C102.557 74.1674 102.515 74.1298 102.481 74.078C102.448 74.0262 102.422 73.9584 102.405 73.8744C102.387 73.7904 102.378 73.6884 102.378 73.5682V73.1537C102.378 73.058 102.384 72.9735 102.395 72.9003C102.406 72.827 102.423 72.7636 102.446 72.7098C102.468 72.6571 102.496 72.6137 102.528 72.5795C102.56 72.5453 102.597 72.5199 102.639 72.5033C102.682 72.4877 102.729 72.4799 102.781 72.4799C102.848 72.4799 102.906 72.4926 102.956 72.5179C103.005 72.5433 103.047 72.5829 103.08 72.6366C103.114 72.6913 103.14 72.7611 103.156 72.8461C103.173 72.932 103.181 73.0345 103.181 73.1537Z" fill="#5AC5F2" fill-opacity="0.6"/>
<path d="M100.823 76.9489H101.016C101.111 76.9489 101.189 76.9645 101.25 76.9958C101.313 77.028 101.359 77.0715 101.39 77.1261C101.421 77.1818 101.437 77.2443 101.437 77.3136C101.437 77.3957 101.423 77.4645 101.396 77.5202C101.368 77.5758 101.327 77.6178 101.272 77.6462C101.218 77.6745 101.148 77.6886 101.064 77.6886C100.988 77.6886 100.921 77.6735 100.862 77.6432C100.805 77.6139 100.759 77.5719 100.726 77.5173C100.694 77.4626 100.678 77.3981 100.678 77.3239H100.407C100.407 77.4323 100.434 77.5309 100.489 77.6198C100.543 77.7087 100.62 77.7795 100.719 77.8322C100.818 77.8849 100.934 77.9113 101.064 77.9113C101.193 77.9113 101.306 77.8883 101.403 77.8425C101.5 77.7975 101.575 77.7301 101.628 77.6403C101.682 77.5514 101.709 77.4406 101.709 77.3078C101.709 77.2541 101.696 77.1965 101.671 77.1349C101.646 77.0744 101.608 77.0177 101.555 76.965C101.503 76.9123 101.436 76.8688 101.353 76.8346C101.27 76.8014 101.17 76.7848 101.054 76.7848H100.823V76.9489ZM100.823 76.7262V76.8888H101.054C101.19 76.8888 101.302 76.8727 101.391 76.8405C101.48 76.8083 101.55 76.7653 101.601 76.7116C101.652 76.6579 101.688 76.5988 101.709 76.5343C101.73 76.4709 101.741 76.4074 101.741 76.3439C101.741 76.2443 101.724 76.1559 101.69 76.0788C101.657 76.0016 101.609 75.9362 101.548 75.8825C101.487 75.8288 101.416 75.7883 101.334 75.7609C101.252 75.7336 101.163 75.7199 101.066 75.7199C100.973 75.7199 100.886 75.7331 100.804 75.7594C100.723 75.7858 100.651 75.8239 100.588 75.8737C100.526 75.9245 100.477 75.9865 100.442 76.0597C100.407 76.134 100.389 76.2184 100.389 76.3132H100.66C100.66 76.2389 100.676 76.174 100.708 76.1183C100.742 76.0627 100.789 76.0192 100.849 75.988C100.911 75.9577 100.983 75.9425 101.066 75.9425C101.149 75.9425 101.22 75.9567 101.28 75.985C101.34 76.0143 101.387 76.0583 101.419 76.1169C101.452 76.1755 101.469 76.2492 101.469 76.3381C101.469 76.4269 101.45 76.4997 101.413 76.5563C101.376 76.6139 101.323 76.6564 101.255 76.6838C101.188 76.7121 101.108 76.7262 101.016 76.7262H100.823ZM103.454 76.9855V76.6603C103.454 76.4855 103.438 76.3381 103.407 76.2179C103.375 76.0978 103.331 76.0011 103.272 75.9279C103.213 75.8547 103.143 75.8014 103.06 75.7682C102.978 75.736 102.885 75.7199 102.781 75.7199C102.699 75.7199 102.624 75.7301 102.554 75.7507C102.485 75.7712 102.422 75.8039 102.367 75.8488C102.312 75.8947 102.265 75.9543 102.226 76.0275C102.187 76.1008 102.157 76.1896 102.137 76.2941C102.116 76.3986 102.106 76.5207 102.106 76.6603V76.9855C102.106 77.1603 102.122 77.3068 102.153 77.425C102.185 77.5431 102.23 77.6379 102.289 77.7092C102.348 77.7814 102.418 77.8332 102.5 77.8644C102.583 77.8957 102.676 77.9113 102.778 77.9113C102.861 77.9113 102.938 77.901 103.007 77.8805C103.077 77.861 103.14 77.8293 103.194 77.7853C103.249 77.7424 103.295 77.6847 103.333 77.6125C103.373 77.5412 103.402 77.4538 103.423 77.3503C103.443 77.2467 103.454 77.1252 103.454 76.9855ZM103.181 76.6164V77.0309C103.181 77.1266 103.175 77.2106 103.164 77.2829C103.153 77.3561 103.137 77.4186 103.115 77.4704C103.094 77.5221 103.066 77.5641 103.033 77.5964C103.001 77.6286 102.963 77.652 102.92 77.6667C102.878 77.6823 102.831 77.6901 102.778 77.6901C102.714 77.6901 102.657 77.6779 102.607 77.6535C102.557 77.63 102.515 77.5925 102.481 77.5407C102.448 77.4889 102.422 77.4211 102.405 77.3371C102.387 77.2531 102.378 77.151 102.378 77.0309V76.6164C102.378 76.5207 102.384 76.4362 102.395 76.363C102.406 76.2897 102.423 76.2262 102.446 76.1725C102.468 76.1198 102.496 76.0763 102.528 76.0422C102.56 76.008 102.597 75.9826 102.639 75.966C102.682 75.9504 102.729 75.9425 102.781 75.9425C102.848 75.9425 102.906 75.9552 102.956 75.9806C103.005 76.006 103.047 76.0456 103.08 76.0993C103.114 76.154 103.14 76.2238 103.156 76.3088C103.173 76.3947 103.181 76.4972 103.181 76.6164Z" fill="#5AC5F2" fill-opacity="0.6"/>
<path d="M101.869 79.9296V79.707H100.328V79.8667L101.283 81.3447H101.504L101.267 80.917L100.635 79.9296H101.869ZM101.571 81.3447V79.2119H101.3V81.3447H101.571ZM103.454 80.4482V80.123C103.454 79.9482 103.438 79.8007 103.407 79.6806C103.375 79.5605 103.331 79.4638 103.272 79.3906C103.213 79.3173 103.143 79.2641 103.06 79.2309C102.978 79.1987 102.885 79.1826 102.781 79.1826C102.699 79.1826 102.624 79.1928 102.554 79.2133C102.485 79.2338 102.422 79.2666 102.367 79.3115C102.312 79.3574 102.265 79.417 102.226 79.4902C102.187 79.5634 102.157 79.6523 102.137 79.7568C102.116 79.8613 102.106 79.9834 102.106 80.123V80.4482C102.106 80.623 102.122 80.7695 102.153 80.8877C102.185 81.0058 102.23 81.1005 102.289 81.1718C102.348 81.2441 102.418 81.2959 102.5 81.3271C102.583 81.3584 102.676 81.374 102.778 81.374C102.861 81.374 102.938 81.3637 103.007 81.3432C103.077 81.3237 103.14 81.292 103.194 81.248C103.249 81.205 103.295 81.1474 103.333 81.0752C103.373 81.0039 103.402 80.9165 103.423 80.813C103.443 80.7094 103.454 80.5879 103.454 80.4482ZM103.181 80.0791V80.4936C103.181 80.5893 103.175 80.6733 103.164 80.7456C103.153 80.8188 103.137 80.8813 103.115 80.9331C103.094 80.9848 103.066 81.0268 103.033 81.059C103.001 81.0913 102.963 81.1147 102.92 81.1294C102.878 81.145 102.831 81.1528 102.778 81.1528C102.714 81.1528 102.657 81.1406 102.607 81.1162C102.557 81.0927 102.515 81.0551 102.481 81.0034C102.448 80.9516 102.422 80.8838 102.405 80.7998C102.387 80.7158 102.378 80.6137 102.378 80.4936V80.0791C102.378 79.9834 102.384 79.8989 102.395 79.8256C102.406 79.7524 102.423 79.6889 102.446 79.6352C102.468 79.5825 102.496 79.539 102.528 79.5048C102.56 79.4707 102.597 79.4453 102.639 79.4287C102.682 79.413 102.729 79.4052 102.781 79.4052C102.848 79.4052 102.906 79.4179 102.956 79.4433C103.005 79.4687 103.047 79.5083 103.08 79.562C103.114 79.6167 103.14 79.6865 103.156 79.7714C103.173 79.8574 103.181 79.9599 103.181 80.0791Z" fill="#5AC5F2" fill-opacity="0.6"/>
<path d="M100.77 83.6897L100.553 83.7454L100.66 84.8074H101.754V84.5569H100.89L100.826 83.9768C100.865 83.9993 100.914 84.0203 100.974 84.0398C101.034 84.0593 101.104 84.0691 101.182 84.0691C101.28 84.0691 101.369 84.052 101.447 84.0178C101.525 83.9846 101.591 83.9368 101.646 83.8743C101.702 83.8118 101.744 83.7366 101.773 83.6487C101.803 83.5608 101.817 83.4626 101.817 83.3542C101.817 83.2517 101.803 83.1575 101.775 83.0715C101.748 82.9856 101.706 82.9104 101.65 82.8459C101.595 82.7825 101.524 82.7332 101.439 82.698C101.355 82.6628 101.256 82.6453 101.142 82.6453C101.056 82.6453 100.975 82.657 100.897 82.6804C100.821 82.7048 100.753 82.7415 100.692 82.7903C100.633 82.8401 100.584 82.9016 100.546 82.9749C100.509 83.0491 100.485 83.136 100.476 83.2356H100.733C100.745 83.1555 100.769 83.0881 100.804 83.0334C100.839 82.9788 100.885 82.9373 100.941 82.9089C100.999 82.8816 101.066 82.8679 101.142 82.8679C101.207 82.8679 101.264 82.8792 101.313 82.9016C101.363 82.9241 101.405 82.9563 101.439 82.9983C101.474 83.0403 101.5 83.0911 101.517 83.1506C101.536 83.2102 101.545 83.2771 101.545 83.3513C101.545 83.4187 101.536 83.4812 101.517 83.5388C101.499 83.5964 101.471 83.6467 101.434 83.6897C101.397 83.7327 101.353 83.7659 101.3 83.7893C101.248 83.8137 101.187 83.8259 101.119 83.8259C101.028 83.8259 100.959 83.8137 100.912 83.7893C100.866 83.7649 100.819 83.7317 100.77 83.6897ZM103.454 83.9109V83.5857C103.454 83.4109 103.438 83.2634 103.407 83.1433C103.375 83.0232 103.331 82.9265 103.272 82.8533C103.213 82.78 103.143 82.7268 103.06 82.6936C102.978 82.6614 102.885 82.6453 102.781 82.6453C102.699 82.6453 102.624 82.6555 102.554 82.676C102.485 82.6965 102.422 82.7292 102.367 82.7742C102.312 82.8201 102.265 82.8796 102.226 82.9529C102.187 83.0261 102.157 83.115 102.137 83.2195C102.116 83.324 102.106 83.446 102.106 83.5857V83.9109C102.106 84.0857 102.122 84.2322 102.153 84.3503C102.185 84.4685 102.23 84.5632 102.289 84.6345C102.348 84.7068 102.418 84.7585 102.5 84.7898C102.583 84.821 102.676 84.8367 102.778 84.8367C102.861 84.8367 102.938 84.8264 103.007 84.8059C103.077 84.7864 103.14 84.7546 103.194 84.7107C103.249 84.6677 103.295 84.6101 103.333 84.5378C103.373 84.4666 103.402 84.3792 103.423 84.2756C103.443 84.1721 103.454 84.0505 103.454 83.9109ZM103.181 83.5417V83.9563C103.181 84.052 103.175 84.136 103.164 84.2083C103.153 84.2815 103.137 84.344 103.115 84.3958C103.094 84.4475 103.066 84.4895 103.033 84.5217C103.001 84.554 102.963 84.5774 102.92 84.592C102.878 84.6077 102.831 84.6155 102.778 84.6155C102.714 84.6155 102.657 84.6033 102.607 84.5789C102.557 84.5554 102.515 84.5178 102.481 84.4661C102.448 84.4143 102.422 84.3464 102.405 84.2625C102.387 84.1785 102.378 84.0764 102.378 83.9563V83.5417C102.378 83.446 102.384 83.3616 102.395 83.2883C102.406 83.2151 102.423 83.1516 102.446 83.0979C102.468 83.0452 102.496 83.0017 102.528 82.9675C102.56 82.9334 102.597 82.908 102.639 82.8914C102.682 82.8757 102.729 82.8679 102.781 82.8679C102.848 82.8679 102.906 82.8806 102.956 82.906C103.005 82.9314 103.047 82.9709 103.08 83.0247C103.114 83.0793 103.14 83.1492 103.156 83.2341C103.173 83.3201 103.181 83.4226 103.181 83.5417Z" fill="#5AC5F2" fill-opacity="0.6"/>
<path d="M101.467 88.273H101.491V88.043H101.467C101.324 88.043 101.204 88.0196 101.107 87.9727C101.01 87.9268 100.934 87.8648 100.877 87.7867C100.82 87.7095 100.779 87.6226 100.754 87.5259C100.729 87.4292 100.717 87.3311 100.717 87.2315V86.918C100.717 86.8233 100.729 86.7393 100.751 86.6661C100.773 86.5938 100.804 86.5328 100.843 86.483C100.882 86.4331 100.926 86.3955 100.975 86.3702C101.025 86.3448 101.077 86.3321 101.13 86.3321C101.193 86.3321 101.249 86.3438 101.297 86.3672C101.346 86.3916 101.387 86.4253 101.42 86.4683C101.455 86.5122 101.48 86.564 101.498 86.6236C101.516 86.6831 101.524 86.7486 101.524 86.8199C101.524 86.8833 101.517 86.9444 101.501 87.003C101.485 87.0625 101.461 87.1153 101.429 87.1612C101.397 87.208 101.356 87.2447 101.308 87.271C101.26 87.2984 101.203 87.3121 101.136 87.3121C101.061 87.3121 100.991 87.2935 100.925 87.2564C100.861 87.2203 100.808 87.1724 100.766 87.1128C100.725 87.0542 100.701 86.9903 100.695 86.9209L100.552 86.9224C100.565 87.0318 100.591 87.125 100.628 87.2022C100.666 87.2803 100.713 87.3438 100.769 87.3926C100.825 87.4424 100.888 87.4786 100.958 87.501C101.028 87.5245 101.102 87.5362 101.18 87.5362C101.287 87.5362 101.378 87.5162 101.456 87.4761C101.533 87.4361 101.596 87.3824 101.646 87.315C101.696 87.2486 101.732 87.1734 101.756 87.0894C101.78 87.0064 101.792 86.9209 101.792 86.833C101.792 86.7325 101.778 86.6382 101.75 86.5503C101.722 86.4624 101.679 86.3853 101.623 86.3189C101.567 86.2525 101.498 86.2007 101.416 86.1636C101.334 86.1265 101.239 86.108 101.13 86.108C101.015 86.108 100.915 86.1314 100.829 86.1783C100.743 86.2261 100.671 86.2896 100.615 86.3687C100.558 86.4478 100.516 86.5357 100.487 86.6324C100.459 86.729 100.445 86.8272 100.445 86.9268V87.0542C100.445 87.2046 100.46 87.3521 100.49 87.4966C100.521 87.6412 100.573 87.772 100.647 87.8892C100.722 88.0064 100.826 88.0997 100.959 88.169C101.092 88.2383 101.261 88.273 101.467 88.273ZM103.454 87.3736V87.0484C103.454 86.8736 103.438 86.7261 103.407 86.606C103.375 86.4859 103.331 86.3892 103.272 86.316C103.213 86.2427 103.143 86.1895 103.06 86.1563C102.978 86.1241 102.885 86.108 102.781 86.108C102.699 86.108 102.624 86.1182 102.554 86.1387C102.485 86.1592 102.422 86.1919 102.367 86.2369C102.312 86.2828 102.265 86.3423 102.226 86.4156C102.187 86.4888 102.157 86.5777 102.137 86.6822C102.116 86.7867 102.106 86.9087 102.106 87.0484V87.3736C102.106 87.5484 102.122 87.6949 102.153 87.813C102.185 87.9312 102.23 88.0259 102.289 88.0972C102.348 88.1695 102.418 88.2212 102.5 88.2525C102.583 88.2837 102.676 88.2994 102.778 88.2994C102.861 88.2994 102.938 88.2891 103.007 88.2686C103.077 88.2491 103.14 88.2173 103.194 88.1734C103.249 88.1304 103.295 88.0728 103.333 88.0005C103.373 87.9292 103.402 87.8418 103.423 87.7383C103.443 87.6348 103.454 87.5132 103.454 87.3736ZM103.181 87.0044V87.419C103.181 87.5147 103.175 87.5987 103.164 87.6709C103.153 87.7442 103.137 87.8067 103.115 87.8584C103.094 87.9102 103.066 87.9522 103.033 87.9844C103.001 88.0166 102.963 88.0401 102.92 88.0547C102.878 88.0704 102.831 88.0782 102.778 88.0782C102.714 88.0782 102.657 88.066 102.607 88.0415C102.557 88.0181 102.515 87.9805 102.481 87.9288C102.448 87.877 102.422 87.8091 102.405 87.7251C102.387 87.6412 102.378 87.5391 102.378 87.419V87.0044C102.378 86.9087 102.384 86.8243 102.395 86.751C102.406 86.6778 102.423 86.6143 102.446 86.5606C102.468 86.5079 102.496 86.4644 102.528 86.4302C102.56 86.396 102.597 86.3706 102.639 86.354C102.682 86.3384 102.729 86.3306 102.781 86.3306C102.848 86.3306 102.906 86.3433 102.956 86.3687C103.005 86.3941 103.047 86.4336 103.08 86.4873C103.114 86.542 103.14 86.6119 103.156 86.6968C103.173 86.7828 103.181 86.8853 103.181 87.0044Z" fill="#5AC5F2" fill-opacity="0.6"/>
<path d="M101.806 91.7327V91.5804L100.922 89.5999H100.637L101.519 91.5101H100.364V91.7327H101.806ZM103.454 90.8363V90.5111C103.454 90.3363 103.438 90.1888 103.407 90.0687C103.375 89.9486 103.331 89.8519 103.272 89.7786C103.213 89.7054 103.143 89.6522 103.06 89.619C102.978 89.5868 102.885 89.5706 102.781 89.5706C102.699 89.5706 102.624 89.5809 102.554 89.6014C102.485 89.6219 102.422 89.6546 102.367 89.6995C102.312 89.7454 102.265 89.805 102.226 89.8783C102.187 89.9515 102.157 90.0404 102.137 90.1449C102.116 90.2493 102.106 90.3714 102.106 90.5111V90.8363C102.106 91.0111 102.122 91.1576 102.153 91.2757C102.185 91.3939 102.23 91.4886 102.289 91.5599C102.348 91.6322 102.418 91.6839 102.5 91.7152C102.583 91.7464 102.676 91.762 102.778 91.762C102.861 91.762 102.938 91.7518 103.007 91.7313C103.077 91.7118 103.14 91.68 103.194 91.6361C103.249 91.5931 103.295 91.5355 103.333 91.4632C103.373 91.3919 103.402 91.3045 103.423 91.201C103.443 91.0975 103.454 90.9759 103.454 90.8363ZM103.181 90.4671V90.8817C103.181 90.9774 103.175 91.0614 103.164 91.1336C103.153 91.2069 103.137 91.2694 103.115 91.3211C103.094 91.3729 103.066 91.4149 103.033 91.4471C103.001 91.4793 102.963 91.5028 102.92 91.5174C102.878 91.533 102.831 91.5409 102.778 91.5409C102.714 91.5409 102.657 91.5286 102.607 91.5042C102.557 91.4808 102.515 91.4432 102.481 91.3914C102.448 91.3397 102.422 91.2718 102.405 91.1878C102.387 91.1038 102.378 91.0018 102.378 90.8817V90.4671C102.378 90.3714 102.384 90.2869 102.395 90.2137C102.406 90.1405 102.423 90.077 102.446 90.0233C102.468 89.9705 102.496 89.9271 102.528 89.8929C102.56 89.8587 102.597 89.8333 102.639 89.8167C102.682 89.8011 102.729 89.7933 102.781 89.7933C102.848 89.7933 102.906 89.806 102.956 89.8314C103.005 89.8568 103.047 89.8963 103.08 89.95C103.114 90.0047 103.14 90.0745 103.156 90.1595C103.173 90.2454 103.181 90.348 103.181 90.4671Z" fill="#5AC5F2" fill-opacity="0.6"/>
<path d="M101.772 93.6398C101.772 93.5099 101.742 93.3995 101.681 93.3087C101.622 93.2189 101.541 93.1505 101.438 93.1036C101.336 93.0568 101.222 93.0333 101.094 93.0333C100.966 93.0333 100.851 93.0568 100.748 93.1036C100.646 93.1505 100.564 93.2189 100.505 93.3087C100.445 93.3995 100.416 93.5099 100.416 93.6398C100.416 93.7247 100.432 93.8024 100.464 93.8727C100.497 93.944 100.543 94.006 100.603 94.0587C100.664 94.1115 100.735 94.152 100.817 94.1803C100.9 94.2096 100.991 94.2242 101.091 94.2242C101.222 94.2242 101.338 94.1989 101.441 94.1481C101.543 94.0983 101.624 94.0294 101.683 93.9415C101.742 93.8536 101.772 93.7531 101.772 93.6398ZM101.5 93.6456C101.5 93.7247 101.482 93.7946 101.448 93.8551C101.414 93.9166 101.366 93.9645 101.305 93.9987C101.243 94.0328 101.172 94.0499 101.091 94.0499C101.008 94.0499 100.936 94.0328 100.875 93.9987C100.816 93.9645 100.77 93.9166 100.736 93.8551C100.703 93.7946 100.687 93.7247 100.687 93.6456C100.687 93.5636 100.703 93.4933 100.735 93.4347C100.768 93.3771 100.815 93.3326 100.875 93.3014C100.937 93.2711 101.01 93.256 101.094 93.256C101.178 93.256 101.25 93.2711 101.311 93.3014C101.371 93.3326 101.417 93.3771 101.45 93.4347C101.483 93.4933 101.5 93.5636 101.5 93.6456ZM101.722 94.6403C101.722 94.5367 101.695 94.4435 101.64 94.3605C101.585 94.2775 101.511 94.212 101.416 94.1642C101.321 94.1163 101.214 94.0924 101.094 94.0924C100.972 94.0924 100.863 94.1163 100.767 94.1642C100.672 94.212 100.598 94.2775 100.544 94.3605C100.491 94.4435 100.464 94.5367 100.464 94.6403C100.464 94.7643 100.491 94.8698 100.544 94.9567C100.599 95.0436 100.674 95.11 100.769 95.1559C100.863 95.2018 100.971 95.2247 101.092 95.2247C101.214 95.2247 101.323 95.2018 101.417 95.1559C101.512 95.11 101.586 95.0436 101.64 94.9567C101.695 94.8698 101.722 94.7643 101.722 94.6403ZM101.451 94.6359C101.451 94.7072 101.436 94.7701 101.406 94.8248C101.375 94.8795 101.333 94.9225 101.28 94.9537C101.226 94.986 101.164 95.0021 101.092 95.0021C101.021 95.0021 100.958 94.9869 100.905 94.9567C100.852 94.9274 100.811 94.8854 100.78 94.8307C100.751 94.776 100.736 94.7111 100.736 94.6359C100.736 94.5626 100.751 94.4987 100.78 94.444C100.811 94.3893 100.853 94.3468 100.906 94.3165C100.96 94.2863 101.022 94.2711 101.094 94.2711C101.165 94.2711 101.227 94.2863 101.28 94.3165C101.333 94.3468 101.375 94.3893 101.406 94.444C101.436 94.4987 101.451 94.5626 101.451 94.6359ZM103.454 94.299V93.9738C103.454 93.799 103.438 93.6515 103.407 93.5314C103.375 93.4113 103.331 93.3146 103.272 93.2413C103.213 93.1681 103.143 93.1149 103.06 93.0817C102.978 93.0494 102.885 93.0333 102.781 93.0333C102.699 93.0333 102.624 93.0436 102.554 93.0641C102.485 93.0846 102.422 93.1173 102.367 93.1622C102.312 93.2081 102.265 93.2677 102.226 93.3409C102.187 93.4142 102.157 93.5031 102.137 93.6075C102.116 93.712 102.106 93.8341 102.106 93.9738V94.299C102.106 94.4738 102.122 94.6202 102.153 94.7384C102.185 94.8566 102.23 94.9513 102.289 95.0226C102.348 95.0948 102.418 95.1466 102.5 95.1779C102.583 95.2091 102.676 95.2247 102.778 95.2247C102.861 95.2247 102.938 95.2145 103.007 95.194C103.077 95.1744 103.14 95.1427 103.194 95.0988C103.249 95.0558 103.295 94.9982 103.333 94.9259C103.373 94.8546 103.402 94.7672 103.423 94.6637C103.443 94.5602 103.454 94.4386 103.454 94.299ZM103.181 93.9298V94.3444C103.181 94.4401 103.175 94.524 103.164 94.5963C103.153 94.6696 103.137 94.7321 103.115 94.7838C103.094 94.8356 103.066 94.8776 103.033 94.9098C103.001 94.942 102.963 94.9655 102.92 94.9801C102.878 94.9957 102.831 95.0035 102.778 95.0035C102.714 95.0035 102.657 94.9913 102.607 94.9669C102.557 94.9435 102.515 94.9059 102.481 94.8541C102.448 94.8024 102.422 94.7345 102.405 94.6505C102.387 94.5665 102.378 94.4645 102.378 94.3444V93.9298C102.378 93.8341 102.384 93.7496 102.395 93.6764C102.406 93.6031 102.423 93.5397 102.446 93.486C102.468 93.4332 102.496 93.3898 102.528 93.3556C102.56 93.3214 102.597 93.296 102.639 93.2794C102.682 93.2638 102.729 93.256 102.781 93.256C102.848 93.256 102.906 93.2687 102.956 93.2941C103.005 93.3195 103.047 93.359 103.08 93.4127C103.114 93.4674 103.14 93.5372 103.156 93.6222C103.173 93.7081 103.181 93.8107 103.181 93.9298Z" fill="#5AC5F2" fill-opacity="0.6"/>
</g>
<g filter="url(#filter2_d_380_11963)">
<rect x="0.117811" y="-0.0271989" width="2.56489" height="2.56489" rx="1.28245" transform="matrix(0.848048 0.529919 0.529919 -0.848048 125.917 101.755)" fill="#37E9F4" stroke="#5AC5F2" stroke-width="0.170993"/>
<path d="M135.058 105.124L134.445 107.553L134.916 107.847L135.575 104.818L135.257 104.62L135.058 105.124ZM133.193 106.77L135.102 105.151L135.473 104.755L135.153 104.555L132.724 106.477L133.193 106.77ZM137.426 106.488L136.878 107.365C136.837 107.43 136.79 107.48 136.736 107.512C136.683 107.545 136.623 107.559 136.558 107.555C136.495 107.551 136.426 107.527 136.354 107.481C136.287 107.44 136.236 107.392 136.202 107.339C136.167 107.286 136.148 107.232 136.145 107.176C136.142 107.121 136.156 107.068 136.186 107.02L135.778 106.765C135.733 106.837 135.707 106.919 135.699 107.009C135.692 107.098 135.705 107.191 135.739 107.286C135.772 107.381 135.826 107.473 135.9 107.561C135.974 107.65 136.068 107.73 136.184 107.803C136.322 107.889 136.459 107.942 136.594 107.962C136.731 107.983 136.859 107.966 136.979 107.91C137.1 107.856 137.204 107.759 137.291 107.618L137.802 106.801C137.855 106.717 137.907 106.645 137.96 106.585C138.014 106.528 138.067 106.481 138.12 106.447L138.137 106.42L137.718 106.157C137.671 106.189 137.62 106.236 137.567 106.297C137.513 106.36 137.466 106.423 137.426 106.488ZM137.017 107.274L137.179 107.023L136.885 106.84C136.809 106.792 136.747 106.743 136.698 106.692C136.649 106.643 136.613 106.592 136.592 106.541C136.57 106.49 136.562 106.439 136.567 106.388C136.572 106.338 136.589 106.288 136.62 106.239C136.65 106.19 136.689 106.153 136.738 106.126C136.785 106.101 136.837 106.09 136.895 106.094C136.953 106.099 137.013 106.121 137.076 106.16C137.159 106.212 137.222 106.275 137.263 106.348C137.304 106.423 137.328 106.496 137.333 106.569C137.337 106.643 137.326 106.703 137.3 106.749L137.546 106.65C137.562 106.596 137.57 106.531 137.57 106.457C137.571 106.384 137.559 106.306 137.537 106.224C137.514 106.144 137.476 106.065 137.421 105.989C137.368 105.913 137.294 105.845 137.198 105.786C137.078 105.711 136.956 105.667 136.833 105.656C136.708 105.646 136.594 105.665 136.49 105.714C136.385 105.763 136.3 105.84 136.235 105.944C136.174 106.042 136.138 106.139 136.128 106.236C136.118 106.336 136.132 106.433 136.172 106.529C136.212 106.625 136.277 106.719 136.365 106.81C136.452 106.902 136.562 106.99 136.696 107.074L137.017 107.274ZM137.303 109.528L138.934 106.918L138.523 106.661L136.892 109.271L137.303 109.528ZM140.218 108.323L139.34 109.728L139.752 109.985L140.9 108.146L140.513 107.904L140.218 108.323ZM140.037 108.741L140.173 108.83C140.25 108.707 140.308 108.585 140.345 108.463C140.383 108.343 140.397 108.227 140.389 108.115C140.379 108.003 140.344 107.898 140.283 107.8C140.22 107.703 140.128 107.616 140.004 107.539C139.915 107.483 139.824 107.445 139.733 107.424C139.642 107.403 139.552 107.403 139.464 107.423C139.377 107.445 139.291 107.49 139.207 107.558C139.123 107.627 139.044 107.722 138.968 107.843L138.226 109.031L138.635 109.287L139.379 108.096C139.421 108.029 139.464 107.978 139.508 107.943C139.552 107.908 139.596 107.886 139.64 107.876C139.684 107.866 139.728 107.866 139.771 107.878C139.814 107.889 139.856 107.907 139.897 107.933C140.014 108.006 140.092 108.086 140.13 108.173C140.169 108.262 140.178 108.354 140.158 108.45C140.138 108.547 140.098 108.644 140.037 108.741ZM142.152 108.881C142.016 108.796 141.879 108.741 141.742 108.717C141.605 108.694 141.473 108.699 141.345 108.731C141.219 108.764 141.102 108.822 140.993 108.906C140.884 108.989 140.791 109.093 140.712 109.219L140.669 109.287C140.58 109.431 140.519 109.574 140.488 109.717C140.457 109.86 140.453 109.996 140.476 110.126C140.499 110.256 140.547 110.376 140.621 110.483C140.696 110.591 140.792 110.682 140.911 110.757C141.043 110.839 141.172 110.889 141.298 110.906C141.424 110.923 141.544 110.912 141.659 110.872C141.774 110.834 141.882 110.77 141.983 110.68C142.084 110.59 142.176 110.479 142.259 110.347L142.369 110.172L140.948 109.284L140.764 109.578L141.78 110.213L141.76 110.245C141.712 110.317 141.654 110.377 141.587 110.425C141.52 110.473 141.447 110.5 141.368 110.506C141.289 110.512 141.204 110.486 141.114 110.429C141.046 110.387 140.994 110.334 140.959 110.272C140.925 110.211 140.907 110.142 140.906 110.066C140.905 109.99 140.919 109.907 140.948 109.818C140.977 109.731 141.021 109.639 141.081 109.544L141.123 109.476C141.173 109.396 141.231 109.328 141.296 109.272C141.361 109.218 141.431 109.179 141.506 109.155C141.581 109.131 141.658 109.123 141.737 109.132C141.816 109.142 141.895 109.172 141.973 109.22C142.072 109.282 142.147 109.357 142.199 109.444C142.251 109.532 142.283 109.63 142.295 109.738L142.641 109.664C142.638 109.581 142.621 109.494 142.59 109.401C142.56 109.309 142.509 109.218 142.437 109.128C142.367 109.038 142.272 108.956 142.152 108.881ZM144.115 111.851L144.318 111.525L143.419 110.963L143.216 111.289L144.115 111.851ZM146.788 113.834L147.041 113.429C147.162 113.236 147.246 113.058 147.293 112.897C147.341 112.738 147.356 112.593 147.337 112.464C147.319 112.334 147.272 112.218 147.198 112.116C147.124 112.015 147.026 111.926 146.903 111.85C146.806 111.789 146.708 111.745 146.608 111.717C146.51 111.691 146.411 111.683 146.311 111.694C146.21 111.706 146.11 111.739 146.01 111.793C145.911 111.849 145.811 111.928 145.712 112.029C145.613 112.131 145.515 112.26 145.418 112.415L145.166 112.82C145.044 113.015 144.96 113.191 144.915 113.349C144.87 113.508 144.856 113.651 144.875 113.78C144.894 113.909 144.94 114.024 145.014 114.124C145.09 114.225 145.189 114.314 145.311 114.39C145.41 114.452 145.508 114.496 145.607 114.523C145.705 114.551 145.804 114.56 145.902 114.549C146.002 114.538 146.101 114.506 146.199 114.451C146.299 114.398 146.398 114.321 146.496 114.218C146.594 114.117 146.691 113.989 146.788 113.834ZM146.668 113.116L146.341 113.639C146.279 113.738 146.219 113.821 146.161 113.888C146.102 113.957 146.045 114.011 145.99 114.049C145.935 114.088 145.881 114.114 145.828 114.127C145.774 114.14 145.721 114.141 145.67 114.13C145.618 114.119 145.566 114.098 145.514 114.065C145.451 114.026 145.402 113.978 145.368 113.922C145.333 113.867 145.315 113.802 145.314 113.728C145.313 113.653 145.331 113.567 145.368 113.468C145.404 113.371 145.461 113.261 145.539 113.138L145.866 112.614C145.928 112.515 145.988 112.431 146.047 112.362C146.106 112.293 146.164 112.238 146.22 112.198C146.276 112.159 146.331 112.132 146.385 112.117C146.439 112.103 146.492 112.102 146.544 112.112C146.597 112.123 146.649 112.144 146.699 112.176C146.764 112.217 146.813 112.265 146.848 112.321C146.882 112.377 146.899 112.443 146.899 112.518C146.898 112.595 146.879 112.683 146.841 112.782C146.803 112.881 146.745 112.992 146.668 113.116ZM147.623 115.799L149.175 113.316L148.765 113.06L147.517 115.057L147.039 114.472L146.828 114.811L147.574 115.768L147.623 115.799ZM150.388 115.207L150.373 115.231C150.247 115.433 150.154 115.63 150.095 115.821C150.036 116.014 150.003 116.194 149.997 116.362C149.99 116.531 150.001 116.681 150.03 116.813C150.06 116.946 150.101 117.053 150.153 117.136L150.344 116.983C150.314 116.908 150.295 116.818 150.285 116.712C150.276 116.606 150.281 116.487 150.301 116.354C150.322 116.222 150.362 116.078 150.422 115.921C150.482 115.766 150.567 115.6 150.677 115.425L150.696 115.395C150.805 115.22 150.917 115.07 151.031 114.947C151.145 114.825 151.257 114.726 151.367 114.649C151.478 114.572 151.583 114.515 151.682 114.475C151.783 114.436 151.874 114.412 151.956 114.403L152.005 114.173C151.907 114.163 151.792 114.174 151.66 114.206C151.529 114.237 151.389 114.292 151.24 114.373C151.092 114.452 150.944 114.56 150.797 114.697C150.651 114.835 150.514 115.005 150.388 115.207ZM150.901 117.42L152.261 115.245L151.918 115.031L150.559 117.206L150.901 117.42ZM152.379 117.449L152.535 117.2L151.671 116.66L151.516 116.91L152.379 117.449ZM151.53 117.441L151.872 117.654L152.799 116.17C152.828 116.123 152.858 116.09 152.887 116.073C152.916 116.058 152.946 116.053 152.976 116.06C153.006 116.067 153.037 116.081 153.07 116.101C153.094 116.116 153.116 116.131 153.136 116.148C153.155 116.164 153.171 116.178 153.183 116.189L153.347 115.929C153.324 115.903 153.296 115.875 153.262 115.845C153.229 115.815 153.189 115.785 153.141 115.755C153.062 115.706 152.984 115.677 152.907 115.666C152.829 115.657 152.753 115.673 152.679 115.715C152.606 115.757 152.536 115.831 152.471 115.935L151.53 117.441ZM153.735 117.332L153.75 117.308C153.874 117.108 153.965 116.912 154.023 116.72C154.081 116.528 154.113 116.347 154.119 116.178C154.126 116.009 154.114 115.857 154.083 115.722C154.053 115.588 154.011 115.478 153.959 115.394L153.773 115.538C153.802 115.614 153.82 115.705 153.828 115.811C153.838 115.917 153.832 116.037 153.81 116.172C153.789 116.306 153.748 116.451 153.687 116.607C153.628 116.764 153.543 116.93 153.433 117.106L153.414 117.135C153.305 117.311 153.192 117.46 153.076 117.582C152.961 117.705 152.848 117.805 152.736 117.881C152.624 117.958 152.518 118.016 152.419 118.055C152.319 118.094 152.231 118.118 152.155 118.127L152.108 118.357C152.206 118.368 152.322 118.358 152.456 118.326C152.591 118.295 152.733 118.239 152.882 118.157C153.032 118.078 153.18 117.969 153.327 117.833C153.475 117.697 153.611 117.53 153.735 117.332Z" fill="white"/>
<path d="M138.431 101.154L140.499 97.8436L139.953 97.5024L138.289 100.165L137.652 99.385L137.37 99.8359L138.365 101.113L138.431 101.154ZM143.585 100.377L143.857 99.9418L141.646 98.56L141.412 98.9338L141.754 100.776C141.789 100.983 141.81 101.156 141.817 101.295C141.825 101.434 141.818 101.551 141.797 101.645C141.777 101.741 141.744 101.826 141.697 101.9C141.632 102.005 141.556 102.084 141.467 102.138C141.379 102.194 141.284 102.222 141.182 102.221C141.079 102.222 140.974 102.189 140.869 102.123C140.746 102.046 140.66 101.956 140.61 101.851C140.56 101.746 140.543 101.634 140.559 101.514C140.574 101.395 140.619 101.276 140.694 101.157L140.148 100.816C140.028 101.007 139.962 101.21 139.951 101.423C139.938 101.638 139.986 101.844 140.094 102.042C140.2 102.241 140.371 102.413 140.605 102.56C140.825 102.698 141.036 102.778 141.236 102.8C141.436 102.822 141.619 102.79 141.784 102.704C141.951 102.619 142.092 102.484 142.208 102.298C142.272 102.196 142.319 102.083 142.349 101.961C142.379 101.839 142.395 101.708 142.396 101.568C142.398 101.431 142.389 101.286 142.369 101.133C142.349 100.981 142.32 100.823 142.285 100.658L142.063 99.4254L143.585 100.377ZM144.498 101.073L144.74 100.682C144.836 100.528 144.896 100.346 144.921 100.134C144.946 99.923 144.928 99.7249 144.867 99.5398L144.469 99.5271C144.469 99.6215 144.464 99.7143 144.456 99.8055C144.447 99.8967 144.429 99.9882 144.401 100.08C144.373 100.172 144.329 100.265 144.27 100.36L144.013 100.77L144.498 101.073ZM146.858 103.452L147.13 103.017L144.751 101.531L144.528 101.848L144.558 104.967L144.995 105.24L145.028 104.133L145.03 102.31L146.858 103.452ZM145.119 105.318L147.181 102.019L146.635 101.678L144.573 104.977L145.119 105.318ZM149.898 104.321L150.169 103.886L147.958 102.504L147.724 102.878L148.066 104.721C148.101 104.927 148.122 105.1 148.13 105.239C148.137 105.378 148.131 105.495 148.11 105.589C148.089 105.686 148.056 105.771 148.01 105.845C147.945 105.949 147.868 106.028 147.78 106.082C147.692 106.139 147.597 106.166 147.494 106.165C147.391 106.166 147.287 106.133 147.181 106.067C147.059 105.991 146.972 105.9 146.922 105.795C146.872 105.691 146.855 105.578 146.872 105.458C146.887 105.34 146.932 105.221 147.006 105.101L146.46 104.76C146.341 104.952 146.275 105.154 146.263 105.368C146.251 105.583 146.298 105.789 146.406 105.986C146.513 106.185 146.683 106.358 146.917 106.504C147.138 106.642 147.348 106.722 147.549 106.744C147.749 106.767 147.932 106.735 148.097 106.649C148.263 106.564 148.404 106.429 148.521 106.243C148.585 106.14 148.632 106.028 148.662 105.906C148.692 105.784 148.708 105.653 148.709 105.513C148.711 105.375 148.702 105.23 148.682 105.077C148.661 104.925 148.633 104.767 148.597 104.602L148.375 103.37L149.898 104.321ZM150.052 106.45L150.378 106.653C150.505 106.733 150.596 106.82 150.652 106.916C150.709 107.013 150.734 107.112 150.727 107.215C150.719 107.317 150.684 107.418 150.622 107.518C150.557 107.622 150.482 107.7 150.398 107.75C150.315 107.803 150.223 107.826 150.122 107.82C150.022 107.814 149.915 107.776 149.8 107.704C149.704 107.644 149.628 107.569 149.574 107.481C149.521 107.395 149.494 107.302 149.493 107.203C149.491 107.105 149.52 107.008 149.58 106.911L149.032 106.569C148.923 106.744 148.871 106.928 148.879 107.122C148.886 107.315 148.945 107.5 149.055 107.676C149.166 107.855 149.321 108.006 149.521 108.131C149.734 108.264 149.942 108.345 150.145 108.373C150.348 108.403 150.538 108.377 150.714 108.294C150.89 108.21 151.042 108.066 151.17 107.861C151.229 107.767 151.266 107.658 151.283 107.534C151.3 107.41 151.29 107.281 151.254 107.147C151.217 107.015 151.15 106.884 151.052 106.754C150.954 106.625 150.821 106.508 150.651 106.402L150.241 106.146L150.052 106.45ZM150.318 106.024L150.131 106.323L150.541 106.579C150.734 106.7 150.913 106.78 151.077 106.82C151.243 106.86 151.394 106.867 151.53 106.841C151.665 106.816 151.784 106.766 151.887 106.689C151.991 106.613 152.078 106.519 152.149 106.405C152.245 106.251 152.303 106.097 152.323 105.941C152.343 105.787 152.328 105.638 152.279 105.491C152.23 105.345 152.151 105.208 152.041 105.081C151.933 104.955 151.8 104.842 151.641 104.743C151.499 104.654 151.351 104.589 151.196 104.547C151.042 104.505 150.889 104.49 150.738 104.503C150.587 104.518 150.444 104.564 150.311 104.643C150.179 104.724 150.064 104.841 149.968 104.995L150.514 105.337C150.575 105.238 150.652 105.166 150.745 105.118C150.838 105.074 150.939 105.056 151.049 105.066C151.16 105.076 151.27 105.116 151.378 105.184C151.493 105.255 151.579 105.337 151.637 105.43C151.694 105.523 151.72 105.623 151.714 105.73C151.709 105.839 151.671 105.95 151.601 106.063C151.52 106.191 151.43 106.28 151.331 106.329C151.231 106.378 151.123 106.392 151.007 106.372C150.89 106.354 150.769 106.306 150.644 106.228L150.318 106.024Z" fill="white"/>
</g>
<g filter="url(#filter3_d_380_11963)">
<g clip-path="url(#clip0_380_11963)">
<rect x="0.118932" y="-0.0217791" width="2.56489" height="2.56489" rx="1.28245" transform="matrix(0.822909 0.568173 0.568173 -0.822909 144.936 79.5648)" fill="#0D2535" stroke="#0D2535" stroke-width="0.170993"/>
</g>
<path d="M153.918 83.3448L153.194 85.7431L153.651 86.0584L154.448 83.0632L154.14 82.8503L153.918 83.3448ZM151.979 84.904L153.96 83.3744L154.349 82.9949L154.039 82.7809L151.524 84.5898L151.979 84.904ZM156.221 84.8158L155.633 85.6666C155.589 85.7304 155.54 85.7774 155.485 85.8076C155.43 85.8378 155.37 85.8493 155.305 85.8419C155.242 85.8353 155.175 85.8077 155.104 85.7592C155.04 85.7144 154.991 85.6647 154.959 85.6101C154.927 85.5554 154.911 85.5003 154.91 85.4447C154.909 85.3891 154.925 85.3377 154.958 85.2904L154.562 85.0172C154.514 85.0876 154.484 85.1675 154.472 85.257C154.461 85.3464 154.47 85.4394 154.499 85.5359C154.528 85.6323 154.577 85.7265 154.647 85.8184C154.717 85.9103 154.808 85.995 154.92 86.0724C155.054 86.165 155.188 86.2245 155.323 86.2507C155.458 86.2778 155.587 86.2662 155.71 86.2159C155.832 86.1675 155.941 86.0752 156.035 85.9388L156.582 85.1457C156.639 85.0643 156.695 84.995 156.75 84.9378C156.806 84.8824 156.862 84.8386 156.916 84.8065L156.935 84.7801L156.527 84.4989C156.479 84.5289 156.427 84.5731 156.37 84.6314C156.314 84.6916 156.264 84.7531 156.221 84.8158ZM155.777 85.5828L155.949 85.3394L155.664 85.1424C155.591 85.0916 155.531 85.0396 155.484 84.9866C155.437 84.9347 155.404 84.8827 155.385 84.8305C155.366 84.7783 155.36 84.7271 155.367 84.6768C155.374 84.6265 155.394 84.5777 155.427 84.5305C155.459 84.4832 155.5 84.4474 155.55 84.423C155.598 84.3997 155.651 84.3915 155.708 84.3983C155.766 84.4059 155.825 84.4306 155.886 84.4723C155.967 84.5285 156.027 84.594 156.064 84.6687C156.102 84.7453 156.122 84.8199 156.124 84.8925C156.125 84.9663 156.112 85.0259 156.083 85.0714L156.334 84.9838C156.352 84.9296 156.363 84.8657 156.366 84.792C156.37 84.7183 156.363 84.64 156.344 84.5571C156.325 84.476 156.29 84.3959 156.239 84.3169C156.189 84.2387 156.118 84.1676 156.026 84.1039C155.909 84.0234 155.789 83.9748 155.666 83.958C155.542 83.9422 155.427 83.9561 155.321 83.9996C155.214 84.0442 155.125 84.117 155.056 84.2182C154.99 84.3127 154.95 84.4084 154.935 84.5052C154.921 84.6039 154.931 84.7019 154.966 84.7992C155.002 84.8973 155.062 84.9938 155.146 85.089C155.229 85.1852 155.335 85.2781 155.465 85.3676L155.777 85.5828ZM155.959 87.8469L157.708 85.3141L157.309 85.0386L155.56 87.5714L155.959 87.8469ZM158.926 86.7763L157.985 88.14L158.384 88.4155L159.616 86.6314L159.24 86.3718L158.926 86.7763ZM158.726 87.186L158.858 87.2816C158.94 87.1617 159.003 87.0422 159.047 86.9228C159.09 86.8045 159.109 86.6891 159.106 86.5764C159.102 86.4648 159.071 86.3585 159.014 86.2575C158.957 86.1576 158.868 86.0663 158.748 85.9836C158.661 85.9236 158.573 85.8812 158.483 85.8564C158.393 85.8316 158.303 85.8274 158.214 85.8437C158.126 85.8608 158.038 85.9018 157.951 85.9667C157.864 86.0316 157.78 86.1229 157.699 86.2405L156.903 87.3931L157.301 87.6675L158.099 86.5116C158.143 86.4467 158.189 86.3976 158.234 86.3643C158.279 86.3321 158.324 86.3118 158.369 86.3037C158.413 86.2955 158.457 86.2981 158.5 86.3114C158.543 86.3247 158.584 86.345 158.623 86.3723C158.737 86.4505 158.811 86.5339 158.845 86.6227C158.88 86.7133 158.885 86.806 158.86 86.9009C158.836 86.9964 158.792 87.0915 158.726 87.186ZM160.832 87.4227C160.701 87.3316 160.566 87.2707 160.43 87.2399C160.294 87.211 160.162 87.2098 160.033 87.2362C159.906 87.2634 159.786 87.3161 159.673 87.3943C159.561 87.4726 159.463 87.5727 159.378 87.6947L159.333 87.7606C159.236 87.9003 159.17 88.0407 159.132 88.182C159.095 88.3233 159.084 88.4592 159.101 88.5895C159.118 88.721 159.161 88.8423 159.23 88.9535C159.299 89.0646 159.392 89.1601 159.507 89.2398C159.635 89.3278 159.761 89.3834 159.886 89.4066C160.012 89.4298 160.132 89.4239 160.249 89.3892C160.366 89.3562 160.477 89.2971 160.581 89.2117C160.686 89.1271 160.784 89.0204 160.872 88.8918L160.99 88.722L159.611 87.7702L159.414 88.0555L160.4 88.7363L160.379 88.7676C160.327 88.8376 160.267 88.8947 160.197 88.9392C160.128 88.9844 160.054 89.008 159.975 89.0101C159.896 89.0121 159.812 88.9828 159.724 88.922C159.658 88.8765 159.609 88.8216 159.577 88.7573C159.546 88.695 159.531 88.6256 159.533 88.5493C159.536 88.473 159.553 88.391 159.586 88.3034C159.62 88.2176 159.668 88.1285 159.732 88.0362L159.777 87.9702C159.831 87.8922 159.892 87.8268 159.959 87.7742C160.027 87.7234 160.098 87.6877 160.174 87.6671C160.25 87.6464 160.328 87.6423 160.407 87.6547C160.485 87.6682 160.562 87.7012 160.638 87.7536C160.734 87.8196 160.806 87.8976 160.854 87.9877C160.902 88.0778 160.929 88.177 160.936 88.2853L161.285 88.2271C161.285 88.1445 161.273 88.0561 161.247 87.9619C161.22 87.8688 161.173 87.7756 161.106 87.6822C161.04 87.5896 160.949 87.5031 160.832 87.4227ZM162.657 90.4794L162.876 90.1628L162.003 89.5606L161.785 89.8772L162.657 90.4794ZM165.237 92.5825L165.508 92.19C165.638 92.002 165.73 91.8286 165.785 91.6698C165.84 91.5129 165.861 91.3692 165.848 91.239C165.836 91.1087 165.795 90.9909 165.725 90.8857C165.656 90.7812 165.562 90.6879 165.443 90.606C165.348 90.5407 165.252 90.492 165.154 90.4601C165.057 90.4288 164.958 90.4167 164.858 90.4236C164.757 90.4304 164.656 90.4586 164.554 90.5081C164.452 90.5594 164.348 90.6335 164.244 90.7304C164.141 90.828 164.038 90.9521 163.934 91.1027L163.663 91.4952C163.532 91.6843 163.441 91.8566 163.388 92.0121C163.336 92.1687 163.316 92.3116 163.329 92.4408C163.341 92.5711 163.382 92.6879 163.452 92.7913C163.523 92.8955 163.618 92.9886 163.736 93.0705C163.832 93.1366 163.928 93.1852 164.025 93.2164C164.123 93.2495 164.221 93.2628 164.319 93.2562C164.419 93.2504 164.52 93.2224 164.621 93.1722C164.722 93.1238 164.825 93.0508 164.928 92.9532C165.03 92.8567 165.133 92.7331 165.237 92.5825ZM165.15 91.8596L164.799 92.3675C164.733 92.4631 164.669 92.5434 164.608 92.6084C164.546 92.6744 164.487 92.7252 164.43 92.7605C164.374 92.7978 164.318 92.8214 164.264 92.8312C164.21 92.8422 164.157 92.8408 164.107 92.827C164.055 92.8143 164.004 92.7905 163.954 92.7556C163.892 92.7131 163.846 92.663 163.814 92.6054C163.782 92.549 163.767 92.4835 163.769 92.4091C163.772 92.3346 163.794 92.249 163.835 92.1522C163.876 92.0573 163.938 91.9499 164.021 91.8301L164.371 91.3222C164.438 91.2255 164.502 91.1441 164.564 91.078C164.626 91.0119 164.686 90.9601 164.745 90.9225C164.802 90.886 164.858 90.8614 164.913 90.8486C164.967 90.8376 165.02 90.8384 165.072 90.8511C165.124 90.8646 165.175 90.8884 165.224 90.9226C165.287 90.9658 165.334 91.0162 165.366 91.0738C165.398 91.1314 165.412 91.198 165.408 91.2735C165.404 91.3501 165.381 91.437 165.338 91.5342C165.295 91.6313 165.232 91.7398 165.15 91.8596ZM165.981 94.5839L167.645 92.1748L167.247 91.9004L165.909 93.8379L165.459 93.232L165.232 93.5601L165.933 94.5509L165.981 94.5839ZM168.77 94.1188L168.754 94.1422C168.619 94.3382 168.517 94.5305 168.449 94.719C168.382 94.909 168.341 95.0878 168.327 95.2552C168.312 95.4236 168.316 95.574 168.34 95.7066C168.363 95.8407 168.399 95.9501 168.448 96.0349L168.645 95.8908C168.619 95.8147 168.603 95.7235 168.598 95.6172C168.594 95.5115 168.605 95.3927 168.631 95.2606C168.658 95.1301 168.705 94.9879 168.772 94.834C168.839 94.6816 168.931 94.5202 169.049 94.3498L169.069 94.321C169.187 94.1506 169.305 94.0065 169.424 93.8886C169.544 93.7723 169.66 93.6781 169.774 93.6062C169.888 93.5348 169.995 93.4819 170.096 93.4475C170.199 93.4127 170.291 93.3926 170.373 93.3871L170.433 93.1602C170.336 93.146 170.22 93.1515 170.086 93.1768C169.954 93.2018 169.812 93.2511 169.66 93.3245C169.508 93.3971 169.356 93.4982 169.203 93.6279C169.05 93.7591 168.906 93.9228 168.77 94.1188ZM169.182 96.353L170.639 94.2423L170.307 94.0127L168.849 96.1234L169.182 96.353ZM170.657 96.4502L170.824 96.2084L169.986 95.6296L169.819 95.8715L170.657 96.4502ZM169.809 96.4026L170.14 96.6312L171.135 95.1912C171.166 95.1453 171.197 95.1145 171.227 95.0986C171.257 95.0843 171.287 95.0812 171.316 95.0894C171.346 95.0976 171.377 95.1128 171.409 95.1349C171.432 95.1508 171.453 95.1673 171.472 95.1846C171.491 95.2019 171.506 95.2163 171.517 95.228L171.693 94.9761C171.671 94.9488 171.644 94.9194 171.612 94.8877C171.581 94.8566 171.542 94.8249 171.495 94.7927C171.419 94.7402 171.342 94.7069 171.265 94.693C171.188 94.68 171.111 94.6928 171.036 94.7314C170.961 94.7701 170.888 94.8402 170.818 94.9419L169.809 96.4026ZM172.016 96.3945L172.033 96.3712C172.166 96.1779 172.266 95.9863 172.332 95.7966C172.399 95.6075 172.439 95.4284 172.453 95.2594C172.468 95.091 172.463 94.9387 172.438 94.8024C172.414 94.6668 172.378 94.5558 172.329 94.4695L172.136 94.6044C172.162 94.6814 172.176 94.7732 172.18 94.8798C172.185 94.9861 172.173 95.1058 172.145 95.2391C172.118 95.3721 172.07 95.5152 172.002 95.6685C171.935 95.8224 171.843 95.9846 171.725 96.1549L171.705 96.1838C171.588 96.3542 171.468 96.4977 171.347 96.6143C171.226 96.7325 171.108 96.8269 170.993 96.8976C170.878 96.9692 170.769 97.0222 170.668 97.0567C170.567 97.0912 170.479 97.1111 170.402 97.1163L170.344 97.3442C170.441 97.36 170.558 97.3551 170.693 97.3295C170.829 97.3045 170.974 97.2548 171.127 97.1804C171.28 97.1076 171.433 97.0063 171.586 96.8767C171.74 96.7476 171.884 96.5869 172.016 96.3945Z" fill="white"/>
<path d="M157.466 79.5333L159.684 76.3211L159.154 75.9553L157.37 78.5387L156.769 77.7307L156.467 78.1682L157.402 79.4893L157.466 79.5333ZM162.651 78.993L162.942 78.5708L160.796 77.0893L160.546 77.452L160.803 79.3083C160.828 79.5162 160.842 79.6898 160.843 79.8292C160.844 79.9685 160.832 80.0847 160.807 80.1776C160.782 80.2731 160.745 80.3567 160.695 80.4285C160.625 80.5297 160.545 80.6052 160.454 80.6551C160.364 80.7075 160.268 80.7309 160.166 80.7253C160.062 80.7211 159.96 80.6836 159.857 80.6128C159.738 80.5308 159.656 80.4363 159.611 80.3294C159.566 80.2224 159.554 80.1093 159.576 79.9901C159.596 79.8724 159.647 79.7556 159.727 79.6398L159.197 79.274C159.068 79.4601 158.993 79.6595 158.972 79.8721C158.95 80.0861 158.988 80.2943 159.087 80.4965C159.184 80.7001 159.346 80.8804 159.574 81.0373C159.788 81.185 159.994 81.2746 160.193 81.306C160.392 81.3374 160.576 81.314 160.745 81.2357C160.915 81.1584 161.063 81.0296 161.187 80.8493C161.256 80.7497 161.308 80.6396 161.344 80.5191C161.379 80.3987 161.401 80.2686 161.409 80.1289C161.417 79.9917 161.414 79.8461 161.402 79.6923C161.388 79.5399 161.367 79.3804 161.339 79.214L161.173 77.9729L162.651 78.993ZM163.531 79.7306L163.79 79.351C163.893 79.2015 163.962 79.0217 163.996 78.8118C164.031 78.6019 164.022 78.4032 163.97 78.2155L163.572 78.1846C163.568 78.2789 163.559 78.3714 163.546 78.4621C163.534 78.5528 163.511 78.6434 163.479 78.7337C163.447 78.8241 163.399 78.9155 163.335 79.0078L163.06 79.4058L163.531 79.7306ZM165.78 82.2151L166.071 81.793L163.763 80.1991L163.525 80.5057L163.412 83.6225L163.836 83.9155L163.92 82.8111L164.005 80.9901L165.78 82.2151ZM163.957 83.999L166.167 80.7978L165.638 80.4319L163.427 83.6331L163.957 83.999ZM168.776 83.2222L169.067 82.8001L166.922 81.3185L166.671 81.6812L166.928 83.5375C166.954 83.7454 166.967 83.919 166.968 84.0584C166.969 84.1977 166.957 84.3139 166.932 84.4068C166.907 84.5023 166.87 84.5859 166.82 84.6577C166.751 84.7589 166.67 84.8344 166.58 84.8843C166.489 84.9367 166.393 84.9601 166.291 84.9545C166.188 84.9503 166.085 84.9128 165.982 84.842C165.864 84.76 165.782 84.6655 165.736 84.5586C165.691 84.4516 165.679 84.3385 165.701 84.2193C165.722 84.1016 165.772 83.9848 165.852 83.869L165.322 83.5032C165.194 83.6893 165.119 83.8887 165.098 84.1013C165.075 84.3153 165.113 84.5235 165.212 84.7257C165.309 84.9293 165.472 85.1096 165.699 85.2665C165.913 85.4142 166.119 85.5038 166.319 85.5352C166.518 85.5666 166.702 85.5432 166.87 85.4649C167.041 85.3876 167.188 85.2588 167.312 85.0786C167.381 84.9789 167.433 84.8688 167.469 84.7483C167.505 84.6279 167.526 84.4978 167.534 84.3581C167.542 84.2209 167.54 84.0753 167.527 83.9215C167.513 83.7691 167.492 83.6096 167.464 83.4432L167.298 82.2021L168.776 83.2222ZM168.832 85.3553L169.149 85.5739C169.272 85.6589 169.359 85.7505 169.411 85.8486C169.463 85.9478 169.484 86.0485 169.472 86.1505C169.46 86.2526 169.42 86.352 169.353 86.4488C169.284 86.5499 169.205 86.6237 169.119 86.6702C169.033 86.7192 168.94 86.7382 168.84 86.7272C168.741 86.7172 168.635 86.6737 168.524 86.5968C168.43 86.532 168.358 86.4543 168.308 86.3636C168.259 86.2753 168.236 86.1815 168.239 86.0823C168.242 85.9845 168.276 85.8887 168.341 85.7949L167.808 85.4275C167.691 85.5976 167.632 85.7794 167.63 85.9731C167.628 86.1667 167.678 86.354 167.781 86.5351C167.884 86.7185 168.032 86.8771 168.225 87.0107C168.432 87.1534 168.636 87.2434 168.837 87.2808C169.039 87.3206 169.23 87.303 169.41 87.2278C169.589 87.1527 169.748 87.0155 169.885 86.8161C169.948 86.7252 169.991 86.6182 170.013 86.4951C170.035 86.3719 170.031 86.2426 170.001 86.1073C169.971 85.9734 169.909 85.8392 169.818 85.7048C169.726 85.5719 169.598 85.4488 169.434 85.3354L169.036 85.0607L168.832 85.3553ZM169.118 84.9419L168.917 85.2322L169.315 85.5069C169.503 85.6365 169.678 85.7248 169.84 85.7719C170.004 85.82 170.154 85.8341 170.292 85.8141C170.428 85.7955 170.549 85.7503 170.655 85.6784C170.762 85.6076 170.854 85.5171 170.93 85.4072C171.033 85.2577 171.098 85.1056 171.125 84.9509C171.152 84.7987 171.144 84.6484 171.101 84.4999C171.059 84.3515 170.986 84.2112 170.882 84.0791C170.78 83.948 170.652 83.8293 170.498 83.7231C170.36 83.6279 170.215 83.5559 170.063 83.507C169.911 83.4581 169.759 83.4366 169.608 83.4425C169.455 83.4499 169.311 83.4898 169.174 83.5622C169.038 83.637 168.919 83.7492 168.815 83.8987L169.345 84.2646C169.411 84.1693 169.491 84.1002 169.586 84.0573C169.681 84.0168 169.783 84.0039 169.892 84.0185C170.002 84.0342 170.11 84.0784 170.216 84.1513C170.327 84.2282 170.409 84.3143 170.463 84.4095C170.516 84.5047 170.537 84.6059 170.526 84.7129C170.516 84.8209 170.473 84.9299 170.398 85.0399C170.312 85.1644 170.218 85.2489 170.115 85.2932C170.013 85.3375 169.905 85.3471 169.79 85.322C169.675 85.2983 169.556 85.2445 169.434 85.1605L169.118 84.9419Z" fill="white"/>
</g>
<g filter="url(#filter4_d_380_11963)">
<g clip-path="url(#clip1_380_11963)">
<rect x="0.118932" y="-0.0217791" width="2.56489" height="2.56489" rx="1.28245" transform="matrix(0.822909 0.568173 0.568173 -0.822909 176.936 101.565)" fill="#5AC5F2" stroke="#5388D8" stroke-width="0.170993"/>
</g>
<path d="M185.918 105.345L185.194 107.743L185.651 108.058L186.448 105.063L186.14 104.85L185.918 105.345ZM183.979 106.904L185.96 105.374L186.349 104.995L186.039 104.781L183.524 106.59L183.979 106.904ZM188.221 106.816L187.633 107.667C187.589 107.73 187.54 107.777 187.485 107.808C187.43 107.838 187.37 107.849 187.305 107.842C187.242 107.835 187.175 107.808 187.104 107.759C187.04 107.714 186.991 107.665 186.959 107.61C186.927 107.555 186.911 107.5 186.91 107.445C186.909 107.389 186.925 107.338 186.958 107.29L186.562 107.017C186.514 107.088 186.484 107.167 186.472 107.257C186.461 107.346 186.47 107.439 186.499 107.536C186.528 107.632 186.577 107.726 186.647 107.818C186.717 107.91 186.808 107.995 186.92 108.072C187.054 108.165 187.188 108.224 187.323 108.251C187.458 108.278 187.587 108.266 187.71 108.216C187.832 108.168 187.941 108.075 188.035 107.939L188.582 107.146C188.639 107.064 188.695 106.995 188.75 106.938C188.806 106.882 188.862 106.839 188.916 106.807L188.935 106.78L188.527 106.499C188.479 106.529 188.427 106.573 188.37 106.631C188.314 106.692 188.264 106.753 188.221 106.816ZM187.777 107.583L187.949 107.339L187.664 107.142C187.591 107.092 187.531 107.04 187.484 106.987C187.437 106.935 187.404 106.883 187.385 106.83C187.366 106.778 187.36 106.727 187.367 106.677C187.374 106.627 187.394 106.578 187.427 106.53C187.459 106.483 187.5 106.447 187.55 106.423C187.598 106.4 187.651 106.391 187.708 106.398C187.766 106.406 187.825 106.431 187.886 106.472C187.967 106.529 188.027 106.594 188.064 106.669C188.102 106.745 188.122 106.82 188.124 106.893C188.125 106.966 188.112 107.026 188.083 107.071L188.334 106.984C188.352 106.93 188.363 106.866 188.366 106.792C188.37 106.718 188.363 106.64 188.344 106.557C188.325 106.476 188.29 106.396 188.239 106.317C188.189 106.239 188.118 106.168 188.026 106.104C187.909 106.023 187.789 105.975 187.666 105.958C187.542 105.942 187.427 105.956 187.321 106C187.214 106.044 187.125 106.117 187.056 106.218C186.99 106.313 186.95 106.408 186.935 106.505C186.921 106.604 186.931 106.702 186.966 106.799C187.002 106.897 187.062 106.994 187.146 107.089C187.229 107.185 187.335 107.278 187.465 107.368L187.777 107.583ZM187.959 109.847L189.708 107.314L189.309 107.039L187.56 109.571L187.959 109.847ZM190.926 108.776L189.985 110.14L190.384 110.416L191.616 108.631L191.24 108.372L190.926 108.776ZM190.726 109.186L190.858 109.282C190.94 109.162 191.003 109.042 191.047 108.923C191.09 108.805 191.109 108.689 191.106 108.576C191.102 108.465 191.071 108.358 191.014 108.257C190.957 108.158 190.868 108.066 190.748 107.984C190.661 107.924 190.573 107.881 190.483 107.856C190.393 107.832 190.303 107.827 190.214 107.844C190.126 107.861 190.038 107.902 189.951 107.967C189.864 108.032 189.78 108.123 189.699 108.241L188.903 109.393L189.301 109.668L190.099 108.512C190.143 108.447 190.189 108.398 190.234 108.364C190.279 108.332 190.324 108.312 190.369 108.304C190.413 108.296 190.457 108.298 190.5 108.311C190.543 108.325 190.584 108.345 190.623 108.372C190.737 108.45 190.811 108.534 190.845 108.623C190.88 108.713 190.885 108.806 190.86 108.901C190.836 108.996 190.792 109.091 190.726 109.186ZM192.832 109.423C192.701 109.332 192.566 109.271 192.43 109.24C192.294 109.211 192.162 109.21 192.033 109.236C191.906 109.263 191.786 109.316 191.673 109.394C191.561 109.473 191.463 109.573 191.378 109.695L191.333 109.761C191.236 109.9 191.17 110.041 191.132 110.182C191.095 110.323 191.084 110.459 191.101 110.59C191.118 110.721 191.161 110.842 191.23 110.953C191.299 111.065 191.392 111.16 191.507 111.24C191.635 111.328 191.761 111.383 191.886 111.407C192.012 111.43 192.132 111.424 192.249 111.389C192.366 111.356 192.477 111.297 192.581 111.212C192.686 111.127 192.784 111.02 192.872 110.892L192.99 110.722L191.611 109.77L191.414 110.055L192.4 110.736L192.379 110.768C192.327 110.838 192.267 110.895 192.197 110.939C192.128 110.984 192.054 111.008 191.975 111.01C191.896 111.012 191.812 110.983 191.724 110.922C191.658 110.876 191.609 110.822 191.577 110.757C191.546 110.695 191.531 110.626 191.533 110.549C191.536 110.473 191.553 110.391 191.586 110.303C191.62 110.218 191.668 110.129 191.732 110.036L191.777 109.97C191.831 109.892 191.892 109.827 191.959 109.774C192.027 109.723 192.098 109.688 192.174 109.667C192.25 109.646 192.328 109.642 192.407 109.655C192.485 109.668 192.562 109.701 192.638 109.754C192.734 109.82 192.806 109.898 192.854 109.988C192.902 110.078 192.929 110.177 192.936 110.285L193.285 110.227C193.285 110.144 193.273 110.056 193.247 109.962C193.22 109.869 193.173 109.776 193.106 109.682C193.04 109.59 192.949 109.503 192.832 109.423ZM194.657 112.479L194.876 112.163L194.003 111.561L193.785 111.877L194.657 112.479ZM197.237 114.582L197.508 114.19C197.638 114.002 197.73 113.829 197.785 113.67C197.84 113.513 197.861 113.369 197.848 113.239C197.836 113.109 197.795 112.991 197.725 112.886C197.656 112.781 197.562 112.688 197.443 112.606C197.348 112.541 197.252 112.492 197.154 112.46C197.057 112.429 196.958 112.417 196.858 112.424C196.757 112.43 196.656 112.459 196.554 112.508C196.452 112.559 196.348 112.634 196.244 112.73C196.141 112.828 196.038 112.952 195.934 113.103L195.663 113.495C195.532 113.684 195.441 113.857 195.388 114.012C195.336 114.169 195.316 114.312 195.329 114.441C195.341 114.571 195.382 114.688 195.452 114.791C195.523 114.895 195.618 114.989 195.736 115.071C195.832 115.137 195.928 115.185 196.025 115.216C196.123 115.249 196.221 115.263 196.319 115.256C196.419 115.25 196.52 115.222 196.621 115.172C196.722 115.124 196.825 115.051 196.928 114.953C197.03 114.857 197.133 114.733 197.237 114.582ZM197.15 113.86L196.799 114.367C196.733 114.463 196.669 114.543 196.608 114.608C196.546 114.674 196.487 114.725 196.43 114.761C196.374 114.798 196.318 114.821 196.264 114.831C196.21 114.842 196.157 114.841 196.107 114.827C196.055 114.814 196.004 114.79 195.954 114.756C195.892 114.713 195.846 114.663 195.814 114.605C195.782 114.549 195.767 114.483 195.769 114.409C195.772 114.335 195.794 114.249 195.835 114.152C195.876 114.057 195.938 113.95 196.021 113.83L196.371 113.322C196.438 113.225 196.502 113.144 196.564 113.078C196.626 113.012 196.686 112.96 196.745 112.923C196.802 112.886 196.858 112.861 196.913 112.849C196.967 112.838 197.02 112.838 197.072 112.851C197.124 112.865 197.175 112.888 197.224 112.923C197.287 112.966 197.334 113.016 197.366 113.074C197.398 113.131 197.412 113.198 197.408 113.273C197.404 113.35 197.381 113.437 197.338 113.534C197.295 113.631 197.232 113.74 197.15 113.86ZM197.981 116.584L199.645 114.175L199.247 113.9L197.909 115.838L197.459 115.232L197.232 115.56L197.933 116.551L197.981 116.584ZM200.77 116.119L200.754 116.142C200.619 116.338 200.517 116.53 200.449 116.719C200.382 116.909 200.341 117.088 200.327 117.255C200.312 117.424 200.316 117.574 200.34 117.707C200.363 117.841 200.399 117.95 200.448 118.035L200.645 117.891C200.619 117.815 200.603 117.724 200.598 117.617C200.594 117.512 200.605 117.393 200.631 117.261C200.658 117.13 200.705 116.988 200.772 116.834C200.839 116.682 200.931 116.52 201.049 116.35L201.069 116.321C201.187 116.151 201.305 116.006 201.424 115.889C201.544 115.772 201.66 115.678 201.774 115.606C201.888 115.535 201.995 115.482 202.096 115.447C202.199 115.413 202.291 115.393 202.373 115.387L202.433 115.16C202.336 115.146 202.22 115.151 202.086 115.177C201.954 115.202 201.812 115.251 201.66 115.325C201.508 115.397 201.356 115.498 201.203 115.628C201.05 115.759 200.906 115.923 200.77 116.119ZM201.182 118.353L202.639 116.242L202.307 116.013L200.849 118.123L201.182 118.353ZM202.657 118.45L202.824 118.208L201.986 117.63L201.819 117.871L202.657 118.45ZM201.809 118.403L202.14 118.631L203.135 117.191C203.166 117.145 203.197 117.114 203.227 117.099C203.257 117.084 203.287 117.081 203.316 117.089C203.346 117.098 203.377 117.113 203.409 117.135C203.432 117.151 203.453 117.167 203.472 117.185C203.491 117.202 203.506 117.216 203.517 117.228L203.693 116.976C203.671 116.949 203.644 116.919 203.612 116.888C203.581 116.857 203.542 116.825 203.495 116.793C203.419 116.74 203.342 116.707 203.265 116.693C203.188 116.68 203.111 116.693 203.036 116.731C202.961 116.77 202.888 116.84 202.818 116.942L201.809 118.403ZM204.016 118.395L204.033 118.371C204.166 118.178 204.266 117.986 204.332 117.797C204.399 117.607 204.439 117.428 204.453 117.259C204.468 117.091 204.463 116.939 204.438 116.802C204.414 116.667 204.378 116.556 204.329 116.469L204.136 116.604C204.162 116.681 204.176 116.773 204.18 116.88C204.185 116.986 204.173 117.106 204.145 117.239C204.118 117.372 204.07 117.515 204.002 117.668C203.935 117.822 203.843 117.985 203.725 118.155L203.705 118.184C203.588 118.354 203.468 118.498 203.347 118.614C203.226 118.732 203.108 118.827 202.993 118.898C202.878 118.969 202.769 119.022 202.668 119.057C202.567 119.091 202.479 119.111 202.402 119.116L202.344 119.344C202.441 119.36 202.558 119.355 202.693 119.329C202.829 119.305 202.974 119.255 203.127 119.18C203.28 119.108 203.433 119.006 203.586 118.877C203.74 118.748 203.884 118.587 204.016 118.395Z" fill="white"/>
<path d="M189.468 101.533L191.686 98.3211L191.156 97.9553L189.372 100.539L188.771 99.7307L188.469 100.168L189.404 101.489L189.468 101.533ZM194.653 100.993L194.944 100.571L192.798 99.0892L192.548 99.452L192.805 101.308C192.83 101.516 192.844 101.69 192.845 101.829C192.846 101.968 192.834 102.085 192.809 102.178C192.784 102.273 192.747 102.357 192.697 102.429C192.627 102.53 192.547 102.605 192.456 102.655C192.366 102.707 192.27 102.731 192.168 102.725C192.064 102.721 191.961 102.684 191.859 102.613C191.74 102.531 191.658 102.436 191.613 102.329C191.568 102.222 191.556 102.109 191.578 101.99C191.598 101.872 191.649 101.756 191.729 101.64L191.199 101.274C191.07 101.46 190.995 101.659 190.974 101.872C190.952 102.086 190.99 102.294 191.089 102.496C191.186 102.7 191.348 102.88 191.576 103.037C191.79 103.185 191.996 103.275 192.195 103.306C192.394 103.337 192.578 103.314 192.747 103.236C192.917 103.158 193.065 103.03 193.189 102.849C193.258 102.75 193.31 102.64 193.346 102.519C193.381 102.399 193.403 102.269 193.41 102.129C193.419 101.992 193.416 101.846 193.404 101.692C193.39 101.54 193.369 101.38 193.341 101.214L193.175 99.9729L194.653 100.993ZM195.533 101.731L195.792 101.351C195.895 101.201 195.964 101.022 195.998 100.812C196.033 100.602 196.024 100.403 195.972 100.216L195.574 100.185C195.57 100.279 195.561 100.371 195.548 100.462C195.535 100.553 195.513 100.643 195.481 100.734C195.449 100.824 195.401 100.915 195.337 101.008L195.062 101.406L195.533 101.731ZM197.782 104.215L198.073 103.793L195.765 102.199L195.527 102.506L195.414 105.622L195.838 105.915L195.922 104.811L196.007 102.99L197.782 104.215ZM195.959 105.999L198.169 102.798L197.64 102.432L195.429 105.633L195.959 105.999ZM200.778 105.222L201.069 104.8L198.924 103.318L198.673 103.681L198.93 105.537C198.956 105.745 198.969 105.919 198.97 106.058C198.971 106.198 198.959 106.314 198.934 106.407C198.909 106.502 198.872 106.586 198.822 106.658C198.753 106.759 198.672 106.834 198.582 106.884C198.491 106.937 198.395 106.96 198.293 106.954C198.19 106.95 198.087 106.913 197.984 106.842C197.865 106.76 197.784 106.666 197.738 106.559C197.693 106.452 197.681 106.339 197.703 106.219C197.724 106.102 197.774 105.985 197.854 105.869L197.324 105.503C197.196 105.689 197.121 105.889 197.1 106.101C197.077 106.315 197.115 106.523 197.214 106.726C197.311 106.929 197.474 107.11 197.701 107.266C197.915 107.414 198.121 107.504 198.321 107.535C198.52 107.567 198.704 107.543 198.872 107.465C199.043 107.388 199.19 107.259 199.314 107.079C199.383 106.979 199.435 106.869 199.471 106.748C199.506 106.628 199.528 106.498 199.536 106.358C199.544 106.221 199.542 106.075 199.529 105.921C199.515 105.769 199.494 105.61 199.466 105.443L199.3 104.202L200.778 105.222ZM200.834 107.355L201.151 107.574C201.274 107.659 201.361 107.75 201.413 107.849C201.465 107.948 201.486 108.048 201.474 108.151C201.462 108.253 201.422 108.352 201.355 108.449C201.285 108.55 201.207 108.624 201.121 108.67C201.035 108.719 200.942 108.738 200.842 108.727C200.742 108.717 200.637 108.674 200.526 108.597C200.432 108.532 200.36 108.454 200.31 108.364C200.261 108.275 200.238 108.182 200.241 108.082C200.244 107.984 200.278 107.889 200.342 107.795L199.81 107.428C199.693 107.598 199.633 107.779 199.632 107.973C199.63 108.167 199.68 108.354 199.783 108.535C199.885 108.719 200.034 108.877 200.227 109.011C200.434 109.153 200.638 109.243 200.839 109.281C201.041 109.321 201.232 109.303 201.412 109.228C201.591 109.153 201.75 109.015 201.887 108.816C201.95 108.725 201.993 108.618 202.015 108.495C202.037 108.372 202.033 108.243 202.003 108.107C201.972 107.973 201.911 107.839 201.82 107.705C201.728 107.572 201.6 107.449 201.436 107.335L201.038 107.061L200.834 107.355ZM201.12 106.942L200.919 107.232L201.317 107.507C201.505 107.636 201.68 107.725 201.842 107.772C202.006 107.82 202.156 107.834 202.294 107.814C202.43 107.796 202.551 107.75 202.657 107.678C202.764 107.608 202.856 107.517 202.932 107.407C203.035 107.258 203.1 107.106 203.126 106.951C203.154 106.799 203.146 106.648 203.103 106.5C203.061 106.351 202.988 106.211 202.884 106.079C202.782 105.948 202.654 105.829 202.5 105.723C202.362 105.628 202.217 105.556 202.065 105.507C201.913 105.458 201.761 105.437 201.61 105.442C201.457 105.45 201.313 105.49 201.176 105.562C201.04 105.637 200.92 105.749 200.817 105.899L201.347 106.265C201.413 106.169 201.493 106.1 201.588 106.057C201.683 106.017 201.785 106.004 201.894 106.019C202.004 106.034 202.112 106.078 202.218 106.151C202.329 106.228 202.411 106.314 202.465 106.409C202.518 106.505 202.539 106.606 202.528 106.713C202.518 106.821 202.475 106.93 202.399 107.04C202.313 107.164 202.219 107.249 202.117 107.293C202.015 107.337 201.907 107.347 201.792 107.322C201.677 107.298 201.558 107.245 201.436 107.161L201.12 106.942Z" fill="white"/>
</g>
<g filter="url(#filter5_d_380_11963)">
<rect width="2.73588" height="2.73588" rx="1.36794" transform="matrix(0.848048 0.529919 0.529919 -0.848048 154.885 121.867)" fill="#BFE6BA"/>
<path d="M164.058 125.124L163.445 127.553L163.916 127.847L164.575 124.818L164.257 124.62L164.058 125.124ZM162.193 126.77L164.102 125.151L164.473 124.755L164.153 124.555L161.724 126.477L162.193 126.77ZM166.426 126.488L165.878 127.365C165.837 127.43 165.79 127.48 165.736 127.512C165.683 127.545 165.623 127.559 165.558 127.555C165.495 127.551 165.426 127.527 165.354 127.481C165.287 127.44 165.236 127.392 165.202 127.339C165.167 127.286 165.148 127.232 165.145 127.176C165.142 127.121 165.156 127.068 165.186 127.02L164.778 126.765C164.733 126.837 164.707 126.919 164.699 127.009C164.692 127.098 164.705 127.191 164.739 127.286C164.772 127.381 164.826 127.473 164.9 127.561C164.974 127.65 165.068 127.73 165.184 127.803C165.322 127.889 165.459 127.942 165.594 127.962C165.731 127.983 165.859 127.966 165.979 127.91C166.1 127.856 166.204 127.759 166.291 127.618L166.802 126.801C166.855 126.717 166.907 126.645 166.96 126.585C167.014 126.528 167.067 126.481 167.12 126.447L167.137 126.42L166.718 126.157C166.671 126.189 166.62 126.236 166.567 126.297C166.513 126.36 166.466 126.423 166.426 126.488ZM166.017 127.274L166.179 127.023L165.885 126.84C165.809 126.792 165.747 126.743 165.698 126.692C165.649 126.643 165.613 126.592 165.592 126.541C165.57 126.49 165.562 126.439 165.567 126.388C165.572 126.337 165.589 126.288 165.62 126.239C165.65 126.19 165.689 126.153 165.738 126.126C165.785 126.101 165.837 126.09 165.895 126.094C165.953 126.099 166.013 126.121 166.076 126.16C166.159 126.212 166.222 126.275 166.263 126.348C166.304 126.423 166.328 126.496 166.333 126.569C166.337 126.643 166.326 126.703 166.3 126.749L166.546 126.65C166.562 126.596 166.57 126.531 166.57 126.457C166.571 126.384 166.559 126.306 166.537 126.224C166.514 126.144 166.476 126.065 166.421 125.989C166.368 125.913 166.294 125.845 166.198 125.786C166.078 125.711 165.956 125.667 165.833 125.656C165.708 125.646 165.594 125.665 165.49 125.714C165.385 125.763 165.3 125.84 165.235 125.944C165.174 126.042 165.138 126.139 165.128 126.236C165.118 126.336 165.132 126.433 165.172 126.529C165.212 126.625 165.277 126.719 165.365 126.81C165.452 126.902 165.562 126.99 165.696 127.074L166.017 127.274ZM166.303 129.528L167.934 126.918L167.523 126.661L165.892 129.271L166.303 129.528ZM169.218 128.323L168.34 129.728L168.752 129.985L169.9 128.146L169.513 127.904L169.218 128.323ZM169.037 128.741L169.173 128.83C169.25 128.707 169.308 128.585 169.345 128.463C169.383 128.343 169.397 128.227 169.389 128.115C169.379 128.003 169.344 127.898 169.283 127.8C169.22 127.703 169.128 127.616 169.004 127.539C168.915 127.483 168.824 127.445 168.733 127.424C168.642 127.403 168.552 127.403 168.464 127.423C168.377 127.445 168.291 127.49 168.207 127.558C168.123 127.627 168.044 127.722 167.968 127.843L167.226 129.031L167.635 129.287L168.379 128.096C168.421 128.029 168.464 127.978 168.508 127.943C168.552 127.908 168.596 127.886 168.64 127.876C168.684 127.866 168.728 127.866 168.771 127.878C168.814 127.889 168.856 127.907 168.897 127.933C169.014 128.006 169.092 128.086 169.13 128.173C169.169 128.262 169.178 128.354 169.158 128.45C169.138 128.547 169.098 128.644 169.037 128.741ZM171.152 128.881C171.016 128.796 170.879 128.741 170.742 128.717C170.605 128.694 170.473 128.699 170.345 128.731C170.219 128.764 170.102 128.822 169.993 128.906C169.884 128.989 169.791 129.093 169.712 129.219L169.669 129.287C169.58 129.431 169.519 129.574 169.488 129.717C169.457 129.86 169.453 129.996 169.476 130.126C169.499 130.256 169.547 130.376 169.621 130.483C169.696 130.591 169.792 130.682 169.911 130.757C170.043 130.839 170.172 130.889 170.298 130.906C170.424 130.923 170.544 130.912 170.659 130.872C170.774 130.834 170.882 130.77 170.983 130.68C171.084 130.59 171.176 130.479 171.259 130.347L171.369 130.172L169.948 129.284L169.764 129.578L170.78 130.213L170.76 130.245C170.712 130.317 170.654 130.377 170.587 130.425C170.52 130.473 170.447 130.5 170.368 130.506C170.289 130.512 170.204 130.486 170.114 130.429C170.046 130.387 169.994 130.334 169.959 130.272C169.925 130.211 169.907 130.142 169.906 130.066C169.905 129.99 169.919 129.907 169.948 129.818C169.977 129.731 170.021 129.639 170.081 129.544L170.123 129.476C170.173 129.396 170.231 129.328 170.296 129.272C170.361 129.218 170.431 129.179 170.506 129.155C170.581 129.131 170.658 129.123 170.737 129.132C170.816 129.142 170.895 129.172 170.973 129.22C171.072 129.282 171.147 129.357 171.199 129.444C171.251 129.532 171.283 129.63 171.295 129.738L171.641 129.664C171.638 129.581 171.621 129.494 171.59 129.401C171.56 129.309 171.509 129.218 171.437 129.128C171.367 129.038 171.272 128.956 171.152 128.881ZM173.115 131.851L173.318 131.525L172.419 130.963L172.216 131.289L173.115 131.851ZM175.788 133.834L176.041 133.429C176.162 133.236 176.246 133.058 176.293 132.897C176.341 132.738 176.356 132.593 176.337 132.464C176.319 132.334 176.272 132.218 176.198 132.116C176.124 132.015 176.026 131.926 175.903 131.85C175.806 131.789 175.708 131.745 175.608 131.717C175.51 131.691 175.411 131.683 175.311 131.694C175.21 131.706 175.11 131.739 175.01 131.793C174.911 131.849 174.811 131.928 174.712 132.029C174.613 132.131 174.515 132.26 174.418 132.415L174.166 132.82C174.044 133.015 173.96 133.191 173.915 133.349C173.87 133.507 173.856 133.651 173.875 133.78C173.894 133.909 173.94 134.024 174.014 134.124C174.09 134.225 174.189 134.314 174.311 134.39C174.41 134.452 174.508 134.496 174.607 134.523C174.705 134.551 174.804 134.56 174.902 134.549C175.002 134.538 175.101 134.506 175.199 134.451C175.299 134.398 175.398 134.321 175.496 134.218C175.594 134.117 175.691 133.989 175.788 133.834ZM175.668 133.116L175.341 133.639C175.279 133.738 175.219 133.821 175.161 133.888C175.102 133.957 175.045 134.011 174.99 134.049C174.935 134.088 174.881 134.114 174.828 134.127C174.774 134.14 174.721 134.141 174.67 134.13C174.618 134.119 174.566 134.098 174.514 134.065C174.451 134.026 174.402 133.978 174.368 133.922C174.333 133.867 174.315 133.802 174.314 133.728C174.313 133.653 174.331 133.567 174.368 133.468C174.404 133.371 174.461 133.261 174.539 133.138L174.866 132.614C174.928 132.515 174.988 132.431 175.047 132.362C175.106 132.293 175.164 132.238 175.22 132.198C175.276 132.159 175.331 132.132 175.385 132.117C175.439 132.103 175.492 132.102 175.544 132.112C175.597 132.123 175.649 132.144 175.699 132.176C175.764 132.217 175.813 132.265 175.848 132.321C175.882 132.377 175.899 132.443 175.899 132.518C175.898 132.595 175.879 132.683 175.841 132.782C175.803 132.881 175.745 132.992 175.668 133.116ZM176.623 135.799L178.175 133.316L177.765 133.06L176.517 135.057L176.039 134.472L175.828 134.811L176.574 135.768L176.623 135.799ZM179.388 135.207L179.373 135.231C179.247 135.433 179.154 135.63 179.095 135.821C179.036 136.014 179.003 136.194 178.997 136.362C178.99 136.531 179.001 136.681 179.03 136.813C179.06 136.945 179.101 137.053 179.153 137.136L179.344 136.983C179.314 136.908 179.295 136.818 179.285 136.712C179.276 136.606 179.281 136.487 179.301 136.354C179.322 136.222 179.362 136.078 179.422 135.921C179.482 135.766 179.567 135.6 179.677 135.425L179.696 135.395C179.805 135.22 179.917 135.07 180.031 134.947C180.145 134.825 180.257 134.726 180.367 134.649C180.478 134.572 180.583 134.515 180.682 134.475C180.783 134.436 180.874 134.412 180.956 134.403L181.005 134.173C180.907 134.163 180.792 134.174 180.66 134.206C180.529 134.237 180.389 134.292 180.24 134.373C180.092 134.452 179.944 134.56 179.797 134.697C179.651 134.835 179.514 135.005 179.388 135.207ZM179.901 137.42L181.261 135.245L180.918 135.031L179.559 137.206L179.901 137.42ZM181.379 137.449L181.535 137.2L180.671 136.66L180.516 136.91L181.379 137.449ZM180.53 137.441L180.872 137.654L181.799 136.17C181.828 136.123 181.858 136.09 181.887 136.073C181.916 136.057 181.946 136.053 181.976 136.06C182.006 136.067 182.037 136.08 182.07 136.101C182.094 136.116 182.116 136.131 182.136 136.148C182.155 136.164 182.171 136.178 182.183 136.189L182.347 135.929C182.324 135.903 182.296 135.875 182.262 135.845C182.229 135.815 182.189 135.785 182.141 135.755C182.062 135.706 181.984 135.677 181.907 135.666C181.829 135.657 181.753 135.673 181.679 135.715C181.606 135.757 181.536 135.831 181.471 135.935L180.53 137.441ZM182.735 137.332L182.75 137.308C182.874 137.108 182.965 136.912 183.023 136.72C183.081 136.528 183.113 136.347 183.119 136.178C183.126 136.009 183.114 135.857 183.083 135.722C183.053 135.588 183.011 135.478 182.959 135.394L182.773 135.538C182.802 135.614 182.82 135.705 182.828 135.811C182.838 135.917 182.832 136.037 182.81 136.172C182.789 136.306 182.748 136.451 182.687 136.607C182.628 136.764 182.543 136.93 182.433 137.106L182.414 137.135C182.305 137.311 182.192 137.46 182.076 137.582C181.961 137.705 181.848 137.805 181.736 137.881C181.624 137.958 181.518 138.016 181.419 138.055C181.319 138.094 181.231 138.118 181.155 138.127L181.108 138.357C181.206 138.368 181.322 138.358 181.456 138.326C181.591 138.295 181.733 138.239 181.882 138.157C182.032 138.078 182.18 137.969 182.327 137.833C182.475 137.697 182.611 137.53 182.735 137.332Z" fill="white"/>
<path d="M167.431 121.154L169.499 117.844L168.953 117.502L167.289 120.165L166.652 119.385L166.37 119.836L167.365 121.113L167.431 121.154ZM172.585 120.377L172.857 119.942L170.646 118.56L170.412 118.934L170.754 120.776C170.789 120.983 170.81 121.156 170.817 121.295C170.825 121.434 170.818 121.551 170.797 121.645C170.777 121.741 170.744 121.826 170.697 121.9C170.632 122.005 170.556 122.084 170.467 122.138C170.379 122.194 170.284 122.222 170.182 122.221C170.079 122.222 169.974 122.189 169.869 122.123C169.746 122.046 169.66 121.956 169.61 121.851C169.56 121.746 169.543 121.634 169.559 121.514C169.574 121.395 169.619 121.276 169.694 121.157L169.148 120.816C169.028 121.007 168.962 121.21 168.951 121.423C168.938 121.638 168.986 121.844 169.094 122.042C169.2 122.241 169.371 122.413 169.605 122.56C169.825 122.698 170.036 122.778 170.236 122.8C170.436 122.822 170.619 122.79 170.784 122.704C170.951 122.619 171.092 122.484 171.208 122.298C171.272 122.196 171.319 122.083 171.349 121.961C171.379 121.839 171.395 121.708 171.396 121.568C171.398 121.431 171.389 121.286 171.369 121.133C171.349 120.981 171.32 120.823 171.285 120.658L171.063 119.425L172.585 120.377ZM173.498 121.073L173.74 120.682C173.836 120.528 173.896 120.346 173.921 120.134C173.946 119.923 173.928 119.725 173.867 119.54L173.469 119.527C173.469 119.622 173.464 119.714 173.456 119.806C173.447 119.897 173.429 119.988 173.401 120.08C173.373 120.172 173.329 120.265 173.27 120.36L173.013 120.77L173.498 121.073ZM175.858 123.452L176.13 123.017L173.751 121.531L173.528 121.848L173.558 124.967L173.995 125.24L174.028 124.133L174.03 122.31L175.858 123.452ZM174.119 125.318L176.181 122.019L175.635 121.678L173.573 124.977L174.119 125.318ZM178.898 124.321L179.169 123.886L176.958 122.504L176.724 122.878L177.066 124.721C177.101 124.927 177.122 125.1 177.13 125.239C177.137 125.378 177.131 125.495 177.11 125.589C177.089 125.686 177.056 125.771 177.01 125.845C176.945 125.949 176.868 126.028 176.78 126.082C176.692 126.139 176.597 126.166 176.494 126.165C176.391 126.166 176.287 126.133 176.181 126.067C176.059 125.991 175.972 125.9 175.922 125.795C175.872 125.691 175.855 125.578 175.872 125.458C175.887 125.34 175.932 125.221 176.006 125.101L175.46 124.76C175.341 124.952 175.275 125.154 175.263 125.368C175.251 125.583 175.298 125.789 175.406 125.986C175.513 126.185 175.683 126.358 175.917 126.504C176.138 126.642 176.348 126.722 176.549 126.744C176.749 126.767 176.932 126.735 177.097 126.649C177.263 126.564 177.404 126.428 177.521 126.243C177.585 126.14 177.632 126.028 177.662 125.906C177.692 125.784 177.708 125.653 177.709 125.513C177.711 125.375 177.702 125.23 177.682 125.077C177.661 124.925 177.633 124.767 177.597 124.602L177.375 123.37L178.898 124.321ZM179.052 126.45L179.378 126.653C179.505 126.733 179.596 126.82 179.652 126.916C179.709 127.013 179.734 127.112 179.727 127.215C179.719 127.317 179.684 127.418 179.622 127.518C179.557 127.622 179.482 127.7 179.398 127.75C179.315 127.803 179.223 127.826 179.122 127.82C179.022 127.814 178.915 127.776 178.8 127.704C178.704 127.644 178.628 127.569 178.574 127.481C178.521 127.395 178.494 127.302 178.493 127.203C178.491 127.105 178.52 127.008 178.58 126.911L178.032 126.569C177.923 126.744 177.871 126.928 177.879 127.122C177.886 127.315 177.945 127.5 178.055 127.676C178.166 127.855 178.321 128.006 178.521 128.131C178.734 128.264 178.942 128.345 179.145 128.373C179.348 128.403 179.538 128.377 179.714 128.294C179.89 128.21 180.042 128.066 180.17 127.861C180.229 127.767 180.266 127.658 180.283 127.534C180.3 127.41 180.29 127.281 180.254 127.147C180.217 127.015 180.15 126.884 180.052 126.754C179.954 126.625 179.821 126.508 179.651 126.402L179.241 126.146L179.052 126.45ZM179.318 126.024L179.131 126.323L179.541 126.579C179.734 126.7 179.913 126.78 180.077 126.82C180.243 126.86 180.394 126.867 180.53 126.841C180.665 126.816 180.784 126.766 180.887 126.689C180.991 126.613 181.078 126.519 181.149 126.405C181.245 126.251 181.303 126.096 181.323 125.941C181.343 125.787 181.328 125.638 181.279 125.491C181.23 125.345 181.151 125.208 181.041 125.081C180.933 124.955 180.8 124.842 180.641 124.743C180.499 124.654 180.351 124.589 180.196 124.547C180.042 124.505 179.889 124.49 179.738 124.503C179.587 124.518 179.444 124.564 179.311 124.643C179.179 124.724 179.064 124.841 178.968 124.995L179.514 125.337C179.575 125.238 179.652 125.166 179.745 125.118C179.838 125.074 179.939 125.056 180.049 125.066C180.16 125.076 180.27 125.116 180.378 125.184C180.493 125.255 180.579 125.337 180.637 125.43C180.694 125.523 180.72 125.623 180.714 125.73C180.709 125.839 180.671 125.95 180.601 126.063C180.52 126.191 180.43 126.28 180.331 126.329C180.231 126.378 180.123 126.392 180.007 126.372C179.89 126.354 179.769 126.306 179.644 126.227L179.318 126.024Z" fill="white"/>
</g>
<defs>
<filter id="filter0_d_380_11963" x="0.0566406" y="1.01785" width="251.381" height="165.818" filterUnits="userSpaceOnUse" color-interpolation-filters="sRGB">
<feFlood flood-opacity="0" result="BackgroundImageFix"/>
<feColorMatrix in="SourceAlpha" type="matrix" values="0 0 0 0 0 0 0 0 0 0 0 0 0 0 0 0 0 0 127 0" result="hardAlpha"/>
<feOffset dx="-3" dy="7"/>
<feGaussianBlur stdDeviation="2"/>
<feComposite in2="hardAlpha" operator="out"/>
<feColorMatrix type="matrix" values="0 0 0 0 0 0 0 0 0 0 0 0 0 0 0 0 0 0 0.25 0"/>
<feBlend mode="normal" in2="BackgroundImageFix" result="effect1_dropShadow_380_11963"/>
<feBlend mode="normal" in="SourceGraphic" in2="effect1_dropShadow_380_11963" result="shape"/>
</filter>
<filter id="filter1_d_380_11963" x="62" y="38.0626" width="90" height="75" filterUnits="userSpaceOnUse" color-interpolation-filters="sRGB">
<feFlood flood-opacity="0" result="BackgroundImageFix"/>
<feColorMatrix in="SourceAlpha" type="matrix" values="0 0 0 0 0 0 0 0 0 0 0 0 0 0 0 0 0 0 127 0" result="hardAlpha"/>
<feOffset dx="6" dy="13"/>
<feGaussianBlur stdDeviation="2"/>
<feComposite in2="hardAlpha" operator="out"/>
<feColorMatrix type="matrix" values="0 0 0 0 0 0 0 0 0 0 0 0 0 0 0 0 0 0 0.5 0"/>
<feBlend mode="normal" in2="BackgroundImageFix" result="effect1_dropShadow_380_11963"/>
<feBlend mode="normal" in="SourceGraphic" in2="effect1_dropShadow_380_11963" result="shape"/>
</filter>
<filter id="filter2_d_380_11963" x="121" y="90.4118" width="45.8535" height="39.6509" filterUnits="userSpaceOnUse" color-interpolation-filters="sRGB">
<feFlood flood-opacity="0" result="BackgroundImageFix"/>
<feColorMatrix in="SourceAlpha" type="matrix" values="0 0 0 0 0 0 0 0 0 0 0 0 0 0 0 0 0 0 127 0" result="hardAlpha"/>
<feOffset dx="2" dy="5"/>
<feGaussianBlur stdDeviation="2.5"/>
<feComposite in2="hardAlpha" operator="out"/>
<feColorMatrix type="matrix" values="0 0 0 0 0 0 0 0 0 0 0 0 0 0 0 0 0 0 0.5 0"/>
<feBlend mode="normal" in2="BackgroundImageFix" result="effect1_dropShadow_380_11963"/>
<feBlend mode="normal" in="SourceGraphic" in2="effect1_dropShadow_380_11963" result="shape"/>
</filter>
<filter id="filter3_d_380_11963" x="140" y="68.4822" width="45.5469" height="40.5804" filterUnits="userSpaceOnUse" color-interpolation-filters="sRGB">
<feFlood flood-opacity="0" result="BackgroundImageFix"/>
<feColorMatrix in="SourceAlpha" type="matrix" values="0 0 0 0 0 0 0 0 0 0 0 0 0 0 0 0 0 0 127 0" result="hardAlpha"/>
<feOffset dx="2" dy="5"/>
<feGaussianBlur stdDeviation="2.5"/>
<feComposite in2="hardAlpha" operator="out"/>
<feColorMatrix type="matrix" values="0 0 0 0 0 0 0 0 0 0 0 0 0 0 0 0 0 0 0.5 0"/>
<feBlend mode="normal" in2="BackgroundImageFix" result="effect1_dropShadow_380_11963"/>
<feBlend mode="normal" in="SourceGraphic" in2="effect1_dropShadow_380_11963" result="shape"/>
</filter>
<filter id="filter4_d_380_11963" x="172" y="90.4822" width="45.5469" height="40.5804" filterUnits="userSpaceOnUse" color-interpolation-filters="sRGB">
<feFlood flood-opacity="0" result="BackgroundImageFix"/>
<feColorMatrix in="SourceAlpha" type="matrix" values="0 0 0 0 0 0 0 0 0 0 0 0 0 0 0 0 0 0 127 0" result="hardAlpha"/>
<feOffset dx="2" dy="5"/>
<feGaussianBlur stdDeviation="2.5"/>
<feComposite in2="hardAlpha" operator="out"/>
<feColorMatrix type="matrix" values="0 0 0 0 0 0 0 0 0 0 0 0 0 0 0 0 0 0 0.5 0"/>
<feBlend mode="normal" in2="BackgroundImageFix" result="effect1_dropShadow_380_11963"/>
<feBlend mode="normal" in="SourceGraphic" in2="effect1_dropShadow_380_11963" result="shape"/>
</filter>
<filter id="filter5_d_380_11963" x="150" y="110.412" width="45.8535" height="39.6508" filterUnits="userSpaceOnUse" color-interpolation-filters="sRGB">
<feFlood flood-opacity="0" result="BackgroundImageFix"/>
<feColorMatrix in="SourceAlpha" type="matrix" values="0 0 0 0 0 0 0 0 0 0 0 0 0 0 0 0 0 0 127 0" result="hardAlpha"/>
<feOffset dx="2" dy="5"/>
<feGaussianBlur stdDeviation="2.5"/>
<feComposite in2="hardAlpha" operator="out"/>
<feColorMatrix type="matrix" values="0 0 0 0 0 0 0 0 0 0 0 0 0 0 0 0 0 0 0.5 0"/>
<feBlend mode="normal" in2="BackgroundImageFix" result="effect1_dropShadow_380_11963"/>
<feBlend mode="normal" in="SourceGraphic" in2="effect1_dropShadow_380_11963" result="shape"/>
</filter>
<clipPath id="clip0_380_11963">
<rect width="5.47177" height="5.47177" fill="white" transform="matrix(0.822909 0.568173 0.568173 -0.822909 143 80.0206)"/>
</clipPath>
<clipPath id="clip1_380_11963">
<rect width="5.47177" height="5.47177" fill="white" transform="matrix(0.822909 0.568173 0.568173 -0.822909 175 102.021)"/>
</clipPath>
</defs>
</svg>
