<svg width="254" height="167" viewBox="0 0 254 167" fill="none" xmlns="http://www.w3.org/2000/svg">
<g filter="url(#filter0_d_380_11951)">
<path d="M248.06 101.083L162.404 154.726C161.1 155.543 159.443 155.539 158.143 154.716L9.41746 60.6072C6.91729 59.0252 6.94045 55.3703 9.46047 53.8201L92.795 2.55565C95.0522 1.1671 97.9001 1.17229 100.152 2.56909L248.046 94.2938C250.562 95.8541 250.57 99.5119 248.06 101.083Z" fill="#1A4159"/>
<path d="M248.06 101.083L162.404 154.726C161.1 155.543 159.443 155.539 158.143 154.716L9.41746 60.6072C6.91729 59.0252 6.94045 55.3703 9.46047 53.8201L92.795 2.55565C95.0522 1.1671 97.9001 1.17229 100.152 2.56909L248.046 94.2938C250.562 95.8541 250.57 99.5119 248.06 101.083Z" stroke="#1A4159"/>
</g>
<g filter="url(#filter1_d_380_11951)">
<path d="M129 59.0626C129 54.4167 126.292 49.89 121.265 46.1313C116.238 42.3727 109.149 39.575 101.015 38.1394C92.881 36.7037 84.119 36.7037 75.9848 38.1394C67.8507 39.575 60.762 42.3727 55.7348 46.1313L88.5 59.0626H129Z" fill="#8BD1D5"/>
<path d="M70.9791 39.2279C64.8289 40.831 59.5236 43.252 55.5558 46.2663L88.5 59.0626L70.9791 39.2279Z" fill="#55D6E5"/>
<path d="M75.8273 79.9579C81.9184 81.0479 88.3989 81.3367 94.7356 80.8003C101.072 80.2639 107.084 78.9178 112.276 76.8727C117.467 74.8276 121.691 72.142 124.598 69.037C127.506 65.9319 129.014 62.4962 129 59.0125L88.5 59.0626L75.8273 79.9579Z" fill="#5AC5F2"/>
<path d="M55.8358 46.0562C52.0572 48.8563 49.5523 52.1024 48.5258 55.5292C47.4993 58.956 47.9803 62.466 49.9296 65.7725C51.879 69.0789 55.2412 72.0877 59.7414 74.5531C64.2416 77.0184 69.752 78.8701 75.8221 79.9569L88.5 59.0626L55.8358 46.0562Z" fill="#0D2535"/>
</g>
<g filter="url(#filter2_d_380_11951)">
<path d="M113.67 98.1997L112.584 98.733L112.45 98.639L113.058 97.7706L112.497 97.3783L110.887 99.6785L111.827 100.337C112.009 100.464 112.185 100.54 112.356 100.565C112.529 100.592 112.686 100.572 112.828 100.505C112.967 100.44 113.085 100.34 113.18 100.205C113.287 100.052 113.339 99.8847 113.335 99.7034C113.334 99.5236 113.267 99.3497 113.134 99.1817L114.303 98.6425L113.67 98.1997ZM112.172 99.0354L112.519 99.2786C112.622 99.3505 112.681 99.4292 112.696 99.5146C112.713 99.6015 112.69 99.6909 112.626 99.7826C112.564 99.87 112.49 99.9205 112.402 99.934C112.317 99.949 112.223 99.9206 112.12 99.8487L111.773 99.6055L112.172 99.0354ZM115.782 100.284L114.924 99.6828L115.071 99.1801L114.484 98.7695L113.706 101.652L114.355 102.107L116.797 100.389L116.204 99.974L115.782 100.284ZM115.335 100.615L114.461 101.258L114.768 100.219L115.335 100.615ZM117.712 103.354C117.805 103.22 117.86 103.077 117.877 102.922C117.892 102.77 117.86 102.616 117.781 102.46C117.702 102.303 117.568 102.159 117.38 102.028L117.033 101.785L117.611 100.959L117.051 100.567L115.44 102.867L116.348 103.502C116.531 103.631 116.709 103.708 116.88 103.733C117.051 103.758 117.207 103.738 117.348 103.671C117.49 103.604 117.611 103.498 117.712 103.354ZM117.026 102.444C117.133 102.519 117.195 102.6 117.212 102.686C117.229 102.773 117.206 102.863 117.142 102.955C117.077 103.046 117.001 103.099 116.914 103.112C116.826 103.126 116.729 103.095 116.622 103.02L116.317 102.807L116.721 102.23L117.026 102.444ZM119.756 104.785C119.85 104.652 119.905 104.508 119.922 104.354C119.937 104.202 119.905 104.048 119.826 103.891C119.746 103.735 119.613 103.591 119.425 103.46L119.078 103.216L119.656 102.391L119.095 101.998L117.485 104.298L118.392 104.934C118.576 105.062 118.753 105.139 118.924 105.165C119.095 105.19 119.252 105.169 119.393 105.102C119.534 105.035 119.655 104.93 119.756 104.785ZM119.07 103.875C119.177 103.95 119.239 104.031 119.257 104.118C119.274 104.205 119.25 104.294 119.186 104.386C119.122 104.478 119.046 104.531 118.958 104.544C118.871 104.558 118.774 104.527 118.667 104.452L118.362 104.239L118.766 103.662L119.07 103.875ZM122.244 104.169C122.028 104.017 121.794 103.928 121.542 103.902C121.293 103.877 121.052 103.917 120.819 104.021C120.587 104.129 120.393 104.295 120.235 104.52C120.078 104.745 119.989 104.984 119.968 105.236C119.95 105.49 119.995 105.73 120.104 105.956C120.215 106.184 120.378 106.373 120.594 106.525C120.811 106.676 121.044 106.764 121.293 106.789C121.545 106.816 121.785 106.775 122.013 106.668C122.243 106.562 122.437 106.397 122.594 106.172C122.752 105.947 122.842 105.707 122.864 105.452C122.884 105.2 122.84 104.961 122.732 104.735C122.623 104.509 122.46 104.32 122.244 104.169ZM121.886 104.68C122.07 104.808 122.173 104.972 122.197 105.171C122.222 105.371 122.165 105.572 122.024 105.773C121.882 105.976 121.713 106.099 121.518 106.141C121.323 106.187 121.134 106.145 120.95 106.017C120.764 105.887 120.658 105.723 120.631 105.525C120.606 105.328 120.665 105.127 120.809 104.922C120.951 104.718 121.119 104.594 121.314 104.548C121.51 104.506 121.7 104.55 121.886 104.68ZM124.889 106.055L123.803 106.588L123.668 106.494L124.276 105.626L123.716 105.234L122.105 107.534L123.046 108.192C123.227 108.319 123.403 108.395 123.574 108.421C123.748 108.448 123.905 108.428 124.046 108.361C124.186 108.296 124.303 108.196 124.398 108.06C124.505 107.907 124.557 107.74 124.554 107.559C124.553 107.379 124.486 107.205 124.353 107.037L125.521 106.498L124.889 106.055ZM123.391 106.891L123.738 107.134C123.841 107.206 123.9 107.284 123.915 107.37C123.932 107.457 123.908 107.546 123.844 107.638C123.783 107.725 123.709 107.776 123.621 107.789C123.536 107.804 123.441 107.776 123.339 107.704L122.991 107.461L123.391 106.891ZM125.898 110.189L126.212 109.74L125.602 109.313L126.899 107.462L126.338 107.07L125.042 108.921L124.433 108.494L124.118 108.943L125.898 110.189ZM127.735 111.476C127.977 111.645 128.223 111.746 128.471 111.777C128.72 111.807 128.955 111.77 129.175 111.664C129.397 111.562 129.587 111.397 129.746 111.17C129.904 110.945 129.993 110.71 130.015 110.465C130.039 110.221 129.993 109.987 129.877 109.762C129.763 109.539 129.586 109.344 129.345 109.175L128.484 108.572L126.873 110.872L127.735 111.476ZM128.97 109.635C129.182 109.783 129.306 109.957 129.343 110.155C129.38 110.354 129.324 110.559 129.176 110.771C129.027 110.983 128.853 111.106 128.652 111.141C128.452 111.177 128.246 111.12 128.034 110.972L127.768 110.786L128.704 109.449L128.97 109.635ZM129.382 112.629L129.955 113.03L130.203 111.895L129.826 111.631L129.382 112.629ZM133.042 112.369L132.184 111.768L132.331 111.266L131.744 110.855L130.966 113.738L131.614 114.192L134.057 112.475L133.464 112.059L133.042 112.369ZM132.595 112.701L131.72 113.343L132.028 112.304L132.595 112.701ZM136.368 114.093L135.808 113.701L133.877 114.463L134.871 113.044L134.311 112.652L132.7 114.952L133.26 115.345L135.195 114.575L134.197 116.001L134.758 116.393L136.368 114.093ZM137.922 115.786L137.063 115.185L137.21 114.682L136.624 114.272L135.845 117.155L136.494 117.609L138.937 115.891L138.344 115.476L137.922 115.786ZM137.475 116.118L136.6 116.76L136.908 115.721L137.475 116.118ZM139.448 116.894L140.182 117.408L140.485 116.975L139.19 116.069L137.58 118.369L138.14 118.761L139.448 116.894ZM141.114 120.844L141.396 118.746L141.928 117.986L141.368 117.594L140.836 118.354L138.961 119.336L139.597 119.781L140.717 119.13L140.485 120.403L141.114 120.844ZM143.798 119.261C143.63 119.144 143.46 119.065 143.289 119.027C143.117 118.988 142.954 118.994 142.798 119.044C142.644 119.096 142.513 119.196 142.403 119.344L142.999 119.761C143.067 119.682 143.143 119.637 143.225 119.627C143.306 119.618 143.387 119.642 143.468 119.699C143.551 119.757 143.603 119.821 143.625 119.892C143.646 119.965 143.632 120.035 143.585 120.103C143.545 120.16 143.493 120.193 143.427 120.203C143.364 120.214 143.296 120.212 143.222 120.196C143.151 120.182 143.053 120.154 142.929 120.113C142.748 120.054 142.595 120.015 142.469 119.995C142.343 119.976 142.215 119.987 142.084 120.029C141.954 120.071 141.838 120.164 141.737 120.308C141.587 120.522 141.548 120.744 141.619 120.973C141.688 121.203 141.847 121.406 142.096 121.58C142.35 121.758 142.597 121.84 142.838 121.826C143.077 121.814 143.278 121.704 143.44 121.496L142.834 121.071C142.777 121.143 142.71 121.181 142.63 121.188C142.549 121.196 142.47 121.173 142.391 121.118C142.323 121.07 142.282 121.014 142.266 120.947C142.249 120.883 142.264 120.818 142.312 120.75C142.364 120.676 142.439 120.642 142.538 120.65C142.637 120.657 142.778 120.689 142.96 120.745C143.144 120.798 143.297 120.834 143.421 120.853C143.547 120.873 143.675 120.863 143.804 120.823C143.933 120.783 144.045 120.694 144.142 120.556C144.233 120.425 144.283 120.283 144.29 120.128C144.3 119.975 144.263 119.823 144.181 119.671C144.098 119.519 143.971 119.382 143.798 119.261ZM144.23 122.357L144.556 121.891L145.306 122.417L145.609 121.984L144.859 121.459L145.212 120.954L146.061 121.548L146.375 121.1L144.966 120.113L143.355 122.413L144.764 123.4L145.079 122.951L144.23 122.357Z" fill="#5AC5F2"/>
</g>
<g filter="url(#filter3_d_380_11951)">
<path d="M123.346 88.8312C123.178 88.7134 123.008 88.6352 122.836 88.5965C122.665 88.5578 122.501 88.5637 122.345 88.6141C122.192 88.6661 122.06 88.7659 121.95 88.9136L122.546 89.3312C122.615 89.2521 122.69 89.2072 122.773 89.1965C122.853 89.188 122.934 89.212 123.015 89.2686C123.098 89.3268 123.151 89.3912 123.173 89.462C123.193 89.535 123.18 89.6053 123.132 89.673C123.093 89.7298 123.04 89.763 122.975 89.7726C122.912 89.7837 122.843 89.7814 122.77 89.7657C122.698 89.7515 122.6 89.7237 122.476 89.6824C122.296 89.6243 122.142 89.5853 122.016 89.5654C121.89 89.5455 121.762 89.5566 121.632 89.5988C121.501 89.6409 121.385 89.7341 121.284 89.8782C121.135 90.0923 121.095 90.3137 121.166 90.5424C121.235 90.7734 121.395 90.976 121.644 91.1504C121.897 91.3278 122.144 91.4097 122.385 91.3959C122.624 91.3844 122.825 91.2743 122.987 91.0657L122.381 90.6412C122.325 90.7125 122.257 90.7512 122.178 90.7575C122.097 90.7661 122.017 90.7428 121.938 90.6877C121.871 90.6403 121.829 90.5835 121.814 90.5173C121.797 90.4533 121.812 90.3874 121.859 90.3197C121.911 90.2454 121.987 90.212 122.086 90.2195C122.185 90.2269 122.325 90.2586 122.507 90.3146C122.691 90.3683 122.845 90.4044 122.969 90.4228C123.095 90.4427 123.222 90.4326 123.351 90.3927C123.48 90.3527 123.593 90.2639 123.689 90.1263C123.781 89.9952 123.83 89.8525 123.838 89.698C123.847 89.5451 123.81 89.3926 123.728 89.2405C123.646 89.0885 123.518 88.952 123.346 88.8312ZM123.777 91.9265L124.103 91.4613L124.853 91.9867L125.156 91.5541L124.406 91.0287L124.759 90.5241L125.608 91.1184L125.922 90.6695L124.513 89.6829L122.903 91.9831L124.312 92.9697L124.626 92.5208L123.777 91.9265ZM125.226 93.6098L126.19 92.2336C126.286 92.096 126.394 92.0138 126.514 91.9869C126.633 91.9601 126.759 91.9925 126.89 92.0843C127.021 92.1761 127.095 92.2836 127.113 92.4068C127.131 92.53 127.092 92.6604 126.996 92.798L126.032 94.1742L126.592 94.5665L127.554 93.1936C127.697 92.9883 127.775 92.784 127.787 92.5809C127.799 92.3777 127.756 92.1881 127.658 92.012C127.562 91.8374 127.424 91.6867 127.242 91.5597C127.061 91.4328 126.874 91.3538 126.681 91.3227C126.488 91.2954 126.301 91.3236 126.119 91.4075C125.935 91.4936 125.771 91.6392 125.627 91.8446L124.666 93.2175L125.226 93.6098ZM127.546 95.2344L129.157 92.9342L128.596 92.5418L126.986 94.842L127.546 95.2344ZM129.82 94.0433L130.554 94.5572L130.857 94.1247L129.563 93.2185L127.952 95.5187L128.512 95.911L129.82 94.0433ZM131.705 98.1467L132.02 97.6978L131.083 97.0417L131.422 96.5567L132.123 97.0477L132.428 96.6119L131.727 96.1209L132.379 95.1904L131.819 94.7981L130.208 97.0982L131.705 98.1467ZM134.758 97.4617L133.899 96.8606L134.046 96.3579L133.46 95.9472L132.681 98.8302L133.33 99.2844L135.773 97.567L135.18 97.1517L134.758 97.4617ZM134.311 97.7932L133.436 98.4357L133.744 97.3963L134.311 97.7932ZM136.07 101.203L136.385 100.754L135.775 100.328L137.072 98.4762L136.511 98.0839L135.215 99.9352L134.605 99.5085L134.291 99.9574L136.07 101.203ZM138.956 103.224L140.567 100.924L140.007 100.532L139.041 101.911L139.492 100.171L139.04 99.8547L137.554 100.875L138.522 99.4922L137.962 99.0999L136.352 101.4L137.013 101.864L138.774 100.723L138.298 102.763L138.956 103.224ZM142.117 102.615L141.259 102.014L141.406 101.511L140.819 101.1L140.041 103.983L140.69 104.438L143.133 102.72L142.539 102.305L142.117 102.615ZM141.67 102.946L140.796 103.589L141.103 102.55L141.67 102.946ZM144.795 103.884L143.833 104.261L143.913 103.267L143.278 102.822L143.196 104.508L141.651 105.111L142.303 105.567L143.251 105.196L143.171 106.175L143.807 106.62L143.888 104.949L145.447 104.341L144.795 103.884Z" fill="#5AC5F2"/>
</g>
<g filter="url(#filter4_d_380_11951)">
<path d="M132.346 78.8312C132.178 78.7134 132.008 78.6352 131.836 78.5965C131.665 78.5578 131.501 78.5637 131.345 78.6141C131.192 78.6661 131.06 78.7659 130.95 78.9136L131.546 79.3312C131.615 79.2521 131.69 79.2072 131.773 79.1965C131.853 79.188 131.934 79.212 132.015 79.2686C132.098 79.3268 132.151 79.3912 132.173 79.462C132.193 79.535 132.18 79.6053 132.132 79.673C132.093 79.7298 132.04 79.763 131.975 79.7726C131.912 79.7837 131.843 79.7814 131.77 79.7657C131.698 79.7515 131.6 79.7237 131.476 79.6824C131.296 79.6243 131.142 79.5853 131.016 79.5654C130.89 79.5455 130.762 79.5566 130.632 79.5988C130.501 79.6409 130.385 79.7341 130.284 79.8782C130.135 80.0923 130.095 80.3137 130.166 80.5424C130.235 80.7734 130.395 80.976 130.644 81.1504C130.897 81.3278 131.144 81.4097 131.385 81.3959C131.624 81.3844 131.825 81.2743 131.987 81.0657L131.381 80.6412C131.325 80.7125 131.257 80.7512 131.178 80.7575C131.097 80.7661 131.017 80.7428 130.938 80.6877C130.871 80.6403 130.829 80.5835 130.814 80.5173C130.797 80.4533 130.812 80.3874 130.859 80.3197C130.911 80.2454 130.987 80.212 131.086 80.2195C131.185 80.2269 131.325 80.2586 131.507 80.3146C131.691 80.3683 131.845 80.4044 131.969 80.4228C132.095 80.4427 132.222 80.4326 132.351 80.3927C132.48 80.3527 132.593 80.2639 132.689 80.1263C132.781 79.9952 132.83 79.8525 132.838 79.698C132.847 79.5451 132.81 79.3926 132.728 79.2405C132.646 79.0885 132.518 78.952 132.346 78.8312ZM132.089 81.4736L131.724 81.9945L132.631 82.6301L134.306 80.2381L133.723 79.8298L132.413 81.7007L132.089 81.4736ZM137.199 82.2638L136.842 82.3211C136.743 82.0111 136.546 81.7528 136.251 81.5463C136.074 81.4224 135.9 81.343 135.73 81.308C135.557 81.2752 135.398 81.286 135.253 81.3404C135.108 81.3985 134.986 81.4985 134.886 81.6405C134.785 81.7847 134.733 81.9414 134.728 82.1107C134.724 82.2837 134.774 82.4617 134.877 82.6446C134.771 82.6747 134.684 82.713 134.616 82.7595C134.546 82.8082 134.484 82.8708 134.43 82.9473C134.354 83.0565 134.313 83.1758 134.307 83.3051C134.301 83.4344 134.334 83.5617 134.406 83.6869C134.478 83.8158 134.589 83.9322 134.737 84.0362C134.888 84.1418 135.035 84.204 135.178 84.2228C135.321 84.2416 135.451 84.2235 135.568 84.1684C135.684 84.1134 135.779 84.0297 135.851 83.9174L135.323 83.5481C135.284 83.6086 135.238 83.6426 135.183 83.6503C135.13 83.6616 135.077 83.649 135.024 83.6122C134.972 83.5755 134.939 83.5297 134.925 83.4746C134.912 83.4195 134.922 83.368 134.956 83.3199C134.988 83.2741 135.036 83.2359 135.099 83.2056C135.165 83.1768 135.252 83.1518 135.362 83.1306L136.305 82.9757C136.302 82.9897 136.298 83.0066 136.294 83.0265C136.292 83.0479 136.289 83.0715 136.283 83.0973L136.26 83.3886L136.82 83.7809L136.863 83.3857C136.894 83.2156 136.912 83.0458 136.917 82.8765L137.851 82.7203L137.199 82.2638ZM135.961 82.0168C136.107 82.1193 136.208 82.2518 136.264 82.4144L135.406 82.5512C135.305 82.3603 135.303 82.196 135.4 82.0584C135.458 81.9754 135.538 81.9277 135.641 81.9152C135.745 81.9065 135.852 81.9404 135.961 82.0168ZM139.597 83.9083C139.428 83.7905 139.259 83.7122 139.087 83.6736C138.916 83.6349 138.752 83.6407 138.596 83.6912C138.443 83.7432 138.311 83.843 138.201 83.9906L138.797 84.4082C138.866 84.3291 138.941 84.2842 139.023 84.2736C139.104 84.265 139.185 84.2891 139.266 84.3457C139.349 84.4038 139.401 84.4683 139.423 84.539C139.444 84.612 139.431 84.6824 139.383 84.7501C139.343 84.8069 139.291 84.8401 139.225 84.8497C139.162 84.8608 139.094 84.8585 139.02 84.8428C138.949 84.8285 138.851 84.8008 138.727 84.7595C138.546 84.7013 138.393 84.6623 138.267 84.6424C138.141 84.6225 138.013 84.6337 137.882 84.6758C137.752 84.7179 137.636 84.8111 137.535 84.9553C137.385 85.1693 137.346 85.3908 137.417 85.6195C137.486 85.8504 137.645 86.0531 137.895 86.2274C138.148 86.4049 138.395 86.4867 138.636 86.473C138.875 86.4614 139.076 86.3513 139.238 86.1427L138.632 85.7183C138.576 85.7895 138.508 85.8283 138.428 85.8346C138.348 85.8431 138.268 85.8198 138.189 85.7648C138.121 85.7174 138.08 85.6605 138.064 85.5943C138.047 85.5303 138.063 85.4645 138.11 85.3968C138.162 85.3225 138.237 85.2891 138.336 85.2965C138.435 85.304 138.576 85.3357 138.758 85.3916C138.942 85.4454 139.096 85.4814 139.219 85.4998C139.346 85.5197 139.473 85.5097 139.602 85.4697C139.731 85.4298 139.843 85.341 139.94 85.2033C140.032 85.0723 140.081 84.9295 140.088 84.7751C140.098 84.6221 140.061 84.4697 139.979 84.3176C139.897 84.1655 139.769 84.0291 139.597 83.9083ZM140.374 85.1561C140.407 85.2671 140.422 85.3181 140.419 85.3091C140.509 85.636 140.575 85.899 140.618 86.0982C140.663 86.299 140.685 86.4915 140.683 86.6757C140.681 86.8598 140.638 87.0109 140.556 87.1288C140.493 87.2184 140.423 87.2738 140.347 87.2949C140.27 87.3161 140.19 87.2977 140.107 87.2395C140.024 87.1814 139.981 87.1039 139.977 87.0069C139.974 86.9136 140.012 86.8101 140.092 86.6965L139.551 86.318C139.425 86.5067 139.356 86.6893 139.343 86.8659C139.333 87.0439 139.368 87.2052 139.449 87.3499C139.532 87.496 139.649 87.6219 139.8 87.7274C140.06 87.9094 140.302 87.9797 140.526 87.9382C140.753 87.8983 140.941 87.7713 141.091 87.5572C141.254 87.3235 141.327 87.0503 141.308 86.7377C141.288 86.4272 141.221 86.0906 141.107 85.7277L141.992 86.3472L142.311 85.8917L140.666 84.74L140.374 85.1561Z" fill="#5AC5F2"/>
</g>
<g filter="url(#filter5_d_380_11951)">
<path d="M139.346 69.8312C139.178 69.7134 139.008 69.6352 138.836 69.5965C138.665 69.5578 138.501 69.5637 138.345 69.6141C138.192 69.6661 138.06 69.7659 137.95 69.9136L138.546 70.3312C138.615 70.2521 138.69 70.2072 138.773 70.1965C138.853 70.188 138.934 70.212 139.015 70.2686C139.098 70.3267 139.151 70.3912 139.173 70.462C139.193 70.535 139.18 70.6053 139.132 70.673C139.093 70.7298 139.04 70.763 138.975 70.7726C138.912 70.7837 138.843 70.7814 138.77 70.7657C138.698 70.7515 138.6 70.7237 138.476 70.6824C138.296 70.6243 138.142 70.5853 138.016 70.5654C137.89 70.5455 137.762 70.5566 137.632 70.5987C137.501 70.6409 137.385 70.7341 137.284 70.8782C137.135 71.0923 137.095 71.3137 137.166 71.5424C137.235 71.7734 137.395 71.976 137.644 72.1504C137.897 72.3278 138.144 72.4096 138.385 72.3959C138.624 72.3844 138.825 72.2743 138.987 72.0657L138.381 71.6412C138.325 71.7125 138.257 71.7512 138.178 71.7575C138.097 71.7661 138.017 71.7428 137.938 71.6877C137.871 71.6403 137.829 71.5835 137.814 71.5173C137.797 71.4533 137.812 71.3874 137.859 71.3197C137.911 71.2454 137.987 71.212 138.086 71.2195C138.185 71.2269 138.325 71.2586 138.507 71.3146C138.691 71.3683 138.845 71.4044 138.969 71.4228C139.095 71.4427 139.222 71.4326 139.351 71.3927C139.48 71.3527 139.593 71.2639 139.689 71.1263C139.781 70.9952 139.83 70.8525 139.838 70.698C139.847 70.5451 139.81 70.3926 139.728 70.2405C139.646 70.0885 139.518 69.952 139.346 69.8312ZM139.777 72.9265L140.103 72.4613L140.853 72.9866L141.156 72.5541L140.406 72.0287L140.759 71.5241L141.608 72.1184L141.922 71.6695L140.513 70.6829L138.903 72.9831L140.312 73.9697L140.626 73.5208L139.777 72.9265ZM141.226 74.6098L142.19 73.2336C142.286 73.096 142.394 73.0138 142.514 72.9869C142.633 72.9601 142.759 72.9925 142.89 73.0843C143.021 73.1761 143.095 73.2836 143.113 73.4068C143.131 73.53 143.092 73.6604 142.996 73.798L142.032 75.1742L142.592 75.5665L143.554 74.1936C143.697 73.9883 143.775 73.784 143.787 73.5809C143.799 73.3777 143.756 73.1881 143.658 73.012C143.562 72.8374 143.424 72.6867 143.242 72.5597C143.061 72.4328 142.874 72.3538 142.681 72.3227C142.488 72.2954 142.301 72.3236 142.119 72.4075C141.935 72.4935 141.771 72.6392 141.627 72.8446L140.666 74.2175L141.226 74.6098ZM143.546 76.2343L145.157 73.9342L144.596 73.5418L142.986 75.842L143.546 76.2343ZM145.82 75.0433L146.554 75.5572L146.857 75.1247L145.563 74.2185L143.952 76.5187L144.512 76.911L145.82 75.0433ZM148.367 79.6102L149.162 76.7387L148.461 76.2477L146.034 77.9766L146.631 78.3942L148.417 77.0568L147.774 79.1949L148.367 79.6102ZM151.316 78.2127C151.1 78.0613 150.866 77.9724 150.614 77.9459C150.365 77.921 150.124 77.9606 149.891 78.0648C149.659 78.1726 149.465 78.3391 149.307 78.5641C149.15 78.7891 149.06 79.0278 149.04 79.2804C149.022 79.5345 149.067 79.7744 149.175 80.0003C149.286 80.2278 149.45 80.4172 149.666 80.5686C149.883 80.7201 150.115 80.8082 150.365 80.8332C150.617 80.8596 150.856 80.8193 151.084 80.712C151.315 80.6063 151.509 80.441 151.666 80.216C151.824 79.991 151.914 79.7511 151.936 79.4964C151.956 79.2439 151.912 79.0046 151.803 78.7787C151.695 78.5528 151.532 78.3642 151.316 78.2127ZM150.958 78.7239C151.141 78.8524 151.245 79.016 151.269 79.2148C151.294 79.4152 151.237 79.6158 151.096 79.8168C150.954 80.0199 150.785 80.1426 150.589 80.1847C150.395 80.2306 150.205 80.1892 150.022 80.0608C149.836 79.9307 149.73 79.7667 149.702 79.5685C149.677 79.3719 149.737 79.1709 149.88 78.9656C150.023 78.7624 150.191 78.6379 150.386 78.5921C150.582 78.55 150.772 78.5939 150.958 78.7239ZM152.398 79.6737C152.431 79.7847 152.446 79.8357 152.442 79.8268C152.533 80.1536 152.599 80.4166 152.642 80.6159C152.687 80.8167 152.708 81.0091 152.706 81.1933C152.704 81.3774 152.662 81.5285 152.579 81.6465C152.517 81.736 152.447 81.7914 152.37 81.8126C152.294 81.8338 152.214 81.8153 152.131 81.7572C152.048 81.699 152.004 81.6215 152.001 81.5245C151.998 81.4312 152.036 81.3278 152.115 81.2142L151.575 80.8356C151.449 81.0243 151.38 81.207 151.367 81.3835C151.356 81.5615 151.391 81.7229 151.472 81.8675C151.556 82.0137 151.673 82.1395 151.823 82.2451C152.083 82.4271 152.325 82.4973 152.55 82.4559C152.776 82.4159 152.965 82.2889 153.114 82.0748C153.278 81.8411 153.351 81.5679 153.332 81.2553C153.312 80.9449 153.245 80.6082 153.131 80.2453L154.015 80.8648L154.334 80.4093L152.69 79.2576L152.398 79.6737ZM156.348 85.1987L157.959 82.8985L157.399 82.5062L156.433 83.8856L156.884 82.146L156.432 81.8293L154.946 82.8496L155.914 81.4668L155.354 81.0745L153.743 83.3747L154.405 83.8381L156.166 82.6977L155.69 84.7375L156.348 85.1987ZM159.509 84.5895L158.651 83.9884L158.798 83.4858L158.211 83.0751L157.433 85.958L158.082 86.4123L160.524 84.6949L159.931 84.2796L159.509 84.5895ZM159.062 84.9211L158.188 85.5636L158.495 84.5242L159.062 84.9211ZM162.187 85.8588L161.225 86.2352L161.305 85.2416L160.67 84.7965L160.588 86.4825L159.043 87.0852L159.695 87.5418L160.643 87.1706L160.563 88.1498L161.199 88.5949L161.28 86.9233L162.839 86.3153L162.187 85.8588Z" fill="#5AC5F2"/>
</g>
<defs>
<filter id="filter0_d_380_11951" x="0.0566406" y="1.01785" width="251.381" height="165.818" filterUnits="userSpaceOnUse" color-interpolation-filters="sRGB">
<feFlood flood-opacity="0" result="BackgroundImageFix"/>
<feColorMatrix in="SourceAlpha" type="matrix" values="0 0 0 0 0 0 0 0 0 0 0 0 0 0 0 0 0 0 127 0" result="hardAlpha"/>
<feOffset dx="-3" dy="7"/>
<feGaussianBlur stdDeviation="2"/>
<feComposite in2="hardAlpha" operator="out"/>
<feColorMatrix type="matrix" values="0 0 0 0 0 0 0 0 0 0 0 0 0 0 0 0 0 0 0.25 0"/>
<feBlend mode="normal" in2="BackgroundImageFix" result="effect1_dropShadow_380_11951"/>
<feBlend mode="normal" in="SourceGraphic" in2="effect1_dropShadow_380_11951" result="shape"/>
</filter>
<filter id="filter1_d_380_11951" x="41" y="37.0626" width="95" height="59" filterUnits="userSpaceOnUse" color-interpolation-filters="sRGB">
<feFlood flood-opacity="0" result="BackgroundImageFix"/>
<feColorMatrix in="SourceAlpha" type="matrix" values="0 0 0 0 0 0 0 0 0 0 0 0 0 0 0 0 0 0 127 0" result="hardAlpha"/>
<feOffset dy="8"/>
<feGaussianBlur stdDeviation="3.5"/>
<feComposite in2="hardAlpha" operator="out"/>
<feColorMatrix type="matrix" values="0 0 0 0 0 0 0 0 0 0 0 0 0 0 0 0 0 0 0.4 0"/>
<feBlend mode="normal" in2="BackgroundImageFix" result="effect1_dropShadow_380_11951"/>
<feBlend mode="normal" in="SourceGraphic" in2="effect1_dropShadow_380_11951" result="shape"/>
</filter>
<filter id="filter2_d_380_11951" x="108.863" y="97.3554" width="41.5273" height="33.0771" filterUnits="userSpaceOnUse" color-interpolation-filters="sRGB">
<feFlood flood-opacity="0" result="BackgroundImageFix"/>
<feColorMatrix in="SourceAlpha" type="matrix" values="0 0 0 0 0 0 0 0 0 0 0 0 0 0 0 0 0 0 127 0" result="hardAlpha"/>
<feOffset dx="1" dy="4"/>
<feGaussianBlur stdDeviation="1.5"/>
<feComposite in2="hardAlpha" operator="out"/>
<feColorMatrix type="matrix" values="0 0 0 0 0 0 0 0 0 0 0 0 0 0 0 0 0 0 0.4 0"/>
<feBlend mode="normal" in2="BackgroundImageFix" result="effect1_dropShadow_380_11951"/>
<feBlend mode="normal" in="SourceGraphic" in2="effect1_dropShadow_380_11951" result="shape"/>
</filter>
<filter id="filter3_d_380_11951" x="118.799" y="88.2026" width="30.6641" height="25.4711" filterUnits="userSpaceOnUse" color-interpolation-filters="sRGB">
<feFlood flood-opacity="0" result="BackgroundImageFix"/>
<feColorMatrix in="SourceAlpha" type="matrix" values="0 0 0 0 0 0 0 0 0 0 0 0 0 0 0 0 0 0 127 0" result="hardAlpha"/>
<feOffset dx="1" dy="4"/>
<feGaussianBlur stdDeviation="1.5"/>
<feComposite in2="hardAlpha" operator="out"/>
<feColorMatrix type="matrix" values="0 0 0 0 0 0 0 0 0 0 0 0 0 0 0 0 0 0 0.4 0"/>
<feBlend mode="normal" in2="BackgroundImageFix" result="effect1_dropShadow_380_11951"/>
<feBlend mode="normal" in="SourceGraphic" in2="effect1_dropShadow_380_11951" result="shape"/>
</filter>
<filter id="filter4_d_380_11951" x="127.721" y="78.1895" width="18.6387" height="17.1138" filterUnits="userSpaceOnUse" color-interpolation-filters="sRGB">
<feFlood flood-opacity="0" result="BackgroundImageFix"/>
<feColorMatrix in="SourceAlpha" type="matrix" values="0 0 0 0 0 0 0 0 0 0 0 0 0 0 0 0 0 0 127 0" result="hardAlpha"/>
<feOffset dx="1" dy="4"/>
<feGaussianBlur stdDeviation="1.5"/>
<feComposite in2="hardAlpha" operator="out"/>
<feColorMatrix type="matrix" values="0 0 0 0 0 0 0 0 0 0 0 0 0 0 0 0 0 0 0.4 0"/>
<feBlend mode="normal" in2="BackgroundImageFix" result="effect1_dropShadow_380_11951"/>
<feBlend mode="normal" in="SourceGraphic" in2="effect1_dropShadow_380_11951" result="shape"/>
</filter>
<filter id="filter5_d_380_11951" x="134.721" y="69.2026" width="32.1348" height="26.5571" filterUnits="userSpaceOnUse" color-interpolation-filters="sRGB">
<feFlood flood-opacity="0" result="BackgroundImageFix"/>
<feColorMatrix in="SourceAlpha" type="matrix" values="0 0 0 0 0 0 0 0 0 0 0 0 0 0 0 0 0 0 127 0" result="hardAlpha"/>
<feOffset dx="1" dy="4"/>
<feGaussianBlur stdDeviation="1.5"/>
<feComposite in2="hardAlpha" operator="out"/>
<feColorMatrix type="matrix" values="0 0 0 0 0 0 0 0 0 0 0 0 0 0 0 0 0 0 0.4 0"/>
<feBlend mode="normal" in2="BackgroundImageFix" result="effect1_dropShadow_380_11951"/>
<feBlend mode="normal" in="SourceGraphic" in2="effect1_dropShadow_380_11951" result="shape"/>
</filter>
</defs>
</svg>
