<svg width="165" height="41" viewBox="0 0 165 41" fill="none" xmlns="http://www.w3.org/2000/svg">
<g id="Group">
<path id="Vector" d="M15.9024 3.15848C13.5618 4.52634 10.431 6.35014 8.91113 7.20125L6.17542 8.78189L6.08423 16.685L6.02344 24.5882L6.81375 25.1353C7.23931 25.4089 7.66486 25.5609 7.78645 25.4393C7.87764 25.3481 8.3032 22.4604 8.75915 18.9952L9.51907 12.7639L14.6865 9.75458C22.2553 5.34705 21.5258 5.62062 23.1368 6.38054C23.8663 6.7149 25.7813 7.56602 27.3316 8.20435C28.9122 8.87308 30.9792 9.78498 31.9519 10.2105L33.7149 11.0009L33.6237 9.72419L33.5325 8.41712L28.0611 5.28626C25.0518 3.55364 22.0425 1.82103 21.3738 1.42587L20.1275 0.726742L15.9024 3.15848Z" fill="#EB2E3E"/>
<path id="Vector_2" d="M20.8587 8.81229L20.0684 9.32904L25.2662 13.2806L30.4945 17.2322V24.2235V31.2147L25.4182 35.0143C22.6217 37.1117 20.2507 38.9051 20.1292 39.0267C20.038 39.1483 20.4027 39.4826 21.0107 39.7562L22.0745 40.2729L28.7922 36.3518L35.5099 32.4306V24.1931V15.9555L28.9138 12.1863C25.2966 10.1194 22.1657 8.38674 22.0138 8.32594C21.8314 8.29555 21.3146 8.50833 20.8587 8.81229Z" fill="#EB2E3E"/>
<path id="Vector_3" d="M1.40384 13.6761L0.552734 14.1929V22.096L0.583131 29.9992L4.86908 32.4309C7.24002 33.7684 9.67177 35.1362 10.2493 35.4706C10.8572 35.805 12.1339 36.5345 13.0762 37.0816L14.7784 38.0847L18.5476 35.8961C20.6146 34.7107 23.5935 32.9781 25.2349 32.0358C27.7882 30.5767 28.1834 30.2424 28.305 29.4216C28.3962 28.9049 28.3658 28.3881 28.2442 28.2666C28.153 28.1754 26.2988 28.8137 24.1102 29.756C18.6084 32.0662 16.6022 32.8869 16.2983 32.8869C16.1767 32.8869 14.5049 32.0054 12.6203 30.9415C10.766 29.8776 8.72947 28.7225 8.15193 28.4185C4.80828 26.5035 4.04836 25.9564 3.98757 25.4093C3.31884 19.0563 2.55892 13.129 2.40694 13.129C2.31575 13.129 1.8598 13.3721 1.40384 13.6761Z" fill="#EB2E3E"/>
<path id="Vector_4" d="M44.8118 16.8066C44.0215 17.4145 44.0215 17.4449 44.0215 21.7308C44.0519 26.5031 44.1735 26.9287 45.8757 27.415C46.4532 27.5974 51.1039 27.719 56.241 27.719H65.6032V26.5031V25.2873H56.7881H47.9427L48.0339 21.8524L48.125 18.448L56.8793 18.3568L65.6032 18.296V17.2321V16.1682H55.6027C45.9669 16.1682 45.6021 16.1986 44.8118 16.8066Z" fill="white"/>
<path id="Vector_5" d="M69.4005 16.928C68.671 17.6272 68.6406 17.8095 68.6406 21.8827C68.6406 26.0167 68.6406 26.1078 69.4309 26.8374L70.2213 27.5669H79.6443H89.0673L89.7968 26.7158C90.4959 25.8951 90.5263 25.6519 90.5263 21.9435C90.5263 19.8157 90.4351 17.8095 90.3439 17.536C89.8576 16.2897 88.8545 16.1681 79.2795 16.1681H70.1301L69.4005 16.928ZM86.7267 21.7915V25.1352H79.5835H72.4402L72.349 22.1259C72.3186 20.4541 72.349 18.9038 72.4098 18.691C72.5618 18.3567 73.9601 18.2959 79.6443 18.3567L86.7267 18.4479V21.7915Z" fill="white"/>
<path id="Vector_6" d="M94.1463 17.0496L93.2344 17.9615L93.3256 22.7642L93.4168 27.5669L95.1798 27.6581L96.9124 27.7493V23.1594V18.5998H104.208H111.503V20.1197V21.6395H104.816H98.1283V22.7034V23.7673H101.563H104.968L107.916 25.7431C110.804 27.6581 110.925 27.7189 112.871 27.7189C113.965 27.7189 114.846 27.6277 114.846 27.4757C114.846 27.3541 113.722 26.503 112.324 25.5911L109.831 23.9193L111.807 23.8281C114.725 23.6761 115.15 23.1898 115.15 19.9373C115.15 17.5967 115.09 17.384 114.36 16.8064C113.57 16.1985 113.205 16.1681 104.299 16.1681H95.0278L94.1463 17.0496Z" fill="white"/>
<path id="Vector_7" d="M118.978 16.8067C118.188 17.4146 118.188 17.445 118.188 21.8222C118.188 25.7433 118.248 26.2601 118.765 26.7768C119.647 27.6583 121.166 27.7799 130.255 27.6583C140.651 27.5367 139.891 27.9927 140.012 22.0957L140.134 17.9922L139.222 17.0803L138.31 16.1684H129.039C120.133 16.1684 119.768 16.1988 118.978 16.8067ZM136.426 21.7918C136.426 23.5548 136.334 25.0138 136.213 25.0138C136.061 25.0442 132.778 25.0746 128.918 25.105L121.835 25.1354V21.8829V18.6001H129.13H136.426V21.7918Z" fill="white"/>
<path id="Vector_8" d="M144.178 16.5329C143.144 17.08 142.81 17.7487 142.81 19.299C142.81 20.8492 143.174 21.8523 143.995 22.4602C144.36 22.7338 146.731 22.825 152.78 22.8554H161.048V24.0713V25.2871H151.898H142.779L142.87 26.4118L142.962 27.5669H153.084H163.236L163.966 26.7158C164.574 26.0167 164.695 25.5303 164.695 23.9193C164.695 22.1563 164.635 21.9435 163.753 21.214L162.811 20.4237H154.634H146.427L146.518 19.4206L146.609 18.4479L155.668 18.3567L164.695 18.2959V17.232V16.1681H154.756C148.129 16.1985 144.573 16.2897 144.178 16.5329Z" fill="white"/>
</g>
</svg>
