<svg width="131" height="35" viewBox="0 0 131 35" fill="none" xmlns="http://www.w3.org/2000/svg">
<g clip-path="url(#clip0_534_27452)">
<path d="M34.3475 17.7019C34.1325 17.2685 33.5598 16.9146 33.0751 16.9146H32.0905C31.6069 16.9146 31.0409 17.2725 30.8317 17.7092L23.024 34.0407C22.807 34.4726 23.0428 34.782 23.5274 34.782H25.3317C26.0441 34.782 26.3705 34.4576 26.5633 34.0603C26.7566 33.663 27.1869 32.799 27.2693 32.6228C27.3805 32.3845 27.7238 32.2384 28.2074 32.2389L36.6082 32.2433C37.0924 32.2442 37.4035 32.3364 37.5468 32.6228C37.6403 32.8094 38.0696 33.5865 38.2806 34.0104C38.4935 34.4344 38.8509 34.782 39.5449 34.782H42.1629C42.647 34.782 42.8592 34.4141 42.6848 34.0723C42.5096 33.73 34.3473 17.7019 34.3473 17.7019H34.3475ZM29.4148 29.7166C28.9311 29.7166 28.7033 29.3558 28.9068 28.9175L31.9834 22.3183C32.1882 21.8787 32.5193 21.8818 32.719 22.3212L35.7144 28.9203C35.9141 29.3605 35.682 29.7211 35.1988 29.7211L29.4148 29.7166ZM94.6791 17.8281V34.0301C94.6791 34.4762 95.0747 34.782 95.5594 34.782H97.693C98.1767 34.782 98.5727 34.4726 98.5727 33.9878V17.7955C98.5727 17.3102 98.2601 16.915 97.7764 16.915H95.5594C95.0747 16.9146 94.6791 17.2127 94.6791 17.8281ZM58.9247 27.9765C58.6467 27.5799 58.7994 27.1419 59.2623 27.0035C59.2623 27.0035 61.1059 26.451 61.9883 25.6588C62.8713 24.8642 63.315 23.7173 63.315 22.2223C63.315 21.2447 63.1443 20.4229 62.8044 19.7542C62.4645 19.0873 61.9771 18.5415 61.3432 18.1239C60.7091 17.704 59.9501 17.3959 59.0661 17.203C58.1812 17.0109 56.987 16.9549 56.987 16.9549C56.4012 16.9304 55.815 16.9171 55.2287 16.9147H46.3683C45.885 16.9147 45.4889 17.3099 45.4889 17.7951V33.988C45.4889 34.4731 45.8846 34.7821 46.3683 34.7821H48.4651C48.9491 34.7821 49.3448 34.4727 49.3448 33.988C49.3448 33.988 49.3462 27.5474 49.3501 27.5474C49.3537 27.5474 49.356 27.5439 49.356 27.5394C49.356 27.534 53.3308 27.5295 53.3308 27.5295C53.8141 27.5295 54.4383 27.8532 54.7181 28.2497L58.8444 34.0667C59.2277 34.5818 59.5924 34.782 60.0762 34.782H62.8171C63.301 34.782 63.377 34.325 63.2095 34.0878C63.0436 33.8518 58.9247 27.9765 58.9247 27.9765ZM57.2562 24.6877C56.7132 24.8128 56.1021 24.8378 56.1021 24.8378C55.5163 24.8613 54.9301 24.8741 54.3439 24.8762H50.2366C49.7525 24.8762 49.3568 24.4795 49.3568 23.9953V20.7144C49.3568 20.2299 49.7525 19.8337 50.2365 19.8337H54.3437C54.8279 19.8337 55.6186 19.8511 56.1019 19.8714C56.1019 19.8714 56.7132 19.8954 57.2561 20.0211C57.799 20.1465 58.2299 20.3215 58.5449 20.5474C58.8614 20.7749 59.0873 21.0415 59.224 21.3483C59.3587 21.6551 59.4274 21.9889 59.4274 22.3537C59.4274 22.7166 59.3587 23.0526 59.224 23.3588C59.0873 23.6656 58.8616 23.9321 58.5449 24.1596C58.2299 24.3871 57.7991 24.5644 57.2562 24.6877ZM120.875 16.9146C120.391 16.9146 120 17.2337 120 17.7006L120.005 28.0583C120.005 28.5438 119.731 28.654 119.396 28.3051L109.037 17.5477C108.701 17.1988 108.209 16.9146 107.545 16.9146H105.597C104.985 16.9146 104.717 17.2418 104.717 17.5733V34.1364C104.717 34.4669 105.031 34.7821 105.516 34.7821H107.467C107.95 34.7821 108.288 34.5187 108.288 34.0725C108.288 33.8487 108.298 23.161 108.298 23.161C108.298 22.6768 108.572 22.5663 108.907 22.916L119.708 34.1581C120.051 34.502 120.468 34.7823 121.209 34.7823H122.675C123.159 34.7823 123.555 34.3861 123.555 33.9014V17.7958C123.555 17.3106 123.159 16.9154 122.675 16.9154H120.875V16.9146ZM78.6416 27.0142C78.4067 27.4373 78.02 27.436 77.7884 27.0119L72.7248 17.7019C72.5098 17.2698 72.0683 16.9146 71.453 16.9146H68.7069C68.2229 16.9146 67.8262 17.3098 67.8262 17.795V33.9672C67.8262 34.451 68.1442 34.782 68.7069 34.782H70.414C70.8984 34.782 71.2476 34.4761 71.2476 34.009C71.2476 33.785 71.2547 22.2466 71.273 22.2466C71.2919 22.2466 77.5929 34.0057 77.5929 34.0057C77.8211 34.4324 78.3811 34.4344 78.6137 34.0093C78.6137 34.0093 84.9665 22.2801 84.9854 22.2801C85.0052 22.2801 84.998 33.6719 84.998 34.0088C84.998 34.4765 85.3712 34.7818 85.8556 34.7818H87.8218C88.3062 34.7818 88.7011 34.5403 88.7011 33.9009V17.7953C88.7007 17.5619 88.608 17.3382 88.4431 17.1732C88.2783 17.0082 88.0549 16.9153 87.8218 16.9149H85.1892C84.5173 16.9149 84.1131 17.2579 83.8729 17.6791L78.6414 27.0142H78.6416ZM0.576172 25.8325C0.576172 34.5576 9.48985 35 11.277 35C17.1921 35 19.6917 33.3998 19.7954 33.3307C20.1653 33.1211 20.6159 32.6984 20.6159 31.9066V25.8842C20.6155 25.6173 20.5094 25.3614 20.3208 25.1727C20.1323 24.9839 19.8767 24.8778 19.6101 24.8775H12.1789C11.6233 24.8775 11.2586 25.3294 11.2586 25.8842V26.5079C11.2586 27.0636 11.6233 27.5168 12.1789 27.5168H16.477C16.6764 27.5169 16.8676 27.5961 17.0087 27.7373C17.1498 27.8784 17.2291 28.0698 17.2293 28.2695C17.2293 28.2695 17.2252 30.9093 17.2252 31.0765C16.376 31.4236 12.5084 32.5549 9.4009 31.813C4.89294 30.7333 4.54156 27.0098 4.54156 25.8944C4.54156 24.9583 4.82202 20.2687 10.3583 19.7944C14.8395 19.4104 17.7908 21.2218 17.82 21.2396C18.3467 21.513 18.8919 21.3181 19.1857 20.7598C19.187 20.7554 19.7448 19.6255 19.7448 19.6255C19.9769 19.1606 19.8987 18.6785 19.3321 18.2937C19.2942 18.2721 16.1527 16.5667 11.2781 16.5667C0.875945 16.5671 0.576172 24.8842 0.576172 25.8325ZM126.35 32.5577H125.584V32.2811H127.448V32.5577H126.679V34.8008H126.35L126.35 32.5577ZM130.036 33.6944C130.017 33.3427 129.995 32.9165 129.995 32.6063H129.987C129.89 32.9281 129.784 33.2473 129.67 33.5636L129.226 34.7857H128.979L128.568 33.5861C128.449 33.2273 128.352 32.9054 128.281 32.6064H128.273C128.263 32.978 128.246 33.3494 128.225 33.7205L128.158 34.8005H127.848L128.023 32.2808H128.438L128.868 33.4995C128.962 33.7793 129.047 34.0624 129.121 34.3483H129.129C129.196 34.0941 129.286 33.8175 129.398 33.4995L129.846 32.2808H130.261L130.418 34.8005H130.096L130.036 33.6944Z" fill="white"/>
<path d="M119.891 12.4494L108.218 12.4489C107.79 12.4489 107.423 12.2357 107.209 11.8649C106.995 11.4939 106.995 11.0694 107.209 10.6984L113.046 0.582721C113.26 0.212224 113.627 0 114.055 0C114.483 0 114.85 0.212224 115.064 0.582721L120.9 10.6989C121.114 11.0699 121.114 11.4947 120.9 11.8657C120.686 12.2362 120.319 12.4494 119.891 12.4494Z" fill="#007CC2"/>
</g>
<defs>
<clipPath id="clip0_534_27452">
<rect width="129.858" height="35" fill="white" transform="translate(0.570312)"/>
</clipPath>
</defs>
</svg>
