<svg width="174" height="35" viewBox="0 0 174 35" fill="none" xmlns="http://www.w3.org/2000/svg">
<g id="Frame 408">
<g id="Group">
<path id="Vector" d="M15.5367 0.331763C13.8948 0.601946 11.671 1.37093 10.0291 2.22305C7.65982 3.44927 4.62545 6.35894 3.3161 8.62432C-1.63034 17.1871 1.34168 27.9736 9.94599 32.6915C16.6798 36.3701 25.1178 35.1231 30.4384 29.6779C32.1218 27.9528 32.9324 26.8098 33.8676 24.7938C34.9484 22.4868 35.3017 21.032 35.4264 18.247C35.5095 16.4389 35.4472 15.4205 35.1978 14.0903C33.8053 7.27341 28.4848 1.9113 21.7302 0.518813C20.2545 0.207063 16.8461 0.103146 15.5367 0.331763ZM23.7254 6.46285C24.1826 6.87852 24.4112 7.66829 25.5751 12.8641L26.9052 18.7874L30.2721 19.2446C32.1426 19.494 33.7637 19.785 33.8676 19.8889C34.4496 20.4708 33.8261 20.6995 29.9604 21.2398C25.3257 21.9049 24.8477 21.9257 24.4112 21.4269C24.2242 21.219 23.7461 19.6187 23.3513 17.8314C22.9772 16.0856 22.6031 14.7762 22.5407 14.9425C22.4784 15.1087 21.6678 18.1847 20.7533 21.7594C19.7557 25.7082 18.966 28.4309 18.7374 28.6803C18.3217 29.1375 17.4488 29.1999 16.9292 28.805C16.7214 28.6595 15.8277 26.2902 14.747 22.9441L12.918 17.3326L12.4192 19.1407C11.7126 21.8633 11.962 21.7594 6.95319 21.1983C4.64624 20.9281 2.6926 20.6787 2.60947 20.6163C2.27693 20.4293 2.46398 19.9097 2.92122 19.7434C3.17062 19.6603 4.66702 19.4525 6.24655 19.307C7.80531 19.1615 9.23936 18.9329 9.38484 18.8082C9.55111 18.6835 10.0083 17.2702 10.4448 15.6699C11.5047 11.6379 11.5671 11.4301 12.0035 11.2015C12.627 10.8689 13.4168 10.9521 13.8117 11.3885C14.0195 11.6171 14.934 14.1319 15.8277 17C16.7422 19.8681 17.5319 22.1543 17.5943 22.1127C17.6566 22.0504 18.5087 18.5588 19.5063 14.3605C21.0027 8.06317 21.3976 6.69147 21.7717 6.37972C22.3952 5.88092 23.1019 5.9017 23.7254 6.46285Z" fill="#DA0947"/>
<path id="Vector_2" d="M120.908 16.7089V25.334H122.155H123.402V16.7089V8.08379H122.155H120.908V16.7089Z" fill="white"/>
<path id="Vector_3" d="M145.911 8.70734C145.433 8.91518 145.018 9.51789 145.018 10.0583C145.018 10.5571 145.974 11.4092 146.535 11.4092C147.719 11.4092 148.488 9.80886 147.699 9.01909C147.304 8.62421 146.452 8.47873 145.911 8.70734Z" fill="white"/>
<path id="Vector_4" d="M49.2051 17.1246V25.334H50.556H51.9069V17.1246V8.91513H50.556H49.2051V17.1246Z" fill="white"/>
<path id="Vector_5" d="M68.9494 11.721V13.2797H67.9103H66.8711V14.215V15.1502H67.9103H68.9494V19.203C68.9494 23.5259 69.0741 24.2118 69.9886 25.0223C70.3627 25.3549 70.7368 25.438 72.0462 25.438H73.6257L73.688 24.4612L73.7504 23.4844L72.8567 23.422C71.5266 23.3181 71.4434 23.0063 71.5058 18.7873L71.5474 15.2541L72.6489 15.1918L73.7296 15.1294V14.215V13.3005L72.6489 13.2382L71.5474 13.1758L71.485 11.6586L71.4227 10.1622H70.1964H68.9494V11.721Z" fill="white"/>
<path id="Vector_6" d="M59.493 13.4459C59.0358 13.6537 58.537 13.9863 58.3707 14.1733C57.955 14.6929 57.7264 14.6098 57.7264 13.9031V13.2796H56.4794H55.2324V19.3068V25.334H56.5833H57.9343V20.9071V16.4803L58.5578 15.8776C59.2644 15.1917 60.8231 14.9631 61.6753 15.3995C62.5274 15.8568 62.6936 16.7712 62.6936 21.2189L62.7144 25.334H63.9822H65.2292L65.1669 20.3875C65.1045 15.8983 65.063 15.3995 64.6889 14.7553C64.003 13.5914 63.2964 13.1965 61.7168 13.1134C60.6777 13.0718 60.1165 13.1549 59.493 13.4459Z" fill="white"/>
<path id="Vector_7" d="M78.5525 13.6125C77.3471 14.2153 76.682 14.9635 75.9754 16.5222C75.3103 17.977 75.3103 20.8451 75.9754 22.3208C76.9314 24.3991 78.3447 25.3344 80.7348 25.5006C82.6884 25.6253 83.8938 25.272 85.0161 24.2744L85.889 23.4846L85.224 22.8196C84.6005 22.1961 84.5173 22.1545 84.1848 22.4662C83.4366 23.1313 82.4598 23.4638 81.3375 23.4638C80.2983 23.4638 80.0905 23.3807 79.3423 22.7156C78.6564 22.0921 78.0953 21.0322 78.0953 20.284C78.0953 20.2009 79.9242 20.1385 82.1688 20.1385H86.2631L86.1176 18.5174C85.7851 14.9219 84.0601 13.0929 80.9842 13.0722C79.945 13.0722 79.3838 13.1969 78.5525 13.6125ZM82.2312 15.4623C82.8754 15.7948 83.4989 16.8963 83.4989 17.7276V18.268H80.9218C79.4878 18.268 78.2823 18.2057 78.2407 18.1017C78.0329 17.79 78.7188 16.2728 79.3423 15.7117C80.0697 15.0674 81.2751 14.9427 82.2312 15.4623Z" fill="white"/>
<path id="Vector_8" d="M92.6438 13.2173C92.4775 13.2796 92.0203 13.6122 91.6669 13.9655L90.9811 14.6098V13.9239V13.2589L89.6925 13.3212C88.9651 13.3628 88.404 13.4459 88.4455 13.529C88.4663 13.633 88.4871 16.314 88.4871 19.5146V25.334H89.7341H90.9811V21.115V16.8959L91.6046 16.2932C92.1242 15.7944 92.4567 15.6697 93.4751 15.6074L94.7221 15.5242V14.298V13.0718L93.8492 13.0926C93.3504 13.0926 92.81 13.1549 92.6438 13.2173Z" fill="white"/>
<path id="Vector_9" d="M110.517 13.5085C109.437 13.9865 108.73 14.61 108.314 15.3997C107.774 16.4389 107.899 16.6052 109.27 16.6052C110.434 16.6052 110.517 16.5636 110.829 16.0025C111.182 15.275 112.305 14.8386 113.302 15.0256C114.3 15.2127 114.903 15.9609 114.944 17.0416L114.986 17.9561L112.908 18.06C109.707 18.2471 108.252 19.1407 107.795 21.1983C107.421 22.7986 108.19 24.3574 109.707 25.1264C111.099 25.8538 113.593 25.5836 114.695 24.586C115.007 24.3158 115.048 24.3158 115.173 24.8146C115.298 25.3134 115.381 25.3342 116.669 25.3342C117.999 25.3342 118.041 25.3134 117.896 24.8562C117.812 24.6068 117.688 22.4245 117.605 20.0344C117.459 15.275 117.334 14.7555 116.191 13.9449C114.757 12.9681 112.159 12.7603 110.517 13.5085ZM115.09 20.8242C115.09 22.57 114.134 23.4637 112.284 23.4637C110.704 23.4637 109.915 22.2998 110.538 20.8865C110.912 20.0968 111.868 19.7227 113.593 19.7227H115.09V20.8242Z" fill="white"/>
<path id="Vector_10" d="M129.117 13.3214C128.203 13.6332 127.184 14.4645 126.831 15.1504C126.374 16.0233 126.436 17.5612 126.935 18.2679C127.558 19.1408 128.473 19.6188 130.676 20.2423C132.941 20.8658 133.378 21.1775 133.378 22.1128C133.378 23.1727 132.754 23.5676 131.154 23.5676C129.907 23.5676 129.761 23.526 129.2 22.8818C128.868 22.5077 128.598 22.0712 128.598 21.9049C128.598 21.6555 128.307 21.5932 127.351 21.5932C126.124 21.5932 126.104 21.5932 126.104 22.1751C126.104 23.1519 127.226 24.4613 128.535 25.064C129.554 25.5212 129.886 25.5836 131.486 25.5005C133.004 25.4381 133.461 25.3134 134.292 24.8354C136.017 23.817 136.558 21.6971 135.477 20.1799C134.957 19.4317 133.689 18.8082 131.777 18.351C131.008 18.1639 130.115 17.873 129.803 17.7067C128.764 17.1871 128.785 15.7946 129.845 15.2543C131.112 14.61 132.692 15.0464 133.17 16.1895C133.419 16.7922 133.482 16.813 134.687 16.813H135.934L135.809 16.0856C135.518 14.2774 133.648 13.0512 131.216 13.0928C130.406 13.0928 129.47 13.1967 129.117 13.3214Z" fill="white"/>
<path id="Vector_11" d="M153.87 13.3837C152.79 13.7578 151.584 14.984 151.023 16.2726C150.628 17.1247 150.545 17.7067 150.545 19.2031C150.545 20.2422 150.67 21.4477 150.815 21.9049C151.646 24.3158 153.371 25.542 155.907 25.542C157.632 25.542 158.713 25.1055 159.731 24.0248C160.396 23.339 161.082 21.8633 160.874 21.5516C160.833 21.4477 160.292 21.3853 159.69 21.3853C158.65 21.3853 158.567 21.4269 158.318 22.0088C157.923 22.9649 157.154 23.4637 156.094 23.4637C154.93 23.4637 154.057 23.0064 153.6 22.1543C153.06 21.1567 153.06 17.3949 153.621 16.4804C154.764 14.5892 157.403 14.7346 158.235 16.7506C158.526 17.4157 158.567 17.4365 159.752 17.4365H160.978L160.791 16.6467C160.687 16.231 160.604 15.8154 160.604 15.7322C160.604 15.3374 158.962 13.7994 158.214 13.4669C157.216 13.0096 155.034 12.9681 153.87 13.3837Z" fill="white"/>
<path id="Vector_12" d="M95.7598 13.4251C95.7598 13.529 96.6742 16.2309 97.7758 19.4523L99.8125 25.334H100.976C101.912 25.334 102.182 25.2509 102.307 24.9599C102.369 24.7728 103.263 22.2165 104.281 19.3068C105.299 16.3971 106.172 13.8408 106.255 13.633C106.38 13.3212 106.255 13.2796 105.029 13.2796H103.678L103.159 14.9839C102.868 15.9399 102.307 17.8312 101.891 19.1821C101.496 20.5538 101.122 21.7177 101.06 21.7592C100.935 21.8839 100.769 21.4267 99.48 17.0622L98.3785 13.2796H97.0691C96.3417 13.2796 95.7598 13.342 95.7598 13.4251Z" fill="white"/>
<path id="Vector_13" d="M145.225 19.3068V25.334H146.576H147.926V19.3068V13.2796H146.576H145.225V19.3068Z" fill="white"/>
<path id="Vector_14" d="M163.1 17.8938C163.1 22.3622 163.12 22.57 163.598 23.6092C164.305 25.1056 165.303 25.6044 167.36 25.5005C168.566 25.4381 169.023 25.3134 169.709 24.8562L170.582 24.295V24.8146C170.582 25.3134 170.644 25.3342 171.829 25.3342H173.076V19.307V13.2799H171.829H170.582V17.6028C170.582 22.3206 170.54 22.5285 169.335 23.152C169.002 23.3182 168.295 23.4637 167.776 23.4637C167.007 23.4637 166.716 23.3598 166.321 22.9233C165.801 22.3622 165.801 22.3622 165.801 17.8314V13.2799H164.451H163.1V17.8938Z" fill="white"/>
<path id="Vector_15" d="M139.24 22.9648C138.908 23.1934 138.783 23.4844 138.783 24.0871C138.783 24.6898 138.908 24.9808 139.24 25.2094C140.342 25.9784 141.693 25.3133 141.693 24.004C141.693 23.1726 141.111 22.6323 140.238 22.6323C139.947 22.6323 139.49 22.7778 139.24 22.9648Z" fill="white"/>
</g>
</g>
</svg>
