<svg width="67" height="90" viewBox="0 0 67 90" fill="none" xmlns="http://www.w3.org/2000/svg">
<path d="M34.7396 12.2959C34.0561 12.2703 33.4994 11.7182 33.4994 11.0342V2.99738C33.4994 1.89294 32.1632 1.34081 31.3836 2.12312L18.0634 15.4894C17.5817 15.9727 17.5817 16.7546 18.0634 17.2379L31.3836 30.6042C32.1632 31.3865 33.4994 30.8343 33.4994 29.7299V21.6931C33.4994 21.0091 34.0545 20.4513 34.7377 20.4856C47.6583 21.1342 57.9604 31.8757 57.9604 45C57.9604 48.8036 57.0967 52.434 55.5283 55.6356C55.2877 56.1266 55.371 56.7197 55.7569 57.1071L59.9654 61.33C60.5258 61.8924 61.4643 61.7898 61.8571 61.0998C64.6439 56.2043 66.1157 50.6557 66.1141 45C66.1141 27.3349 52.184 12.9496 34.7396 12.2959ZM33.4994 68.3069C33.4994 68.9909 32.9444 69.5487 32.2612 69.5144C19.3406 68.8658 9.03844 58.1242 9.03844 45C9.03844 41.1964 9.90217 37.566 11.4706 34.3644C11.7112 33.8734 11.6279 33.2802 11.2419 32.8929L7.03352 28.67C6.47306 28.1076 5.53462 28.2102 5.14181 28.9002C2.355 33.7957 0.883198 39.3443 0.884767 45C0.884767 62.6651 14.8149 77.0504 32.2593 77.7041C32.9428 77.7297 33.4994 78.2818 33.4994 78.9658V87.0026C33.4994 88.1071 34.8356 88.6592 35.6153 87.8769L48.9355 74.5106C49.4172 74.0273 49.4172 73.2454 48.9355 72.7621L35.6153 59.3958C34.8356 58.6135 33.4994 59.1657 33.4994 60.2701V68.3069Z" fill="#5AC5F2"/>
</svg>
