<svg width="142" height="29" viewBox="0 0 142 29" fill="none" xmlns="http://www.w3.org/2000/svg">
<g id="Frame 409">
<path id="Vector" d="M0.0757414 23.4073L4.60516 17.9866C7.37797 20.0982 10.5347 20.9879 13.5117 20.9879C15.0382 20.9879 15.7009 20.5811 15.7009 19.894V19.8178C15.7009 19.0805 14.9118 18.6981 12.1892 18.1389C6.48823 16.9689 1.47586 15.3402 1.47586 9.96982V9.89364C1.47586 5.05799 5.24199 1.31623 12.2654 1.31623C17.1772 1.31623 20.791 2.4863 23.7421 4.80204L19.5676 10.5533C17.3429 8.95065 14.6751 8.07911 11.9333 8.05933C10.6611 8.05933 10.0746 8.49201 10.0746 9.10294V9.17911C10.0746 9.8647 10.7602 10.2989 13.4599 10.8093C19.9744 12.0052 24.3256 13.8868 24.3256 19.0287V19.0789C24.3256 24.4234 19.9074 27.6807 13.1033 27.6807C7.93862 27.7066 3.30713 26.2562 0.0742188 23.4057L0.0757414 23.4073ZM32.8009 9.00391H25.3204V1.80224H48.7826V9.00391H41.3022V27.2252H32.8009V9.00391ZM69.8788 18.5716C72.9563 17.0694 74.8912 14.4992 74.8912 10.8093V10.7331C74.8912 8.11265 74.102 6.22806 72.5754 4.69997C70.7929 2.91745 67.918 1.79919 63.4145 1.79919H50.9978V27.2221H59.4991V19.9702H61.306L66.0898 27.2221H75.7855L69.8788 18.5716ZM66.4174 11.4202C66.4174 12.9742 65.1711 13.8883 63.1601 13.8883H59.4975V8.92621H63.2149C65.1742 8.92621 66.4448 9.71539 66.4448 11.3699V11.4202H66.4174ZM87.8959 0.731201L74.1797 27.2252H83.2903L87.8959 17.9622L92.5015 27.2252H101.612L87.8959 0.731201ZM128.208 0.731201L114.492 27.2252H123.603L128.208 17.9622L132.814 27.2252H141.924L128.208 0.731201ZM108.052 28.2688L121.794 1.77481H112.684L108.078 11.0378L103.446 1.77481H94.3358L108.052 28.2688Z" fill="#FC6100"/>
</g>
</svg>
